<?xml version="1.0" standalone="no"?>
<!DOCTYPE svg PUBLIC "-//W3C//DTD SVG 20010904//EN"
 "http://www.w3.org/TR/2001/REC-SVG-20010904/DTD/svg10.dtd">
<svg version="1.0" xmlns="http://www.w3.org/2000/svg"
 width="500.000000pt" height="500.000000pt" viewBox="0 0 500.000000 500.000000"
 preserveAspectRatio="xMidYMid meet">

<g transform="translate(0.000000,500.000000) scale(0.100000,-0.100000)"
fill="#000000" stroke="none">
<path d="M1973 4763 c30 -5 33 -12 15 -32 -10 -11 -10 -12 -1 -7 7 4 18 16 23
27 10 17 7 19 -27 18 -30 -2 -32 -3 -10 -6z"/>
<path d="M2043 4730 c0 -25 2 -35 4 -22 2 12 2 32 0 45 -2 12 -4 2 -4 -23z"/>
<path d="M2240 4760 c0 -6 11 -8 28 -4 39 10 40 14 4 14 -18 0 -32 -5 -32 -10z"/>
<path d="M2418 4725 c2 -25 7 -45 11 -45 3 0 5 18 3 40 -4 35 -1 40 16 40 21
0 38 -32 27 -50 -3 -5 -1 -10 4 -10 14 0 14 26 1 51 -7 12 -21 19 -38 19 -26
0 -27 -2 -24 -45z"/>
<path d="M2522 4761 c-18 -11 -11 -73 8 -79 12 -4 13 -2 3 9 -21 21 -16 59 10
69 12 5 15 9 7 9 -8 0 -21 -3 -28 -8z"/>
<path d="M2669 4735 c-3 -28 -9 -41 -21 -43 -15 -3 -18 4 -18 35 -1 32 -2 35
-11 19 -8 -13 -8 -25 0 -42 21 -47 65 -19 59 38 -4 33 -4 33 -9 -7z"/>
<path d="M2757 4763 c-12 -11 -8 -21 16 -43 22 -21 22 -22 3 -36 -21 -15 -18
-18 8 -8 22 8 20 27 -4 49 -26 23 -25 33 3 38 20 4 20 4 1 6 -11 0 -24 -2 -27
-6z"/>
<path d="M2820 4735 c0 -22 5 -47 10 -55 7 -11 10 -4 10 25 0 22 -5 47 -10 55
-7 11 -10 4 -10 -25z"/>
<path d="M2880 4751 c0 -11 -8 -22 -17 -24 -14 -4 -12 -5 5 -6 17 -1 22 4 22
24 0 14 -2 25 -5 25 -3 0 -5 -9 -5 -19z"/>
<path d="M2921 4754 c0 -11 3 -14 6 -6 3 7 2 16 -1 19 -3 4 -6 -2 -5 -13z"/>
<path d="M2980 4734 c0 -22 -6 -46 -12 -54 -11 -12 -10 -12 4 -1 21 16 34 69
19 84 -8 8 -11 0 -11 -29z"/>
<path d="M2167 4754 c-10 -11 -9 -46 2 -39 5 3 13 -5 17 -17 7 -22 8 -22 20 7
7 17 13 37 13 45 0 8 -6 2 -13 -15 -13 -29 -17 -28 -28 13 -2 7 -7 10 -11 6z"/>
<path d="M2251 4703 c-1 -30 2 -33 27 -32 22 1 23 2 5 6 -14 3 -23 13 -26 31
-4 24 -4 24 -6 -5z"/>
<path d="M1965 4699 c-4 -6 -5 -12 -2 -15 2 -3 7 2 10 11 7 17 1 20 -8 4z"/>
<path d="M2140 4701 c0 -5 5 -13 10 -16 6 -3 10 -2 10 4 0 5 -4 13 -10 16 -5
3 -10 2 -10 -4z"/>
<path d="M2930 4701 c0 -6 4 -13 10 -16 6 -3 7 1 4 9 -7 18 -14 21 -14 7z"/>
<path d="M2210 4529 c-230 -37 -302 -56 -460 -119 -279 -111 -496 -256 -708
-473 -142 -144 -194 -212 -297 -382 -134 -222 -217 -432 -260 -653 -79 -403
-46 -802 94 -1155 62 -156 172 -353 263 -475 75 -99 241 -275 323 -342 182
-148 479 -313 692 -382 227 -75 429 -103 677 -95 228 8 347 29 576 104 182 59
501 241 645 367 88 79 236 232 295 305 79 100 198 294 255 416 98 209 162 439
180 645 3 36 8 91 11 122 7 64 -11 293 -32 413 -28 160 -45 222 -98 357 -71
185 -164 356 -290 533 -128 180 -379 411 -587 540 -173 108 -443 216 -619 249
-172 33 -528 46 -660 25z m208 -82 l3 -46 -61 2 c-68 2 -79 22 -12 22 37 0 42
3 42 23 0 21 -4 22 -65 21 l-65 -2 0 -45 c0 -55 -15 -45 -23 15 l-5 42 42 6
c54 7 119 12 131 10 6 -1 11 -22 13 -48z m130 47 l52 -7 0 -44 0 -44 -50 3
c-34 2 -50 7 -50 17 0 10 9 12 34 7 26 -5 35 -3 40 10 11 30 6 34 -43 34 l-50
0 6 -35 c3 -21 1 -35 -5 -35 -14 0 -22 25 -22 66 0 38 0 38 88 28z m-348 -58
c0 -43 -1 -44 -37 -49 -21 -4 -53 -9 -71 -13 -29 -6 -33 -4 -43 25 -7 20 -18
31 -30 31 -10 0 -19 -1 -19 -2 7 -38 30 -103 36 -101 5 0 54 9 109 19 125 23
447 26 575 6 150 -24 418 -97 443 -121 20 -20 -48 -16 -115 6 -177 58 -357 93
-495 96 l-78 2 -3 -122 -3 -123 47 0 46 0 -6 33 c-13 63 -18 137 -12 153 14
35 24 -4 29 -113 l6 -112 -52 -3 c-48 -3 -52 -5 -55 -30 -4 -38 -20 -35 -30 5
-7 28 -13 32 -45 35 -35 3 -37 2 -37 -27 0 -16 -4 -33 -10 -36 -6 -4 -10 31
-10 98 0 122 9 197 23 197 6 0 8 -36 4 -101 l-5 -100 40 3 41 3 0 118 c-1 65
-3 120 -5 122 -8 9 -255 -14 -333 -30 -280 -59 -586 -212 -801 -403 -48 -42
-92 -84 -97 -93 -9 -14 5 -32 77 -100 49 -46 92 -85 97 -87 4 -2 14 9 22 24
14 27 13 28 -62 100 -42 40 -73 76 -69 80 10 9 171 -135 227 -203 24 -29 51
-53 60 -53 9 0 23 -4 31 -10 12 -7 12 -12 -4 -29 -11 -12 -25 -21 -33 -21 -8
0 -20 -6 -28 -13 -11 -11 -9 -19 12 -45 13 -18 29 -32 35 -32 5 0 33 21 62 46
102 93 323 215 451 249 101 27 216 45 288 45 66 0 67 0 67 28 0 15 4 34 10 42
8 13 10 13 14 0 3 -8 6 -26 8 -40 2 -20 9 -26 33 -27 216 -18 362 -51 493
-114 102 -49 273 -158 325 -207 l28 -26 184 189 c101 105 184 195 185 200 0
13 -114 115 -187 168 -28 21 -54 43 -56 50 -2 7 -2 -27 1 -75 4 -68 1 -98 -12
-132 -20 -52 -75 -98 -120 -102 -17 -1 -53 -12 -80 -24 -36 -16 -67 -22 -121
-22 -84 1 -132 18 -186 67 l-39 35 -103 0 c-81 0 -111 4 -140 19 -21 11 -64
22 -95 26 -48 5 -69 15 -118 51 -77 57 -126 124 -90 124 12 0 104 -64 116 -82
3 -4 22 -14 43 -23 48 -20 117 -11 117 15 0 29 11 50 25 50 23 0 27 -18 9 -45
-16 -24 -16 -25 9 -25 13 0 37 10 53 22 l29 22 -19 -22 c-23 -26 -24 -26 45
-6 51 15 85 15 174 -2 l30 -5 -26 24 c-17 16 -45 26 -77 31 -27 3 -61 15 -75
26 l-25 20 -27 -31 c-14 -17 -28 -29 -31 -26 -3 3 -2 26 1 51 5 33 15 52 33
67 31 24 65 21 70 -6 6 -30 33 -56 56 -53 12 2 30 23 47 56 35 68 54 89 104
115 56 28 135 28 205 -2 121 -51 165 -74 195 -98 39 -33 134 -93 146 -93 5 0
24 20 41 45 36 51 35 52 123 -29 37 -34 54 -55 44 -56 -9 0 -40 21 -68 46 -52
47 -56 47 -98 10 -31 -26 -29 -39 10 -69 112 -89 266 -267 346 -399 13 -21 28
-38 34 -38 13 0 77 43 77 52 0 10 -74 118 -108 158 -23 26 -33 32 -42 24 -12
-12 29 -83 82 -140 24 -25 26 -32 14 -37 -10 -4 -24 8 -43 40 -15 25 -43 63
-62 85 l-35 39 29 25 28 24 25 -22 c26 -25 142 -194 142 -208 0 -5 -22 -23
-50 -41 l-50 -32 20 -31 c11 -17 36 -64 56 -104 31 -65 37 -72 57 -66 29 9 34
14 21 22 -11 7 -54 85 -54 97 0 3 4 5 10 5 5 0 19 -21 31 -47 12 -27 25 -56
30 -65 7 -14 3 -21 -20 -33 l-29 -15 21 -51 c12 -28 27 -53 33 -56 16 -6 84
26 84 40 0 21 -30 56 -43 51 -9 -3 -12 -17 -10 -37 l4 -32 -15 25 c-22 36 -20
49 9 56 14 3 25 10 25 14 0 22 -65 149 -77 152 -12 3 -12 6 -1 21 13 17 16 15
40 -30 30 -55 98 -220 98 -237 0 -7 -25 -20 -55 -30 -30 -9 -55 -19 -55 -22 0
-3 6 -17 14 -33 8 -15 21 -59 29 -97 l14 -69 44 3 c24 2 47 7 51 10 6 7 -26
159 -36 169 -2 3 -13 0 -24 -6 -20 -11 -20 -11 -1 -62 11 -29 18 -58 15 -66
-11 -26 -24 -4 -31 52 -5 45 -11 58 -28 64 -19 7 -16 11 27 30 27 12 50 20 52
18 7 -7 54 -182 54 -202 0 -19 -7 -23 -52 -28 -28 -4 -56 -11 -61 -16 -19 -19
4 -27 60 -20 32 3 59 5 61 4 7 -6 32 -187 32 -236 l0 -56 -37 3 c-53 3 -53 3
-53 14 0 6 16 10 35 10 41 0 40 -5 24 140 l-12 101 -51 -3 c-39 -2 -50 -6 -48
-18 2 -8 6 -64 8 -125 8 -163 4 -155 74 -155 l60 0 0 -100 c0 -93 -1 -100 -20
-100 -17 0 -18 3 -10 26 6 14 10 41 10 60 0 31 -3 35 -22 32 -21 -3 -23 -9
-26 -82 l-3 -78 31 4 31 5 -6 -51 c-13 -111 -12 -108 -58 -101 -23 4 -43 8
-44 9 -1 1 3 21 8 45 5 25 13 92 17 150 l7 106 31 3 c22 2 34 9 37 23 5 18 1
20 -51 17 l-57 -3 -7 -121 c-4 -67 -11 -148 -17 -180 -5 -32 -7 -62 -5 -66 2
-4 29 -12 60 -18 44 -9 54 -15 50 -28 -3 -9 -12 -46 -21 -82 -22 -86 -28 -92
-68 -72 -18 8 -33 16 -35 17 -6 5 30 105 39 111 12 7 11 -5 -5 -59 -14 -47
-12 -57 9 -57 20 0 62 128 47 141 -4 4 -25 9 -48 13 l-41 6 -27 -87 c-14 -47
-25 -88 -23 -90 2 -2 28 -12 58 -23 60 -21 61 -24 29 -95 -99 -219 -108 -233
-126 -203 -4 6 -2 14 4 16 11 3 40 60 72 142 8 19 22 49 32 65 10 17 18 33 18
37 0 5 -84 38 -97 38 -5 0 -53 -111 -53 -121 0 -5 8 -9 18 -9 44 -1 46 -15 11
-81 -19 -35 -40 -69 -48 -75 -18 -14 -7 -44 19 -51 21 -6 25 -20 11 -41 -6
-11 -14 -8 -36 12 -15 14 -32 26 -36 26 -18 0 -8 22 43 96 41 61 48 78 37 85
-24 15 -39 10 -49 -17 -6 -14 -28 -57 -50 -94 -22 -38 -40 -73 -40 -79 0 -5
23 -22 50 -37 28 -15 50 -30 50 -34 0 -7 -23 -43 -92 -142 l-40 -57 -39 26
c-41 27 -48 40 -25 49 8 3 33 32 55 64 28 40 47 57 56 53 19 -7 20 -23 1 -23
-17 0 -89 -107 -81 -120 14 -22 35 -6 84 66 58 84 57 94 -7 115 -32 10 -37 10
-47 -6 -39 -68 -149 -199 -258 -309 l-128 -130 29 -35 c16 -20 34 -36 39 -36
13 0 113 93 113 104 0 5 -6 14 -14 20 -10 9 -22 2 -55 -34 -23 -25 -46 -43
-51 -40 -17 11 -11 21 40 64 50 42 51 42 76 26 44 -28 41 -43 -20 -97 -63 -56
-197 -158 -235 -178 -23 -12 -27 -10 -60 29 -20 23 -40 41 -44 41 -5 0 -41
-19 -80 -43 -40 -24 -90 -51 -112 -61 -22 -10 -53 -25 -70 -33 -40 -19 -163
-60 -255 -83 -165 -43 -260 -54 -462 -54 l-198 -1 0 -47 c0 -48 0 -48 34 -48
18 0 48 -3 65 -6 26 -6 31 -4 31 13 0 17 -9 22 -50 27 -71 10 -62 26 15 26
l65 0 0 -45 0 -45 -66 0 c-36 0 -84 4 -107 9 -23 5 -80 15 -127 21 -47 6 -98
16 -113 22 -26 10 -28 15 -22 42 17 82 18 96 4 96 -31 0 -174 52 -265 95 -53
26 -97 45 -98 43 -12 -16 -46 -77 -46 -81 0 -3 21 -16 46 -28 45 -23 60 -36
52 -45 -5 -5 -163 79 -229 122 l-47 30 29 35 c43 51 38 68 -34 117 -36 24 -70
40 -78 37 -8 -3 -26 -24 -42 -46 l-28 -40 -27 20 c-15 10 -51 41 -81 68 l-54
50 19 25 c10 15 27 31 36 37 15 9 18 8 18 -9 0 -11 3 -20 8 -20 18 -1 85 -67
78 -78 -5 -8 -22 3 -52 34 -43 43 -46 45 -59 27 -17 -22 -19 -33 -5 -33 6 0
31 -19 56 -42 50 -46 60 -45 97 4 l20 26 -109 109 c-96 95 -236 258 -275 321
-8 12 -19 22 -26 22 -13 0 -83 -39 -83 -47 0 -13 116 -146 131 -150 11 -3 19
-9 19 -13 0 -9 -40 -25 -44 -18 -1 1 -20 28 -42 58 -22 30 -52 72 -67 92 -15
20 -27 39 -27 42 0 3 24 18 53 32 28 15 53 28 55 29 2 1 -9 23 -23 49 -14 25
-37 67 -51 94 -36 66 -38 67 -84 53 -48 -14 -50 -28 -10 -87 26 -39 31 -74 10
-74 -13 0 -111 221 -108 243 2 17 8 11 27 -28 13 -27 25 -51 27 -53 5 -7 84
39 84 49 0 6 -10 33 -21 60 -20 46 -40 61 -53 40 -3 -5 -18 -12 -33 -16 -15
-3 -31 -12 -35 -18 -4 -6 -10 -9 -13 -5 -11 11 -65 201 -65 229 0 25 4 27 55
34 64 8 62 -1 40 150 -8 55 -15 130 -15 167 l0 67 -65 3 c-36 2 -65 8 -65 13
0 6 29 11 65 13 l65 3 0 52 c0 29 7 106 15 171 8 66 14 120 12 122 -1 1 -26 5
-54 9 l-53 7 0 -37 c0 -20 -4 -66 -9 -103 -6 -37 -12 -88 -14 -114 -4 -47 -4
-48 24 -48 15 0 31 -4 34 -10 4 -6 -10 -10 -34 -10 l-41 0 0 80 c0 67 25 258
35 268 2 2 29 -1 61 -7 57 -11 83 -4 70 17 -3 6 -20 13 -36 17 -36 8 -35 6
-10 74 21 58 19 71 -9 71 -13 0 -22 -17 -35 -70 -19 -72 -36 -100 -36 -58 0
78 192 536 229 547 10 3 8 -7 -8 -32 -14 -23 -20 -44 -16 -57 4 -14 2 -20 -9
-20 -16 0 -27 -21 -85 -159 -25 -58 -29 -76 -19 -83 24 -15 35 -8 48 32 14 43
36 56 26 15 -3 -14 -9 -36 -12 -50 -5 -20 -3 -25 13 -25 14 0 24 13 36 48 22
61 22 59 -14 78 -21 10 -28 19 -21 26 7 7 18 5 35 -6 19 -13 26 -14 34 -4 23
30 103 200 98 208 -3 5 -26 19 -50 31 -25 12 -45 25 -45 29 0 26 141 227 221
314 l51 56 30 -31 31 -30 -44 -45 c-26 -27 -47 -40 -52 -35 -6 6 5 22 27 41
37 33 47 60 21 60 -21 0 -95 -71 -95 -92 0 -9 9 -24 21 -32 l21 -14 -27 -36
c-15 -20 -31 -33 -36 -30 -5 3 -10 0 -10 -5 -1 -6 -2 -14 -3 -18 0 -5 -13 -27
-27 -51 -20 -35 -27 -41 -36 -30 -9 10 2 31 47 90 48 63 56 79 45 88 -8 7 -18
9 -23 6 -11 -6 -132 -181 -132 -190 0 -12 94 -59 97 -49 3 7 36 60 76 120 48
74 110 147 194 233 68 68 123 126 123 129 0 3 -14 20 -32 38 l-32 33 -36 -38
c-19 -21 -48 -47 -63 -58 l-29 -20 26 -31 c14 -17 26 -34 26 -37 0 -15 -29 -3
-54 23 -26 27 -27 30 -12 53 26 40 201 189 254 217 21 11 27 10 48 -10 34 -32
29 -50 -22 -83 -37 -23 -48 -26 -55 -15 -5 9 -4 16 4 19 30 12 67 44 67 56 0
23 -30 16 -61 -15 -19 -20 -35 -27 -49 -24 -27 7 -25 -1 10 -53 l31 -44 74 50
c41 28 75 53 75 55 0 2 -13 26 -30 52 -16 26 -30 50 -30 54 0 8 183 113 224
129 23 8 31 8 37 -2 5 -8 3 -14 -4 -17 -26 -7 -104 -46 -146 -73 -25 -15 -53
-28 -63 -28 -10 0 -18 -2 -18 -5 0 -12 40 -84 50 -90 13 -8 131 65 124 76 -9
16 -39 10 -77 -16 -20 -14 -37 -24 -37 -21 0 2 -3 11 -6 20 -4 11 0 16 14 16
11 0 34 13 50 30 l30 29 23 -30 24 -31 40 21 c98 50 190 86 284 111 47 12 46
7 26 106 -7 30 -5 31 37 42 62 16 129 30 156 31 20 1 22 -4 22 -43z m610 29
c41 -9 92 -18 113 -22 32 -5 37 -9 37 -32 0 -15 -6 -36 -14 -46 -14 -19 -15
-19 -70 -2 -31 10 -88 21 -127 24 -44 4 -68 10 -66 17 2 6 13 10 23 9 73 -8
165 -24 188 -33 32 -12 46 -6 46 18 0 14 -23 21 -127 40 -156 27 -153 27 -153
0 0 -26 -16 -55 -25 -47 -3 4 -3 25 1 48 l7 41 46 0 c25 0 80 -7 121 -15z
m-870 -71 c19 -49 13 -59 -42 -73 -29 -7 -63 -19 -74 -27 -19 -11 -24 -11 -37
4 -9 9 -18 28 -22 42 -6 25 -2 27 67 52 92 33 96 34 108 2z m1228 -31 c25 -6
27 -14 10 -60 -9 -24 -16 -32 -28 -27 -8 4 -36 14 -62 23 -26 9 -48 22 -48 29
0 15 25 10 73 -15 30 -15 50 -9 45 14 -2 12 -130 69 -133 60 -9 -27 -37 -78
-41 -74 -4 3 1 28 11 56 l16 50 67 -26 c37 -14 77 -28 90 -30z m-1429 -53 l21
-40 -48 -23 c-26 -12 -50 -26 -54 -32 -5 -6 -12 -4 -18 5 -15 23 -13 25 35 38
l45 12 -6 40 c-4 22 -4 40 -1 40 3 0 14 -18 26 -40z m1722 -101 c22 -16 22
-18 5 -43 -25 -38 -41 -41 -78 -14 -18 14 -41 23 -50 21 -21 -5 -22 1 -7 28
10 20 11 20 36 -5 30 -31 61 -42 76 -27 6 6 9 12 6 14 -2 1 -20 14 -39 28 -19
15 -58 38 -87 52 -28 15 -55 32 -58 38 -5 6 -13 2 -23 -12 -14 -20 -14 -23 3
-35 10 -8 27 -14 37 -14 17 0 25 -20 12 -32 -3 -3 -25 5 -49 19 -41 23 -43 26
-34 51 21 56 25 56 129 0 54 -28 108 -59 121 -69z m-1165 60 c3 -6 2 -15 -2
-19 -12 -12 -38 5 -30 19 9 14 23 14 32 0z m361 -5 c9 -23 -11 -38 -26 -20
-13 16 -7 36 10 36 5 0 12 -7 16 -16z m-497 -25 c0 -20 -24 -26 -35 -9 -8 13
14 42 26 34 5 -3 9 -14 9 -25z m638 -35 c15 -26 3 -56 -21 -52 -29 4 -44 32
-28 52 17 21 38 20 49 0z m92 -4 c0 -21 -24 -28 -35 -10 -8 14 3 30 21 30 8 0
14 -9 14 -20z m-863 -5 c17 -12 21 -24 19 -66 -2 -37 -8 -56 -21 -65 -30 -22
-77 -17 -107 11 -23 21 -25 28 -18 62 15 65 77 93 127 58z m633 -41 c0 -14
-21 -19 -33 -7 -9 9 13 34 24 27 5 -3 9 -12 9 -20z m914 -16 c77 -61 78 -63
42 -97 l-24 -22 -41 28 c-22 15 -40 31 -41 36 0 16 28 6 50 -18 27 -29 38 -31
47 -9 4 11 -8 29 -36 54 l-41 38 -34 -41 c-19 -23 -38 -39 -42 -35 -3 4 1 14
10 23 9 10 23 30 31 46 9 16 20 29 26 29 6 0 30 -15 53 -32z m-1784 -3 c0 -8
-4 -15 -9 -15 -13 0 -22 16 -14 24 11 11 23 6 23 -9z m330 -40 c0 -20 -48 -91
-102 -149 -10 -11 -18 -22 -18 -25 0 -18 114 -121 133 -121 7 0 4 7 -6 15 -21
15 -17 44 9 70 18 17 150 22 139 5 -3 -5 -27 -10 -51 -10 -45 0 -46 0 -39 -29
5 -24 1 -32 -23 -50 -17 -12 -35 -21 -41 -21 -6 0 -39 27 -74 60 l-64 60 -71
-78 c-72 -80 -121 -108 -167 -96 -11 2 -36 6 -55 8 -19 2 -38 4 -42 5 -14 2
-56 77 -67 119 -10 34 -8 49 8 91 21 56 33 70 82 100 40 25 111 28 161 6 37
-15 92 -71 110 -111 6 -13 14 -24 18 -24 7 0 77 80 118 134 12 16 22 41 22 54
0 13 4 20 10 17 6 -3 10 -17 10 -30z m560 -16 c0 -10 -6 -19 -14 -19 -19 0
-30 31 -14 41 17 10 28 2 28 -22z m-480 -14 c0 -8 -4 -15 -10 -15 -5 0 -10 7
-10 15 0 8 5 15 10 15 6 0 10 -7 10 -15z m-610 -26 c0 -5 -7 -9 -15 -9 -15 0
-20 12 -9 23 8 8 24 -1 24 -14z m956 -66 c-10 -10 -19 5 -10 18 6 11 8 11 12
0 2 -7 1 -15 -2 -18z m-1026 -9 c0 -8 -7 -14 -15 -14 -15 0 -21 21 -9 33 10 9
24 -2 24 -19z m726 15 c3 -6 1 -16 -5 -22 -9 -9 -14 -8 -21 3 -5 8 -10 18 -10
23 0 11 28 8 36 -4z m-1030 -60 c-46 -41 -56 -46 -56 -27 0 20 74 84 87 75 8
-6 -2 -21 -31 -48z m2510 19 c28 -20 41 -35 35 -41 -10 -10 -91 47 -91 64 0
15 9 11 56 -23z m118 -25 c8 -9 -54 -73 -72 -73 -8 0 0 16 20 40 34 41 40 45
52 33z m-2316 -30 c5 -18 -28 -29 -38 -12 -5 7 -6 17 -3 22 7 12 35 5 41 -10z
m2032 -4 c0 -18 -2 -19 -15 -9 -8 7 -15 16 -15 21 0 5 7 9 15 9 9 0 15 -9 15
-21z m-1198 -19 c1 -16 2 -37 2 -47 1 -9 -5 -18 -11 -20 -9 -3 -13 10 -13 46
0 54 19 72 22 21z m-958 4 c18 -7 21 -30 6 -39 -15 -9 -40 14 -33 31 6 16 6
16 27 8z m2525 -45 c24 -27 41 -53 37 -56 -3 -3 -30 17 -60 45 -29 28 -51 53
-48 56 13 13 29 2 71 -45z m-344 -69 c-137 -134 -215 -219 -215 -234 0 -15 -2
-15 -25 0 -35 23 -32 49 5 46 3 0 68 62 145 139 97 97 142 136 150 128 7 -7
-11 -31 -60 -79z m264 67 c6 -12 25 -31 41 -42 20 -14 26 -23 19 -31 -7 -9
-20 -1 -50 30 -37 41 -49 66 -31 66 5 0 14 -10 21 -23z m-1625 -3 c16 -6 23
-34 8 -34 -10 0 -32 22 -32 32 0 10 3 10 24 2z m-209 -34 c0 -22 -29 -18 -33
3 -3 14 1 18 15 15 10 -2 18 -10 18 -18z m-505 -71 c0 -6 -4 -7 -10 -4 -5 3
-10 11 -10 16 0 6 5 7 10 4 6 -3 10 -11 10 -16z m1790 -69 c0 -5 -4 -10 -10
-10 -5 0 -10 5 -10 10 0 6 5 10 10 10 6 0 10 -4 10 -10z m-80 -41 c0 -24 -23
-21 -28 4 -2 10 3 17 12 17 10 0 16 -9 16 -21z m-1510 -12 c0 -19 -10 -27 -26
-20 -21 8 -17 33 6 33 11 0 20 -6 20 -13z m2464 -122 c4 -10 -1 -15 -15 -15
-25 0 -36 -27 -20 -51 18 -29 -6 -23 -25 7 -17 25 -17 26 12 49 34 29 40 30
48 10z m-3355 -56 c-5 -10 -16 -19 -23 -19 -12 0 -12 6 -3 30 8 22 14 27 24
18 9 -7 10 -15 2 -29z m-39 -56 c0 -10 -10 -34 -22 -53 -27 -45 -37 -22 -13
31 19 41 35 51 35 22z m-163 -557 c-13 -10 -21 -38 -29 -107 -11 -99 -28 -141
-28 -74 0 22 5 75 12 118 11 73 13 77 37 77 24 -1 25 -2 8 -14z m3752 -89 c6
-35 11 -73 11 -85 0 -24 -18 -40 -24 -20 -10 30 -15 168 -7 168 5 0 14 -28 20
-63z m-3808 -277 c12 0 17 -25 27 -132 6 -73 14 -143 18 -155 5 -20 3 -23 -22
-23 -22 0 -25 3 -16 12 13 13 16 66 6 92 -3 9 -15 16 -26 16 -17 0 -19 -5 -13
-47 4 -27 9 -55 11 -65 3 -9 0 -19 -5 -22 -11 -7 -17 10 -26 74 -4 25 -9 53
-11 62 -4 13 3 17 28 20 44 4 45 32 1 36 -30 3 -31 6 -35 50 -5 76 0 95 25 88
12 -3 29 -6 38 -6z m135 -607 c15 -20 19 -63 5 -63 -5 0 -13 18 -19 40 -11 43
-7 50 14 23z m3542 -47 c-6 -14 -15 -26 -20 -26 -11 0 -10 11 3 50 9 26 14 29
21 17 5 -9 4 -26 -4 -41z m-3450 -157 c24 -40 41 -77 39 -83 -3 -6 -19 -19
-35 -29 -30 -17 -31 -17 -42 3 -9 18 -8 20 15 20 34 0 42 25 18 58 -21 28 -53
87 -53 97 0 19 21 -5 58 -66z m112 -179 c0 -13 -28 -25 -38 -16 -3 4 0 11 8
16 20 13 30 12 30 0z m50 -81 c27 -32 39 -54 33 -60 -6 -6 -25 12 -52 51 -51
73 -40 79 19 9z m80 -88 c0 -4 20 -30 45 -57 49 -52 52 -59 30 -68 -8 -3 -14
-2 -12 2 1 5 -16 29 -39 55 -31 35 -44 43 -52 35 -20 -20 -14 -35 33 -76 34
-30 42 -42 33 -49 -10 -8 -28 6 -68 50 l-55 60 25 16 c13 9 29 21 34 28 13 14
26 17 26 4z m2938 -44 c9 -10 -1 -26 -47 -71 -33 -33 -64 -55 -70 -52 -15 10
-14 26 2 26 8 0 25 12 38 28 51 59 52 61 39 77 -15 18 -30 20 -30 4 0 -21 -65
-84 -90 -87 -21 -3 -16 5 35 60 l60 65 26 -18 c14 -10 31 -24 37 -32z m-2583
-286 c38 -24 43 -30 30 -41 -11 -9 -19 -7 -42 14 -15 15 -36 29 -46 32 -17 5
-15 24 3 24 5 0 30 -13 55 -29z m-48 -47 c51 -39 68 -62 37 -50 -25 9 -103 69
-104 79 0 15 21 6 67 -29z m2102 -41 c7 -14 0 -22 -46 -45 -65 -32 -63 -32
-63 -15 0 8 18 21 40 30 23 9 40 22 40 31 0 21 17 20 29 -1z m35 -68 c-11 -8
-67 -41 -127 -74 -107 -60 -107 -60 -121 -38 -31 49 -29 64 8 77 19 6 37 19
41 28 6 16 8 15 21 -3 13 -17 12 -20 -8 -32 -13 -7 -31 -12 -40 -13 -20 0 -22
-8 -8 -30 8 -13 15 -12 47 6 21 11 65 36 98 54 33 18 69 39 80 47 26 18 34 -3
9 -22z m-1809 -15 c3 -5 24 -14 45 -20 44 -12 48 -25 25 -70 -10 -19 -20 -27
-30 -24 -12 5 -12 10 5 31 27 35 26 40 -19 47 -38 6 -67 27 -54 39 9 10 21 9
28 -3z m1514 -95 c7 -20 11 -38 9 -39 -1 -2 -43 -17 -91 -34 l-88 -32 -9 26
c-21 54 -23 74 -7 74 9 0 17 -14 21 -35 4 -19 8 -35 9 -35 1 0 31 11 67 24 40
15 64 29 63 38 -1 7 -5 27 -9 43 -6 25 -5 28 7 18 8 -6 20 -28 28 -48z m-1289
2 c50 -13 55 -17 58 -43 5 -58 -8 -62 -102 -30 -48 16 -86 30 -86 32 0 2 7 22
16 43 15 38 17 39 38 26 12 -8 46 -20 76 -28z m1230 9 c0 -15 -77 -39 -93 -29
-6 3 10 14 34 24 54 22 59 22 59 5z m-168 -75 l16 -49 -47 -12 c-25 -6 -62
-15 -81 -20 -51 -13 -181 -28 -287 -34 l-93 -6 0 50 c0 38 4 50 15 50 10 0 15
-11 15 -35 l0 -35 70 0 70 0 0 40 0 40 44 0 c24 0 51 3 60 6 11 4 16 1 16 -10
0 -13 -11 -16 -50 -16 -47 0 -50 -1 -50 -26 0 -26 0 -26 63 -19 34 4 66 9 70
12 4 3 7 19 5 36 -3 31 -2 32 51 39 30 5 56 6 59 4 12 -12 -14 -26 -49 -26
-35 0 -39 -2 -39 -25 0 -24 2 -26 38 -19 66 13 87 21 84 35 -20 83 -5 98 20
20z m-362 -31 c0 -17 -7 -20 -40 -20 -46 0 -52 11 -12 27 41 16 52 15 52 -7z"/>
<path d="M2100 4441 c-49 -8 -55 -41 -8 -40 51 2 83 13 86 32 4 18 -12 20 -78
8z"/>
<path d="M3075 4125 c-45 -24 -85 -66 -101 -105 -25 -60 -11 -69 26 -17 47 66
87 87 163 87 50 0 70 -5 112 -31 75 -45 100 -88 100 -174 0 -59 -4 -78 -28
-117 -15 -27 -25 -48 -22 -48 16 0 56 35 80 70 23 33 27 50 27 105 -1 121 -23
154 -137 206 -86 39 -175 48 -220 24z"/>
<path d="M3095 4036 c-45 -20 -76 -59 -82 -105 -15 -110 133 -196 205 -118 37
40 37 70 2 111 -35 40 -54 44 -88 20 -25 -17 -29 -56 -7 -74 16 -14 35 -6 35
16 0 19 24 18 40 -1 10 -13 10 -19 -4 -34 -24 -26 -48 -31 -83 -16 -68 29 -61
127 11 162 44 21 80 11 124 -33 33 -33 34 -37 30 -89 -11 -131 -133 -161 -270
-67 -25 17 -63 34 -84 37 -64 8 -267 -8 -272 -22 -3 -10 27 -13 127 -13 71 0
140 -4 153 -9 13 -5 42 -25 65 -44 109 -91 272 -60 325 61 24 54 19 118 -12
162 -42 59 -147 86 -215 56z"/>
<path d="M3594 3623 c-83 -87 -166 -175 -184 -196 l-33 -38 22 -22 22 -22 92
95 c51 52 104 109 118 125 49 58 163 157 167 145 3 -7 -38 -55 -90 -108 -52
-54 -134 -138 -182 -188 l-87 -91 59 -83 c62 -86 122 -197 122 -224 0 -30 -28
-16 -40 20 -13 37 -146 244 -158 244 -3 0 -19 -12 -35 -27 l-29 -28 4 25 c1
13 13 30 26 36 l22 11 -31 32 -31 33 -28 -33 -27 -34 57 -65 c83 -95 184 -267
173 -296 -11 -29 -29 -11 -63 64 -34 76 -123 204 -174 251 l-26 25 -38 -37
c-61 -59 -74 -43 -19 25 l32 40 -40 35 c-100 88 -256 175 -381 212 -75 23
-214 43 -226 32 -4 -4 -5 -24 -1 -45 l6 -38 51 4 51 3 3 -87 3 -88 -56 0 -56
0 3 -41 3 -41 73 -19 c86 -22 208 -83 276 -139 26 -22 49 -40 51 -40 1 0 15
12 31 26 16 14 39 33 52 41 15 11 21 22 16 35 -13 43 47 65 79 30 10 -10 17
-23 17 -29 0 -19 -36 -42 -56 -37 -15 4 -30 -7 -62 -45 -23 -27 -42 -52 -42
-55 0 -3 22 -30 49 -61 90 -102 171 -301 171 -417 l0 -38 65 0 65 0 0 40 c0
40 0 40 -37 40 l-38 0 3 70 4 70 122 0 c82 0 126 4 134 12 25 25 43 -31 58
-175 l6 -58 36 3 37 3 -3 60 c-1 33 -5 75 -8 94 l-6 34 -17 -26 c-19 -30 -31
-26 -31 10 0 18 5 23 25 23 14 0 25 5 25 10 0 6 7 10 15 10 12 0 35 -55 35
-86 0 -9 53 -11 194 -9 192 3 194 3 200 -18 10 -37 7 -57 -9 -57 -9 0 -15 10
-15 26 0 24 -2 25 -47 22 -58 -4 -69 -28 -29 -59 14 -11 26 -27 26 -35 0 -16
54 -18 160 -7 l63 6 -7 111 c-7 125 -25 236 -38 236 -4 0 -8 18 -8 40 0 21 -9
63 -20 92 -17 46 -28 58 -72 85 -72 43 -101 53 -158 53 -63 0 -109 -22 -138
-66 -37 -57 -26 -68 21 -19 45 47 55 50 147 45 42 -2 134 -54 161 -91 13 -18
19 -48 22 -98 3 -69 1 -74 -30 -110 -106 -124 -285 -79 -336 83 -14 43 -26 62
-50 77 -51 31 -102 24 -117 -17 -12 -31 -51 -55 -100 -61 -54 -8 -53 12 4 36
31 14 46 28 54 49 22 64 90 92 136 57 29 -22 33 -19 40 28 5 31 16 53 39 75
42 40 75 52 147 52 47 0 71 -7 124 -34 36 -19 66 -31 66 -27 0 18 -65 163
-114 256 -86 161 -176 291 -262 379 -24 25 -45 46 -47 46 -1 0 -70 -71 -153
-157z m264 -46 c5 -23 -15 -47 -33 -41 -20 8 -27 34 -14 51 16 18 43 13 47
-10z m-80 -65 c4 -28 -24 -40 -45 -19 -14 13 -14 19 -3 32 18 22 44 15 48 -13z
m-992 -27 c-5 -14 -9 -15 -21 -5 -12 10 -13 16 -4 27 15 18 34 1 25 -22z
m1168 -57 c15 -21 14 -24 -3 -42 -17 -16 -23 -17 -35 -6 -19 15 -21 56 -3 63
21 9 25 8 41 -15z m-1032 -54 c4 -1 22 -2 40 -3 l32 -1 -27 -28 c-18 -19 -27
-39 -27 -60 0 -35 -6 -38 -34 -17 -17 13 -23 13 -53 -5 l-34 -20 7 35 c5 28 2
38 -19 59 -28 28 -25 36 10 36 18 0 27 8 35 32 l11 31 25 -29 c14 -16 29 -30
34 -30z m750 31 c8 -19 8 -28 -2 -40 -23 -28 -70 -12 -70 25 0 42 54 54 72 15z
m168 5 c0 -5 -7 -10 -16 -10 -8 0 -12 5 -9 10 3 6 10 10 16 10 5 0 9 -4 9 -10z
m-730 -86 c11 -12 10 -18 -3 -31 -8 -9 -23 -13 -31 -10 -19 8 -21 43 -3 50 20
9 24 8 37 -9z m485 -14 c4 -6 1 -18 -6 -26 -12 -14 -14 -14 -26 2 -10 14 -10
19 0 26 16 10 25 10 32 -2z m172 -9 c10 -15 9 -22 -6 -35 -16 -14 -20 -15 -30
-2 -10 11 -9 19 1 35 16 26 20 26 35 2z m267 -28 c4 -9 3 -20 -2 -25 -11 -11
-42 1 -42 16 0 29 34 36 44 9z m-117 -44 c14 -14 6 -39 -12 -39 -18 0 -28 17
-21 35 6 18 18 19 33 4z m-468 -23 c8 -10 8 -16 -3 -25 -10 -9 -16 -8 -26 3
-12 15 -6 36 9 36 5 0 14 -6 20 -14z m321 -12 c11 -12 10 -18 -3 -31 -21 -21
-47 -9 -47 22 0 29 29 35 50 9z m-262 -71 c-5 -26 -27 -27 -37 -1 -5 12 -7 26
-4 31 8 13 44 -14 41 -30z m-269 -7 c10 -12 9 -20 -4 -40 -20 -30 -37 -33 -55
-11 -11 13 -9 20 10 40 27 29 33 30 49 11z m116 -46 c10 -16 -16 -43 -28 -31
-11 11 -2 41 12 41 5 0 13 -5 16 -10z m199 -33 c-8 -21 -30 -22 -38 -2 -6 16
25 38 37 26 4 -4 5 -15 1 -24z m26 -56 c0 -17 -18 -21 -24 -6 -3 9 0 15 9 15
8 0 15 -4 15 -9z m-242 -90 c47 -24 75 -30 164 -36 131 -8 162 -3 185 36 31
52 77 36 129 -45 l18 -29 -37 6 c-21 3 -100 -1 -175 -9 -178 -18 -208 -18
-262 7 -50 22 -100 66 -100 86 0 19 14 16 78 -16z m490 -103 c7 -7 12 -16 12
-20 0 -9 -221 -11 -244 -2 -9 3 -16 10 -16 14 0 19 230 26 248 8z m362 -88 c0
-5 -4 -10 -10 -10 -5 0 -10 5 -10 10 0 6 5 10 10 10 6 0 10 -4 10 -10z m-343
-26 c-9 -9 -28 6 -21 18 4 6 10 6 17 -1 6 -6 8 -13 4 -17z m378 -64 c0 -8 -10
-16 -22 -18 -18 -3 -23 2 -23 18 0 16 5 21 23 18 12 -2 22 -10 22 -18z"/>
<path d="M1142 3747 l-22 -24 31 -26 c41 -34 150 -141 266 -261 91 -94 93 -95
108 -73 8 12 15 26 15 31 0 10 -360 376 -370 376 -4 0 -16 -11 -28 -23z"/>
<path d="M2218 3707 l-58 -10 0 -44 c0 -26 5 -43 12 -43 11 0 134 14 237 26
32 4 40 9 32 17 -14 14 -15 47 -1 47 6 0 10 5 10 10 0 13 -155 11 -232 -3z
m152 -37 c0 -5 -8 -10 -17 -10 -10 0 -48 -3 -85 -5 -62 -5 -79 1 -61 18 11 11
163 8 163 -3z"/>
<path d="M2475 3680 c0 -22 2 -40 5 -41 3 0 19 -2 35 -4 97 -10 227 -25 237
-28 11 -2 31 73 22 82 -9 10 -157 30 -224 30 l-76 1 1 -40z m234 -10 c14 -3
27 -12 29 -19 3 -10 -4 -11 -29 -6 -18 4 -64 10 -102 14 -44 4 -72 11 -75 19
-3 10 12 12 74 6 44 -4 90 -10 103 -14z"/>
<path d="M1081 3675 c-64 -73 -210 -308 -259 -415 -48 -107 -92 -226 -92 -249
0 -14 -11 -61 -25 -103 -24 -75 -37 -160 -50 -324 l-7 -81 108 -6 c99 -6 110
-4 129 13 27 26 61 25 77 0 11 -17 24 -20 78 -20 36 0 82 3 103 6 36 6 37 8
37 50 0 42 -1 44 -29 44 -16 0 -36 3 -45 6 -12 5 -16 0 -16 -19 0 -33 -10 -38
-46 -27 -24 7 -25 8 -7 9 17 1 22 8 25 33 l3 32 62 -3 62 -2 6 38 c10 56 13
63 31 63 13 0 15 -6 10 -27 -4 -16 -9 -64 -13 -109 l-6 -81 29 -6 c44 -8 54 1
55 52 0 25 6 75 13 111 9 50 16 65 29 64 9 0 92 -1 183 -2 147 -2 165 -4 154
-17 -7 -8 -23 -15 -35 -15 -25 0 -35 -22 -35 -77 0 -31 -2 -33 -35 -33 -34 0
-35 -1 -35 -40 l0 -40 64 0 64 0 12 73 c27 168 85 295 188 409 l34 38 -44 49
c-30 36 -51 50 -69 51 -32 0 -52 21 -47 49 3 19 -65 101 -85 101 -23 0 -139
-159 -195 -267 -43 -84 -72 -116 -72 -79 0 32 97 197 165 282 l74 92 -31 28
-30 29 -44 -50 c-57 -65 -132 -175 -170 -247 -29 -59 -44 -72 -44 -40 0 37 76
172 154 275 l25 32 -189 193 -188 192 -31 -35z m29 -110 c0 -8 -7 -15 -15 -15
-8 0 -15 7 -15 15 0 8 7 15 15 15 8 0 15 -7 15 -15z m70 -21 c0 -17 -22 -14
-28 4 -2 7 3 12 12 12 9 0 16 -7 16 -16z m65 -54 c3 -6 -1 -13 -10 -16 -19 -8
-30 0 -20 15 8 14 22 14 30 1z m-135 -20 c0 -21 -24 -28 -35 -10 -8 14 3 30
21 30 8 0 14 -9 14 -20z m90 -85 c13 -46 14 -47 100 -58 9 -1 -1 -12 -23 -26
-40 -25 -41 -27 -20 -95 5 -18 4 -18 -23 1 -16 11 -34 23 -40 26 -6 3 -28 -5
-48 -19 -21 -14 -39 -24 -42 -22 -2 3 1 20 6 39 10 32 8 36 -25 65 -35 31 -35
32 -13 38 13 3 35 6 49 6 23 0 28 6 39 45 7 25 16 45 20 45 4 0 13 -20 20 -45z
m-194 24 c7 -12 -15 -31 -28 -23 -4 3 -8 12 -8 20 0 17 26 19 36 3z m364 -29
c0 -5 -7 -10 -15 -10 -8 0 -15 5 -15 10 0 6 7 10 15 10 8 0 15 -4 15 -10z
m-380 -65 c0 -8 -4 -15 -9 -15 -13 0 -22 16 -14 24 11 11 23 6 23 -9z m400
-25 c0 -5 -7 -10 -15 -10 -8 0 -15 5 -15 10 0 6 7 10 15 10 8 0 15 -4 15 -10z
m168 -22 c-2 -13 -7 -23 -13 -23 -5 0 -11 10 -13 23 -2 15 2 22 13 22 11 0 15
-7 13 -22z m-638 -13 c0 -8 -4 -16 -9 -19 -12 -8 -34 21 -27 33 9 14 36 2 36
-14z m588 -57 c-4 -29 -38 -38 -38 -10 0 22 8 32 27 32 9 0 13 -8 11 -22z
m-193 -27 c7 -12 -12 -24 -25 -16 -11 7 -4 25 10 25 5 0 11 -4 15 -9z m-259
-30 c50 -23 84 -68 91 -122 5 -32 9 -39 22 -33 64 28 124 2 135 -59 9 -48 31
-64 108 -77 60 -11 70 -10 113 9 81 36 110 24 55 -22 -34 -29 -76 -44 -142
-51 -26 -2 -53 -8 -60 -13 -21 -13 -298 -20 -298 -7 0 27 47 36 168 30 74 -4
123 -3 127 3 11 18 -201 36 -241 21 -13 -5 -24 -6 -24 -1 0 17 41 59 70 71 28
11 32 10 65 -19 44 -38 62 -40 37 -3 -10 15 -23 36 -29 47 -8 14 -20 20 -43
18 -42 -2 -79 -30 -105 -79 -64 -125 -141 -169 -242 -139 -51 15 -112 66 -114
94 -2 27 3 55 11 66 4 6 10 26 14 46 9 50 58 114 105 139 59 30 131 27 171 -6
17 -15 38 -40 47 -58 23 -42 29 -13 8 37 -29 70 -117 101 -204 72 -45 -15
-131 -84 -131 -106 0 -5 -4 -9 -9 -9 -21 0 16 74 52 106 73 62 167 79 243 45z
m414 12 c0 -5 -9 -19 -19 -32 -13 -17 -20 -20 -26 -12 -4 7 1 21 11 32 17 19
34 25 34 12z m256 -63 c19 -17 18 -27 -7 -41 -16 -8 -20 -8 -14 1 4 6 -3 22
-16 37 -24 24 -24 25 -4 39 18 14 20 13 23 -5 2 -11 10 -25 18 -31z m-486 5
c0 -8 -7 -15 -15 -15 -8 0 -15 7 -15 15 0 8 7 15 15 15 8 0 15 -7 15 -15z
m167 -41 c9 -25 -13 -40 -26 -16 -10 19 -6 32 11 32 5 0 11 -7 15 -16z m171
-6 c-3 -7 -11 -13 -18 -13 -7 0 -15 6 -17 13 -3 7 4 12 17 12 13 0 20 -5 18
-12z m82 -99 c0 -32 -16 -47 -33 -30 -6 6 -19 11 -29 11 -27 0 -22 29 7 40 14
5 25 17 25 27 1 31 30 -16 30 -48z m-290 21 c0 -11 -4 -20 -10 -20 -5 0 -10 9
-10 20 0 11 5 20 10 20 6 0 10 -9 10 -20z m-610 -20 c0 -5 -4 -10 -10 -10 -5
0 -10 5 -10 10 0 6 5 10 10 10 6 0 10 -4 10 -10z m950 -50 c0 -5 -2 -10 -4
-10 -3 0 -8 5 -11 10 -3 6 -1 10 4 10 6 0 11 -4 11 -10z m-82 -123 c2 -10 -3
-17 -12 -17 -18 0 -29 16 -21 31 9 14 29 6 33 -14z m-335 -83 c7 -7 -14 -44
-25 -44 -5 0 -8 11 -8 25 0 23 18 34 33 19z m-253 -24 c0 -5 -4 -10 -10 -10
-5 0 -10 5 -10 10 0 6 5 10 10 10 6 0 10 -4 10 -10z m125 0 c3 -5 1 -10 -4
-10 -6 0 -11 5 -11 10 0 6 2 10 4 10 3 0 8 -4 11 -10z m-129 -62 c-9 -5 -62
-10 -118 -12 l-103 -2 -3 -27 c-5 -42 -22 -32 -22 13 l0 39 113 3 c61 2 120 1
131 -1 16 -3 16 -5 2 -13z m234 -48 c0 -5 -2 -10 -4 -10 -3 0 -8 5 -11 10 -3
6 -1 10 4 10 6 0 11 -4 11 -10z"/>
<path d="M882 3018 c-36 -25 -92 -130 -92 -172 0 -14 13 -40 29 -58 27 -31 34
-33 95 -33 58 0 68 3 96 30 36 33 70 103 70 141 0 92 -118 146 -198 92z m132
-49 c40 -47 33 -92 -22 -151 -20 -22 -35 -28 -68 -28 -46 0 -94 30 -94 59 0
30 10 30 40 0 34 -35 69 -37 97 -6 30 34 35 57 18 84 -22 32 -64 28 -84 -9
-21 -36 -7 -47 24 -18 22 20 25 21 31 6 17 -44 -38 -64 -76 -26 -28 28 -25 57
9 91 41 41 90 40 125 -2z"/>
<path d="M2052 3667 c-41 -13 -41 -44 1 -39 37 4 34 -11 -7 -29 -35 -16 -35
-16 -47 12 -6 16 -13 29 -16 29 -15 0 -103 -53 -103 -62 0 -6 7 -20 16 -30 16
-16 15 -18 -1 -24 -13 -5 -24 0 -39 19 l-22 27 -39 -27 c-22 -15 -77 -59 -123
-96 l-84 -69 31 -19 c17 -10 31 -23 31 -29 0 -5 39 22 88 61 101 81 226 153
315 180 87 27 89 28 75 72 -12 40 -20 42 -76 24z m-92 -92 c0 -8 -4 -15 -10
-15 -5 0 -10 7 -10 15 0 8 5 15 10 15 6 0 10 -7 10 -15z m-130 -67 c0 -7 -15
-23 -33 -35 -17 -13 -42 -30 -54 -39 -22 -16 -23 -16 -23 10 0 21 5 26 26 26
16 0 34 10 46 25 21 27 38 33 38 13z m-126 -87 c9 -15 -23 -36 -36 -23 -5 5
-7 15 -4 21 9 13 33 14 40 2z"/>
<path d="M2807 3673 c-2 -4 -7 -25 -11 -45 -7 -36 -6 -37 31 -44 46 -8 212
-89 288 -140 31 -20 76 -55 102 -78 l46 -42 28 28 c33 34 31 42 -23 86 -47 37
-54 39 -61 12 -7 -27 -14 -25 -71 16 -36 27 -45 39 -37 47 9 9 17 5 35 -16 22
-25 66 -38 66 -18 0 9 -94 81 -106 81 -3 0 -14 -10 -24 -22 l-18 -22 -46 24
c-25 14 -46 31 -46 37 0 18 14 16 44 -8 27 -21 46 -18 46 7 0 21 -101 65 -117
52 -7 -6 -13 -16 -13 -23 0 -7 -6 -18 -14 -24 -11 -9 -15 -8 -20 4 -3 8 -17
20 -32 25 -15 6 -24 13 -21 16 3 3 15 1 26 -6 25 -13 41 -6 41 19 0 11 -9 21
-22 24 -13 3 -33 8 -44 12 -12 4 -24 3 -27 -2z m448 -263 c0 -7 -6 -15 -12
-17 -8 -3 -13 4 -13 17 0 13 5 20 13 18 6 -3 12 -11 12 -18z"/>
<path d="M1417 3632 c-10 -10 -17 -22 -17 -26 0 -11 92 -116 102 -116 4 0 15
12 25 26 16 26 16 27 -10 46 -14 10 -36 34 -47 53 -25 40 -31 42 -53 17z"/>
<path d="M2366 3578 c-3 -13 -6 -47 -6 -75 0 -49 -10 -67 -25 -43 -3 6 -24 10
-46 10 l-39 0 0 -50 0 -50 38 0 c68 0 84 -9 77 -41 -11 -48 2 -69 41 -69 l34
0 0 170 0 170 -34 0 c-26 0 -35 -5 -40 -22z"/>
<path d="M2480 3430 l0 -170 41 0 40 0 -2 52 -3 51 49 1 c47 1 49 2 58 35 14
56 3 81 -37 81 -29 0 -34 -4 -40 -31 -11 -55 -31 -28 -32 42 -1 112 0 109 -39
109 l-35 0 0 -170z"/>
<path d="M2257 3583 c-4 -3 -7 -24 -7 -45 0 -38 0 -38 40 -38 l40 0 0 45 c0
44 0 45 -33 45 -19 0 -37 -3 -40 -7z"/>
<path d="M2110 3551 c-140 -46 -285 -126 -385 -213 l-39 -35 43 -49 c23 -27
54 -51 68 -54 27 -5 38 -19 47 -60 3 -14 24 -40 46 -58 l39 -33 62 51 c73 58
179 112 273 137 l66 17 0 38 0 38 -55 0 -55 0 0 125 c0 94 -3 125 -12 125 -7
-1 -51 -13 -98 -29z m53 -47 c9 -9 -4 -34 -18 -34 -14 0 -27 25 -18 34 4 3 12
6 18 6 6 0 14 -3 18 -6z m-99 -99 c5 -18 13 -25 30 -25 14 0 32 -3 41 -6 14
-6 12 -10 -12 -29 -26 -21 -27 -26 -16 -54 13 -36 2 -41 -35 -15 -20 14 -24
14 -44 0 -33 -23 -41 -20 -35 13 5 22 0 34 -18 51 -29 27 -24 40 14 40 19 0
32 8 41 25 7 14 17 25 21 25 4 0 10 -11 13 -25z m-204 -101 c0 -8 -10 -14 -25
-14 -18 0 -25 5 -25 19 0 11 6 21 13 24 15 6 37 -11 37 -29z m80 -63 c0 -12
-26 -32 -33 -25 -9 10 4 34 19 34 8 0 14 -4 14 -9z m10 -77 c0 -8 -4 -12 -10
-9 -5 3 -10 10 -10 16 0 5 5 9 10 9 6 0 10 -7 10 -16z"/>
<path d="M2375 3214 c-11 -2 -45 -9 -75 -15 -73 -15 -187 -68 -265 -124 -35
-25 -67 -50 -70 -55 -3 -5 3 -19 13 -31 l20 -21 43 44 c81 80 242 148 352 148
47 0 48 1 45 28 -3 28 -20 35 -63 26z"/>
<path d="M2488 3189 c-4 -28 -3 -29 36 -29 109 -1 276 -68 352 -142 38 -36 43
-39 63 -26 11 7 21 17 21 23 0 15 -144 110 -211 139 -55 24 -151 50 -220 59
-35 5 -37 4 -41 -24z"/>
<path d="M2265 3096 c-74 -24 -163 -76 -205 -119 -35 -37 -54 -56 -81 -81 -99
-92 -169 -235 -169 -349 l0 -48 153 3 152 3 5 222 5 221 28 36 c34 42 94 72
165 80 l52 7 0 -102 c0 -79 -3 -104 -15 -113 -12 -9 -13 -17 -4 -48 20 -61 11
-68 -86 -68 l-85 0 0 -69 c0 -51 4 -70 15 -74 8 -4 17 -2 20 2 2 5 20 12 39
15 30 6 35 11 38 39 3 29 6 32 38 32 l35 0 3 -62 3 -63 -75 0 c-41 0 -78 5
-81 10 -11 18 -35 -10 -35 -41 l0 -29 125 0 125 0 0 310 0 310 -47 0 c-27 -1
-80 -11 -118 -24z m-205 -416 l0 -120 -96 0 -96 0 4 69 c3 60 8 75 34 108 32
39 77 61 127 62 l27 1 0 -120z"/>
<path d="M1951 2705 c-20 -23 -31 -46 -31 -65 0 -28 2 -30 40 -30 l40 0 0 65
c0 36 -4 65 -9 65 -5 0 -23 -16 -40 -35z"/>
<path d="M2490 2810 l0 -310 123 0 123 0 2 118 2 118 -56 10 c-62 11 -57 17
-69 -78 -6 -47 -6 -48 22 -48 52 0 73 -11 73 -36 0 -23 -2 -24 -78 -24 l-79 0
1 250 1 250 45 0 c57 0 137 -37 173 -79 24 -29 27 -41 27 -105 l0 -73 86 -6
c70 -4 90 -9 109 -27 31 -29 62 -104 67 -160 l3 -45 -103 -3 c-56 -1 -102 1
-101 5 1 4 1 45 0 91 l-1 82 -30 0 -30 0 0 -120 0 -120 160 0 160 0 0 29 c0
57 -21 138 -54 206 -40 85 -187 241 -283 303 -66 42 -191 82 -256 82 l-37 0 0
-310z"/>
<path d="M600 3094 c0 -8 15 -21 34 -29 l34 -15 -19 -41 c-22 -45 -22 -84 0
-84 9 0 23 27 37 70 13 39 24 72 24 76 0 5 -88 39 -102 39 -5 0 -8 -7 -8 -16z"/>
<path d="M3913 3020 c-18 -10 -40 -31 -49 -45 -16 -25 -16 -30 2 -92 15 -53
27 -72 57 -97 34 -27 46 -31 96 -30 97 1 150 57 138 146 -15 111 -149 176
-244 118z m163 -51 c51 -48 51 -129 0 -160 -59 -36 -126 -17 -157 43 -29 57
-22 97 21 126 43 29 100 25 136 -9z"/>
<path d="M3980 2937 c-54 -27 -28 -107 35 -107 41 0 55 16 55 62 0 53 -37 72
-90 45z m56 -38 c10 -17 -23 -46 -37 -32 -7 7 -9 19 -6 27 7 18 33 21 43 5z"/>
<path d="M2275 2999 c-16 -5 -45 -22 -62 -38 -31 -27 -33 -33 -33 -95 l0 -66
46 0 46 0 -7 38 c-3 20 -9 47 -12 60 -5 20 -1 22 31 22 l36 0 0 45 c0 25 -3
45 -7 44 -5 0 -21 -5 -38 -10z"/>
<path d="M2610 2960 c0 -30 4 -40 16 -40 14 0 16 -10 12 -60 l-4 -60 53 0 53
0 0 60 c0 40 -6 70 -16 86 -19 28 -63 54 -94 54 -17 0 -20 -6 -20 -40z"/>
<path d="M1877 2923 c-87 -107 -140 -234 -153 -363 -7 -70 -6 -70 18 -70 24 0
25 4 31 68 3 38 15 97 27 133 26 75 98 188 143 223 l32 25 -22 21 c-12 11 -24
20 -26 20 -2 0 -25 -26 -50 -57z"/>
<path d="M2974 2959 c-18 -20 -18 -21 13 -47 81 -68 160 -235 168 -354 3 -49
5 -53 30 -56 26 -3 26 -3 20 45 -13 91 -38 178 -71 243 -35 70 -119 190 -133
190 -4 0 -16 -9 -27 -21z"/>
<path d="M2920 2676 l0 -66 40 0 c37 0 40 2 40 29 0 33 -39 94 -63 99 -15 3
-17 -6 -17 -62z"/>
<path d="M1369 2693 c-19 -5 -29 -50 -29 -135 l0 -58 85 0 85 0 0 41 0 41 -45
-6 -45 -7 0 59 c0 62 -9 74 -51 65z"/>
<path d="M3517 2693 c-4 -3 -7 -33 -7 -66 l0 -59 -44 6 c-51 8 -60 0 -51 -46
l6 -33 85 3 86 4 -8 76 c-3 42 -10 87 -15 100 -8 21 -38 30 -52 15z"/>
<path d="M1440 2650 l0 -40 69 0 c73 0 81 5 81 56 0 23 -2 24 -75 24 l-75 0 0
-40z"/>
<path d="M3340 2650 l0 -40 70 0 70 0 0 40 0 40 -70 0 -70 0 0 -40z"/>
<path d="M3860 2584 c0 -17 6 -24 20 -24 11 0 20 -4 20 -10 0 -5 -13 -10 -29
-10 -25 0 -30 4 -33 28 -2 15 -9 27 -15 26 -7 -1 -29 -2 -48 -2 -34 -2 -35 -3
-35 -46 0 -41 2 -44 31 -50 17 -3 66 -6 108 -6 76 1 76 1 99 36 12 20 22 39
22 44 0 15 -32 27 -87 32 -50 5 -53 4 -53 -18z"/>
<path d="M650 2435 c0 -45 17 -208 31 -300 10 -64 44 -178 99 -330 51 -142
189 -370 285 -472 l54 -58 90 95 c74 77 92 92 100 80 15 -21 14 -40 -2 -35 -7
3 -48 -31 -92 -75 -67 -68 -78 -83 -69 -98 6 -9 17 -18 25 -20 8 -1 95 79 194
178 l180 180 -22 22 -22 21 -63 -58 c-35 -32 -64 -62 -66 -67 -4 -10 -32 -11
-32 -1 0 4 32 39 70 78 l70 71 -53 72 c-30 39 -83 132 -118 207 l-64 136 -60
30 c-168 83 -355 -27 -355 -208 0 -84 55 -167 135 -204 56 -26 83 -24 95 6 11
30 40 33 64 6 15 -16 15 -22 4 -40 -7 -12 -16 -21 -21 -21 -4 0 -12 -10 -17
-22 l-9 -23 0 22 c-1 26 -16 37 -56 40 -70 5 -175 78 -201 140 -21 49 -17 150
7 203 37 82 108 139 192 154 42 8 56 29 39 57 -27 43 0 85 33 53 19 -19 19
-28 0 -44 -8 -7 -15 -23 -15 -35 0 -24 17 -35 54 -35 12 0 39 -9 61 -20 21
-11 40 -18 42 -17 1 2 -2 19 -7 38 -22 73 -50 233 -50 280 l0 49 -105 0 c-58
0 -105 -3 -105 -8 0 -4 -9 -13 -21 -20 -17 -11 -26 -10 -55 7 -29 18 -52 21
-140 21 l-104 0 0 -35z m160 -25 c0 -17 7 -20 43 -20 24 0 78 -3 120 -6 l77
-7 0 27 c0 16 5 26 15 26 9 0 15 -9 15 -25 0 -23 4 -25 45 -25 25 0 45 -4 45
-10 0 -6 -70 -10 -190 -10 l-190 0 0 35 c0 19 5 35 10 35 6 0 10 -9 10 -20z
m-60 -100 c0 -23 -25 -27 -33 -6 -7 16 1 26 20 26 7 0 13 -9 13 -20z m86 -31
c8 -14 -18 -31 -30 -19 -9 9 0 30 14 30 5 0 12 -5 16 -11z m214 1 c0 -5 -7
-10 -15 -10 -8 0 -15 5 -15 10 0 6 7 10 15 10 8 0 15 -4 15 -10z m130 -25 c0
-8 -4 -15 -10 -15 -5 0 -10 7 -10 15 0 8 5 15 10 15 6 0 10 -7 10 -15z m-330
-69 c0 -23 -30 -41 -48 -30 -23 15 -25 29 -7 48 12 12 21 13 36 6 10 -6 19
-17 19 -24z m98 11 c2 -10 -3 -17 -11 -17 -16 0 -30 24 -19 34 10 10 27 1 30
-17z m-162 -98 c10 -17 -13 -36 -27 -22 -12 12 -4 33 11 33 5 0 12 -5 16 -11z
m374 -186 l40 -16 -30 -18 c-32 -20 -40 -55 -17 -78 10 -11 6 -12 -19 -7 -30
7 -32 5 -39 -31 l-7 -38 -17 35 c-16 34 -29 39 -63 25 -15 -6 -15 -3 -5 30 11
36 10 39 -18 61 -25 20 -28 26 -15 34 8 5 25 10 36 10 16 0 27 13 45 53 l23
53 23 -49 c18 -39 31 -52 63 -64z m25 87 c-5 -8 -11 -8 -17 -2 -6 6 -7 16 -3
22 5 8 11 8 17 2 6 -6 7 -16 3 -22z m-212 6 c7 -19 -18 -42 -28 -26 -8 13 1
40 14 40 5 0 11 -6 14 -14z m267 -101 c0 -8 -7 -15 -15 -15 -8 0 -15 7 -15 15
0 8 7 15 15 15 8 0 15 -7 15 -15z m-275 -145 c-3 -5 -13 -10 -21 -10 -8 0 -14
5 -14 10 0 6 9 10 21 10 11 0 17 -4 14 -10z m391 -87 c9 -35 -7 -57 -43 -61
-36 -4 -56 17 -51 55 6 57 80 62 94 6z m-128 -95 c19 -19 14 -46 -8 -53 -22
-7 -50 9 -50 29 0 15 20 36 35 36 6 0 16 -5 23 -12z m-141 -85 c-2 -16 -4 -5
-4 22 0 28 2 40 4 28 2 -13 2 -35 0 -50z m-77 37 c0 -27 -27 -37 -47 -17 -20
19 -9 37 23 37 17 0 24 -5 24 -20z m190 -91 c0 -12 -29 -24 -37 -16 -3 4 -3
13 0 21 6 16 37 11 37 -5z m-91 -62 c8 -10 7 -17 -1 -25 -26 -26 -60 -4 -38
23 15 18 24 19 39 2z"/>
<path d="M1340 2408 c0 -35 3 -80 7 -101 5 -35 8 -38 37 -35 30 3 31 4 34 61
2 42 7 57 17 57 8 0 15 -5 15 -11 0 -6 12 -9 28 -7 25 3 27 7 30 51 l3 47 -85
0 -86 0 0 -62z"/>
<path d="M1540 2426 c0 -44 0 -45 38 -48 l37 -3 3 -62 3 -63 -125 0 c-69 0
-127 -4 -130 -9 -9 -14 49 -181 92 -267 39 -76 110 -183 169 -252 l29 -34 46
47 c32 32 48 56 50 78 2 25 9 32 34 39 19 5 46 26 69 53 l36 45 -48 55 c-88
98 -140 218 -163 378 l-13 87 -64 0 -63 0 0 -44z m-80 -232 c0 -9 -5 -14 -12
-12 -18 6 -21 28 -4 28 9 0 16 -7 16 -16z m155 -75 c4 -13 16 -19 36 -19 32 0
37 -11 13 -30 -11 -10 -14 -23 -8 -53 l6 -40 -27 21 -27 22 -28 -20 c-16 -11
-30 -20 -32 -20 -2 0 -2 15 0 34 3 27 0 37 -17 45 -27 15 -27 41 -1 41 13 0
28 12 38 29 18 32 35 28 47 -10z m15 -199 c0 -11 -7 -20 -15 -20 -8 0 -15 9
-15 20 0 11 7 20 15 20 8 0 15 -9 15 -20z m93 -51 c-11 -12 -29 -19 -39 -17
-17 3 -16 7 10 31 20 19 33 24 40 17 7 -7 4 -17 -11 -31z"/>
<path d="M3294 2463 l-41 -4 -6 -53 c-15 -149 -73 -291 -161 -398 l-54 -65 42
-48 c25 -28 48 -45 54 -41 21 13 52 -13 52 -43 0 -21 13 -41 46 -75 l46 -45
48 57 c57 69 130 180 158 243 54 119 116 366 110 438 l-3 36 -85 0 -85 0 0
-45 c0 -42 2 -45 28 -48 19 -2 27 1 27 12 0 9 9 16 20 16 17 0 20 -7 20 -44 0
-24 3 -58 6 -75 l7 -31 -123 0 c-119 0 -122 1 -107 18 11 12 17 36 17 65 l0
47 36 0 35 0 -3 43 c-3 46 -6 47 -84 40z m154 -295 c-4 -27 -23 -34 -32 -13
-8 21 1 35 20 35 10 0 14 -8 12 -22z m-98 -44 c0 -8 14 -20 31 -26 29 -10 29
-11 12 -30 -11 -13 -16 -32 -14 -55 l3 -35 -31 18 c-25 15 -34 16 -56 6 -24
-11 -25 -10 -19 13 4 16 0 34 -9 49 -18 27 -13 36 20 36 12 0 28 9 35 20 15
24 28 26 28 4z m-130 -140 c0 -17 -22 -14 -28 4 -2 7 3 12 12 12 9 0 16 -7 16
-16z m41 -67 c-13 -13 -26 -3 -16 12 3 6 11 8 17 5 6 -4 6 -10 -1 -17z m-32
-31 c35 -37 21 -50 -22 -21 -20 14 -37 30 -37 35 0 19 37 10 59 -14z m101 -21
c0 -8 -4 -15 -10 -15 -5 0 -10 7 -10 15 0 8 5 15 10 15 6 0 10 -7 10 -15z"/>
<path d="M3740 2425 c0 -43 1 -45 29 -45 16 0 36 -3 44 -6 11 -4 16 2 19 23 2
18 10 29 22 31 15 3 18 0 12 -21 l-6 -25 124 0 c115 1 125 2 130 20 6 26 26
13 26 -17 0 -22 -4 -24 -57 -27 l-58 -3 3 -43 c4 -41 2 -43 -19 -40 -29 4 -37
35 -13 52 30 22 -2 31 -133 36 l-121 5 -12 -75 c-14 -87 -44 -208 -66 -264 -8
-21 -13 -41 -10 -43 2 -3 26 0 53 5 115 25 247 -42 266 -133 l6 -30 -12 27
c-50 108 -201 154 -314 96 -13 -6 -48 -56 -79 -110 -52 -92 -55 -101 -44 -132
54 -163 232 -244 354 -159 49 34 104 132 98 176 -3 16 0 27 8 27 8 0 11 18 8
63 -2 34 -6 69 -8 77 -3 9 3 16 18 18 17 3 22 -1 22 -17 0 -12 -4 -21 -10 -21
-6 0 -10 -27 -10 -60 0 -33 4 -60 10 -60 14 0 12 -33 -4 -65 -9 -17 -16 -22
-19 -13 -3 7 -6 0 -6 -15 -1 -35 -46 -99 -86 -124 -102 -62 -203 -56 -295 17
-43 34 -99 121 -100 155 -1 17 -5 15 -30 -15 -17 -19 -30 -39 -30 -44 0 -6 30
-40 66 -77 55 -56 63 -67 50 -78 -12 -10 -17 -8 -26 9 -6 11 -34 43 -63 70
-48 46 -53 48 -69 33 -10 -9 -18 -21 -18 -28 0 -6 44 -55 98 -108 53 -52 133
-132 176 -176 75 -76 81 -80 98 -64 10 9 18 20 18 25 0 15 -150 158 -166 158
-18 0 -18 24 -1 39 11 9 32 -8 97 -79 46 -50 87 -90 92 -90 13 0 77 74 141
162 46 65 57 88 57 119 0 42 16 54 22 17 7 -49 161 292 204 451 26 95 68 415
57 434 -8 14 -219 8 -249 -7 -24 -13 -30 -13 -48 0 -15 10 -51 14 -133 14
l-113 0 0 -45z m416 -140 c4 -8 0 -22 -7 -31 -11 -13 -14 -13 -27 0 -17 17 -9
46 13 46 9 0 18 -7 21 -15z m-290 -40 c18 -28 13 -55 -17 -73 -17 -11 -25 -11
-45 3 -28 18 -31 51 -7 77 22 25 50 23 69 -7z m157 -67 c9 -6 9 -12 0 -28 -15
-24 -17 -96 -3 -105 6 -3 10 -15 10 -26 0 -10 -4 -19 -10 -19 -5 0 -11 -17
-11 -37 -2 -34 -2 -34 -6 -8 -2 17 -9 41 -16 54 -9 19 -9 25 1 28 16 6 16 95
0 111 -9 9 -9 15 0 24 7 7 13 28 14 48 l1 35 4 -35 c3 -19 10 -38 16 -42z
m-103 -44 c11 -12 10 -18 -3 -31 -22 -23 -52 0 -36 28 12 23 22 24 39 3z m227
5 c14 -14 6 -39 -12 -39 -18 0 -28 17 -21 35 6 18 18 19 33 4z m-327 -69 c0
-11 -6 -20 -14 -20 -18 0 -29 16 -21 30 11 18 35 11 35 -10z m325 -40 c0 -27
-22 -39 -31 -16 -8 22 3 49 19 43 6 -2 12 -14 12 -27z m-28 -126 c8 -21 -13
-42 -28 -27 -13 13 -5 43 11 43 6 0 13 -7 17 -16z m-308 -59 c18 -40 24 -45
60 -51 23 -4 41 -10 41 -14 0 -4 -16 -18 -35 -31 -36 -25 -38 -33 -19 -101 7
-24 0 -23 -43 7 -20 13 -41 21 -47 18 -6 -3 -24 -15 -40 -26 l-28 -20 4 44 c5
40 2 48 -30 81 l-35 37 24 5 c13 3 35 7 49 8 17 2 32 16 48 46 13 23 25 42 27
42 2 0 13 -20 24 -45z m-19 -410 c10 -12 10 -18 0 -30 -16 -19 -39 -19 -46 0
-6 15 11 45 26 45 4 0 13 -7 20 -15z"/>
<path d="M1220 2405 c0 -31 11 -107 25 -171 14 -64 25 -117 25 -120 0 -2 4 -4
9 -4 5 0 13 12 18 27 l10 28 12 -23 c16 -30 8 -52 -19 -52 -19 0 -19 -1 6 -67
31 -84 38 -91 62 -70 18 16 20 16 33 1 12 -14 10 -19 -14 -38 l-27 -21 51 -85
c28 -47 75 -113 105 -147 l54 -61 31 28 30 29 -61 76 c-150 190 -255 440 -268
643 l-5 82 -38 0 -39 0 0 -55z m80 -128 c0 -14 -20 -37 -32 -37 -4 0 -8 11 -8
25 0 18 5 25 20 25 11 0 20 -6 20 -13z m145 -427 c9 -16 11 -30 6 -30 -15 0
-41 30 -41 46 0 24 19 16 35 -16z m65 -67 c-1 -19 -19 -35 -34 -30 -26 10 -19
37 9 37 14 0 25 -3 25 -7z m60 -75 c0 -11 -29 -37 -42 -38 -16 0 -8 39 9 49
19 10 33 6 33 -11z"/>
<path d="M3620 2393 c0 -95 -60 -323 -112 -427 -31 -61 -100 -165 -156 -235
-57 -70 -59 -76 -38 -88 8 -5 19 -18 23 -31 8 -20 13 -17 69 50 69 84 138 183
148 214 4 14 0 26 -14 39 -11 10 -20 24 -20 31 0 23 18 25 38 4 25 -27 34 -16
65 77 l24 71 -23 11 c-24 11 -35 48 -11 38 6 -3 19 -8 28 -12 13 -5 19 4 28
39 17 70 15 94 -11 98 -13 2 -24 11 -26 22 -4 17 0 18 32 13 l36 -6 0 64 c0
35 3 70 6 79 5 13 -2 16 -40 16 l-46 0 0 -67z m-13 -347 c-4 -9 -11 -16 -17
-16 -11 0 -14 33 -3 44 11 10 26 -11 20 -28z m-97 -186 c0 -17 -64 -110 -76
-110 -20 0 -24 29 -5 35 9 3 28 23 40 45 21 38 41 52 41 30z m-116 -156 c9
-25 7 -34 -9 -34 -16 0 -38 34 -28 44 12 11 31 6 37 -10z"/>
<path d="M1725 2393 c11 -93 32 -163 70 -237 36 -69 113 -176 127 -176 4 0 15
12 25 26 16 26 16 27 -14 53 -82 72 -144 200 -159 330 -6 56 -8 61 -31 61 -25
0 -25 -1 -18 -57z"/>
<path d="M1810 2409 c0 -50 25 -150 50 -199 10 -20 42 -65 71 -99 45 -54 55
-62 77 -56 22 5 24 4 18 -19 -5 -20 3 -32 47 -73 29 -26 77 -61 105 -76 52
-28 161 -57 220 -57 l32 0 0 305 0 305 -125 0 -125 0 0 -110 0 -110 91 0 90 0
0 -52 c0 -29 3 -106 5 -171 l5 -118 -48 6 c-76 10 -126 32 -167 74 l-38 39 1
220 0 219 -52 7 c-29 3 -98 6 -154 6 l-103 0 0 -41z m250 -134 l0 -115 -53 0
c-43 0 -58 5 -74 23 -40 43 -63 100 -63 154 l0 53 95 0 95 0 0 -115z m310 55
l0 -40 -42 0 c-70 0 -88 9 -88 39 0 38 5 41 72 41 l58 0 0 -40z"/>
<path d="M1920 2317 c0 -28 46 -97 65 -97 12 0 15 14 15 60 l0 60 -40 0 c-35
0 -40 -3 -40 -23z"/>
<path d="M2838 2443 l-38 -4 0 -215 c0 -143 -4 -223 -11 -237 -30 -54 -111
-96 -187 -97 l-53 0 3 103 3 102 93 0 92 0 0 33 0 32 -125 0 -125 0 0 -165 0
-165 28 0 c54 1 168 30 229 60 71 35 156 121 146 147 -5 13 -2 15 15 11 17 -5
33 6 74 51 85 92 138 212 138 313 l0 38 -122 -2 c-68 -1 -140 -3 -160 -5z
m222 -89 c0 -57 -20 -110 -58 -155 -33 -38 -37 -40 -86 -37 l-51 3 -3 80 c-2
44 0 95 3 113 l6 32 94 0 95 0 0 -36z"/>
<path d="M2920 2280 c0 -58 1 -61 22 -58 24 3 54 48 60 88 3 23 -1 25 -39 28
l-43 3 0 -61z"/>
<path d="M3151 2368 c-15 -110 -63 -211 -137 -288 -56 -59 -57 -60 -39 -80 10
-11 22 -20 26 -20 13 0 105 123 131 175 31 61 55 135 63 195 3 25 8 57 11 73
5 23 2 27 -19 27 -22 0 -25 -5 -36 -82z"/>
<path d="M2490 2330 l0 -110 125 0 125 0 0 110 0 110 -125 0 -125 0 0 -110z
m188 30 c18 0 22 -6 22 -29 0 -33 -17 -41 -97 -41 l-53 0 0 41 0 42 53 -7 c28
-3 62 -6 75 -6z"/>
<path d="M1450 2315 l0 -35 70 0 70 0 0 35 0 35 -70 0 -70 0 0 -35z"/>
<path d="M3340 2315 l0 -35 70 0 70 0 0 35 0 35 -70 0 -70 0 0 -35z"/>
<path d="M4366 2238 c-3 -7 -6 -24 -9 -38 -2 -14 -8 -33 -12 -42 -6 -15 -2
-18 19 -18 26 0 27 1 41 73 4 21 -33 45 -39 25z"/>
<path d="M2180 2092 c0 -75 13 -103 60 -127 16 -8 40 -15 55 -15 23 0 25 3 25
45 0 44 -1 45 -31 45 l-32 0 6 60 7 60 -45 0 -45 0 0 -68z"/>
<path d="M587 2063 c-18 -3 -27 -9 -24 -17 3 -7 13 -49 23 -94 20 -89 21 -90
87 -71 40 11 42 15 28 51 -6 13 -17 49 -26 81 -17 61 -16 61 -88 50z m52 -70
c7 -27 15 -56 18 -65 3 -11 0 -18 -9 -18 -12 0 -38 80 -38 118 0 29 17 8 29
-35z"/>
<path d="M2668 2046 l-58 -9 0 -44 c0 -38 3 -43 23 -43 49 0 128 76 101 98 -5
4 -35 3 -66 -2z"/>
<path d="M2877 1938 c-59 -59 -168 -113 -268 -133 -42 -9 -80 -15 -85 -14 -31
5 -44 -3 -44 -27 0 -26 1 -26 58 -20 138 16 239 54 346 130 86 61 91 68 63 92
l-22 20 -48 -48z"/>
<path d="M1966 1961 c-16 -17 -16 -20 0 -35 31 -31 136 -98 198 -126 63 -29
191 -60 246 -60 25 0 30 4 30 23 0 21 -6 24 -87 36 -132 18 -239 69 -321 151
-36 35 -43 36 -66 11z"/>
<path d="M2984 1899 c-61 -68 -209 -150 -324 -180 l-65 -16 -3 -47 -3 -46 49
0 49 0 7 -46 c3 -26 6 -64 6 -85 l0 -39 -55 0 -55 0 0 -50 c0 -27 3 -50 8 -50
4 0 41 6 82 14 162 31 342 115 456 212 91 77 106 92 102 102 -10 30 -90 101
-115 104 -23 2 -29 8 -31 34 -2 21 -17 45 -46 73 l-42 42 -20 -22z m35 -156
c-9 -10 -15 -10 -25 -2 -17 14 -18 36 -1 42 19 7 39 -23 26 -40z m-99 -75 c0
-5 7 -8 16 -8 9 0 32 -7 51 -17 l35 -16 -37 -32 c-35 -29 -37 -34 -31 -68 8
-43 5 -44 -35 -15 l-30 23 -41 -23 c-22 -13 -42 -21 -45 -18 -3 3 -1 24 5 47
9 37 8 46 -9 71 -11 15 -25 28 -30 28 -6 0 -7 5 -4 10 3 6 21 10 40 10 26 0
38 7 56 31 l22 31 18 -23 c10 -13 19 -27 19 -31z m190 6 c11 -12 10 -18 -3
-32 -16 -15 -18 -15 -34 0 -13 14 -14 20 -3 32 7 9 16 16 20 16 4 0 13 -7 20
-16z"/>
<path d="M1872 1878 c-28 -23 -39 -39 -36 -50 10 -33 -6 -58 -34 -59 -20 0
-40 -15 -77 -56 l-49 -56 39 -34 c178 -154 367 -248 548 -271 l67 -9 0 49 0
48 -55 0 -55 0 0 85 0 85 55 0 55 0 0 48 0 48 -62 13 c-86 18 -210 80 -285
140 -34 28 -64 51 -66 51 -3 0 -23 -15 -45 -32z m151 -172 c14 -20 22 -23 61
-19 25 3 46 1 46 -4 0 -5 -13 -22 -29 -37 -29 -28 -29 -29 -13 -62 19 -40 12
-52 -20 -30 -30 21 -54 20 -90 -5 -16 -12 -31 -19 -33 -17 -3 2 1 21 7 41 10
33 9 40 -10 60 -24 25 -20 37 10 37 12 0 23 11 29 30 13 36 22 38 42 6z m-165
-49 c4 -22 -24 -33 -43 -17 -12 10 -13 16 -4 27 16 18 43 13 47 -10z m305
-194 c9 -9 -13 -34 -24 -27 -14 8 -11 34 4 34 8 0 17 -3 20 -7z"/>
<path d="M2365 1688 c-2 -7 -6 -35 -7 -63 -3 -50 -3 -50 -35 -47 -61 6 -73 -4
-73 -59 l0 -49 40 0 c27 0 43 5 46 15 14 35 23 10 26 -67 l3 -83 38 -3 37 -3
-2 183 -3 183 -33 3 c-20 2 -34 -2 -37 -10z"/>
<path d="M2498 1693 c-16 -4 -18 -21 -18 -184 l0 -180 38 3 37 3 1 85 c1 70 5
86 18 88 11 2 16 -3 16 -17 0 -18 6 -21 40 -21 l40 0 0 49 0 49 -57 8 -58 9
-2 45 c-1 25 -2 51 -2 58 -1 12 -20 14 -53 5z"/>
<path d="M1623 1604 c-13 -14 -23 -28 -23 -33 0 -10 142 -129 198 -166 46 -30
44 -30 72 15 7 12 11 12 21 3 10 -10 9 -15 -1 -27 -19 -24 -6 -43 49 -70 l50
-26 11 35 c6 19 13 35 15 35 5 0 65 -57 65 -62 0 -2 -16 -2 -36 0 -52 6 -40
-17 17 -34 24 -8 47 -14 51 -14 8 0 40 71 35 77 -2 2 -37 15 -77 29 -88 30
-136 54 -214 106 -58 38 -178 136 -184 151 -6 13 -27 5 -49 -19z m73 -50 c-3
-9 -6 -18 -6 -20 0 -2 -7 -4 -15 -4 -18 0 -19 12 -3 28 17 17 31 15 24 -4z
m83 -79 c-7 -7 -69 15 -69 24 0 4 5 12 12 19 10 10 18 7 37 -13 14 -13 23 -27
20 -30z"/>
<path d="M3190 1563 c-108 -93 -233 -162 -392 -216 -14 -5 -15 -10 -4 -41 16
-48 17 -48 62 -33 44 16 54 44 15 39 l-25 -2 24 25 c30 32 39 32 51 -4 l10
-29 47 20 c68 29 80 43 59 65 -11 13 -13 23 -7 33 8 12 14 10 33 -14 l24 -30
34 24 c50 35 87 66 150 124 l55 52 -29 27 c-16 15 -30 27 -31 26 0 0 -35 -30
-76 -66z m63 -9 c9 -9 -4 -35 -14 -28 -5 3 -9 12 -9 20 0 14 12 19 23 8z m-46
-41 c6 -16 -97 -87 -109 -75 -6 6 4 17 26 30 19 11 41 30 48 41 13 21 29 23
35 4z m-222 -143 c0 -22 -29 -18 -33 3 -3 14 1 18 15 15 10 -2 18 -10 18 -18z"/>
<path d="M1471 1456 c-50 -50 -88 -96 -84 -101 4 -4 3 -5 -3 -2 -6 4 -51 -31
-100 -78 l-89 -83 27 -28 27 -27 78 83 c48 52 77 91 76 102 -3 18 -2 18 22 1
13 -10 23 -20 22 -23 -3 -8 -126 -121 -161 -147 l-28 -23 43 -40 c24 -22 56
-48 72 -57 15 -10 27 -21 27 -25 0 -7 29 -12 31 -5 0 1 3 33 6 72 7 92 35 166
79 204 112 99 266 102 360 7 35 -34 44 -52 54 -104 l13 -63 28 30 c56 62 145
30 169 -60 8 -30 17 -40 38 -46 15 -3 48 -17 73 -30 63 -31 83 -29 141 13 28
19 52 33 55 30 11 -11 -9 -60 -36 -86 -20 -20 -42 -30 -77 -35 -27 -3 -58 -11
-69 -18 -13 -8 -70 -12 -160 -13 -77 0 -161 -4 -187 -8 -50 -9 -62 0 -33 24 8
7 15 24 15 38 0 15 13 37 36 58 47 45 86 45 131 2 28 -27 41 -32 90 -34 54 -3
53 -1 -6 12 -13 3 -45 27 -70 54 l-46 49 -62 -29 c-56 -26 -64 -34 -93 -89
-21 -42 -43 -69 -71 -88 -121 -80 -285 24 -283 178 2 163 176 257 289 157 43
-37 52 -78 30 -143 -24 -71 -58 -112 -105 -126 -50 -15 -82 -3 -110 43 -25 41
-25 84 -2 123 41 66 102 70 157 9 27 -29 34 -32 39 -19 11 29 -21 71 -66 89
-67 27 -112 12 -166 -58 -27 -35 -30 -121 -7 -167 36 -68 138 -91 205 -45 46
31 90 112 97 179 6 64 -25 129 -78 165 -29 21 -44 23 -105 20 -135 -6 -202
-74 -222 -226 -12 -85 -10 -94 24 -112 13 -7 24 -17 24 -21 0 -5 21 -23 48
-40 26 -18 49 -36 52 -40 3 -4 77 -35 165 -69 222 -87 358 -120 516 -127 l126
-6 6 63 c4 35 7 92 7 126 0 62 -1 64 -25 64 l-26 0 33 33 c31 31 33 32 50 15
20 -20 44 -23 53 -8 10 17 32 11 38 -10 4 -17 -1 -19 -47 -22 l-51 -3 -3 -110
c-4 -162 -7 -157 86 -150 450 36 791 180 1094 465 l73 67 -185 181 c-101 99
-187 179 -189 176 -204 -204 -510 -347 -773 -361 l-98 -6 0 -54 c0 -47 -3 -54
-17 -51 -14 3 -18 14 -19 53 l-1 50 -54 2 c-109 5 -211 25 -324 63 -97 32
-122 45 -155 79 -22 23 -47 41 -55 41 -34 0 -129 55 -208 119 l-84 70 -92 -93z
m103 -20 c18 -15 14 -36 -7 -36 -12 0 -47 49 -47 64 0 7 25 -6 54 -28z m1817
10 l-22 -24 40 -28 c22 -16 41 -34 41 -41 0 -17 37 -36 45 -23 3 5 11 10 17
10 7 0 7 -4 0 -13 -9 -10 6 -30 63 -87 69 -68 90 -100 66 -100 -5 0 -21 14
-36 31 -14 18 -56 59 -93 91 -37 33 -85 76 -107 96 -23 20 -49 42 -60 48 -19
10 -18 12 10 37 39 34 67 37 36 3z m-1880 -83 c-8 -31 -28 -41 -37 -19 -7 18
12 46 31 46 9 0 11 -8 6 -27z m1697 -26 c2 -10 -3 -17 -12 -17 -18 0 -29 16
-21 31 9 14 29 6 33 -14z m80 -65 c2 -7 -6 -12 -17 -12 -21 0 -27 11 -14 24 9
9 26 2 31 -12z m-85 -56 c76 -41 112 -159 72 -235 -32 -62 -125 -111 -183 -96
-32 8 -79 48 -159 137 -35 37 -85 88 -113 113 -31 27 -44 45 -34 45 8 0 44
-27 78 -60 l63 -60 11 37 c41 135 149 183 265 119z m214 -30 c-9 -22 -34 -20
-47 3 -8 16 -6 22 7 30 22 12 49 -10 40 -33z m-516 11 c-1 -12 -15 -9 -19 4
-3 6 1 10 8 8 6 -3 11 -8 11 -12z m-1501 -31 c0 -21 -21 -31 -30 -15 -5 7 -6
17 -4 21 9 14 34 9 34 -6z m2127 -30 c-8 -20 -36 -21 -43 -1 -4 8 0 22 7 31
11 13 14 13 27 0 8 -8 12 -22 9 -30z m-805 12 c-6 -6 -15 -8 -19 -4 -4 4 -1
11 7 16 19 12 27 3 12 -12z m-449 -29 c-17 -17 -37 -1 -22 17 8 10 15 12 23 4
7 -7 7 -13 -1 -21z m92 -10 c5 -21 3 -34 -6 -40 -25 -15 -38 15 -23 55 10 25
22 19 29 -15z m481 -91 c39 -40 77 -82 85 -93 13 -19 13 -19 -6 -5 -11 8 -47
41 -80 73 -33 32 -68 63 -79 69 -10 5 -69 9 -130 8 -131 -3 -136 -3 -116 10 8
5 69 10 135 10 l121 0 70 -72z m591 56 c3 -8 -2 -23 -11 -32 -15 -15 -17 -15
-32 0 -21 21 -11 48 16 48 11 0 23 -7 27 -16z m-667 -82 c0 -13 -12 -22 -22
-16 -10 6 -1 24 13 24 5 0 9 -4 9 -8z m-90 -63 c0 -24 -23 -21 -28 4 -2 10 3
17 12 17 10 0 16 -9 16 -21z m-308 -116 c-2 -40 -8 -73 -13 -73 -10 0 -13 153
-2 164 13 13 19 -20 15 -91z m449 54 c28 -21 31 -52 8 -80 -25 -33 -42 -34
-69 -5 -24 26 -26 55 -3 80 19 21 41 23 64 5z m-251 -83 c0 -56 -3 -75 -12
-72 -9 3 -14 30 -16 76 -2 60 0 72 13 72 12 0 15 -14 15 -76z m66 65 c8 -14
-14 -29 -33 -22 -7 3 -13 11 -13 19 0 17 36 19 46 3z m-540 -35 c12 -46 -45
-62 -65 -18 -15 33 -7 44 29 44 24 0 31 -5 36 -26z m876 -36 c-15 -15 -26 -4
-18 18 5 13 9 15 18 6 9 -9 9 -15 0 -24z m-968 7 c-4 -8 -10 -15 -15 -15 -5 0
-9 7 -9 15 0 8 7 15 15 15 9 0 12 -6 9 -15z m644 -47 c-3 -7 -11 -13 -18 -13
-7 0 -15 6 -17 13 -3 7 4 12 17 12 13 0 20 -5 18 -12z"/>
<path d="M3040 1198 c-47 -33 -72 -70 -80 -122 l-7 -46 61 -59 c34 -32 71 -61
84 -65 54 -18 138 43 162 117 22 71 -9 141 -80 177 -51 26 -99 25 -140 -2z
m134 -80 c50 -71 -29 -165 -96 -114 -40 30 -42 78 -5 124 17 21 84 15 101 -10z"/>
<path d="M3079 1089 c-18 -34 3 -69 41 -69 22 0 33 6 41 24 16 35 -3 66 -41
66 -20 0 -33 -7 -41 -21z"/>
<path d="M2165 1308 c-13 -63 -14 -62 50 -76 86 -19 380 -21 479 -2 l78 14 -5
39 c-3 21 -7 40 -9 42 -2 2 -30 0 -63 -6 -33 -5 -97 -12 -142 -15 -83 -7 -97
-16 -71 -42 16 -16 -12 -45 -35 -36 -21 8 -22 28 -2 44 23 19 8 30 -45 30 -27
0 -71 4 -97 9 -118 23 -132 23 -138 -1z m120 -39 c5 -5 -4 -9 -22 -9 -36 0
-63 9 -63 20 0 11 71 1 85 -11z m439 12 c7 -10 -27 -21 -66 -21 -39 0 -35 18
5 23 17 2 37 5 44 5 6 1 14 -2 17 -7z m-358 -22 c3 -5 -6 -9 -20 -9 -16 0 -26
6 -26 14 0 15 36 11 46 -5z m229 11 c8 -13 -17 -23 -47 -18 l-23 5 25 11 c32
14 37 14 45 2z"/>
<path d="M1700 1123 c-25 -9 -40 -35 -40 -69 0 -40 19 -56 61 -52 25 2 38 11
53 37 l20 34 -32 28 c-33 30 -37 31 -62 22z m28 -65 c-2 -13 -10 -23 -18 -23
-8 0 -16 10 -18 23 -3 17 2 22 18 22 16 0 21 -5 18 -22z"/>
<path d="M3536 979 c-27 -22 -57 -44 -65 -49 -14 -8 -10 -15 20 -46 l37 -36
43 30 c24 17 55 40 69 51 l25 20 -34 35 c-19 20 -37 36 -40 36 -4 -1 -28 -19
-55 -41z m31 -57 c-31 -31 -39 -34 -47 -22 -7 11 -5 18 7 25 9 6 26 19 37 31
12 11 25 17 31 12 6 -5 -5 -23 -28 -46z"/>
<path d="M1964 969 c-17 -5 -36 -15 -42 -21 -8 -10 19 -13 131 -14 99 -1 127
1 92 6 -27 5 -67 15 -87 24 -41 18 -49 18 -94 5z"/>
<path d="M1472 882 c-36 -49 -32 -59 36 -98 50 -28 62 -32 62 -19 0 9 9 30 20
45 l21 29 -56 35 c-30 20 -57 36 -60 36 -2 0 -13 -12 -23 -28z m83 -55 c30
-23 11 -31 -27 -11 -42 21 -41 21 -33 33 7 12 23 5 60 -22z"/>
<path d="M2020 658 c0 -7 -3 -30 -6 -50 -5 -30 -3 -38 9 -38 9 0 18 13 22 31
6 26 11 30 28 25 12 -3 46 -9 75 -12 l52 -7 0 -39 c0 -32 3 -39 18 -36 13 2
18 15 20 56 l3 52 -33 0 c-18 0 -60 7 -93 15 -75 18 -95 18 -95 3z"/>
<path d="M2064 586 c-9 -23 -6 -24 59 -32 54 -6 57 -5 57 15 0 17 -6 21 -32
21 -18 0 -43 3 -55 6 -16 4 -25 1 -29 -10z"/>
<path d="M1853 4377 c-63 -21 -71 -29 -54 -56 7 -11 13 -12 23 -4 7 6 32 17
56 24 34 10 42 17 42 36 0 12 -1 23 -2 22 -2 0 -31 -10 -65 -22z"/>
<path d="M1946 4175 c-40 -40 -20 -105 32 -105 38 0 52 17 52 60 0 20 -5 41
-12 48 -17 17 -54 15 -72 -3z"/>
<path d="M1682 4030 c-61 -37 -91 -111 -73 -178 23 -82 113 -127 193 -95 41
16 128 117 128 148 0 38 -55 107 -107 134 -34 18 -104 13 -141 -9z m128 -80
c44 -44 8 -130 -54 -130 -67 0 -94 82 -42 127 33 28 69 30 96 3z"/>
<path d="M1722 3920 c-6 -11 -12 -29 -12 -40 0 -26 43 -44 71 -30 24 13 35 56
19 75 -18 22 -63 19 -78 -5z"/>
<path d="M2147 3853 c-4 -3 -7 -13 -7 -21 0 -12 3 -12 15 -2 8 7 15 16 15 21
0 11 -14 12 -23 2z"/>
<path d="M522 2368 c2 -41 7 -54 21 -56 14 -3 17 5 17 52 0 50 -2 56 -21 56
-18 0 -20 -5 -17 -52z"/>
<path d="M1795 669 c-9 -26 -10 -25 63 -48 50 -15 62 -16 62 -5 0 8 0 17 1 21
0 4 -20 13 -45 20 -25 7 -48 18 -51 23 -10 16 -23 11 -30 -11z"/>
<path d="M3530 4430 c0 -5 7 -10 15 -10 8 0 15 5 15 10 0 6 -7 10 -15 10 -8 0
-15 -4 -15 -10z"/>
<path d="M1372 4411 c2 -7 7 -12 11 -12 12 1 9 15 -3 20 -7 2 -11 -2 -8 -8z"/>
<path d="M425 4351 c-11 -20 32 -27 143 -25 61 1 218 2 347 3 202 1 235 3 235
16 0 13 -47 15 -359 15 -217 0 -362 -4 -366 -9z"/>
<path d="M4345 4320 c-7 -12 2 -30 16 -30 5 0 9 9 9 20 0 21 -15 27 -25 10z"/>
<path d="M4085 4299 c-37 -10 -79 -53 -93 -94 -5 -18 -15 -28 -23 -26 -8 2
-72 5 -144 6 -71 1 -141 5 -154 10 -21 7 -22 6 -12 -12 21 -41 76 -56 175 -49
50 4 107 9 127 12 32 5 40 2 77 -37 23 -23 42 -50 42 -59 0 -23 -20 -40 -49
-40 -19 0 -22 3 -13 12 20 20 13 38 -22 55 -44 21 -89 5 -106 -38 -11 -25 -9
-34 14 -72 28 -50 75 -77 130 -77 53 0 110 26 130 61 17 29 19 30 79 24 34 -3
86 -13 115 -23 47 -15 57 -15 94 -2 51 18 88 68 88 117 0 26 -8 43 -33 68 -70
70 -146 59 -219 -33 -38 -47 -130 -35 -175 24 -13 18 -34 34 -46 36 -27 4 -25
33 6 66 27 29 94 31 125 2 25 -23 29 -65 8 -73 -17 -7 -26 1 -26 24 0 30 -58
40 -80 14 -10 -12 -10 -15 1 -15 7 0 27 -16 45 -35 58 -64 134 -38 134 46 0
50 -37 92 -96 108 -45 13 -57 13 -99 0z m375 -189 c29 -29 30 -72 3 -102 -18
-20 -87 -25 -98 -8 -3 6 -46 10 -95 10 -49 0 -92 5 -95 10 -4 6 8 10 28 10 19
0 55 3 81 6 38 6 47 11 52 31 8 30 50 63 80 63 13 0 33 -9 44 -20z m-335 -80
c14 -43 -40 -100 -94 -100 -31 0 -68 20 -81 45 -16 30 -9 69 13 73 14 3 17 -1
12 -21 -5 -19 -1 -29 16 -41 13 -9 31 -16 41 -16 26 0 58 36 58 65 0 28 25 25
35 -5z"/>
<path d="M4382 4078 c-16 -16 -15 -33 3 -48 21 -18 55 -3 55 25 0 32 -35 46
-58 23z"/>
<path d="M626 4276 c-9 -15 -15 -30 -12 -35 6 -9 634 -7 643 2 22 23 -27 27
-299 27 -256 0 -292 2 -303 16 -10 14 -13 13 -29 -10z"/>
<path d="M560 4234 c-19 -22 -1 -66 30 -75 14 -4 55 -7 92 -8 37 -1 69 -5 73
-11 4 -6 15 -6 31 0 14 6 63 9 109 8 56 -2 88 1 96 9 7 7 9 16 5 20 -4 5 -95
8 -201 8 -174 0 -196 2 -212 18 -17 18 -17 19 1 33 16 11 17 14 4 14 -8 0 -21
-7 -28 -16z"/>
<path d="M445 4080 c-17 -28 13 -30 328 -25 177 4 325 9 329 11 32 20 -23 24
-321 24 -209 0 -332 -4 -336 -10z"/>
<path d="M714 3999 c-10 -17 13 -36 27 -22 12 12 4 33 -11 33 -5 0 -12 -5 -16
-11z"/>
<path d="M721 3931 c-15 -10 -8 -41 9 -41 15 0 25 29 14 40 -5 5 -15 5 -23 1z"/>
<path d="M877 3934 c-9 -10 2 -24 19 -24 8 0 14 7 14 15 0 15 -21 21 -33 9z"/>
<path d="M4270 3855 c0 -15 6 -25 14 -25 22 0 30 19 16 35 -18 22 -30 18 -30
-10z"/>
<path d="M710 3820 c0 -36 4 -50 14 -50 10 0 15 15 18 50 2 42 0 50 -14 50
-15 0 -18 -9 -18 -50z"/>
<path d="M520 3831 c0 -11 4 -22 9 -25 12 -8 34 21 26 34 -11 17 -35 11 -35
-9z"/>
<path d="M4395 3840 c-7 -12 2 -30 16 -30 12 0 12 27 0 35 -5 3 -12 1 -16 -5z"/>
<path d="M4132 3824 c4 -21 22 -23 26 -1 2 10 -3 17 -13 17 -10 0 -15 -6 -13
-16z"/>
<path d="M4272 3748 c2 -13 10 -23 18 -23 8 0 16 10 18 23 3 17 -2 22 -18 22
-16 0 -21 -5 -18 -22z"/>
<path d="M4277 3693 c-13 -13 -7 -53 8 -53 21 0 37 34 23 48 -14 14 -22 15
-31 5z"/>
<path d="M571 3657 c-8 -10 -7 -19 4 -33 13 -18 15 -18 31 -2 18 18 13 48 -9
48 -8 0 -20 -6 -26 -13z"/>
<path d="M4390 3495 c0 -8 7 -15 15 -15 8 0 15 7 15 15 0 8 -7 15 -15 15 -8 0
-15 -7 -15 -15z"/>
<path d="M425 1601 c-7 -12 12 -24 25 -16 11 7 4 25 -10 25 -5 0 -11 -4 -15
-9z"/>
<path d="M516 1381 c-33 -35 -32 -66 5 -93 22 -17 29 -18 47 -7 44 27 45 62 4
110 -21 25 -23 24 -56 -10z"/>
<path d="M4313 1310 c-28 -35 -29 -52 -3 -75 17 -15 20 -31 20 -97 0 -45 4
-78 10 -78 6 0 10 32 10 76 0 59 4 80 16 89 22 16 21 57 -2 89 -11 14 -21 25
-24 25 -3 0 -15 -13 -27 -29z"/>
<path d="M4155 1240 c-3 -6 1 -13 10 -16 19 -8 30 0 20 15 -8 14 -22 14 -30 1z"/>
<path d="M476 1182 c-2 -4 -1 -14 4 -22 7 -11 12 -12 21 -3 6 6 8 16 5 22 -8
13 -23 14 -30 3z"/>
<path d="M710 1142 c-60 -10 -111 -82 -95 -132 16 -51 100 -63 128 -19 6 10
17 19 24 19 22 0 23 -17 2 -44 -18 -23 -28 -26 -80 -26 -57 0 -61 2 -102 44
-48 49 -75 61 -122 52 -107 -20 -136 -153 -46 -213 42 -28 91 -29 150 -3 24
11 65 20 91 20 43 0 51 -4 70 -30 30 -42 70 -60 130 -60 58 0 99 18 129 56 53
67 -6 164 -83 135 -25 -10 -28 -15 -30 -51 -1 -22 -56 -27 -56 -5 0 27 27 69
60 94 29 21 32 27 27 58 -10 59 -56 96 -132 105 -22 3 -51 3 -65 0z m116 -77
c14 -14 24 -33 22 -43 -4 -22 -38 -29 -38 -8 0 18 -30 36 -59 36 -11 0 -28
-11 -37 -25 -13 -20 -19 -23 -30 -14 -38 31 6 79 71 79 36 0 52 -6 71 -25z
m-307 -85 c10 -5 24 -23 31 -40 12 -30 13 -30 99 -32 47 0 93 -1 102 0 11 1
19 -9 22 -27 5 -26 11 -29 61 -35 70 -8 86 -1 86 35 0 36 16 38 32 4 10 -21 8
-30 -9 -52 -41 -56 -135 -47 -171 17 l-17 30 -99 0 c-79 0 -103 -3 -118 -17
-44 -40 -118 -7 -118 53 0 56 52 90 99 64z"/>
<path d="M473 943 c-15 -6 -17 -49 -3 -58 33 -20 65 26 38 53 -13 13 -16 13
-35 5z"/>
<path d="M4140 1115 c0 -8 9 -15 20 -15 11 0 20 7 20 15 0 8 -9 15 -20 15 -11
0 -20 -7 -20 -15z"/>
<path d="M3967 1012 c-10 -2 -16 -9 -14 -15 5 -15 394 -22 416 -8 7 5 10 14 6
20 -5 8 -62 11 -198 9 -106 -2 -200 -5 -210 -6z"/>
<path d="M4142 925 c2 -3 31 -7 64 -10 42 -3 51 -2 29 4 -33 10 -101 14 -93 6z"/>
<path d="M3945 911 c-44 -3 -86 -10 -94 -15 -25 -16 11 -26 73 -19 48 5 61 3
71 -11 21 -29 302 -21 312 9 2 6 -46 9 -128 6 -84 -2 -135 1 -142 8 -7 7 -3
13 14 20 l24 10 -25 -1 c-14 -1 -61 -4 -105 -7z"/>
<path d="M3820 792 c-17 -6 -11 -20 13 -25 26 -7 374 -7 500 0 58 3 87 8 87
17 0 9 -72 11 -295 11 -162 0 -299 -1 -305 -3z"/>
<path d="M1224 699 c-3 -6 -2 -15 4 -21 13 -13 32 -2 32 18 0 16 -26 19 -36 3z"/>
<path d="M3990 699 c-85 -3 -188 -7 -227 -8 -41 0 -73 -5 -73 -11 0 -6 73 -10
199 -10 199 0 200 0 204 -22 l4 -23 8 23 c7 21 11 22 154 22 114 0 152 3 167
15 10 8 15 15 9 16 -30 5 -311 4 -445 -2z"/>
<path d="M600 684 c0 -17 22 -14 28 4 2 7 -3 12 -12 12 -9 0 -16 -7 -16 -16z"/>
<path d="M520 680 c0 -5 5 -10 10 -10 6 0 10 5 10 10 0 6 -4 10 -10 10 -5 0
-10 -4 -10 -10z"/>
<path d="M890 675 c0 -12 20 -15 119 -15 66 0 126 3 135 6 42 16 4 24 -119 24
-113 0 -135 -2 -135 -15z"/>
<path d="M4080 600 c0 -16 5 -21 23 -18 12 2 22 10 22 18 0 8 -10 16 -22 18
-18 3 -23 -2 -23 -18z"/>
<path d="M3890 598 c0 -7 3 -24 7 -36 4 -18 8 -20 14 -10 14 22 10 58 -6 58
-8 0 -15 -6 -15 -12z"/>
<path d="M827 584 c-8 -8 1 -24 14 -24 5 0 9 7 9 15 0 15 -12 20 -23 9z"/>
<path d="M4083 544 c-7 -18 11 -39 26 -30 17 11 13 46 -4 46 -9 0 -18 -7 -22
-16z"/>
<path d="M917 544 c-14 -14 -7 -35 11 -32 9 2 17 10 17 17 0 16 -18 25 -28 15z"/>
<path d="M1172 524 c4 -21 22 -23 26 -1 2 10 -3 17 -13 17 -10 0 -15 -6 -13
-16z"/>
<path d="M3893 523 c-17 -6 -16 -48 1 -62 11 -10 17 -7 30 11 9 12 16 26 16
30 0 11 -33 26 -47 21z"/>
</g>
</svg>
