<?xml version="1.0" encoding="UTF-8"?>
<svg version="1.1" xmlns="http://www.w3.org/2000/svg" width="800" height="417">
<path d="M0 0 C7.91258809 5.39494643 10.90793651 13.55165733 12.9375 22.625 C20.21309067 63.76749945 9.95841682 109.47926144 2.0625 149.875 C1.87050018 150.86062927 1.67850037 151.84625854 1.48068237 152.86175537 C0.92809644 155.68020065 0.3666607 158.49669631 -0.19921875 161.3125 C-0.36157013 162.13372345 -0.52392151 162.9549469 -0.69119263 163.80105591 C-3.90884669 179.53384669 -3.90884669 179.53384669 -6.25 181.875 C-8.58297433 181.91592937 -10.91705225 181.91741723 -13.25 181.875 C-16.07995065 176.21509871 -13.77546532 168.54496798 -12.4921875 162.65625 C-12.11233175 160.83805132 -11.73287301 159.01976966 -11.35375977 157.20141602 C-11.15307892 156.25195099 -10.95239807 155.30248596 -10.74563599 154.32424927 C-6.03892431 131.95805352 -2.2159406 109.5359067 0.75 86.875 C0.89550293 85.77269043 1.04100586 84.67038086 1.19091797 83.53466797 C2.6637697 71.8633449 2.95704689 60.18857016 3.0625 48.4375 C3.08932861 46.46330078 3.08932861 46.46330078 3.11669922 44.44921875 C3.10667384 33.06039343 2.53070981 20.46152077 -4.25 10.875 C-8.93829136 10.28896358 -11.40382496 10.60545314 -15.25 13.4375 C-16.60311151 14.55990859 -17.9370336 15.7058845 -19.25 16.875 C-20.09691406 17.60009766 -20.09691406 17.60009766 -20.9609375 18.33984375 C-51.84048904 46.82731735 -66.62771712 97.85529029 -78.25 136.875 C-78.56275879 137.92365234 -78.87551758 138.97230469 -79.19775391 140.05273438 C-87.00578461 166.65417444 -92.68591337 194.25598096 -95.25 221.875 C-95.3428125 222.85001465 -95.435625 223.8250293 -95.53125 224.82958984 C-96.30883059 233.80092588 -96.49280062 242.7513835 -96.5 251.75 C-96.50067474 252.51579376 -96.50134949 253.28158752 -96.50204468 254.07058716 C-96.48379492 267.19114228 -95.74219284 279.96269376 -93.25 292.875 C-93.00056641 294.18210937 -93.00056641 294.18210937 -92.74609375 295.515625 C-89.74269442 310.55486904 -84.2261353 330.28179417 -70.91796875 339.48828125 C-62.73262895 344.18261991 -54.68966505 345.32545373 -45.37109375 343.2265625 C7.62202984 325.17650294 40.68760102 252.44341419 63.39599609 206.54833984 C63.92918457 205.46375488 64.46237305 204.37916992 65.01171875 203.26171875 C82.08880899 168.53927107 82.08880899 168.53927107 95.75 162.5625 C102.35001038 161.04999762 107.83436397 161.69911979 113.75 164.875 C117.96611586 167.72898612 121.32536742 170.03492548 122.5 175.125 C121.75 177.875 121.75 177.875 120.125 179.875 C117.75 180.875 117.75 180.875 114.75 180.3125 C111.69319664 178.84778172 110.00084862 177.36701097 107.75 174.875 C104.42739283 173.21369642 102.45539144 173.34565837 98.75 173.875 C86.06906483 181.39720348 80.42462356 197.4152993 76.75 210.875 C75.61241449 215.51379605 74.63933576 220.18248857 73.75 224.875 C81.43621194 217.42898219 88.10592948 209.30130501 94.4375 200.6875 C96.86119307 197.40607936 99.29626177 194.13401635 101.75 190.875 C102.4613208 189.91086182 102.4613208 189.91086182 103.18701172 188.92724609 C104.47265625 187.26171875 104.47265625 187.26171875 106.75 184.875 C110.5 184.875 110.5 184.875 113.75 185.875 C115.03028068 188.43556137 115.09869516 190.5935292 115.36328125 193.44921875 C116.48305639 216.75303855 116.48305639 216.75303855 126.75 236.875 C132.86350246 237.00236463 135.98955892 234.65750394 140.34375 230.51953125 C149.65194848 220.28957935 156.06288305 209.39139716 159.5 196 C164.26916106 178.48056966 172.20252948 155.77791732 188.1875 145.375 C192.60445375 143.51523 195.00176771 143.33012088 199.75 143.875 C202.1875 144.9375 202.1875 144.9375 203.75 146.875 C205.85420133 153.88900443 203.65883139 159.26882705 200.375 165.47265625 C195.33143928 173.89879736 188.73459386 180.91042459 181.8046875 187.8125 C172.44222362 197.56688097 166.58714318 210.27834376 166.5 223.6875 C166.4690625 224.86022461 166.4690625 224.86022461 166.4375 226.05664062 C166.39448927 232.49212068 167.76495333 236.89742999 171.375 242.3125 C175.14530928 244.79296663 178.38233256 244.7499113 182.75 243.875 C202.17729422 235.90400054 217.49381417 215.11930979 229.75 198.875 C230.18924805 198.29314941 230.62849609 197.71129883 231.08105469 197.11181641 C233.08672267 194.44973448 235.08348643 191.78167398 237.0703125 189.10546875 C238.75 186.875 238.75 186.875 239.75 185.875 C242.6875 185.6875 242.6875 185.6875 245.75 185.875 C246.41 186.535 247.07 187.195 247.75 187.875 C247.6710546 194.23799964 245.17204744 197.73740254 241.375 202.5 C240.83770264 203.19367676 240.30040527 203.88735352 239.74682617 204.60205078 C234.60436868 211.18867987 229.24475281 217.58101042 223.75 223.875 C223.00234375 224.74640625 222.2546875 225.6178125 221.484375 226.515625 C209.80716867 239.87300491 195.7478595 254.23886987 177.3125 256.25 C171.00025477 255.58555313 165.75646151 253.36250856 161.375 248.6875 C157.29273591 243.42918199 155.97781454 237.29568155 154.75 230.875 C154.193125 231.52726563 153.63625 232.17953125 153.0625 232.8515625 C140.42990196 247.31930147 140.42990196 247.31930147 130.75 248.875 C125.08421303 248.95231093 121.05635839 247.71327596 116.75 243.875 C108.40932591 233.21978885 105.52109726 219.15135912 105.75 205.875 C102.76496079 208.67912774 100.16890555 211.55261428 97.6875 214.8125 C94.43697627 219.04889686 91.06696905 223.16881564 87.625 227.25 C87.12218506 227.85706787 86.61937012 228.46413574 86.10131836 229.08959961 C82.83297969 232.93536808 79.80022279 236.18176755 74.6875 237.34375 C73.7284375 237.35921875 73.7284375 237.35921875 72.75 237.375 C71.7909375 237.42140625 71.7909375 237.42140625 70.8125 237.46875 C67.61006617 236.54683723 65.94737198 234.28600537 63.75 231.875 C63.4190332 232.46700195 63.08806641 233.05900391 62.74707031 233.66894531 C28.8089419 294.28108793 28.8089419 294.28108793 5.203125 319.26953125 C3.11972845 321.48231071 1.14252399 323.73748316 -0.8125 326.0625 C-13.85308853 340.94411279 -32.26029739 354.0299023 -52.3828125 356.09375 C-64.76126727 356.62615666 -74.37789807 352.13850249 -83.3671875 343.9453125 C-105.71350956 320.90338509 -108.46543927 282.03469263 -108.23046875 251.6796875 C-106.89620709 172.5862433 -84.08705511 78.71708222 -34.25 15.875 C-33.60160156 15.0396875 -32.95320313 14.204375 -32.28515625 13.34375 C-24.31152778 3.58778105 -12.84039107 -4.44475075 0 0 Z M189.75 158.875 C188.76216806 159.95043783 187.78506057 161.03573217 186.8125 162.125 C185.99458984 163.02992188 185.99458984 163.02992188 185.16015625 163.953125 C183.68787201 165.95967305 183.17470811 167.44502449 182.75 169.875 C185.68200474 167.02223863 188.39315404 164.22420216 190.75 160.875 C190.42 160.215 190.09 159.555 189.75 158.875 Z M181.75 169.875 C181.75 172.875 181.75 172.875 181.75 172.875 Z " fill="#000000" transform="translate(136.25,20.125)"/>
<path d="M0 0 C1.175625 -0.01675781 2.35125 -0.03351562 3.5625 -0.05078125 C10.71176421 0.70476599 14.70781381 4.45247054 19.171875 9.734375 C32.4266272 28.42697426 27.47962511 58.26749119 24 79.3125 C22.69193558 86.50849348 21.18022116 93.65537476 19.56689453 100.78857422 C19.07430288 102.98168898 18.60745399 105.17779686 18.15234375 107.37890625 C17.91644531 108.45011719 17.68054688 109.52132812 17.4375 110.625 C17.25058594 111.48738281 17.06367187 112.34976563 16.87109375 113.23828125 C15.74624427 115.91673449 14.53256699 116.92684412 12 118.3125 C8.75 117.5 8.75 117.5 6 116.3125 C5.60241 109.0586913 7.12202535 102.65373718 8.8125 95.625 C12.64441226 78.87249235 15.23245782 62.9715836 15.375 45.75 C15.38901855 44.59636963 15.40303711 43.44273926 15.41748047 42.25415039 C15.36304182 32.58291467 14.60531955 21.88919008 8 14.3125 C4.99051353 11.64695484 2.72844995 11.07074877 -1.1875 11.25 C-19.19682208 14.08259205 -32.07147683 33.8893687 -42.109375 47.4921875 C-49.30978849 57.4220331 -55.77371725 67.75146344 -62 78.3125 C-62.46341797 79.08980469 -62.92683594 79.86710937 -63.40429688 80.66796875 C-98.64283555 139.93058661 -141.29680024 227.5791982 -123.47900391 298.3828125 C-121.58272801 305.15047384 -119.56049222 310.84961251 -115 316.3125 C-115 316.9725 -115 317.6325 -115 318.3125 C-114.4225 318.60125 -113.845 318.89 -113.25 319.1875 C-111.88943369 319.86778315 -110.54409682 320.58180564 -109.234375 321.35546875 C-102.57316274 324.20861036 -94.42116437 322.85063423 -87.875 320.3125 C-77.59117364 315.49533923 -69.17899865 308.06592474 -61 300.3125 C-60.23816406 299.59191406 -59.47632813 298.87132812 -58.69140625 298.12890625 C-52.97235502 292.56844223 -47.86945283 286.62350897 -43 280.3125 C-42.48808105 279.64992188 -41.97616211 278.98734375 -41.44873047 278.3046875 C-22.86581786 254.07035449 -7.99053801 227.39595302 6 200.3125 C5.21724197 200.4939859 5.21724197 200.4939859 4.41867065 200.67913818 C-4.05753728 202.51623369 -12.63162051 203.39682324 -21.2421875 204.328125 C-22.8998366 204.50936979 -24.55748014 204.69066543 -26.21511841 204.87200928 C-29.66909249 205.24850239 -33.12347505 205.62097414 -36.578125 205.99121094 C-41.00447376 206.46640828 -45.42897505 206.9569961 -49.85323906 207.45117569 C-53.26670454 207.82983993 -56.68126652 208.19775193 -60.09622574 208.56267548 C-61.72893263 208.73896509 -63.36121668 208.91921802 -64.99303818 209.10352325 C-67.26758215 209.3593305 -69.54324857 209.59997255 -71.81982422 209.83691406 C-73.11314667 209.97744202 -74.40646912 210.11796997 -75.73898315 210.26275635 C-78.94214806 210.31161752 -80.46203369 210.22534458 -83 208.3125 C-83.9375 205.375 -83.9375 205.375 -84 202.3125 C-83.0090332 200.69677734 -83.0090332 200.69677734 -81 199.3125 C-78.262813 198.75841356 -75.68490774 198.37863193 -72.91796875 198.1015625 C-72.09179047 198.00831696 -71.26561218 197.91507141 -70.41439819 197.81900024 C-67.67331042 197.51276412 -64.93059091 197.22519154 -62.1875 196.9375 C-60.27778323 196.727417 -58.36819798 196.51613531 -56.45874023 196.30371094 C-51.36883794 195.74089774 -46.27733109 195.19427593 -41.18518066 194.65222168 C-34.74628902 193.96546909 -28.30866891 193.26686684 -21.87098694 192.56887817 C-16.75794186 192.01476093 -11.64456936 191.46447519 -6.5300293 190.92431641 C-4.66715464 190.72558885 -2.80428027 190.52685853 -0.94140625 190.328125 C-0.09226654 190.23979401 0.75687317 190.15146301 1.63174438 190.06045532 C2.80681046 189.93433365 2.80681046 189.93433365 4.00561523 189.80566406 C4.68422104 189.73414124 5.36282684 189.66261841 6.06199646 189.58892822 C10.19908857 189.09662338 10.19908857 189.09662338 13.4375 186.75 C15 185.3125 15 185.3125 17.4375 185 C20 185.3125 20 185.3125 21.7590332 186.3815918 C24.91726213 187.69353502 27.06942973 187.11120378 30.41796875 186.51953125 C31.67287109 186.30103516 32.92777344 186.08253906 34.22070312 185.85742188 C34.87304932 185.73681396 35.52539551 185.61620605 36.19750977 185.49194336 C38.1608489 185.12991432 40.12829288 184.79038054 42.09570312 184.45117188 C48.30005148 183.34472447 54.26724935 182.14395677 60.16748047 179.90039062 C63.1668789 178.93815356 65.89965794 178.99613857 69 179.3125 C71 181.3125 71 181.3125 71.125 184.4375 C71.08375 185.38625 71.0425 186.335 71 187.3125 C55.6479257 196.08511388 37.19329774 197.07357376 20 199.3125 C19.88914062 200.52381592 19.77828125 201.73513184 19.6640625 202.9831543 C18.96268493 209.26156797 17.65521131 215.40036599 16.375 221.58203125 C15.97197649 223.55822001 15.56896907 225.53441212 15.16662502 227.51073933 C14.7396349 229.6066323 14.31117284 231.70222091 13.88259888 233.79779053 C4.76938682 278.41908787 -3.09806159 323.14554105 -9 368.3125 C-8.195625 368.456875 -7.39125 368.60125 -6.5625 368.75 C-4 369.3125 -4 369.3125 -3 370.3125 C-1.89717151 377.40211173 -5.08416562 383.50245506 -9 389.3125 C-11.5390625 391.203125 -11.5390625 391.203125 -14 392.3125 C-16.6875 391.8125 -16.6875 391.8125 -19 390.3125 C-36.0067603 364.39743669 -6.75943332 279.91713466 -1.23339844 250.00097656 C-0.14475398 244.10677153 0.93181188 238.21044463 2 232.3125 C1.58862793 233.02567383 1.17725586 233.73884766 0.75341797 234.47363281 C-8.18471692 249.91155363 -17.35136895 264.97212474 -28 279.3125 C-28.48807129 279.97024414 -28.97614258 280.62798828 -29.47900391 281.30566406 C-35.69425371 289.6026688 -42.41877739 297.34738857 -49.58740234 304.83251953 C-50.90050759 306.20826167 -52.19519962 307.60151434 -53.48828125 308.99609375 C-65.69628774 321.80351136 -82.11696923 333.86510313 -100.3125 334.6875 C-109.16994471 334.47894521 -116.84909287 331.52338121 -123.2265625 325.328125 C-139.81023073 306.47972675 -138.11061448 277.7945369 -137 254.3125 C-130.71791369 172.97225074 -86.71645158 64.1412997 -24 9.3125 C-16.32401837 3.67086323 -9.69920155 0.03190527 0 0 Z " fill="#000000" transform="translate(519,18.6875)"/>
<path d="M0 0 C2.69645002 2.09363788 3.51088476 3.77051856 3.9375 7.125 C6.03774704 38.81133571 -18.17515137 74.71940806 -32.00292969 102.03759766 C-32.43980103 102.91896896 -32.43980103 102.91896896 -32.88549805 103.81814575 C-33.76531379 105.54055612 -34.68569888 107.24224162 -35.62036133 108.93551636 C-40.61164637 118.27538888 -43.26349004 127.44940705 -45.59375 137.7421875 C-45.99149576 139.43948172 -46.39074226 141.13642485 -46.79138184 142.83303833 C-47.8367238 147.27883095 -48.86070674 151.72927513 -49.88031006 156.18103027 C-50.89721398 160.60180299 -51.9363158 165.01734574 -52.97265625 169.43359375 C-57.84353777 190.24644188 -62.50202848 211.10352287 -67 232 C-66.4536792 231.03750336 -65.9073584 230.07500671 -65.34448242 229.08334351 C-64.61904212 227.80861822 -63.89353398 226.53393153 -63.16796875 225.25927734 C-62.80892456 224.62630234 -62.44988037 223.99332733 -62.07995605 223.34117126 C-47.08811202 197.02937067 -47.08811202 197.02937067 -35 193 C-31.1868048 192.47143829 -27.90689233 192.67022097 -24.25 194 C-17.62750791 199.88665964 -17.01343736 208.46094001 -15.9375 216.75 C-15.64495186 218.97540984 -15.34198376 221.19948101 -15.02734375 223.421875 C-14.90093506 224.39737305 -14.77452637 225.37287109 -14.64428711 226.37792969 C-13.94396128 229.22806207 -12.9100721 230.80314102 -11 233 C9.61409628 227.27220479 24.10932601 198.17463166 34.91796875 181.21875 C37 178 37 178 38 177 C40.9375 176.8125 40.9375 176.8125 44 177 C46 179 46 179 46.484375 181.5390625 C45.76554892 186.67519075 43.1350012 190.14317839 40.25 194.375 C39.66379883 195.25333496 39.07759766 196.13166992 38.47363281 197.03662109 C30.4182457 208.99417451 21.97272266 220.55863436 12 231 C11.33484375 231.72832031 10.6696875 232.45664062 9.984375 233.20703125 C4.26040578 239.2802978 -1.55307543 244.16119991 -10.1875 244.5625 C-14.81161397 244.28290241 -17.57306379 243.26374877 -21 240 C-26.75905638 231.55211266 -27.31077996 221.22432912 -28.4375 211.35546875 C-28.92735465 208.43334972 -29.48541617 206.50537408 -31 204 C-53.65622928 214.98483844 -65.37996038 255.10306436 -73.625 276.83984375 C-79.01920339 291.01920339 -79.01920339 291.01920339 -81 293 C-83.9375 293.1875 -83.9375 293.1875 -87 293 C-89.41990917 290.58009083 -89.32218705 289.98610643 -89.375 286.65625 C-89.19565558 277.44990297 -86.91067539 268.46891594 -85 259.5 C-84.59392182 257.55311231 -84.18849284 255.6060891 -83.78369141 253.65893555 C-80.82092249 239.49493633 -77.65803876 225.37650883 -74.30078125 211.30078125 C-74.13712067 210.60607224 -73.97346008 209.91136322 -73.80484009 209.19560242 C-73.36699513 207.33874368 -72.92275426 205.48339633 -72.47802734 203.62817383 C-72.32027832 202.76087646 -72.1625293 201.8935791 -72 201 C-72.33 200.67 -72.66 200.34 -73 200 C-73.63164063 200.51949219 -74.26328125 201.03898438 -74.9140625 201.57421875 C-86.53747467 210.63512074 -97.42445352 213.99680789 -112 213 C-112.26425781 213.74121094 -112.52851562 214.48242188 -112.80078125 215.24609375 C-115.78910884 222.10853985 -121.26002144 226.991081 -128 230 C-133.29831834 231.34866285 -137.97761012 231.20985155 -143 229 C-149.04376562 225.31209201 -152.30789275 220.82249238 -154.375 214.0859375 C-156.60545888 203.07304676 -155.30158166 192.37068768 -149.609375 182.6171875 C-145.97281337 177.43030223 -142.08396778 174.02798926 -136 172 C-135.38125 171.05125 -134.7625 170.1025 -134.125 169.125 C-131.87764672 165.8200687 -130.66720754 164.50022127 -127 163 C-123.00854386 162.42059508 -120.58788784 162.13818413 -117.03515625 164.06640625 C-111.39504682 168.44255881 -109.61506295 173.42067536 -108.4375 180.2734375 C-107.98674759 184.11288209 -107.86718454 187.82275544 -107.875 191.6875 C-107.87113281 193.61142578 -107.87113281 193.61142578 -107.8671875 195.57421875 C-107.97217209 198.28220371 -108.18404122 200.442034 -109 203 C-91.54306574 201.20478336 -79.01548331 192.27506963 -68 179 C-67.34 179 -66.68 179 -66 179 C-65.81172386 177.28093697 -65.81172386 177.28093697 -65.61964417 175.52714539 C-65.0664425 171.12261497 -64.13620629 166.87489919 -63.08569336 162.56567383 C-62.89357269 161.76252747 -62.70145203 160.9593811 -62.50350952 160.13189697 C-61.87004326 157.48918963 -61.23017832 154.84808211 -60.58984375 152.20703125 C-60.13936675 150.33743619 -59.68914065 148.46778066 -59.239151 146.59806824 C-58.29293021 142.67104055 -57.34350751 138.74480435 -56.3918457 134.8190918 C-55.19456689 129.87901357 -54.00541673 124.93702248 -52.81854057 119.99443626 C-48.60149008 102.44578957 -44.37234839 84.9028329 -39.59765625 67.49609375 C-39.29593002 66.39199661 -38.9942038 65.28789948 -38.68333435 64.15034485 C-23.67395484 10.54944069 -23.67395484 10.54944069 -7.92578125 0.703125 C-5.14736292 -0.31130765 -2.92809659 -0.31149964 0 0 Z M-9 18 C-8 20 -8 20 -8 20 Z M-10 20 C-15.47777358 30.74835004 -20.1506271 41.60230686 -24.125 53 C-24.52710693 54.13937012 -24.92921387 55.27874023 -25.34350586 56.45263672 C-25.70710205 57.5201416 -26.07069824 58.58764648 -26.4453125 59.6875 C-26.77031738 60.64011719 -27.09532227 61.59273437 -27.43017578 62.57421875 C-28.25185425 65.11909089 -28.25185425 65.11909089 -27 68 C-21.555062 56.01847384 -16.14454873 44.03887451 -11.75 31.625 C-11.45085693 30.79452148 -11.15171387 29.96404297 -10.84350586 29.10839844 C-9.20037411 24.60568797 -9.20037411 24.60568797 -10 20 Z M-29 68 C-28 70 -28 70 -28 70 Z M-125.5625 175.5 C-127.53092203 178.92334267 -128.2471384 182.09521333 -128 186 C-126.55859777 190.3242067 -124.48877624 194.01617822 -121 197 C-120.34 197 -119.68 197 -119 197 C-118.91827064 194.4784979 -118.85916627 191.95970083 -118.8125 189.4375 C-118.78736328 188.73302734 -118.76222656 188.02855469 -118.73632812 187.30273438 C-118.66467696 182.11996685 -119.67827402 178.63735818 -122 174 C-124.1205318 173.76915606 -124.1205318 173.76915606 -125.5625 175.5 Z M-139 187 C-143.59503818 192.92908152 -145.3515963 198.64503888 -144.8125 206.125 C-144.13973702 211.21765928 -142.81997976 215.11726232 -139.1875 218.875 C-136.08743762 220.46931779 -134.45662331 220.60999235 -131 220 C-127.25099363 217.51109807 -124.49241009 214.73861513 -122 211 C-122 210.01 -122 209.02 -122 208 C-123.57379477 206.62630732 -123.57379477 206.62630732 -125.625 205.375 C-132.00355115 200.82858588 -136.05135437 194.59971796 -138 187 C-138.33 187 -138.66 187 -139 187 Z " fill="#000000" transform="translate(750,28)"/>
</svg>
