<?xml version="1.0" standalone="no"?>
<!DOCTYPE svg PUBLIC "-//W3C//DTD SVG 20010904//EN"
 "http://www.w3.org/TR/2001/REC-SVG-20010904/DTD/svg10.dtd">
<svg version="1.0" xmlns="http://www.w3.org/2000/svg"
 width="164.000000pt" height="148.000000pt" viewBox="0 0 164.000000 148.000000"
 preserveAspectRatio="xMidYMid meet">

<g transform="translate(0.000000,148.000000) scale(0.100000,-0.100000)"
fill="#000000" stroke="none">
<path d="M1325 1420 c-3 -5 -1 -19 5 -30 11 -20 -3 -30 -15 -10 -8 12 -55 13
-55 1 0 -4 12 -21 26 -36 22 -24 24 -32 15 -47 -6 -10 -11 -32 -11 -48 0 -103
118 -158 192 -91 29 27 31 31 18 45 -8 8 -30 17 -49 18 -29 2 -37 -2 -48 -22
-13 -25 -13 -25 -13 -2 0 13 15 38 36 58 19 20 34 41 32 47 -2 7 -23 21 -46
32 -29 14 -44 29 -52 52 -13 36 -25 48 -35 33z m60 -170 c3 -6 -1 -7 -9 -4
-18 7 -21 14 -7 14 6 0 13 -4 16 -10z"/>
<path d="M235 1388 c5 -20 4 -21 -5 -5 -13 20 -50 23 -68 5 -19 -19 -14 -45
10 -62 22 -16 22 -16 1 -16 -25 0 -33 -18 -33 -72 0 -32 7 -47 34 -74 29 -29
41 -34 81 -34 40 0 52 5 81 34 40 40 46 76 12 76 -63 0 -97 -13 -107 -39 -6
-16 -10 -19 -10 -9 -1 25 16 65 38 87 42 42 52 81 21 81 -13 0 -20 7 -20 19 0
10 -7 22 -16 25 -24 9 -26 8 -19 -16z m45 -48 c0 -5 -4 -10 -10 -10 -5 0 -10
5 -10 10 0 6 5 10 10 10 6 0 10 -4 10 -10z"/>
<path d="M582 1394 c-12 -8 -22 -22 -22 -30 0 -8 -5 -14 -10 -14 -6 0 -10 -6
-8 -12 1 -7 -4 -24 -11 -37 -8 -15 -11 -41 -8 -70 7 -63 49 -101 113 -101 39
0 51 5 80 34 50 50 45 60 -41 68 -19 2 -34 11 -41 26 l-11 22 -26 -26 c-28
-28 -34 -26 -17 6 6 11 28 25 50 31 22 7 40 14 40 16 0 1 -9 12 -21 24 -11 11
-18 27 -15 35 5 12 2 12 -15 3 -27 -14 -37 -4 -21 21 15 24 13 25 -16 4z"/>
<path d="M933 1374 c-3 -8 -3 -17 0 -21 3 -3 -1 -12 -9 -21 -9 -8 -13 -23 -11
-34 3 -10 1 -16 -3 -13 -16 10 -16 -30 -1 -49 9 -11 10 -16 4 -12 -27 15 -12
-27 21 -60 26 -26 42 -34 70 -34 49 0 92 23 111 60 21 40 19 52 -7 48 -13 -2
-22 -8 -21 -14 3 -15 -61 -11 -80 5 -14 11 -17 8 -26 -21 l-11 -33 5 40 c3 22
6 47 7 57 2 12 10 15 35 11 21 -4 33 -2 33 6 0 6 -9 11 -20 11 -11 0 -20 5
-20 11 0 5 8 9 18 8 31 -3 42 1 42 14 -1 34 -125 72 -137 41z m97 -14 c0 -5
-2 -10 -4 -10 -3 0 -8 5 -11 10 -3 6 -1 10 4 10 6 0 11 -4 11 -10z"/>
<path d="M1485 1330 c10 -11 20 -20 23 -20 3 0 -3 9 -13 20 -10 11 -20 20 -23
20 -3 0 3 -9 13 -20z"/>
<path d="M751 1244 c0 -11 3 -14 6 -6 3 7 2 16 -1 19 -3 4 -6 -2 -5 -13z"/>
<path d="M1006 854 c-3 -8 -14 -14 -24 -14 -11 0 -32 -10 -46 -21 -25 -20 -27
-27 -24 -80 2 -33 2 -59 0 -59 -1 0 -7 10 -12 23 -5 12 -9 16 -9 7 -1 -26 38
-80 65 -90 39 -15 86 -12 120 9 35 21 67 81 61 114 -4 19 -4 18 -6 -5 -1 -29
-48 -74 -86 -84 -13 -3 -34 -2 -47 2 -13 5 -30 9 -38 9 -18 0 -15 43 4 63 10
11 19 10 47 -5 19 -10 38 -24 42 -30 4 -7 15 -13 24 -13 18 0 16 11 -19 112
-23 67 -41 90 -52 62z"/>
<path d="M1290 860 c-44 -8 -57 -15 -71 -41 -10 -20 -10 -20 21 -4 20 11 42
14 59 10 25 -6 25 -7 7 -21 -18 -13 -18 -14 -2 -14 14 0 16 -4 10 -17 -17 -40
-15 -88 6 -121 41 -67 141 -71 192 -8 10 11 18 24 18 27 0 15 -53 19 -90 8
-29 -9 -43 -9 -53 -1 -10 9 -16 9 -25 0 -18 -18 -14 3 4 24 14 14 14 21 4 33
-10 12 -8 12 19 -1 17 -9 29 -19 26 -24 -3 -5 8 -3 25 3 24 9 29 16 24 32 -9
27 -25 46 -34 40 -5 -3 -12 0 -16 6 -4 8 -3 9 4 5 25 -16 10 14 -17 33 -42 30
-71 38 -111 31z"/>
<path d="M196 849 c3 -5 11 -9 19 -9 8 0 11 -7 8 -18 -2 -10 5 -26 16 -36 18
-16 25 -17 47 -8 14 7 22 17 19 22 -4 6 6 10 21 10 45 0 12 23 -38 27 -24 2
-50 6 -58 10 -26 11 -40 12 -34 2z"/>
<path d="M650 849 c12 -8 10 -9 -7 -4 -55 15 -123 -58 -123 -132 0 -75 73
-131 147 -111 34 9 83 60 83 86 0 13 -3 12 -15 -5 -8 -12 -31 -27 -50 -33 -30
-10 -40 -9 -61 5 -14 9 -28 24 -32 33 -5 13 -8 10 -13 -13 -6 -26 -7 -24 -8
16 -1 61 21 83 75 74 37 -6 38 -5 20 9 -11 9 -26 16 -33 16 -28 0 -11 20 27
31 32 10 38 15 29 26 -6 7 -21 13 -33 13 -17 0 -18 -2 -6 -11z"/>
<path d="M1080 836 c0 -2 8 -10 18 -17 15 -13 16 -12 3 4 -13 16 -21 21 -21
13z"/>
<path d="M160 780 c-13 -19 -17 -30 -9 -30 8 0 6 -6 -4 -18 -19 -20 -23 -37
-7 -27 6 4 10 -5 10 -20 0 -54 80 -102 143 -84 32 9 87 58 87 78 0 20 -48 76
-66 79 -26 4 -48 -22 -39 -45 6 -17 7 -17 16 0 13 23 29 13 29 -18 0 -29 -41
-59 -68 -51 -18 6 -35 31 -45 66 -3 9 -9 1 -15 -20 -10 -34 -10 -34 -11 -7 -1
19 9 38 27 56 l27 28 -20 21 c-27 28 -30 28 -55 -8z"/>
<path d="M1010 345 c-7 -8 -21 -15 -30 -15 -22 0 -76 -44 -78 -62 0 -7 -4 -29
-7 -49 -9 -46 14 -98 54 -122 34 -20 96 -22 129 -3 28 15 62 64 62 90 0 17 -2
17 -22 4 -40 -26 -72 -29 -110 -10 l-35 19 -10 -26 -10 -26 -8 28 c-8 32 11
87 30 87 8 0 15 5 17 12 3 9 18 6 53 -9 47 -20 65 -21 65 -4 0 4 -11 13 -24
19 -14 6 -29 26 -36 46 -13 39 -21 44 -40 21z"/>
<path d="M178 329 c-10 -5 -18 -21 -18 -35 0 -14 -7 -39 -16 -56 -21 -41 -11
-89 27 -128 25 -25 39 -30 78 -30 53 0 84 18 106 60 12 24 12 30 0 40 -10 8
-19 8 -34 1 -26 -15 -64 -14 -79 1 -10 10 -15 10 -22 -2 -5 -8 -10 -10 -10 -5
0 6 9 25 21 44 l21 34 -26 24 c-21 19 -24 28 -16 43 12 23 -3 27 -32 9z m22
-45 c0 -17 -22 -14 -28 4 -2 7 3 12 12 12 9 0 16 -7 16 -16z"/>
<path d="M570 329 c0 -10 50 -32 57 -25 2 2 -10 11 -26 19 -17 9 -31 11 -31 6z"/>
<path d="M1390 330 c0 -7 -7 -10 -15 -6 -10 4 -15 -1 -15 -15 0 -11 -4 -18 -8
-15 -5 3 -21 -8 -37 -24 -61 -64 -20 -183 66 -190 49 -4 68 1 98 26 42 35 42
57 0 42 -22 -8 -37 -7 -55 1 -22 9 -26 8 -34 -12 l-9 -22 0 23 c-1 12 9 30 20
40 69 55 85 72 86 92 1 15 -2 20 -13 16 -8 -3 -30 8 -49 25 -19 17 -35 26 -35
19z"/>
<path d="M325 280 c10 -11 20 -20 23 -20 3 0 -3 9 -13 20 -10 11 -20 20 -23
20 -3 0 3 -9 13 -20z"/>
<path d="M541 275 c-65 -84 -10 -195 98 -195 58 0 101 40 108 100 4 37 1 50
-16 70 l-22 25 7 -25 c7 -25 7 -25 -15 -6 l-21 19 0 -35 c0 -35 -24 -68 -49
-68 -6 0 -24 12 -38 26 -20 20 -28 23 -34 12 -7 -10 -9 -10 -9 2 1 8 8 24 16
35 14 19 16 19 25 2 15 -25 27 -13 25 25 -1 28 -6 34 -28 36 -18 2 -32 -5 -47
-23z"/>
</g>
</svg>
