<?xml version="1.0" encoding="utf-8"?>
<!-- Generator: Adobe Illustrator 27.5.0, SVG Export Plug-In . SVG Version: 6.00 Build 0)  -->
<svg version="1.1" xmlns="http://www.w3.org/2000/svg" xmlns:xlink="http://www.w3.org/1999/xlink" x="0px" y="0px"
	 viewBox="0 0 300 500" xml:space="preserve">
<g id="OBJECTS">
	<g>
		<g>
			<path style="fill:#FFFFFF;stroke:#000000;stroke-width:0.5;stroke-miterlimit:10;" d="M139.48,94.466
				c-1.263,6.101-2.322,12.391-1.29,18.535c1.032,6.144,4.519,12.198,10.188,14.781c-0.504-2.07-1.009-4.14-1.513-6.21
				c1.652,3.35,3.75,6.668,6.958,8.581c3.208,1.913,7.766,1.99,10.355-0.702c-0.28,1.07-0.559,2.139-0.839,3.209
				c5.876-10.409,10.481-22.377,8.278-34.125c-1.476-7.872-5.908-15.003-7.001-22.938c-1.079-7.835,1.188-15.783,0.645-23.673
				c-0.237-3.441-1.081-6.987-3.318-9.613c-3.169-3.72-9.033-4.804-13.322-2.464c-8.726,4.761-4.108,15.109-4.13,22.735
				C144.461,73.393,141.657,83.95,139.48,94.466z"/>
			<g>
				<g>
					<path d="M144.945,123.804c-1.115-1.992-1.994-4.124-2.614-6.333c-0.628-2.207-0.986-4.489-1.138-6.78
						c-0.111-2.293-0.014-4.601,0.357-6.865c0.365-2.265,0.995-4.484,1.877-6.589c-0.708,2.169-1.202,4.397-1.496,6.645
						c-0.288,2.248-0.388,4.521-0.239,6.781c0.108,2.262,0.468,4.509,1.009,6.71C143.25,119.572,143.994,121.729,144.945,123.804z"
						/>
				</g>
				<g>
					<path d="M145.961,117.872c-0.547-1.663-0.759-3.431-0.737-5.185c0.04-1.754,0.314-3.513,0.922-5.155
						c-0.226,1.733-0.4,3.442-0.422,5.164C145.684,114.417,145.796,116.132,145.961,117.872z"/>
				</g>
				<g>
					<path d="M162.993,127.593c1.525-2.698,2.589-5.625,3.298-8.619c0.703-2.999,1.072-6.073,1.143-9.153
						c0.11-3.081-0.068-6.169-0.339-9.246c-0.278-3.078-0.658-6.151-1.017-9.228c0.543,3.049,1.054,6.105,1.4,9.189
						c0.352,3.081,0.528,6.19,0.456,9.3c-0.113,3.107-0.479,6.218-1.27,9.23C165.881,122.078,164.676,124.989,162.993,127.593z"/>
				</g>
				<g>
					<path d="M169.428,96.745c-0.206-2.439-0.881-4.796-1.72-7.073c-0.847-2.28-1.848-4.503-2.827-6.744
						c-0.94-2.257-1.839-4.554-2.391-6.954c-0.558-2.39-0.755-4.9-0.296-7.31c-0.274,2.435,0.057,4.878,0.669,7.218
						c0.62,2.346,1.505,4.617,2.477,6.85c0.936,2.251,1.951,4.483,2.728,6.813C168.854,91.866,169.407,94.295,169.428,96.745z"/>
				</g>
				<g>
					<path d="M142.4,90.384c0.774-2.625,1.438-5.278,2-7.949c0.555-2.672,1.02-5.363,1.326-8.074
						c0.346-2.706,0.537-5.43,0.633-8.158c0.09-2.728,0.076-5.462-0.05-8.197c0.311,2.72,0.458,5.462,0.435,8.205
						c-0.017,2.743-0.212,5.484-0.522,8.21c-0.35,2.721-0.81,5.43-1.448,8.098C144.144,85.188,143.348,87.816,142.4,90.384z"/>
				</g>
				<g>
					<path d="M149.765,39.419c-1.752,1.357-3.042,3.215-3.608,5.295c-0.572,2.078-0.41,4.333,0.404,6.395
						c-1.178-1.894-1.484-4.334-0.886-6.527C146.279,42.391,147.787,40.448,149.765,39.419z"/>
				</g>
				<g>
					<path d="M157.138,39.271c1.072,0.561,1.924,1.514,2.508,2.588c0.594,1.076,0.921,2.286,1.04,3.505
						c0.107,1.219,0.025,2.443-0.184,3.632c-0.204,1.192-0.501,2.356-0.853,3.505c0.31-2.379,0.763-4.746,0.539-7.092
						C159.973,43.099,159.059,40.754,157.138,39.271z"/>
				</g>
				<g>
					<path d="M156.304,46.153c0.555,1.414,0.733,2.97,0.632,4.493c-0.117,1.521-0.515,3.037-1.268,4.356
						c0.387-1.464,0.671-2.915,0.77-4.392C156.553,49.134,156.479,47.657,156.304,46.153z"/>
				</g>
				<g>
					<path d="M152.532,48.657c-0.028,3.817-0.121,7.622-0.07,11.429c-0.007,3.808,0.13,7.611,0.2,11.428
						c-0.486-3.788-0.649-7.608-0.699-11.425C151.971,56.272,152.091,52.45,152.532,48.657z"/>
				</g>
			</g>
		</g>
		
			<ellipse style="fill:#FFFFFF;stroke:#000000;stroke-width:0.5;stroke-miterlimit:10;" cx="154.24" cy="56.974" rx="25.703" ry="26.084"/>
		<g>
			<path style="fill:#FFFFFF;stroke:#000000;stroke-width:0.5;stroke-miterlimit:10;" d="M211.356,273.633
				c-1.448,2.513-2.895,5.026-4.343,7.539c-2.014,0.601-4.14,1.192-6.154,1.793c-0.042-0.923,0.181-1.979,0.682-2.754
				c0.715-1.107,2.094-1.542,3.363-1.897c1.686-3.547,3.457-7.061,5.143-10.609"/>
			<path style="fill:#FFFFFF;stroke:#000000;stroke-width:0.5;stroke-miterlimit:10;" d="M211.595,279.096
				c-2.041,2.06-4.081,4.121-6.122,6.182c-2.101,0.068-4.307,0.097-6.408,0.165c0.195-0.903,0.679-1.867,1.362-2.49
				c0.973-0.888,2.418-0.957,3.735-0.977c2.535-3,5.143-5.946,7.678-8.947"/>
			<path style="fill:#FFFFFF;stroke:#000000;stroke-width:0.5;stroke-miterlimit:10;" d="M211.595,283.097
				c-2.041,2.061-4.081,4.121-6.122,6.182c-2.101,0.068-4.307,0.097-6.408,0.165c0.195-0.903,0.679-1.867,1.362-2.489
				c0.973-0.888,2.418-0.957,3.735-0.977c2.535-3,5.143-5.946,7.678-8.947"/>
		</g>
		<g>
			<path style="fill:#FFFFFF;stroke:#000000;stroke-width:0.5;stroke-miterlimit:10;" d="M97.915,273.633
				c1.448,2.513,2.895,5.026,4.343,7.539c2.014,0.601,4.14,1.192,6.154,1.793c0.042-0.923-0.181-1.979-0.682-2.754
				c-0.715-1.107-2.094-1.542-3.363-1.897c-1.686-3.547-3.457-7.061-5.143-10.609"/>
			<path style="fill:#FFFFFF;stroke:#000000;stroke-width:0.5;stroke-miterlimit:10;" d="M97.676,279.096
				c2.041,2.06,4.081,4.121,6.122,6.182c2.101,0.068,4.307,0.097,6.407,0.165c-0.194-0.903-0.679-1.867-1.361-2.49
				c-0.973-0.888-2.418-0.957-3.735-0.977c-2.535-3-5.143-5.946-7.678-8.947"/>
			<path style="fill:#FFFFFF;stroke:#000000;stroke-width:0.5;stroke-miterlimit:10;" d="M97.676,283.097
				c2.041,2.061,4.081,4.121,6.122,6.182c2.101,0.068,4.307,0.097,6.407,0.165c-0.194-0.903-0.679-1.867-1.361-2.489
				c-0.973-0.888-2.418-0.957-3.735-0.977c-2.535-3-5.143-5.946-7.678-8.947"/>
		</g>
		<path style="fill:#FFFFFF;stroke:#000000;stroke-width:0.5;stroke-miterlimit:10;" d="M217.371,189.973
			c-6.905-27.712,3.745-69.758-14.553-73.377l-1.744-0.113c-0.972-0.43-2.831-0.927-3.869-1.131
			c-9.203-1.813-31.097-12.714-31.213-15.453c-0.339-7.972,0.07-16.403,0.321-24.364l-7.76,0.977v-0.128l-3.918,0.438l-3.918-0.438
			v0.128l-7.759-0.977c0.251,7.961,0.66,16.392,0.321,24.364c-0.116,2.738-21.041,13.64-30.245,15.453
			c-1.038,0.204-2.897,0.702-3.869,1.131l-1.744,0.113c-18.299,3.62-8.616,45.665-15.521,73.377
			c-5.079,13.632-2.25,50.5-0.653,64.158c0.81,6.931,1.766,20.9,2.151,27.87c2.297,2.799,4.383,6.401,6.055,9.641
			c1.896,0.642,3.67,1.198,5.237,2.476c0.856-1.004,0.761-2.772-0.007-3.849c-0.768-1.077-1.954-1.733-3.1-2.354
			c-0.766-2.142-1.9-4.764-2.666-6.906c-1.362-3.812-0.014-8.296,0.316-12.345c1.512,3.547,2.716,6.654,3.598,10.422
			c0.557,2.38,0.203,5.248,1.914,6.939c0.316,0.312,0.682,0.604,1.113,0.678c0.431,0.074,0.935-0.141,1.069-0.572
			c0.054-0.175,0.044-0.363,0.033-0.546c-0.121-2.031-0.243-4.061-0.364-6.092c-0.148-2.474-0.446-5.544-0.562-8.02
			c-0.083-1.767,0.44-4.901-0.011-6.607c-0.598-2.264-1.15-6.904-3.512-9.626c-1.401-1.614-1.845-3.852-1.358-5.933
			c2.33-9.971,12.813-30.139,9.199-51.718c-0.719-4.295,4.998-37.596,7.453-48.98c-3.827,19.491,6.849,43.928,3.831,52.118
			c-4.355,11.816-6.528,16.66-8.785,32.193h37.866h7.837h37.866c-2.257-15.534-5.398-20.377-9.753-32.193
			c-3.018-8.19,8.522-32.186,4.799-52.118c2.454,11.384,8.172,44.684,7.453,48.98c-3.614,21.579,6.869,41.747,9.199,51.718
			c0.486,2.081,0.043,4.319-1.358,5.933c-2.363,2.721-2.914,7.362-3.512,9.626c-0.451,1.706,0.072,4.84-0.011,6.607
			c-0.116,2.475-0.414,5.546-0.562,8.02c-0.121,2.031-0.243,4.061-0.364,6.092c-0.011,0.183-0.021,0.371,0.033,0.546
			c0.134,0.431,0.637,0.646,1.069,0.572c0.431-0.074,0.797-0.365,1.113-0.678c1.711-1.691,1.357-4.56,1.914-6.939
			c0.882-3.768,2.086-6.875,3.598-10.422c0.33,4.049,1.678,8.534,0.316,12.345c-0.766,2.142-1.9,4.763-2.666,6.906
			c-1.146,0.621-2.332,1.277-3.1,2.354c-0.768,1.077-0.862,2.845-0.007,3.849c1.567-1.278,3.34-1.834,5.237-2.476
			c1.671-3.24,3.758-6.841,6.055-9.641c0.386-6.97,1.341-20.939,2.152-27.87C219.62,240.473,222.45,203.605,217.371,189.973z"/>
		<g>
			<path d="M95.834,191.24c1.473,1.878,2.67,3.968,3.651,6.147c0.965,2.186,1.719,4.474,2.128,6.825
				c-0.789-2.25-1.614-4.464-2.585-6.622C98.075,195.425,96.981,193.33,95.834,191.24z"/>
		</g>
		<g>
			<path d="M103.848,198.597c0.402-0.807,1.027-1.479,1.731-2.031c0.715-0.538,1.527-0.968,2.41-1.146
				c-0.721,0.536-1.428,1.012-2.106,1.543C105.195,197.479,104.551,198.039,103.848,198.597z"/>
		</g>
		<g>
			<path d="M121.364,116.151c2.465-0.329,4.947-0.548,7.435-0.649c2.488-0.109,4.98-0.089,7.469-0.009
				c2.488,0.122,4.973,0.312,7.443,0.625c1.235,0.157,2.466,0.339,3.694,0.544c0.304,0.061,0.615,0.088,0.927,0.201
				c0.305,0.113,0.574,0.293,0.815,0.496c0.482,0.411,0.85,0.92,1.215,1.422c-0.396-0.477-0.798-0.96-1.291-1.326
				c-0.246-0.181-0.512-0.333-0.798-0.418c-0.28-0.083-0.595-0.093-0.903-0.133c-1.232-0.154-2.465-0.294-3.701-0.404
				c-2.47-0.233-4.943-0.426-7.421-0.509c-2.477-0.122-4.958-0.134-7.438-0.108C126.328,115.919,123.846,116.005,121.364,116.151z"
				/>
		</g>
		<g>
			<g>
				<g>
					<path style="fill:#FFFFFF;stroke:#000000;stroke-width:0.5;stroke-miterlimit:10;" d="M154.635,266.942
						c-0.803-2.874-30.606-24.197-41.666-27.054c-10.317,46.089,6.405,114.11,7.792,120.006c1.938,8.236-0.605,35.45-0.21,41.857
						c1.542,24.983,5.201,34.317,5.069,61.331c-0.035,7.296-21.878,15.757-25.339,17.065c-1.807,0.684-4.324-0.247-4.978,1.304
						c-0.366,0.868,0.348,1.846,1.275,1.835l45.842-0.494c2.475-0.03,4.564-1.942,4.742-4.478c0.049-0.704,0.04-1.416-0.017-2.119
						c-0.184-2.274-1.176-3.544-1.823-5.737c-0.29-0.98-0.643-1.991-0.971-2.991c-0.349-1.061-0.406-2.193-0.177-3.275
						c0.418-1.973,0.698-4.883-0.416-6.664c-0.2-0.32-0.351-0.68-0.358-1.057c-0.44-22.015,7.322-33.335,7.852-57.678
						c0.294-13.511-3.711-35.874-4.874-42.684C145.032,348.218,156.038,271.961,154.635,266.942z"/>
					<g>
						<g>
							<path d="M113.858,478.461c-1.448,0.256-2.902,0.457-4.357,0.65c-0.365,0.053-0.729,0.086-1.036,0.189
								c-0.307,0.103-0.524,0.308-0.564,0.59c-0.082,0.599,0.372,1.225,0.883,1.667c1.03,0.932,2.504,1.364,3.9,1.188
								c1.42-0.161,2.729-0.897,4.015-1.589c-1.174,0.863-2.445,1.708-3.959,1.97c-1.505,0.269-3.115-0.189-4.289-1.197
								c-0.544-0.512-1.117-1.208-0.996-2.119c0.067-0.463,0.487-0.815,0.875-0.92c0.393-0.125,0.771-0.13,1.132-0.16
								C110.924,478.616,112.388,478.511,113.858,478.461z"/>
						</g>
						<g>
							<path d="M108.442,479.018c-0.877,0.169-1.757,0.317-2.639,0.441l-1.323,0.191c-0.223,0.028-0.435,0.053-0.628,0.105
								c-0.177,0.033-0.394,0.174-0.422,0.208l-0.034,0.047c-0.162,0.175-0.179,0.457-0.082,0.737
								c0.091,0.278,0.279,0.534,0.498,0.773c0.44,0.468,1.016,0.817,1.634,1.041c0.621,0.222,1.289,0.323,1.959,0.25
								c0.67-0.059,1.331-0.261,1.974-0.52c-0.586,0.368-1.235,0.664-1.936,0.794c-0.698,0.129-1.441,0.097-2.133-0.113
								c-0.69-0.212-1.345-0.576-1.857-1.115c-0.25-0.263-0.49-0.573-0.61-0.958c-0.126-0.361-0.127-0.871,0.199-1.215l-0.034,0.046
								c0.26-0.315,0.484-0.34,0.733-0.416c0.24-0.054,0.472-0.07,0.692-0.088l1.333-0.089
								C106.658,479.074,107.549,479.035,108.442,479.018z"/>
						</g>
						<g>
							<path d="M104.865,482.562c-0.476,0.282-1.01,0.51-1.584,0.571c-0.571,0.071-1.17,0.011-1.718-0.203
								c-0.543-0.206-1.061-0.535-1.444-1.005c-0.189-0.235-0.352-0.522-0.406-0.852c-0.044-0.333-0.005-0.736,0.45-0.98
								l-0.086,0.047l0.008-0.006l0.015-0.013l0.006-0.004c0.281-0.182,0.573-0.193,0.826-0.212l0.761-0.038
								c0.507-0.022,1.016-0.029,1.527-0.02c-0.497,0.116-0.995,0.216-1.495,0.301c-0.48,0.096-1.067,0.121-1.368,0.33l0.021-0.016
								l-0.007,0.007l-0.086,0.047c0.073-0.027-0.029,0.034-0.035,0.065c-0.027,0.035-0.043,0.076-0.058,0.118
								c-0.024,0.086-0.023,0.188-0.005,0.294c0.041,0.218,0.158,0.429,0.318,0.619c0.312,0.397,0.758,0.678,1.229,0.9
								c0.475,0.204,0.994,0.335,1.527,0.327C103.793,482.83,104.333,482.728,104.865,482.562z"/>
						</g>
						<g>
							<path d="M100.231,480.297l-0.007,0.008l-0.001,0c-0.731,0.179-1.467,0.305-2.203,0.421c-0.368,0.061-0.75,0.101-0.845,0.293
								c-0.112,0.163-0.011,0.512,0.191,0.748c0.406,0.529,1.06,0.87,1.741,1.006c0.689,0.139,1.423-0.009,2.131-0.252
								c-0.613,0.426-1.38,0.704-2.181,0.633c-0.788-0.061-1.569-0.432-2.087-1.082c-0.236-0.323-0.489-0.809-0.189-1.316
								c0.16-0.227,0.412-0.324,0.615-0.362c0.211-0.043,0.397-0.042,0.583-0.051c0.745-0.038,1.492-0.067,2.243-0.042l0,0
								L100.231,480.297z"/>
						</g>
					</g>
				</g>
				<g>
					<path d="M124.98,364.725c2.038-1.41,4.018-2.867,5.873-4.48c1.866-1.599,3.597-3.343,5.258-5.182
						c-1.352,2.081-3.055,3.931-4.931,5.56C129.29,362.241,127.216,363.651,124.98,364.725z"/>
				</g>
			</g>
			<g>
				<path d="M137.45,460.888c0.466,0.887,0.921,1.726,1.463,2.522c0.528,0.806,1.131,1.55,1.748,2.34
					c-0.876-0.494-1.598-1.23-2.163-2.062C137.946,462.847,137.542,461.89,137.45,460.888z"/>
			</g>
		</g>
		<g>
			<g>
				<g>
					<path style="fill:#FFFFFF;stroke:#000000;stroke-width:0.5;stroke-miterlimit:10;" d="M154.759,266.942
						c0.803-2.874,30.606-24.197,41.666-27.054c10.317,46.089-6.405,114.11-7.792,120.006c-1.938,8.236,0.605,35.45,0.21,41.857
						c-1.542,24.983-5.201,34.317-5.069,61.331c0.036,7.296,21.879,15.757,25.339,17.065c1.807,0.684,4.324-0.247,4.978,1.304
						c0.366,0.868-0.348,1.846-1.275,1.835l-45.842-0.494c-2.475-0.03-4.564-1.942-4.742-4.478c-0.049-0.704-0.04-1.416,0.017-2.119
						c0.184-2.274,1.176-3.544,1.823-5.737c0.289-0.98,0.642-1.991,0.971-2.991c0.349-1.061,0.406-2.193,0.177-3.275
						c-0.418-1.973-0.698-4.883,0.416-6.664c0.2-0.32,0.351-0.68,0.358-1.057c0.44-22.015-7.322-33.335-7.852-57.678
						c-0.294-13.511,3.711-35.874,4.874-42.684C164.363,348.218,153.356,271.961,154.759,266.942z"/>
					<g>
						<g>
							<path d="M195.537,478.461c1.47,0.051,2.934,0.156,4.397,0.269c0.362,0.03,0.739,0.034,1.133,0.16
								c0.388,0.105,0.808,0.457,0.875,0.92c0.12,0.911-0.453,1.606-0.996,2.119c-1.174,1.008-2.784,1.466-4.289,1.197
								c-1.514-0.262-2.785-1.107-3.959-1.97c1.286,0.693,2.594,1.429,4.015,1.589c1.396,0.176,2.87-0.256,3.9-1.188
								c0.511-0.442,0.965-1.068,0.883-1.667c-0.041-0.283-0.257-0.488-0.564-0.59c-0.307-0.102-0.671-0.135-1.036-0.189
								C198.439,478.918,196.985,478.716,195.537,478.461z"/>
						</g>
						<g>
							<path d="M200.952,479.018c0.894,0.017,1.785,0.056,2.673,0.119l1.334,0.089c0.22,0.019,0.452,0.035,0.692,0.088
								c0.249,0.076,0.473,0.101,0.733,0.416l-0.033-0.046c0.326,0.345,0.326,0.854,0.199,1.215c-0.12,0.385-0.36,0.695-0.61,0.958
								c-0.511,0.539-1.167,0.903-1.857,1.115c-0.692,0.21-1.435,0.242-2.133,0.113c-0.701-0.13-1.35-0.426-1.936-0.794
								c0.643,0.259,1.304,0.461,1.974,0.52c0.67,0.072,1.338-0.029,1.959-0.25c0.618-0.223,1.195-0.572,1.634-1.041
								c0.219-0.239,0.407-0.495,0.498-0.773c0.097-0.28,0.08-0.562-0.082-0.737l-0.034-0.047c-0.028-0.033-0.246-0.175-0.422-0.208
								c-0.193-0.052-0.406-0.077-0.628-0.105l-1.323-0.191C202.709,479.336,201.83,479.187,200.952,479.018z"/>
						</g>
						<g>
							<path d="M204.53,482.562c0.532,0.166,1.072,0.268,1.604,0.275c0.532,0.008,1.051-0.123,1.527-0.327
								c0.471-0.221,0.917-0.502,1.229-0.9c0.16-0.19,0.277-0.401,0.318-0.619c0.018-0.107,0.019-0.208-0.004-0.294
								c-0.015-0.041-0.031-0.082-0.058-0.118c-0.006-0.031-0.107-0.091-0.035-0.065l-0.086-0.047l-0.007-0.007l0.021,0.016
								c-0.301-0.209-0.888-0.234-1.368-0.33c-0.5-0.084-0.999-0.185-1.495-0.301c0.51-0.009,1.019-0.002,1.527,0.02l0.761,0.038
								c0.253,0.019,0.546,0.03,0.826,0.212l0.006,0.004l0.015,0.013l0.008,0.006l-0.086-0.047c0.456,0.245,0.494,0.647,0.451,0.98
								c-0.054,0.329-0.218,0.617-0.407,0.852c-0.383,0.471-0.9,0.799-1.443,1.005c-0.548,0.214-1.147,0.273-1.718,0.203
								C205.54,483.071,205.005,482.844,204.53,482.562z"/>
						</g>
						<g>
							<path d="M209.163,480.297l0.008,0.006l-0.001,0c0.751-0.025,1.497,0.005,2.243,0.042c0.185,0.009,0.372,0.008,0.583,0.051
								c0.203,0.038,0.455,0.134,0.615,0.362c0.3,0.507,0.047,0.993-0.189,1.316c-0.517,0.65-1.298,1.021-2.087,1.082
								c-0.8,0.072-1.568-0.206-2.181-0.633c0.708,0.243,1.442,0.391,2.131,0.252c0.682-0.136,1.335-0.477,1.741-1.006
								c0.203-0.236,0.304-0.585,0.191-0.748c-0.095-0.193-0.476-0.232-0.845-0.293c-0.737-0.117-1.472-0.242-2.203-0.421l-0.001,0
								L209.163,480.297z"/>
						</g>
					</g>
				</g>
				<g>
					<path d="M184.415,364.725c-2.236-1.074-4.31-2.484-6.199-4.101c-1.876-1.63-3.58-3.479-4.932-5.56
						c1.661,1.84,3.392,3.583,5.258,5.182C180.397,361.858,182.376,363.315,184.415,364.725z"/>
				</g>
			</g>
			<g>
				<path d="M171.945,460.888c-0.092,1.002-0.497,1.959-1.047,2.8c-0.565,0.832-1.288,1.569-2.163,2.062
					c0.617-0.79,1.22-1.534,1.748-2.34C171.024,462.613,171.479,461.774,171.945,460.888z"/>
			</g>
		</g>
		<path style="fill:#FFFFFF;stroke:#000000;stroke-width:0.5;stroke-miterlimit:10;" d="M158.554,232.923h-7.837h-37.866v6.965
			l16.941,12.291c3.834,2.687,18.215,11.79,23.17,14.393c0.96,0.504,2.414,0.492,3.411-0.034
			c5.014-2.647,19.288-11.684,23.106-14.359l16.941-12.291v-6.965H158.554z"/>
		<g>
			<path d="M213.437,191.24c-1.147,2.091-2.241,4.186-3.195,6.35c-0.97,2.157-1.796,4.372-2.585,6.622
				c0.41-2.351,1.164-4.639,2.128-6.825C210.767,195.208,211.964,193.117,213.437,191.24z"/>
		</g>
		<g>
			<path d="M205.423,198.597c-0.703-0.559-1.347-1.118-2.035-1.635c-0.678-0.531-1.385-1.007-2.106-1.543
				c0.884,0.178,1.695,0.608,2.41,1.146C204.396,197.118,205.021,197.791,205.423,198.597z"/>
		</g>
		<g>
			<path d="M154.544,220.082c-0.582-0.798-0.81-1.719-0.895-2.64c-0.056-0.923,0.031-1.868,0.489-2.744
				c0.334,0.926,0.427,1.791,0.508,2.669C154.696,218.247,154.734,219.117,154.544,220.082z"/>
		</g>
		<g>
			<path d="M187.907,116.151c-2.482-0.146-4.965-0.232-7.445-0.267c-2.48-0.027-4.961-0.014-7.438,0.108
				c-2.479,0.082-4.952,0.276-7.421,0.509c-1.236,0.11-2.469,0.25-3.701,0.404c-0.308,0.04-0.624,0.05-0.904,0.133
				c-0.286,0.084-0.552,0.237-0.798,0.418c-0.493,0.366-0.895,0.849-1.291,1.326c0.364-0.502,0.732-1.011,1.214-1.422
				c0.241-0.203,0.51-0.383,0.815-0.496c0.312-0.114,0.623-0.141,0.927-0.201c1.227-0.205,2.459-0.387,3.694-0.544
				c2.47-0.313,4.955-0.503,7.443-0.625c2.489-0.08,4.982-0.101,7.469,0.009C182.961,115.603,185.442,115.822,187.907,116.151z"/>
		</g>
		<g>
			<path d="M117.041,242.127c2.164,1.512,4.341,3.002,6.526,4.477c2.189,1.469,4.381,2.933,6.613,4.335
				c2.21,1.436,4.459,2.811,6.712,4.18c2.256,1.364,4.523,2.713,6.803,4.043c-2.368-1.167-4.703-2.404-6.998-3.712
				c-2.298-1.303-4.55-2.685-6.786-4.091c-2.214-1.44-4.415-2.902-6.562-4.441C121.198,245.386,119.096,243.786,117.041,242.127z"/>
		</g>
		<g>
			<path d="M163.78,260.994l5.677-3.53c1.881-1.192,3.763-2.381,5.609-3.625c1.868-1.211,3.701-2.474,5.535-3.737l5.475-3.836
				c-1.706,1.438-3.456,2.823-5.251,4.149c-1.791,1.331-3.632,2.595-5.483,3.841c-1.874,1.213-3.757,2.411-5.685,3.536
				C167.733,258.922,165.771,259.988,163.78,260.994z"/>
		</g>
		<g>
			<path d="M153.614,208.688c-0.207-3.825-0.22-7.649-0.25-11.474c0.029-3.825,0.042-7.649,0.25-11.474
				c0.208,3.824,0.221,7.649,0.25,11.474C153.834,201.038,153.82,204.863,153.614,208.688z"/>
		</g>
		<g>
			<g>
				<path d="M120.157,176.781c2.775-0.092,5.55-0.158,8.325-0.191l8.325-0.058l8.325,0.057c2.775,0.034,5.55,0.1,8.325,0.192
					c-2.775,0.092-5.55,0.159-8.325,0.192l-8.325,0.057l-8.325-0.058C125.707,176.939,122.932,176.873,120.157,176.781z"/>
			</g>
		</g>
		<g>
			<g>
				<path d="M190.534,152.718c-2.543-1.993-5.096-4.081-8.099-5.277c-2.996-1.231-6.311-1.302-9.511-1.043
					c-3.218,0.274-6.384,1.004-9.458,1.996c-1.539,0.493-3.057,1.053-4.571,1.632c-1.525,0.558-3,1.222-4.644,1.58
					c-0.405,0.088-0.898,0.078-1.302-0.031c-0.412-0.094-0.803-0.218-1.191-0.349c-0.775-0.262-1.535-0.55-2.294-0.835
					c-1.518-0.573-3.034-1.139-4.567-1.656c-3.063-1.032-6.2-1.877-9.406-2.26c-3.186-0.366-6.512-0.322-9.514,0.878
					c-3.012,1.177-5.53,3.323-8.031,5.364c1.219-1.07,2.44-2.139,3.735-3.123c1.29-0.984,2.672-1.882,4.197-2.488
					c3.049-1.254,6.433-1.339,9.654-0.987c3.245,0.364,6.413,1.194,9.501,2.209c1.545,0.508,3.072,1.066,4.593,1.628
					c0.761,0.279,1.521,0.561,2.284,0.813c0.778,0.232,1.511,0.53,2.254,0.346c1.534-0.32,3.049-0.976,4.568-1.523
					c1.52-0.569,3.051-1.122,4.605-1.607c3.103-0.977,6.305-1.691,9.558-1.945c3.228-0.244,6.602-0.129,9.641,1.155
					C185.583,148.452,188.046,150.663,190.534,152.718z"/>
			</g>
			<g>
				<path d="M188.054,176.781c-2.9,0.092-5.8,0.158-8.701,0.191l-8.701,0.058l-8.701-0.057c-2.9-0.034-5.801-0.1-8.701-0.192
					c2.9-0.092,5.8-0.159,8.701-0.192l8.701-0.057l8.701,0.058C182.254,176.623,185.154,176.69,188.054,176.781z"/>
			</g>
		</g>
		<g>
			<path d="M141.679,175.495c3.734-0.206,7.467-0.22,11.201-0.25c3.734,0.029,7.467,0.042,11.201,0.25
				c-3.734,0.208-7.467,0.221-11.201,0.25C149.146,175.715,145.412,175.702,141.679,175.495z"/>
		</g>
		<g>
			<g>
				<g>
					<path style="fill:#FFFFFF;stroke:#000000;stroke-width:0.5;stroke-miterlimit:10;" d="M130.166,62.392
						c-0.296-0.025-0.624-0.02-0.852,0.157c-0.164,0.126-0.247,0.32-0.306,0.51c-0.407,1.333,0.164,2.748,0.853,3.977
						c0.69,1.229,1.525,2.443,1.693,3.82c0.104,0.848-0.053,1.725,0.191,2.547c0.335,1.13,1.477,2.014,2.736,2.116
						c-0.171-3.043-0.344-6.086-0.513-9.129C133.843,64.134,133.153,62.392,130.166,62.392z"/>
					<g>
						<path d="M130.257,65.041c-0.213-0.525,0.036-1.202,0.561-1.521l0.1-0.061l0.073,0.11c0.834,1.25,1.495,2.625,1.932,4.071
							l0.032,0.104l-0.066,0.112c-0.089,0.15-0.333,0.187-0.416,0.15c-0.099-0.023-0.162-0.054-0.218-0.077
							c-0.131-0.055-0.141-0.057-0.166-0.045c-0.089,0.041-0.152,0.145-0.099,0.323c0.132,0.375,0.431,0.827,0.629,1.265
							c0.212,0.445,0.407,0.926,0.451,1.436c0.034,0.501-0.064,1.04-0.389,1.417c0.228-0.436,0.257-0.93,0.152-1.384
							c-0.09-0.458-0.301-0.882-0.546-1.291c-0.248-0.426-0.519-0.776-0.744-1.308c-0.122-0.275-0.021-0.768,0.37-0.911
							c0.095-0.039,0.213-0.052,0.32-0.028c0.093,0.021,0.158,0.051,0.216,0.074c0.055,0.024,0.105,0.042,0.125,0.045
							c0.034-0.006-0.071,0.004-0.09,0.048l-0.035,0.216c-0.434-1.404-0.991-2.771-1.68-4.084l0.173,0.048
							C130.486,63.948,130.165,64.49,130.257,65.041z"/>
					</g>
					<g>
						<path d="M130.985,66.637c-0.295-0.377-0.222-0.932,0.065-1.295l0.082-0.104l0.101-0.001c0.373-0.004,0.688,0.329,0.624,0.638
							c-0.228-0.191-0.447-0.188-0.593-0.159l0.183-0.105C131.282,65.92,131.159,66.209,130.985,66.637z"/>
					</g>
				</g>
				<g>
					<path style="fill:#FFFFFF;stroke:#000000;stroke-width:0.5;stroke-miterlimit:10;" d="M178.65,62.392
						c0.296-0.025,0.624-0.02,0.852,0.157c0.164,0.126,0.247,0.32,0.306,0.51c0.407,1.333-0.164,2.748-0.853,3.977
						c-0.69,1.229-1.525,2.443-1.693,3.82c-0.104,0.848,0.053,1.725-0.191,2.547c-0.335,1.13-1.477,2.014-2.736,2.116
						c0.171-3.043,0.344-6.086,0.513-9.129C174.973,64.134,175.663,62.392,178.65,62.392z"/>
					<g>
						<path d="M178.559,65.041c0.092-0.552-0.229-1.093-0.683-1.29l0.173-0.048c-0.689,1.312-1.246,2.68-1.68,4.084l-0.035-0.216
							c-0.019-0.043-0.124-0.054-0.089-0.048c0.02-0.003,0.069-0.022,0.125-0.045c0.058-0.023,0.123-0.053,0.216-0.074
							c0.106-0.024,0.224-0.01,0.319,0.028c0.391,0.144,0.492,0.636,0.37,0.911c-0.224,0.532-0.496,0.882-0.744,1.308
							c-0.245,0.409-0.456,0.832-0.546,1.291c-0.105,0.454-0.076,0.948,0.152,1.384c-0.325-0.377-0.423-0.916-0.389-1.417
							c0.043-0.51,0.238-0.991,0.451-1.436c0.197-0.438,0.497-0.89,0.629-1.265c0.053-0.178-0.01-0.281-0.099-0.322
							c-0.025-0.012-0.035-0.009-0.166,0.045c-0.056,0.023-0.119,0.055-0.218,0.077c-0.083,0.036-0.327,0-0.416-0.15l-0.066-0.112
							l0.032-0.104c0.437-1.446,1.098-2.822,1.932-4.071l0.073-0.11l0.1,0.061C178.523,63.84,178.772,64.517,178.559,65.041z"/>
					</g>
					<g>
						<path d="M177.831,66.637c-0.174-0.428-0.297-0.717-0.464-1.028l0.183,0.105c-0.146-0.029-0.365-0.031-0.593,0.159
							c-0.063-0.309,0.251-0.642,0.624-0.638l0.101,0.001l0.083,0.104C178.052,65.705,178.126,66.26,177.831,66.637z"/>
					</g>
				</g>
			</g>
			<path style="fill:#FFFFFF;stroke:#000000;stroke-width:0.5;stroke-miterlimit:10;" d="M174.676,53.928l-4.447-4.793
				c-2.124-2.29-5.107-3.591-8.23-3.591h-15.514c-3.379,0-6.578,1.522-8.711,4.143l-3.652,4.49l-0.791,7.339l0.958,13.189
				c0,17.159,14.237,17.32,15.258,18.661c1.445,1.898,9.122,2.311,11.182-0.301c1.198-1.518,13.801-2.63,13.801-18.36l0.973-13.189
				L174.676,53.928z"/>
			<g>
				<g>
					<path style="fill:#FFFFFF;stroke:#000000;stroke-width:0.5;stroke-miterlimit:10;" d="M148.725,65.038
						c-1.051,0.105-2.117,0.203-3.192,0.252c-1.317,0.073-2.651,0.089-3.968-0.008c-1.544-0.097-3.055-0.349-4.51-0.819
						c0.921-1.362,2.303-2.4,3.863-2.911c0.097-0.032,0.186-0.057,0.283-0.081c1.471-0.43,2.918-0.349,4.421-0.227
						c0.04,0,0.081,0.008,0.121,0.016c0.824,0.097,1.568,0.584,1.964,1.322C148.119,63.36,148.394,64.252,148.725,65.038z"/>
					<path d="M145.962,63.165c0,0.835-0.295,1.589-0.765,2.124c-1.094,0.073-2.201,0.089-3.295-0.008
						c-0.47-0.527-0.758-1.281-0.758-2.116c0-0.632,0.168-1.216,0.456-1.695c1.221-0.43,2.423-0.349,3.671-0.227
						c0.034,0,0.067,0.008,0.101,0.016C145.74,61.771,145.962,62.436,145.962,63.165z"/>
					<g>
						<path d="M136.274,63.54c0.433-0.964,1.383-1.562,2.262-2.068c0.905-0.509,1.889-0.882,2.902-1.117
							c1.015-0.226,2.058-0.341,3.095-0.288c1.035,0.05,2.064,0.227,3.031,0.577c-2.027-0.306-4.058-0.262-6.013,0.198
							c-0.979,0.214-1.925,0.559-2.841,0.971C137.81,62.246,136.877,62.701,136.274,63.54z"/>
					</g>
					<g>
						<path d="M147.475,60.603c0.592,0.558,1.029,1.239,1.387,1.951c0.342,0.721,0.61,1.484,0.685,2.294
							c-0.444-0.68-0.784-1.378-1.134-2.075C148.079,62.068,147.739,61.371,147.475,60.603z"/>
					</g>
				</g>
				<g>
					<path d="M135.03,58.132c0.981-0.837,2.22-1.344,3.438-1.724c1.229-0.385,2.489-0.639,3.757-0.823
						c0.633-0.101,1.275-0.145,1.917-0.197c0.323-0.021,0.647-0.029,0.979-0.023c0.163-0.002,0.341,0.015,0.519,0.026
						c0.11,0.019,0.246,0.041,0.332,0.071l0.229,0.09c0.604,0.256,1.213,0.593,1.699,1.052c0.479,0.464,0.875,0.961,1.246,1.488
						c-0.538-0.352-1.035-0.76-1.567-1.061c-0.521-0.313-1.07-0.524-1.659-0.688c-0.414-0.169-1.105-0.021-1.703,0.007
						c-0.619,0.057-1.238,0.14-1.859,0.217c-1.24,0.159-2.477,0.353-3.707,0.575C137.425,57.385,136.2,57.617,135.03,58.132z"/>
				</g>
				<g>
					<path style="fill:#FFFFFF;stroke:#000000;stroke-width:0.5;stroke-miterlimit:10;" d="M171.755,64.463
						c-1.495,0.478-3.055,0.73-4.639,0.835c-1.059,0.065-2.134,0.065-3.201,0.032c-1.285-0.057-2.57-0.17-3.823-0.292
						c0.331-0.786,0.606-1.678,1.018-2.457c0.412-0.778,1.212-1.273,2.085-1.338c0.154-0.008,0.307-0.024,0.461-0.032
						c1.317-0.097,2.594-0.122,3.896,0.235c0.113,0.033,0.234,0.065,0.348,0.105C169.46,62.063,170.834,63.1,171.755,64.463z"/>
					<path d="M167.781,63.165c0,0.868-0.351,1.646-0.903,2.132c-0.903,0.065-1.82,0.065-2.73,0.032
						c-0.572-0.486-0.937-1.273-0.937-2.165c0-0.771,0.276-1.468,0.717-1.954c1.124-0.097,2.212-0.122,3.322,0.235
						C167.581,61.908,167.781,62.517,167.781,63.165z"/>
					<g>
						<path d="M172.542,63.54c-0.603-0.839-1.536-1.294-2.436-1.727c-0.916-0.412-1.862-0.757-2.841-0.971
							c-1.954-0.46-3.986-0.504-6.013-0.198c0.966-0.349,1.995-0.527,3.03-0.577c1.037-0.053,2.08,0.062,3.095,0.288
							c1.014,0.234,1.997,0.608,2.902,1.117C171.159,61.978,172.109,62.576,172.542,63.54z"/>
					</g>
					<g>
						<path d="M161.341,60.603c-0.264,0.768-0.605,1.465-0.938,2.171c-0.35,0.698-0.69,1.395-1.134,2.075
							c0.074-0.811,0.343-1.573,0.685-2.294C160.313,61.842,160.749,61.161,161.341,60.603z"/>
					</g>
				</g>
				<g>
					<path d="M173.786,58.132c-1.248-0.555-2.565-0.785-3.878-1.04c-1.317-0.23-2.641-0.436-3.968-0.589
						c-0.662-0.086-1.328-0.156-1.982-0.201c-0.159-0.008-0.331-0.028-0.479-0.026l-0.226-0.002
						c-0.048,0.013-0.07-0.007-0.145,0.017c-0.298,0.089-0.592,0.206-0.883,0.338c-1.157,0.552-2.226,1.404-3.329,2.209
						c0.831-1.077,1.726-2.146,2.958-2.896c0.305-0.187,0.628-0.357,0.973-0.481c0.083-0.035,0.235-0.057,0.352-0.078l0.282-0.018
						c0.19-0.014,0.356-0.005,0.536-0.009c0.698,0.018,1.381,0.083,2.064,0.155c1.36,0.178,2.71,0.431,4.029,0.826
						C171.397,56.722,172.731,57.238,173.786,58.132z"/>
				</g>
				<g>
					<path d="M150.125,57.841c0.83,0.728,1.282,1.807,1.531,2.861c0.234,1.071,0.285,2.157,0.186,3.238
						c-0.292-1.051-0.432-2.107-0.674-3.128C150.939,59.787,150.635,58.799,150.125,57.841z"/>
				</g>
			</g>
			<g>
				<g>
					<path d="M146.411,80.136c1.301,0.53,2.665,0.835,4.04,1.027c1.377,0.18,2.766,0.271,4.155,0.238
						c1.389,0.005,2.777-0.109,4.15-0.311c1.37-0.212,2.738-0.513,4.006-1.119c-1.172,0.792-2.562,1.205-3.938,1.498
						c-1.386,0.285-2.801,0.398-4.214,0.432c-1.413-0.009-2.83-0.094-4.221-0.36C149.004,81.268,147.625,80.854,146.411,80.136z"/>
				</g>
				<g>
					<path d="M153.088,80.127c0.572,0.061,1.064,0.074,1.585,0.052c0.519-0.009,1.033-0.064,1.611-0.052
						c-0.455,0.362-1.023,0.524-1.596,0.552C154.123,80.69,153.5,80.55,153.088,80.127z"/>
				</g>
				<g>
					<path d="M145.605,80.578c0.238-0.383,0.59-0.626,0.964-0.807c0.382-0.164,0.796-0.271,1.241-0.199
						c-0.332,0.303-0.678,0.482-1.034,0.654C146.413,80.381,146.051,80.525,145.605,80.578z"/>
				</g>
				<g>
					<path d="M161.728,79.438c0.332-0.035,0.608,0.07,0.865,0.204c0.247,0.15,0.478,0.334,0.618,0.638
						c-0.354,0.024-0.617-0.073-0.865-0.203C162.108,79.929,161.89,79.753,161.728,79.438z"/>
				</g>
				<g>
					<path d="M150.427,83.678c1.475,0.162,2.921,0.267,4.374,0.223c1.453-0.027,2.892-0.202,4.358-0.434
						c-1.357,0.609-2.855,0.89-4.346,0.934C153.321,84.427,151.813,84.219,150.427,83.678z"/>
				</g>
			</g>
			<g>
				<g>
					<path d="M150.598,74.253c-0.18,0.25-0.324,0.49-0.385,0.735c-0.053,0.245-0.049,0.474,0.047,0.681
						c0.086,0.214,0.255,0.408,0.446,0.597c0.195,0.187,0.431,0.343,0.684,0.52c-0.606,0.035-1.284-0.269-1.59-0.922
						c-0.141-0.331-0.117-0.734,0.061-1.026C150.03,74.542,150.298,74.335,150.598,74.253z"/>
				</g>
				<g>
					<path d="M158.242,74.253c0.299,0.083,0.568,0.289,0.737,0.585c0.177,0.292,0.202,0.694,0.061,1.026
						c-0.306,0.653-0.983,0.957-1.589,0.922c0.253-0.177,0.488-0.333,0.684-0.52c0.19-0.189,0.36-0.383,0.446-0.597
						c0.095-0.207,0.1-0.436,0.047-0.681C158.566,74.743,158.421,74.503,158.242,74.253z"/>
				</g>
				<g>
					<path d="M156.757,76.165c-0.335,0.595-0.982,0.991-1.668,1.143c-0.694,0.163-1.451,0.035-2.079-0.319
						c-0.633-0.349-1.12-1.02-1.207-1.733c-0.105-0.709,0.032-1.379,0.199-2.025c0.036,0.669,0.007,1.343,0.177,1.945
						c0.167,0.6,0.544,1.087,1.08,1.381c0.525,0.306,1.151,0.432,1.769,0.375C155.645,76.866,156.265,76.621,156.757,76.165z"/>
				</g>
			</g>
		</g>
		<g>
			<path style="fill:#FFFFFF;" d="M138.374,43.055c0.064,9.585-1.586,19.021-2.327,28.554c-0.741,9.532-0.475,19.675,3.07,27.955
				c-1.467-0.231-2.69-1.74-3.415-3.493c-0.724-1.754-1.005-3.777-1.211-5.769c-0.487-4.718-0.612-9.49-0.737-14.252
				c-0.238-9.076-0.475-18.151-0.713-27.227"/>
			<path d="M138.374,43.055c0.074,4.756-0.276,9.51-0.73,14.243c-0.48,4.732-1.06,9.451-1.417,14.188
				c-0.355,4.733-0.465,9.493-0.065,14.216c0.4,4.715,1.338,9.413,3.178,13.766l0.174,0.412l-0.436-0.076
				c-1.211-0.21-2.089-1.104-2.718-2.014c-0.636-0.935-1.055-1.989-1.349-3.058c-0.578-2.151-0.725-4.353-0.917-6.532
				c-0.345-4.372-0.425-8.753-0.528-13.127l-0.298-13.125l-0.226-13.127l0.461,13.121l0.389,13.123
				c0.13,4.374,0.238,8.749,0.608,13.102c0.203,2.171,0.368,4.364,0.942,6.445c0.292,1.035,0.701,2.039,1.304,2.913
				c0.594,0.857,1.414,1.639,2.409,1.797l-0.262,0.336c-1.89-4.414-2.77-9.178-3.155-13.923c-0.374-4.758-0.234-9.535,0.152-14.278
				c0.387-4.744,0.996-9.462,1.504-14.187C137.928,52.551,138.364,47.811,138.374,43.055z"/>
		</g>
		<g>
			<path d="M138.581,99.396c-1.312-1.623-2.233-3.562-2.789-5.585c-0.54-2.027-0.722-4.167-0.405-6.23
				c0.077,2.081,0.344,4.121,0.887,6.099C136.802,95.663,137.598,97.561,138.581,99.396z"/>
		</g>
		<g>
			<path d="M137.45,43.761c-0.011,2.396-0.076,4.793-0.202,7.186c-0.119,2.394-0.311,4.783-0.506,7.171
				c-0.236,2.385-0.479,4.77-0.792,7.146c-0.307,2.377-0.674,4.745-1.096,7.105l0.714-7.148c0.233-2.382,0.48-4.762,0.677-7.147
				c0.237-2.381,0.421-4.767,0.622-7.152L137.45,43.761z"/>
		</g>
		<g>
			<path d="M133.764,50.155c0.182,1.248,0.275,2.48,0.391,3.715c0.098,1.236,0.218,2.466,0.251,3.727
				c-0.419-1.191-0.632-2.436-0.749-3.684C133.56,52.663,133.557,51.401,133.764,50.155z"/>
		</g>
		<g>
			<path d="M151.443,45.357c-1.899-0.426-3.621-1.598-4.869-3.115c-1.241-1.523-2.051-3.443-2.091-5.389
				C145.335,40.622,147.915,43.778,151.443,45.357z"/>
		</g>
		<g>
			<path d="M145.826,45.732c-1.371,0.153-2.797-0.323-3.922-1.149c-1.12-0.832-1.995-2.055-2.251-3.411
				C140.896,43.595,143.143,45.259,145.826,45.732z"/>
		</g>
		<g>
			<path d="M158.651,45c1.339-0.785,2.578-1.66,3.681-2.701c1.113-1.03,2.071-2.206,2.947-3.488
				c-0.527,1.465-1.466,2.779-2.606,3.853C161.523,43.727,160.149,44.573,158.651,45z"/>
		</g>
		<g>
			<path d="M165.638,45.228c0.401-0.392,0.796-0.694,1.181-1.025c0.397-0.317,0.768-0.648,1.23-0.967
				c-0.142,0.547-0.494,0.998-0.911,1.352C166.71,44.93,166.201,45.191,165.638,45.228z"/>
		</g>
		<g>
			<path d="M173.3,52.868c0.846,0.405,1.681,0.686,2.558,0.807c0.874,0.133,1.754,0.104,2.682-0.041
				c-0.794,0.518-1.807,0.669-2.754,0.535C174.84,54.025,173.913,53.591,173.3,52.868z"/>
		</g>
		<g>
			<path d="M175.911,56.34c0.407-0.099,0.746-0.115,1.097-0.14c0.351-0.009,0.69-0.026,1.105,0.036
				c-0.287,0.311-0.688,0.437-1.081,0.464C176.638,56.709,176.227,56.621,175.911,56.34z"/>
		</g>
		<g>
			<path d="M132.694,54.343c0.021,0.972-0.411,1.937-1.06,2.674c-0.656,0.731-1.564,1.274-2.533,1.365
				c0.841-0.467,1.56-1.016,2.159-1.697C131.868,56.012,132.329,55.233,132.694,54.343z"/>
		</g>
		<g>
			<path d="M130.52,60.33c0.44-0.164,0.817-0.259,1.2-0.386c0.387-0.112,0.752-0.246,1.209-0.359
				c-0.215,0.424-0.627,0.694-1.061,0.836C131.429,60.549,130.938,60.558,130.52,60.33z"/>
		</g>
	</g>
	
</g>
</svg>
