<?xml version="1.0" encoding="utf-8"?>
<!-- Generator: Adobe Illustrator 27.5.0, SVG Export Plug-In . SVG Version: 6.00 Build 0)  -->
<svg version="1.1" xmlns="http://www.w3.org/2000/svg" xmlns:xlink="http://www.w3.org/1999/xlink" x="0px" y="0px"
	 viewBox="0 0 300
  500" style="enable-background:new 0 0 500 500;" xml:space="preserve">

<g id="OBJECTS">
	<g>
		<path style="fill-rule:evenodd;clip-rule:evenodd;fill:#FFFFFF;" d="M123.917,191.123c0.08-1.556,0.163-3.113,0.163-4.67
			c-0.441-0.724-0.12-2.377-0.198-3.723c-0.056-0.317-0.118-0.647-0.164-0.97c-0.039-0.117-0.086-0.226-0.141-0.327
			c-1.068-2.723-3.607-4.517-5.223-6.907c-1.646-1.895-2.305-4.433-4.01-6.27c-3.306,4.833-3.071,10.88-4.571,16.33
			c-1.024,3.57-3.112,6.669-4.66,10c-0.618,1.883-0.714,4.108-0.905,6.021c-0.551,5.485,0.138,10.883,0.442,16.317
			c-0.106,3.582-0.373,7.167-0.761,10.729c-0.084,0.657-0.18,1.315-0.26,1.973c-0.049,0.393-0.325,0.657-0.651,0.76
			c-0.099,2.963-0.414,5.934-0.585,8.863c-0.299,1.173,0.444,5.527-1.665,4.686c-0.456,7.159,4.278,7.214,6.615,12.731
			c1.814,4.181,2.749,8.646,4.269,12.927c0.245,1.004,0.682,1.992,0.992,2.987c0.526-5.435,1.43-10.849,2.425-16.185
			c1.016-5.707,1.888-11.477,3.179-17.12c0.18-0.315,0.459-0.452,0.744-0.458c0.617-6.285,2.84-12.265,3.651-18.499
			c0.243-3.637-0.57-7.375,0.475-10.933c0.619-1.221-0.185-2.461-0.215-3.734c-0.42-2.826,0.444-5.584,0.738-8.371
			C123.765,195.23,123.816,193.176,123.917,191.123L123.917,191.123z M211.101,243.654c2.152-3.902,1.23-8.702,0.848-12.945
			c-0.604-5.747-1.502-11.468-1.789-17.242c-0.155-6.478,0.33-13.192,0.934-19.587c0.137-0.973,0.159-1.969-0.094-2.925
			c-3.155-5.076-4.879-10.843-6.88-16.453c-1.419-2.68-2.876-5.337-3.991-8.169c-0.565,1.371-1.457,2.571-2.249,3.814
			c-1.111,1.895-2.358,3.785-4.102,5.145c-2.06,3.622-5.476,7.749-5.558,12.028c-0.057,4.858,0.584,9.643,0.113,14.477
			c-0.069,2.47-1.314,4.732-1.536,7.142c0.357,1.256,1.134,2.365,1.427,3.648c0.367,1.677,0.383,3.403,0.623,5.099
			c0.75,3.279,1.754,6.345,2.757,9.497c1.488,4.893,4.272,9.243,5.978,14.055c1.619,4.517,2.365,9.311,3.927,13.848
			C203.87,250.624,208.727,248.068,211.101,243.654L211.101,243.654z M231.306,207.395c0.82,8.967-1.502,17.573-4.803,25.829
			c-0.847,2.437-1.315,4.994-2.27,7.393c-0.579,1.563-1.384,3.067-1.896,4.638c0,0.253-0.119,0.479-0.298,0.641
			c-1.524,5.772,1.191,11.875-0.331,17.727c-0.862,5.27-4.682,10.241-10.254,10.79c-0.768,0.117-1.546,0.149-2.313,0.271
			c-0.531,0.21-1.232,0.141-1.474-0.452c-0.766,0.159-1.818,0.104-2.376,0.689c-0.244,0.53-0.11,1.348-0.156,2.019
			c0.01,0.045,0.017,0.091,0.02,0.141c0.471,6.394,0.141,12.827,0.059,19.234c0.046,7.681-0.726,15.379-3.472,22.601
			c-0.77,2.28-1.838,4.524-2.429,6.858c0.924,3.231,0.714,6.708,0.932,10.041c-0.008,2.703-0.74,5.344-0.939,8.028
			c0.776,3.158,1.444,6.35,1.87,9.579c1.088,7.677,1.7,15.441,0.999,23.183c-0.446,6.583-0.46,13.172-1.633,19.705
			c-0.561,6.713-0.641,13.49-0.59,20.221c0.319,4.709,1.646,9.414,4.338,13.331c0.311,0.455,0.621,0.91,0.934,1.364
			c0.391-0.189,0.902-0.138,1.176,0.259c0.818,1.197,1.633,2.396,2.447,3.596c1.831,2.761,4.043,5.208,6.521,7.383
			c3.065,2.938,10.708,7.775,5.326,12.076c-0.529,0.566-1.25,0.884-1.855,1.333c-0.509,1.306-1.852,2.089-3.164,1.348
			c-4.343-1.974-8.409-4.523-12.529-6.923c-0.234,0.299-0.624,0.463-1.073,0.265c-1.803-0.809-3.607-1.62-5.432-2.38
			c-1.853-0.744-3.827-1.45-5.139-3.037c-2.562-2.822-3.408-6.771-3.542-10.477c0.067-2.036-0.545-4.392,0.179-6.3
			c0.023-0.032,0.048-0.06,0.074-0.087c-0.061-0.375-0.119-0.75-0.175-1.124c-0.722-5.73-1.663-11.43-2.306-17.169
			c-0.467-8.328-3.206-16.257-4.975-24.356c-0.146-0.544-0.259-1.096-0.375-1.646c-0.162-0.109-0.292-0.283-0.361-0.532
			c-2.634-8.97-3.937-18.42-3.309-27.765c0.085-3.572,0.829-7.103,0.844-10.668c-0.138-1.926-0.673-3.789-1.212-5.634
			c-1.602-5.761-4.316-11.128-6.033-16.852c-1.854-6.308-3.549-12.674-4.811-19.13c-1.326-6.665-2.795-13.285-3.997-19.97
			c-1.205-5.236-1.884-10.656-4.144-15.554c-0.224,6.074-0.703,12.15-1.187,18.199c-0.433,5.854-0.56,11.739-1.469,17.546
			c-1.391,9.109-2.48,18.413-6.271,26.896c-0.741,2.095-1.169,4.282-1.659,6.445c-0.025,4.707-0.273,9.411-0.139,14.119
			c0.254,7.399,0.991,14.656,0.999,22.042c-0.128,5.333-1.35,10.566-2.353,15.785c-1.082,4.688-1.842,9.45-3.261,14.053
			c-1.759,6.229-2.234,12.737-2.293,19.184c-0.005,0.213-0.008,0.427-0.012,0.64c0.221,0.167,0.368,0.422,0.351,0.732
			c-0.056,1-0.089,2.001-0.122,3.002c-0.715,5.547,2.493,13.937-4.267,16.611c-3.267,1.466-6.975,1.122-10.355,2.171
			c-4.543,1.363-18.489,10.882-22.16,6.7c-0.355-0.497-0.377-1.131-0.301-1.717c-1.266,0.139-2.861,0.072-3.586-1.149
			c-2.348-0.181-2.625-2.533-0.989-3.922c2.62-2.787,6.296-4.191,9.25-6.562c3.384-2.588,6.745-5.228,9.681-8.321
			c1.679-1.86,3.771-3.435,4.869-5.737c0.268-0.596,0.604-1.2,0.654-1.86c-0.011-0.408,0.218-0.695,0.523-0.835
			c0.115-0.814,0.209-1.618,0.268-2.373c0.227-3.898,0.073-7.805,0.022-11.707c0.074-0.865-0.382-2.392,0.591-2.744
			c-0.131-3.484-0.367-6.964-0.677-10.429c-0.421-8.398-0.532-16.827-0.531-25.232c-0.002-0.482,0.298-0.777,0.659-0.881
			c0.008-7.583,0.019-15.167-0.1-22.746c-0.119-3.267-1.101-6.236-1.448-9.436c-0.567-4.704,0.234-9.431,0.483-14.131
			c-0.009-0.336,0.028-0.622,0.099-0.863c-6.354-8.238-7.645-16.121-9.3-26.309c-1.322-6.743-1.436-13.576-0.903-20.387
			c-0.434,0.199-1.012,0.091-1.259-0.387c-0.041-0.108-0.081-0.216-0.12-0.324c-0.507-0.311-0.808-0.951-1.176-1.402
			c-1.042-1.604-1.671-3.464-2.927-4.929c-3.695-3.818-3.389,2.201-2.732,4.559c0.469,2.146,1.369,4.49,3.303,5.709
			c1.237,0.5,0.704,1.773-0.205,1.87c-0.001,0.001-0.002,0.002-0.004,0.001c-0.94,0.378-2.589-0.364-3.54-0.127
			c-2.24,0.179-4.462,0.692-6.721,0.531c-11.468,0.152-6.603-22.771-5.723-29.831c0.117-0.514,0.088-1.174,0.293-1.681
			c-4.138-10.92-7.24-22.377-6.768-34.128c0.151-4.197,0.732-8.589,1.082-12.727c0.186-3.765,0.027-7.568,0.846-11.277
			c0.687-3.928,2.822-7.595,2.58-11.658c-0.231-9.342,0.968-18.837,3.918-27.711c0.17-2.954-0.616-5.926-0.138-8.891
			c0.632-5.037,2.635-9.921,5.622-14.019c2.44-2.957,5.326-5.614,8.621-7.595c0.226-0.226,0.556-0.391,0.92-0.529
			c0.269-0.149,0.539-0.292,0.814-0.431c1.165-0.465,3.091-1.894,4.458-1.654c0.524-0.221,1.048-0.44,1.577-0.646
			c2.746-0.992,5.58-1.803,8.423-2.427c0.239-0.002,0.432,0.07,0.578,0.186c0.406-0.161,0.813-0.324,1.219-0.486
			c7.04-3.363,14.174-4.339,16.942-10.993c0.231-1.243,0.461-2.487,0.738-3.721c0.731-2.66,0.451-5.315-0.59-7.832
			c-0.663-2.701-2.037-5.109-3.351-7.547c0,0-0.001,0-0.001-0.001c-0.042-0.048-0.079-0.101-0.113-0.16
			c-0.041-0.092-0.081-0.184-0.121-0.275c0,0,0-0.001-0.001-0.002c-0.592-1.109-1.163-2.228-1.641-3.387
			c-0.442-0.61-0.513-1.151-0.389-1.556c-3.362-9.049,1.043-4.83,0.745-13.562c-0.211-5.114-1.073-10.608,1.582-15.276
			c2.826-5.374,7.374-9.644,12.897-12.155c3.591-1.496,7.404-0.615,10.937,0.573c18.917,6.062,12.982,16.209,12.204,30.849
			c0.162,0.153,0.267,0.376,0.268,0.672c-0.105,1.165,0.615,2.243,1.062,3.284c1.121,2.897-1.424,5.429-2.65,7.839
			c-0.746,1.849-1.719,3.563-2.748,5.264c-0.895,2.03-1.456,4.233-1.785,6.424c0.002,3.481,0.749,6.902,1.422,10.331
			c3.334,1.805,5.972,4.753,9.613,6.014c2.455,1.244,5.067,2.084,7.765,2.616c3.684,0.957,7.385,1.858,11.036,2.858
			c2.482,0.691,5.191,0.511,7.517,1.738c4.511,2.296,7.787,6.39,10.11,10.801c3.63,6.134,3.537,12.529,3.382,19.384
			c0.032,0.326,0.103,0.64,0.204,0.943c0,0.001,0,0.001,0.001,0c0.845,0.48,1.619,1.913,2.207,2.401
			c1.749,2.321,2.711,5.15,3.52,7.915c1.888,5.345,1.43,11.207,1.301,16.73c-0.074,3.154,0.853,6.151,1.607,9.173
			C230.184,191.743,230.923,199.577,231.306,207.395z"/>
		<g>
			<path style="fill-rule:evenodd;clip-rule:evenodd;" d="M156.177,102.956c-5.405-1.219-10.395-4.992-13.743-9.348
				c-2.83-4.149-3.258-9.236-3.642-14.102c-0.298-3.749-0.746-7.491-0.945-11.245c-0.001-1.221,1.908-1.242,1.904,0
				c0.672,6.678,0.667,13.513,2.259,20.044c1.922,6.244,7.838,10.548,13.77,12.66c3.664,0.711,6.561-2.532,8.845-4.941
				c2.332-2.884,5.024-5.848,5.719-9.605c1.24-7.105,1.686-14.324,1.786-21.522c-0.018-1.219,1.927-1.243,1.905,0
				c-0.058,3.788-0.22,7.569-0.502,11.347c-0.727,8.024-0.841,13.751-6.597,19.998C164.202,99.407,160.746,103.304,156.177,102.956z
				"/>
			<path style="fill-rule:evenodd;clip-rule:evenodd;" d="M138.875,86.118c-2.464-3.922-5.963-8.493-4.819-13.375
				c0.709-1.937,3.002-3.889,4.922-2.202c1.42,0.59,0.115,2.572-1.04,1.594c-0.712-0.745-1.327,0.055-1.774,0.663
				c-1.302,2.349,0.323,5.133,1.28,7.337c0.794,1.955,2.535,3.564,3.129,5.529C140.497,86.467,139.337,86.795,138.875,86.118z"/>
			<path style="fill-rule:evenodd;clip-rule:evenodd;" d="M171.272,85.703c-1.23-1.253,1.434-2.941,1.917-4.153
				c1.549-2.582,4.066-6.113,2.473-9.141c-0.816-0.476-1.011,1.053-1.83,0.943c-0.519,0-0.952-0.433-0.952-0.952
				c0.091-1.025,1.162-1.699,2.074-1.951c2.944-0.479,3.57,3.53,2.897,5.654C177.768,77.664,172.992,87.206,171.272,85.703z"/>
			<path style="fill-rule:evenodd;clip-rule:evenodd;" d="M172.29,66.021c0-0.002,0-0.004-0.001-0.006
				c-0.005-0.036-0.007-0.073-0.005-0.073c0.671-6.049-2.102-13.717-9.526-11.531c-0.475,0.167-0.922,0.399-1.342,0.677
				c-1.05,0.641-2.031-1.026-0.962-1.644c3.351-2.129,8.375-1.607,10.961,1.5c1.852,2.124,2.604,4.979,2.78,7.741
				c0.06,1.071-0.061,2.14-0.009,3.209c0.014,1.156-1.767,1.271-1.897,0.122C172.289,66.015,172.29,66.021,172.29,66.021z"/>
			<path style="fill-rule:evenodd;clip-rule:evenodd;" d="M137.674,67.885c-0.622-5.417,0.949-11.634,6.178-14.239
				c4.847-3.472,11.335-2.687,16.313,0.132c2.428,1.042,1.264,3.771-0.688,1.813c-3.299-1.94-7.418-2.891-11.193-2.058
				c-3.72,1.546-7.718,3.966-8.392,8.291c-0.642,2.121-0.127,4.475-0.521,6.514C138.905,68.995,137.74,68.702,137.674,67.885z"/>
			<path style="fill-rule:evenodd;clip-rule:evenodd;" d="M159.27,55.091c-1.022-0.885,0.355-1.804,0.816-2.575
				c0.965-1.591,1.807-3.33,1.978-5.206c0.032-0.611,0.03-1.224-0.065-1.829c-0.18-1.218,1.73-1.482,1.887-0.259
				c0.264,1.789,0.012,3.628-0.665,5.302C162.523,51.813,161.15,55.998,159.27,55.091z"/>
			<path style="fill-rule:evenodd;clip-rule:evenodd;" d="M163.645,52.813c-1.145-1.083,2.064-2.576,2.239-6.693
				c0.158-1.219,2.067-0.964,1.887,0.259C167.638,48.01,165.958,54.191,163.645,52.813z"/>
			<path style="fill-rule:evenodd;clip-rule:evenodd;" d="M167.367,53.65c-0.688-0.692,0.06-1.412,0.487-1.995
				c0.53-0.983,1.603-3.06,2.578-1.221C170.466,51.459,168.648,54.868,167.367,53.65z"/>
			<path style="fill-rule:evenodd;clip-rule:evenodd;" d="M174.614,70.086c0.297-4.488,0.675-8.978,0.982-13.429
				c0.667-6.458,0.856-6.661-2.691-12.062c-2.135-2.768-5.746-3.382-8.797-4.615c-6.38-2.703-13.246-2.323-18.484,2.559
				c-6.611,5.498-8.902,14.729-7.494,22.957c-0.108,1.288,1.601,5.006,0.093,5.328c-0.503,0.139-1.031-0.166-1.171-0.665
				c-3.488-12.145,0.437-27.535,13.001-32.589c5.245-2.285,11.06-1.038,16.093,1.214c2.968,0.64,5.905,2.066,8,4.289
				c0.942,1.183,1.433,2.654,2.427,3.803c1.964,2.616,1.176,6.058,0.996,9.079c-0.369,4.694-0.72,9.491-1.049,14.131
				C176.52,71.305,174.61,71.328,174.614,70.086z"/>
			<path style="fill-rule:evenodd;clip-rule:evenodd;" d="M155.681,53.752c-1.657-0.615,1.301-3.981,1.076-5.81
				c0.02-0.427-0.031-0.851-0.104-1.271c-0.184-1.217,1.724-1.483,1.887-0.259C159.104,47.732,157.575,54.526,155.681,53.752z"/>
			<path style="fill-rule:evenodd;clip-rule:evenodd;" d="M139.508,111.435c-1.541-0.666,0.008-2.616,0.143-3.761
				c1.372-4.157,2.194-8.525,2.243-12.908c-0.405-3.174,2.398-3.083,1.925-0.893c-0.012,4.347-0.635,8.692-1.877,12.861
				C141.323,107.852,141.133,111.832,139.508,111.435z"/>
			<path style="fill-rule:evenodd;clip-rule:evenodd;" d="M170.886,106.887c-0.973-2.779-1.457-5.688-1.899-8.589
				c0.01-1.436-1.927-6.459,0.594-6.253c0.497,0.137,0.808,0.672,0.665,1.172c0.126,3.004,0.878,5.991,1.332,8.967
				c0.293,1.421,0.688,2.82,1.146,4.197C173.065,107.555,171.223,108.087,170.886,106.887z"/>
			<path style="fill-rule:evenodd;clip-rule:evenodd;" d="M95.455,158.821c-7.486-15.864-3.077-33.364,13.332-41.075
				c5.019-2.471,10.739-2.378,15.937-4.277c4.25-1.562,8.635-3.432,12.34-5.989c1.208-0.747,2.26-1.751,3.515-2.408
				c1.439-0.576,2.168,1.784,0.505,1.877c-6.035,4.604-13.087,7.907-20.472,9.652c-8.864,0.963-17.398,4.991-22.558,12.448
				c-4.104,6.571-5.475,15.149-3.135,22.579c0.619,2.2,1.374,4.358,2.292,6.452C97.705,159.193,95.925,159.975,95.455,158.821z"/>
			<path style="fill-rule:evenodd;clip-rule:evenodd;" d="M220.182,149.449c-0.503-0.069-0.899-0.561-0.815-1.073
				c0.372-1.942,0.48-3.911,0.412-5.885c-0.081-6.624-1.291-13.591-5.518-18.893c-7.792-9.798-14.044-7.382-24.498-10.712
				c-3.538-1.08-7.327-1.415-10.722-2.903c-2.545-1.283-4.868-3.288-7.124-4.895c-0.673-0.658-2.041-0.814-2.154-1.87
				c0.514-2.376,3.199,0.454,4.256,1.039c2.031,1.55,3.858,3.004,6.084,4.132c1.88,0.835,3.96,1.064,5.936,1.601
				c3.133,0.708,6.209,1.624,9.303,2.465c5.712,0.884,11.886,1.514,16.243,5.744c6.59,5.105,9.641,13.342,9.998,21.478
				C221.531,141.389,222.42,149.619,220.182,149.449z"/>
			<path style="fill-rule:evenodd;clip-rule:evenodd;" d="M100.601,249.474c-0.915-3.159-0.041-6.796,0.358-10.046
				c0.753-5.217,1.941-10.369,2.458-15.618c1.132-9.679-0.121-19.403,0.951-29.05c0.458-2.506,2.667-4.16,3.635-6.455
				c2.261-4.272,2.686-9.139,3.616-13.802c0.867-4.226,2.901-8.12,3.816-12.322c0.877-5.507,0.44-11.446-1.897-16.554
				c-0.49-0.703-0.595-1.95,0.481-2.125c1.118-0.399,1.785,2.961,2.23,3.75c1.614,5.021,1.962,10.593,0.95,15.772
				c-0.796,3.449-2.321,6.675-3.275,10.077c-1.473,5.933-1.692,12.328-5.08,17.622c-3.737,4.324-2.876,7.611-2.983,12.914
				c-0.025,6.502,0.112,13.022-0.469,19.506c-0.485,5.773-1.826,11.428-2.645,17.157c-0.463,2.808-0.723,5.655-0.519,8.5
				C102.275,249.608,101.149,250.081,100.601,249.474z"/>
			<path style="fill-rule:evenodd;clip-rule:evenodd;" d="M90.486,249.873c-2.342-6.274-4.747-12.554-6.002-19.156
				c-1.348-8.551-1.362-17.335-0.351-25.924c0.566-4.641-0.014-9.379,1.075-13.971c0.6-3.033,1.963-5.841,2.726-8.824
				c0.495-2.764-0.337-5.558-0.215-8.344c-0.061-6.193,1.365-12.209,3.18-18.087c0.404-1.514,0.74-3.044,1.034-4.582
				c0.086-0.404,0.229-0.855,0.589-1.098c0.883-0.677,2.055,0.548,1.297,1.394c-0.239,1.079-0.415,2.115-0.679,3.18
				c-1.379,5.365-3.258,10.688-3.396,16.275c-0.465,3.645,0.427,7.264,0.184,10.886c-1.107,4.872-3.504,9.538-3.509,14.638
				c0.062,6.626-1.13,13.161-1.073,19.79c-0.016,6.719,0.428,13.482,2.363,19.949c1.165,4.49,2.988,8.768,4.532,13.133
				C92.721,250.237,90.951,251.037,90.486,249.873z"/>
			<path style="fill-rule:evenodd;clip-rule:evenodd;" d="M105.796,280.784c-1.573-0.217-3.122-0.724-4.415-1.665
				c-0.901-0.815-4.451-3.474-3.055-4.692c1.692-1.474,3.167,5.615,9.673,4.354c-1.938-1.927-3.805-4.086-4.562-6.77
				c-0.947-2.319-0.644-7.553,3.026-5.569c2.236,2.275,2.663,6.311,5.906,7.686c0,0,0.008,0.025,0.008,0.025
				c0.986-0.545-0.755-3.217-0.971-4.134c-1.142-2.672-1.928-5.472-2.696-8.269c-0.81-3.03-2.304-5.914-4.346-8.298
				c-0.967-1.362-2.893-2.21-3.332-3.85c0-0.519,0.433-0.952,0.952-0.952c0.855,0.063,1.117,1.088,1.802,1.506
				c1.833,1.706,3.491,3.618,4.627,5.864c1.992,3.329,2.512,7.226,3.808,10.833c0.646,2.651,3.124,5.375,2.045,8.154
				c-2.188,2.948-5.535-1.109-6.761-3.12c-0.723-0.802-1.485-3.963-2.443-3.905c-0.792,3.23,1.375,6.498,3.568,8.711
				C111.822,279.256,108.836,281.408,105.796,280.784z"/>
			<path style="fill-rule:evenodd;clip-rule:evenodd;" d="M100.263,281.162c-2.265-0.276-4.172-1.673-5.645-3.348
				c-0.337-0.396-0.224-1.03,0.172-1.336c0.815-0.642,1.496,0.384,2.012,0.856c3.898,4.312,9.693-0.108,9.975,2.529
				c0.002,0.578-0.524,1.011-1.088,0.952C103.902,281.093,102.071,281.5,100.263,281.162z"/>
			<path style="fill-rule:evenodd;clip-rule:evenodd;" d="M96.701,281.004c-1.3-0.185-5.535-2.513-4.286-4.073
				c0.357-0.357,0.992-0.38,1.347,0c1.631,2.105,4.278,2.777,6.807,2.185c0.519,0,0.952,0.433,0.952,0.953
				C101.358,281.711,97.87,281.203,96.701,281.004z"/>
			<path style="fill-rule:evenodd;clip-rule:evenodd;" d="M95.298,280.763c-10.162-2.969-6.356-22.4-5.298-30.297
				c-0.043-0.668,0.365-1.39,1.118-1.283c1.553,0.443,0.462,2.592,0.481,3.732c-1.087,7.234-2.718,17.197,1.045,23.753
				c0.757,1.13,1.995,2.258,3.431,2.216C97.853,279.219,96.926,281.254,95.298,280.763z"/>
			<path style="fill-rule:evenodd;clip-rule:evenodd;" d="M209.736,190.713c-3.765-4.235-4.955-10.079-6.768-15.298
				c-3.837-8.451-7.311-17.419-8.033-26.741c0.165-1.209,2.065-0.972,1.887,0.258c0.962,8.626,3.78,16.979,7.533,24.779
				c1.577,4.324,2.663,8.831,4.815,12.934c0.505,0.993,1.124,1.932,1.914,2.722C211.957,190.22,210.603,191.601,209.736,190.713z"/>
			<path style="fill-rule:evenodd;clip-rule:evenodd;" d="M219.325,152.072c-1.803-0.364,0.133-3.851,0.096-5.155
				c0.3-1.193,2.181-0.681,1.837,0.506C220.718,148.67,221.054,152.043,219.325,152.072z"/>
			<path style="fill-rule:evenodd;clip-rule:evenodd;" d="M221.602,248.352c-2.136-0.377,2.322-8.248,2.618-9.81
				c3.398-9.447,7.268-19.139,6.62-29.356c-0.182-6.669-0.632-13.345-1.737-19.926c-0.51-3.574-1.993-7.002-1.851-10.65
				c0.106-9.233-0.498-18.812-4.593-27.226c-0.325-1.542-4.445-5.286-1.756-5.859c1.353,0.315,3.195,4.72,3.968,6.063
				c2.539,5.817,3.766,12.172,4.119,18.491c0.396,4.913-0.41,9.937,1.126,14.702c1.68,7.095,2.189,14.408,2.55,21.671
				c0.393,6.463-0.028,12.928-2.083,19.105c-1.667,5.895-3.734,11.679-6.073,17.339
				C223.651,244.092,223.227,248.779,221.602,248.352z"/>
			<path style="fill-rule:evenodd;clip-rule:evenodd;" d="M197.556,269.988c-2.304-2.463,0.986-7.046,1.587-9.844
				c0.63-1.784,1.128-3.619,1.907-5.345c2.611-5.332,8.655-8.583,9.73-14.77c0.526-5.043-0.877-10.087-0.983-15.137
				c-0.802-10.591-1.366-21.317,0.318-31.853c0.508-1.546,1.154-9.201,3.412-7.804c0.587,0.467,0.325,1.107,0.064,1.669
				c-0.577,1.695-0.997,3.435-1.359,5.188c-2.042,11.041-1.292,22.394-0.484,33.506c0.233,6.727,2.896,14.111-1.284,20.152
				c-2.063,3.461-5.564,5.857-7.465,9.383c-1.506,4.27-3.696,8.814-4.326,13.253c2.902-1.248,4.897-4.573,5.82-7.517
				c0.315-1.187,2.175-0.683,1.837,0.506C205.461,264.488,201.425,271.514,197.556,269.988z"/>
			<path style="fill-rule:evenodd;clip-rule:evenodd;" d="M202.348,275.903c-3.745-1.554,1.021-4.865,1.672-7.004
				c0.696-2.063,0.348-4.276,0.508-6.409c-0.029-0.665,0.262-1.492,1.048-1.48c0.664-0.012,1.156,0.729,0.872,1.331
				c-0.078,0.998-0.061,2.001-0.075,3.001c0.296,3.792-1.417,5.869-3.486,8.73c3.214,0.326,5.613-2.592,7.357-4.918
				c0.858-0.828,1.167-3.417,2.718-2.748c1.646,0.963-2.249,5.252-3.083,6.206C207.948,274.626,205.283,276.539,202.348,275.903z"/>
			<path style="fill-rule:evenodd;clip-rule:evenodd;" d="M207.192,276.437c-1.129-0.007-3.723-0.318-2.331-1.935
				c0.276-0.214,0.603-0.227,0.93-0.161c2.067,0.541,4.185-0.091,5.887-1.31c1.075-0.75,1.946-1.746,2.703-2.81
				c0.248-0.497,0.88-0.752,1.374-0.449c0.43,0.252,0.628,0.87,0.341,1.303C214.156,274.046,210.874,276.545,207.192,276.437z"/>
			<path style="fill-rule:evenodd;clip-rule:evenodd;" d="M210.932,276.541c-0.767-0.276-0.752-1.473,0-1.755
				c1.016-0.07,1.903-0.543,2.754-1.099c1.775-1.239,3.161-2.992,4.213-4.87c0.603-1.07,2.27-0.104,1.645,0.962
				C217.771,272.749,214.721,276.715,210.932,276.541z"/>
			<path style="fill-rule:evenodd;clip-rule:evenodd;" d="M214.916,275.049c-0.712-0.381-0.572-1.562,0.228-1.741
				c8.404-4.206,5.955-15.275,6.037-22.987c0.171-1.182-0.805-3.678,0.882-3.916c0.513,0,0.959,0.433,0.953,0.952
				c-0.273,8.188,2.333,17.82-3.22,24.765C218.575,273.269,216.733,275.49,214.916,275.049z"/>
			<path style="fill-rule:evenodd;clip-rule:evenodd;" d="M121.508,217.211c-0.816-2.947-0.032-5.975,0.678-8.828
				c-1.779-5.716,0.129-11.643,0.363-17.447c0.574-11.702-1.87-9.758-6.743-18.307c-0.697-1.434-1.757-2.786-2.078-4.359
				c-0.012-1.155,1.785-1.275,1.899-0.106c1.74,4.035,4.331,7.516,7.046,10.917c2.743,5.289,1.838,11.564,1.273,17.268
				c-0.274,2.578-0.729,5.161-0.614,7.762c-0.02,2.051,1.323,4.053,0.384,6.033c-0.593,2.114-0.911,4.403-0.373,6.561
				C123.678,217.875,121.829,218.415,121.508,217.211z"/>
			<path style="fill-rule:evenodd;clip-rule:evenodd;" d="M187.971,216.913c0.128-2.09-0.132-4.191-0.761-6.189
				c-0.412-1.322-1.092-2.772-0.329-4.1c0.908-1.78,1.33-3.95,1.079-5.896c-0.337-3.845-0.998-7.684-0.681-11.557
				c0.265-10.441,8.252-13.38,11.353-22.762c-0.024-0.875,1.19-1.3,1.709-0.581c0.64,1.561-1.022,3.374-1.537,4.843
				c-1.678,3.705-4.525,6.637-6.907,9.871c-4.457,6.502-2.249,14.614-1.979,21.897c0.168,2.093-1.178,3.922-1.456,5.853
				c0.484,1.563,2.862,9.357,0.46,9.572C188.422,217.865,187.947,217.432,187.971,216.913z"/>
			<path style="fill-rule:evenodd;clip-rule:evenodd;" d="M112.61,269.449c-1.736-0.16-0.15-5.393-0.241-6.718
				c0.76-6.88,2.11-13.674,3.715-20.403c1.122-5.005,2.685-9.936,3.719-14.955c0.697-2.073,1.195-10.051,2.753-10.704
				c2.257-0.19,0.503,2.676,0.492,3.853c-1.254,7.765-3.429,15.311-5.272,22.944c-1.531,6.448-2.795,12.962-3.522,19.554
				c-0.229,1.868-0.452,3.737-0.569,5.616C113.647,269.152,113.103,269.515,112.61,269.449L112.61,269.449z M123.101,218.492
				c0.103-0.032,0.2-0.084,0.286-0.152C123.301,218.403,123.205,218.453,123.101,218.492z"/>
			<path style="fill-rule:evenodd;clip-rule:evenodd;" d="M128.296,328.86c-15.961-12.888-17.708-32.313-17.191-51.443
				c0.131-1.07-0.342-3.331,1.344-3.099c1.324,0.422,0.308,3.02,0.537,4.142c-0.335,16.134,0.951,34.273,13.4,46.033
				c1.087,1.313,2.686,2.086,3.435,3.484C129.964,328.774,128.921,329.404,128.296,328.86z"/>
			<path style="fill-rule:evenodd;clip-rule:evenodd;" d="M124.416,346.138c-3.972-4.312-4.102-10.475-3.834-16.012
				c0.362-3.072-0.031-6.146,0.821-9.019c0.314-0.404,0.932-0.497,1.336-0.172c0.637,0.468,0.214,1.17,0.191,1.788
				c-0.23,6.081-1.319,12.282,0.504,18.202c0.543,1.505,1.485,2.819,2.49,4.048C126.685,345.932,125.171,347.125,124.416,346.138z"
				/>
			<path style="fill-rule:evenodd;clip-rule:evenodd;" d="M96.585,447.121c-2.371-2.354,7.461-7.294,9.123-8.577
				c6.279-4.369,14.467-9.479,16.018-17.5c0.955-5.27,0.43-10.658,0.482-15.982c-0.014-6.469-0.248-12.934-0.413-19.4
				c-0.514-14.09,0.128-28.366,0.632-42.348c2.778-1.882,1.598,4.362,1.738,5.661c-0.301,6.482-0.486,12.969-0.632,19.456
				c-0.192,13.019,0.585,26.025,0.607,39.042c-0.048,6.121,0.647,12.573-1.923,18.314c-3.003,5.124-7.777,9.059-12.606,12.409
				c-3.54,2.734-7.875,4.449-11.01,7.663C98.046,446.456,97.576,447.664,96.585,447.121z"/>
			<path style="fill-rule:evenodd;clip-rule:evenodd;" d="M104.178,454.278c-3.937-0.414-3.402-4.956-0.657-6.66
				c0.5-0.366,1.058-0.659,1.616-0.924c1.128-0.495,1.88,1.276,0.742,1.755c-1.262,0.586-3.104,1.855-2.56,3.451
				c-0.031-0.025-0.045-0.099-0.069-0.101c3.525,2.175,7.853-0.838,11.229-2.182c2.905-1.205,5.738-2.559,8.618-3.809
				c4.25-2.253,14.189-0.608,15.596-5.309c1.153-3.19,0.184-6.571,0.004-9.839c-0.293-7.402,0.063-14.886,1.194-22.21
				c2.17-11.404,6.426-22.448,6.991-34.132c1.329-12.858-1.696-25.477-0.719-38.219c1.702-6.448,4.49-12.561,5.667-19.155
				c2.363-12.75,3.536-25.694,4.554-38.611c0.182-2.926,0.154-5.863-0.018-8.789c-0.004-0.922-0.576-2.231,0.667-2.499
				c1.661-0.011,1.064,2.374,1.29,3.465c0.267,4.699-0.107,9.391-0.517,14.07c-0.863,9.424-1.788,18.848-3.293,28.196
				c-0.734,4.694-1.816,9.333-3.281,13.853c-1.999,5.631-4.257,11.117-3.365,17.188c0.714,10.413,1.703,20.806,0.87,31.238
				c-0.618,10.651-4.192,20.948-6.501,31.263c-1.581,7.936-1.907,16.119-1.643,24.193c0.236,3.518,1.186,7.167-0.094,10.59
				c-2.396,6.425-11.209,3.978-16.386,6.364c-3.377,1.446-6.715,2.989-10.088,4.453C110.965,453.336,107.634,454.97,104.178,454.278
				z"/>
			<path style="fill-rule:evenodd;clip-rule:evenodd;" d="M100.259,451.452c-4.059-0.973-0.24-7.388,1.574-5.595
				c1.067,1.405-2.559,2.393-1.216,3.724c0.8,0.038,1.842-0.998,2.356,0.167C103.414,451.128,101.278,451.654,100.259,451.452z"/>
			<path style="fill-rule:evenodd;clip-rule:evenodd;" d="M97.546,449.927c-1.382-0.348-1.557-2.087-0.989-3.184
				c0.208-0.474,0.765-0.712,1.248-0.507c0.848,0.353,0.502,1.203,0.34,1.861C100.729,447.708,100.058,450.632,97.546,449.927z"/>
			<path style="fill-rule:evenodd;clip-rule:evenodd;" d="M94.977,447.2c0-0.837,0.498-2.13,1.546-1.718
				c0.759,0.315,0.588,1.109,0.358,1.718C96.893,448.433,94.966,448.433,94.977,447.2z"/>
			<path style="fill-rule:evenodd;clip-rule:evenodd;" d="M200.704,254.376c-2.955-12.697-9.167-24.34-12.664-36.877
				c-0.652-1.58,1.665-1.974,1.928-0.35c1.54,4.637,2.759,9.379,4.706,13.878C195.14,232.518,206.615,259.439,200.704,254.376z"/>
			<path style="fill-rule:evenodd;clip-rule:evenodd;" d="M190.334,332.757c-0.891-1.535,2.274-2.543,3.074-3.586
				c2.272-1.932,4.864-3.719,6.16-6.499c6.009-13.117,5.908-30.203,4.844-44.411c-0.065-1.043-0.328-2.107-0.16-3.147
				c0.246-1.048,1.912-0.893,1.893,0.222c-0.116,1.173,0.167,2.361,0.245,3.536c0.922,13.355,1.33,38.21-7.938,48.471
				C197.12,328.243,191.38,334.422,190.334,332.757z"/>
			<path style="fill-rule:evenodd;clip-rule:evenodd;" d="M199.16,344.859c-1.523-0.657-0.003-2.597,0.007-3.772
				c0.493-2.466,0.767-4.985,0.651-7.501c-0.159-2.228-0.464-4.443-0.764-6.655c-0.072-0.949-0.806-2.678,0.685-2.801
				c1.633-0.289,1.629,7.728,1.965,9.179C201.808,335.127,201.539,345.265,199.16,344.859z"/>
			<path style="fill-rule:evenodd;clip-rule:evenodd;" d="M220.519,448.486c-6.29-7.977-17.32-15.823-20.396-25.498
				c-1.066-4.093-0.777-8.356-0.647-12.538c0.057-9.536,1.713-19.008,2.5-28.472c0.747-9.39-0.201-18.792-1.07-28.133
				c-0.34-3.559-1.112-6.807-1.89-10.205c2.148-4.683,3.457,8.005,3.685,9.161c1.288,12.116,2.184,24.365,0.479,36.487
				c-0.961,6.674-1.569,13.389-1.763,20.13c-0.462,7.215-0.641,15.089,4.829,20.594c3.384,4.44,7.551,8.184,11.27,12.329
				c0.82,1.372,5.909,5.063,4.338,6.317C221.438,448.983,220.855,448.886,220.519,448.486z"/>
			<path style="fill-rule:evenodd;clip-rule:evenodd;" d="M176.867,342.363c-11.421-22.506-14.073-48.172-19.985-72.407
				c-0.283-0.691-0.058-1.666,0.83-1.665c1.437,0.219,1.05,2.33,1.559,3.378c3.994,17.732,6.848,35.784,12.491,53.097
				c1.115,3.452,2.244,6.901,3.698,10.229c0.972,2.257,1.835,4.372,3.052,6.407C179.137,342.433,177.496,343.451,176.867,342.363z"
				/>
			<path style="fill-rule:evenodd;clip-rule:evenodd;" d="M215.825,458.472c-6.013-1.326-11.011-5.175-16.402-7.949
				c-4.278-2.775-10.884-3.713-12.333-9.285c-1.022-4.497-0.284-9.198-0.72-13.768c-0.314-4.768-1.025-9.496-1.639-14.232
				c-1.089-7.483-2.14-15.019-4.252-22.296c-1.394-4.726-2.935-9.418-3.999-14.233c-2.824-11.669-1.673-23.76,0.385-35.446
				c0.123-0.813,1.206-1.288,1.759-0.549c0.117,3.645-1.081,7.564-1.437,11.301c-0.588,4.692-0.615,9.67-0.303,14.34
				c0.459,10.132,4.485,19.563,6.79,29.326c2.833,14.122,4.926,28.457,4.882,42.883c-0.124,5.862,6.21,7.112,10.293,9.524
				c4.992,2.434,9.541,5.798,14.75,7.768c6.336,2.724,4.406-2.105,0.935-4.617c-0.996-0.757,0.199-2.254,1.163-1.507
				C219.167,451.658,222.455,459.429,215.825,458.472L215.825,458.472z M178.453,342.05c0.054-0.046,0.128-0.116,0.16-0.159
				c0.018-0.026,0.036-0.053,0.054-0.079c0.006-0.011,0.012-0.023,0.017-0.034C178.625,341.879,178.547,341.971,178.453,342.05
				L178.453,342.05z"/>
			<path style="fill-rule:evenodd;clip-rule:evenodd;" d="M219.247,456.681c-1.523-0.092-1.163-2.597,0.336-1.979
				c1.581-1.586-0.472-4.095-2.025-4.913c-1.071-0.607-0.102-2.273,0.961-1.645c0.742,0.403,1.362,0.972,1.954,1.568
				C222.583,451.561,222.81,456.577,219.247,456.681z"/>
			<path style="fill-rule:evenodd;clip-rule:evenodd;" d="M221.707,454.636c-1.795-0.589-0.119-1.755,0.033-2.782
				c0.539-1.35-1.619-2.566-0.492-3.674C224.098,447.041,224.551,454.617,221.707,454.636z"/>
			<path style="fill-rule:evenodd;clip-rule:evenodd;" d="M223.251,452.406c-1.148-1.862,1.533-1.569-2.555-5.059
				c-0.977-0.749,0.198-2.277,1.163-1.509c0.804,0.681,1.555,1.419,2.199,2.254C225.252,449.164,225.702,453.306,223.251,452.406z"
				/>
			<path style="fill-rule:evenodd;clip-rule:evenodd;" d="M144.328,72.708c-1.386-1.346,2.112-3.137,3.257-3.213
				c1.141-0.4,4.997,0.865,3.983,2.408c-0.937,0.758-1.611-1.001-2.656-0.971C145.795,70.401,145.431,73.355,144.328,72.708z"/>
			<path style="fill-rule:evenodd;clip-rule:evenodd;" d="M147.387,72.819c-1.105-0.234-1.439-2.562,0.006-2.37
				C149.071,68.996,150.297,73.523,147.387,72.819z"/>
			<path style="fill-rule:evenodd;clip-rule:evenodd;" d="M161.726,71.626c0.225-1.479,3.98-2.159,5.206-1.717
				c0.917,0.22,3.117,1.819,1.254,2.32c-0.773-0.162-1.256-1.069-2.133-1.047c-1.047,0.005-2.096,0.307-3.006,0.819
				C162.703,72.603,161.706,72.326,161.726,71.626z"/>
			<path style="fill-rule:evenodd;clip-rule:evenodd;" d="M164.888,73.527c-1.415,0.061-1.743-3.354-0.15-3.008
				C166.82,69.666,166.907,73.724,164.888,73.527z"/>
			<path style="fill-rule:evenodd;clip-rule:evenodd;" d="M142.417,69.374c-1.109-1.843,4.279-3.176,5.562-3.078
				c0.73-0.017,1.454,0.102,2.162,0.266c1.06,0.388,0.334,1.783-0.651,1.317c-1.855-0.387-3.884,0.007-5.482,1.018
				C143.539,69.231,142.998,69.94,142.417,69.374z"/>
			<path style="fill-rule:evenodd;clip-rule:evenodd;" d="M161.433,68.12c-0.702-2.007,6.969-1.795,7.976-1.008
				c0.851,0.354,0.295,1.682-0.556,1.317c-1.666-0.699-3.566-0.498-5.313-0.256C162.845,68.214,161.868,69.008,161.433,68.12z"/>
			<path style="fill-rule:evenodd;clip-rule:evenodd;" d="M155.572,83.189c-0.784-1.012-1.752,0.24-2.709-0.119
				c-1.034-0.22-1.874-2.252-0.581-2.627c0.386-0.05,0.753,0.223,0.805,0.61c-0.097,1.71,1.393-0.937,3.529,1.097
				c1.971-0.783,1.708-0.407,3.596-0.078c0.339-0.214,0.351-0.738,0.307-1.099c-0.137-0.913,1.298-1.111,1.415-0.194
				c0.251,2.552-1.486,3.219-3.62,2.316C157.428,83.377,156.423,83.951,155.572,83.189z"/>
			<path style="fill-rule:evenodd;clip-rule:evenodd;" d="M159.27,76.52c-0.342-1.574-0.445-3.217-0.306-4.822
				c0.055-0.386,0.419-0.663,0.806-0.611c1.141,0.288,0.337,2.11,0.601,2.993c-0.15,0.904,0.865,2.48-0.222,2.939
				C159.785,77.119,159.363,76.899,159.27,76.52z"/>
			<path style="fill-rule:evenodd;clip-rule:evenodd;" d="M152.087,89.398c0.173-1.38,2.952-0.629,3.978-0.83
				c1.311,0.005,2.622,0.049,3.934,0.028c0.533-0.07,1.245,0.024,1.246,0.704c0.24,1.37-5.16,0.47-6.237,0.702
				C154.138,89.798,152.213,90.672,152.087,89.398L152.087,89.398z M153.362,89.833c0.084-0.103,0.137-0.237,0.148-0.366
				C153.495,89.604,153.442,89.729,153.362,89.833z"/>
			<path style="fill-rule:evenodd;clip-rule:evenodd;" d="M155.967,92.864c-0.701-0.083-2.097-0.142-1.749-1.193
				c0.496-0.975,2.193,0.189,3.224-0.374c0.377-0.098,0.775,0.119,0.879,0.499C158.502,92.988,156.757,92.872,155.967,92.864z"/>
			<path style="fill-rule:evenodd;clip-rule:evenodd;" d="M151.511,109.034c-0.601-0.867-4.094-3.648-1.915-4.237
				c0.721,0.051,1.374,1.774,2.064,2.295c0.402,0.56,1.528,1.187,0.86,1.942C152.249,109.306,151.781,109.314,151.511,109.034z"/>
			<path style="fill-rule:evenodd;clip-rule:evenodd;" d="M157.337,112.762c-0.959-0.902,1.329-2.519,1.681-3.474
				c0.852-1.328,1.642-2.728,1.946-4.291c0.084-0.38,0.519-0.598,0.879-0.499c0.782,0.234,0.456,1.109,0.305,1.676
				C161.859,107.322,158.66,113.753,157.337,112.762z"/>
			<path style="fill-rule:evenodd;clip-rule:evenodd;" d="M160.419,119.316c1.749-5.89,12.401-6.157,17.36-5.329
				c0.445,0.413,0.113,1.252-0.505,1.219c-5.103-0.03-12.401-0.859-15.428,4.171C161.785,120.257,160.406,120.205,160.419,119.316z"
				/>
			<path style="fill-rule:evenodd;clip-rule:evenodd;" d="M151.553,119.167c-1.771-1.792-4.747-1.639-7.106-1.785
				c-1.995-0.063-3.972,0.216-5.936,0.536c-0.91,0.134-1.115-1.297-0.194-1.416c4.526-0.607,10.036-1.413,13.984,1.357
				C153.803,118.99,152.298,120.652,151.553,119.167z"/>
			<path style="fill-rule:evenodd;clip-rule:evenodd;" d="M135.18,155.743c-5.881,0.058-11.594-1.628-16.303-5.191
				c-0.821-0.591-4.951-3.193-2.225-3.557c0.938,0.691,1.741,1.559,2.75,2.191c4.074,3.028,8.853,4.938,13.941,5.053
				c7.788,0.731,15.319-1.17,20.621-7.209c0.275-0.275,0.735-0.275,1.01,0c0.954,1.068-2.45,3.057-3.117,3.857
				C147.274,154.816,141.07,155.995,135.18,155.743z"/>
			<path style="fill-rule:evenodd;clip-rule:evenodd;" d="M156.018,144.32c0.268-1.047-0.408-5.073,1.201-4.791
				c0.388,0.106,0.615,0.532,0.489,0.914c-0.182,1.281-0.184,2.586-0.261,3.877C157.45,145.243,156.005,145.246,156.018,144.32z"/>
			<path style="fill-rule:evenodd;clip-rule:evenodd;" d="M177.808,153.465c-5.197-0.536-10.598-1.118-15.057-4.086
				c-0.739-0.611-2.941-1.422-1.953-2.582c0.405-0.319,0.875-0.076,1.149,0.278c1.058,0.843,2.233,1.537,3.441,2.142
				c3.95,2.076,8.49,2.336,12.843,2.848c5.859,0.223,12.436-1.454,16.181-6.248c1.293-1.796,1.523-4.123,2.362-6.054
				c1.883-0.747,0.84,1.992,0.6,2.859C195.23,150.9,185.504,153.933,177.808,153.465z"/>
			<path style="fill-rule:evenodd;clip-rule:evenodd;" d="M181.862,149.664c-1.117,0.214-1.825-1.351-0.511-1.558
				c0.707,0.339,2.113-0.281,2.21,0.85C183.531,149.847,182.484,149.674,181.862,149.664z"/>
			<path style="fill-rule:evenodd;clip-rule:evenodd;" d="M131.032,151.186c-0.872-0.089-1.793-0.064-2.621-0.378
				c-0.355-0.158-0.534-0.572-0.38-0.936c0.512-0.932,2.024,0.036,2.897-0.122C131.912,149.643,132.024,151.188,131.032,151.186z"/>
			<path style="fill-rule:evenodd;clip-rule:evenodd;" d="M155.602,173.335c0.002-4.32,0.031-8.643-0.037-12.963
				c0.198-1.063-0.652-4.261,0.728-4.425c0.374,0,0.735,0.325,0.714,0.714c-0.105,3.025,0.061,6.055,0.031,9.082
				c0.005,2.531-0.005,5.061-0.007,7.592C157.037,174.254,155.593,174.264,155.602,173.335z"/>
			<path style="fill-rule:evenodd;clip-rule:evenodd;" d="M154.278,192.83c0.172-3.313,0.521-6.603,0.75-9.911
				c0.288-1.15-0.258-5.679,1.541-5.265c0.634,0.27,0.386,0.936,0.24,1.437c-0.454,3.822-0.593,7.669-0.961,11.5
				c-0.061,0.752-0.103,1.488-0.141,2.24C155.708,193.751,154.263,193.757,154.278,192.83z"/>
			<path style="fill-rule:evenodd;clip-rule:evenodd;" d="M154.784,202.583c-1.192-0.664-0.719-2.541-0.724-3.691
				c0.112-0.869,1.454-0.757,1.424,0.114C156.65,199.418,156.321,202.952,154.784,202.583z"/>
			<path style="fill-rule:evenodd;clip-rule:evenodd;" d="M137.741,183.805c-2.515-4.65-4.192-9.95-2.876-15.234
				c0.107-0.576,0.121-1.485,0.938-1.389c0.796,0.128,0.618,1.013,0.477,1.582c-0.734,3.309-0.552,6.763,0.723,9.917
				c0.561,1.577,1.329,3.062,2.053,4.567C139.425,184.086,138.109,184.666,137.741,183.805z"/>
			<path style="fill-rule:evenodd;clip-rule:evenodd;" d="M136.587,200.131c-1.575-4.456-1.054-10.759,1.626-14.687
				c0.942-0.725,1.71,0.642,0.773,1.268c-1.536,2.964-1.958,6.427-1.776,9.73c0.07,1.073,0.256,2.145,0.693,3.133
				C138.269,200.418,136.944,200.991,136.587,200.131z"/>
			<path style="fill-rule:evenodd;clip-rule:evenodd;" d="M136.977,213.404c-0.616-1.424-0.933-2.963-1.048-4.506
				c-0.013-1.245,0.03-6.977,2.181-5.847c0.265,0.266,0.287,0.748,0,1.01c-0.76,1.377-0.708,3.125-0.764,4.668
				c0.107,1.41,0.385,2.817,0.947,4.12C138.66,213.693,137.333,214.264,136.977,213.404z"/>
			<path style="fill-rule:evenodd;clip-rule:evenodd;" d="M172.217,211.22c-1.08-0.639,0.275-1.92,0.387-2.798
				c0.377-1.13,0.599-2.113,0.694-3.257c0.135-2.163-0.26-4.36,0.201-6.499c0.567-2.386,1.573-4.736,1.355-7.236
				c-0.322-2.914-1.115-5.811-0.805-8.767c0.362-2.4,1.337-4.689,1.442-7.138c0.161-2.485,0.026-4.981-0.059-7.466
				c-0.014-0.39,0.335-0.714,0.714-0.714c1.305-0.078,0.618,4.162,0.839,5.154c0.022,1.966-0.021,3.955-0.472,5.877
				c-0.497,2.274-1.359,4.488-1.06,6.857c0.816,5.92,1.445,7.842-0.566,13.768c-0.512,3.29,0.394,6.735-0.942,9.912
				C173.526,209.685,173.41,211.515,172.217,211.22z"/>
			<path style="fill-rule:evenodd;clip-rule:evenodd;" d="M141.114,165.816c0.21-1.322,2.545-0.539,3.518-0.739
				c2.194,0.012,4.387-0.137,6.546-0.544c0.382-0.071,0.754,0.239,0.805,0.611c0.171,1.395-4.234,1.114-5.263,1.326
				c-1.481,0.068-2.964,0.026-4.446,0.047C141.758,166.603,141.115,166.447,141.114,165.816z"/>
			<path style="fill-rule:evenodd;clip-rule:evenodd;" d="M167.05,167.107c-1.081-0.238-6.675,0.122-6.2-1.453
				c0.101-0.393,0.536-0.607,0.916-0.491c1.372,0.237,2.763,0.346,4.151,0.454c0.651,0.096,1.801-0.175,1.847,0.776
				C167.765,166.771,167.438,167.122,167.05,167.107z"/>
			<path style="fill-rule:evenodd;clip-rule:evenodd;" d="M146.65,185.301c-1.219-0.247-3.192-0.105-3.721-1.468
				c-0.064-0.384,0.234-0.753,0.611-0.805c0.629,0.036,1.04,0.628,1.725,0.628c1.537,0.313,3.111,0.338,4.667,0.169
				c0.387-0.04,0.752,0.215,0.806,0.611C150.782,185.874,147.622,185.229,146.65,185.301z"/>
			<path style="fill-rule:evenodd;clip-rule:evenodd;" d="M163.202,185.891c-1.099-0.11-2.253-0.145-3.287-0.563
				c-0.792-0.44-0.093-1.678,0.686-1.253c2.015,0.467,4.112,0.507,6.174,0.499c0.389-0.01,0.714,0.333,0.714,0.715
				C167.358,186.666,164.213,185.775,163.202,185.891z"/>
			<path style="fill-rule:evenodd;clip-rule:evenodd;" d="M146.101,202.644c-1.586-0.171-3.203-0.375-4.693-0.975
				c-0.849-0.358-0.292-1.689,0.556-1.316c0.508,0.227,1.056,0.341,1.595,0.474c1.818,0.335,3.671,0.586,5.523,0.46
				c0.745,0.042,2.046-0.634,2.285,0.437C151.393,203.271,147.193,202.636,146.101,202.644z"/>
			<path style="fill-rule:evenodd;clip-rule:evenodd;" d="M163.922,203.73c-1.378-0.194-3.278-0.033-4.252-1.157
				c-0.305-0.66,0.57-1.297,1.1-0.836c2.414,0.988,5.154,0.305,7.6,0.658C169.845,204.411,164.889,203.617,163.922,203.73z"/>
			<path style="fill-rule:evenodd;clip-rule:evenodd;" d="M99.652,194.609c-0.389-1.742-1.265-3.467-2.511-4.748
				c-1.13-1.211,0.716-1.979,1.582-0.397c0.696,0.968,3.516,5.13,1.733,5.756C100.073,195.275,99.711,194.996,99.652,194.609z"/>
			<path style="fill-rule:evenodd;clip-rule:evenodd;" d="M216.587,184.937c-1.893-0.595,2.187-5.164,3.118-3.885
				c0.234,0.303,0.184,0.771-0.128,1.002C217.441,183.314,217.605,185.217,216.587,184.937z"/>
			<path style="fill-rule:evenodd;clip-rule:evenodd;" d="M126.977,214.004c-0.856-1.352-6.676-6.745-4.349-7.888
				c0.988-0.078,1.176,2.021,1.913,2.68c1.095,1.52,2.396,2.875,3.568,4.335C128.679,213.852,127.545,214.74,126.977,214.004z"/>
			<path style="fill-rule:evenodd;clip-rule:evenodd;" d="M181.818,215.811c-0.795-0.962,1.619-2.524,1.99-3.54
				c1.257-2.027,2.357-4.148,3.658-6.148c-0.012-0.303,0.177-0.581,0.462-0.697c-0.007,0.003-0.014,0.005-0.022,0.008
				c-0.024,0.012-0.049,0.024-0.072,0.035c2.983-0.656-0.797,3.682-1.115,4.658C185.969,211.222,183.286,216.905,181.818,215.811z"
				/>
			<path style="fill-rule:evenodd;clip-rule:evenodd;" d="M152.261,225.092c-8.258-0.65-16.466-2.169-24.307-4.868
				c-1.971-0.605-3.867-1.424-5.823-2.071c-0.37-0.121-0.577-0.533-0.455-0.902c0.526-1.315,3.629,0.779,4.68,0.923
				c3.86,1.263,7.715,2.621,11.697,3.446c12.601,2.619,25.783,3.176,38.284-0.206c3.265-0.818,6.55-1.633,9.665-2.928
				c0.961-0.165,2.033-1.72,2.902-0.821c0.953,1.919-7.622,3.809-9.067,4.33C170.879,224.634,161.571,225.579,152.261,225.092z"/>
			<path style="fill-rule:evenodd;clip-rule:evenodd;" d="M156.394,267.53c-0.868-1.131,2.478-2.642,3.121-3.509
				c3.488-2.84,7.074-5.558,10.467-8.515c7.839-7.06,16.036-13.891,22.608-22.192c-0.032-0.18,0.008-0.369,0.109-0.521
				c0.107-0.161,0.263-0.251,0.446-0.302c-0.025,0.007-0.051,0.015-0.077,0.022c-0.015,0.006-0.03,0.013-0.044,0.019
				c7.024-0.772-25.362,26.986-27.367,28.423c-2.001,1.587-4.029,3.14-5.979,4.79C158.713,266.216,157.45,268.355,156.394,267.53z"
				/>
			<path style="fill-rule:evenodd;clip-rule:evenodd;" d="M156.84,267.5c-4.472-5.055-9.746-9.317-14.9-13.648
				c-6.301-5.234-12.46-10.691-19.364-15.134c-1.297-0.913-2.71-1.554-3.942-2.488c-0.58-0.671,0.439-1.62,1.06-0.958
				c10.776,6.311,19.936,14.907,29.508,22.839C149.97,258.902,161.837,268.818,156.84,267.5z"/>
			<path style="fill-rule:evenodd;clip-rule:evenodd;" d="M193.967,347.099c-1.384-0.294-6.161-1.326-5.003-3.337
				c0.821-0.594,1.946,1.312,3.16,1.403c0.859,0.491,2.602,0.096,2.649,1.323C194.722,346.861,194.345,347.173,193.967,347.099z"/>
			<path style="fill-rule:evenodd;clip-rule:evenodd;" d="M129.994,347.149c-0.39,0-0.714-0.325-0.714-0.714
				c0.015-0.84,0.929-0.677,1.506-0.774c0.904,0.009,1.792-1.381,2.581-0.573C133.975,346.635,131.1,347.127,129.994,347.149z"/>
			<path style="fill-rule:evenodd;clip-rule:evenodd;" d="M196.428,297.8c-0.818-0.318-0.319-1.213-0.165-1.809
				c0.935-3.503,1.548-7.101,1.718-10.724c0.064-0.384,0.478-0.63,0.847-0.553c1.278,0.544,0.077,4.124,0.122,5.363
				C198.529,291.415,198.093,298.219,196.428,297.8z"/>
			<path style="fill-rule:evenodd;clip-rule:evenodd;" d="M120.295,293.751c-0.413-1.256-2.554-9.48-0.045-8.855
				c0.337,0.171,0.467,0.565,0.341,0.898c-0.182,1.647,0.15,3.334,0.385,4.968c-0.075,1.079,1.389,2.722,0.228,3.433
				C120.842,294.321,120.422,294.122,120.295,293.751z"/>
			<path style="fill-rule:evenodd;clip-rule:evenodd;" d="M164.072,261.618c-0.737-0.998,0.989-1.721,1.326-2.591
				c1.116-1.729,1.677-3.744,2.102-5.74c0.465-0.999-0.055-3.604,1.323-3.674c0.393,0.053,0.652,0.417,0.61,0.805
				C169.309,252.662,167.062,262.578,164.072,261.618z"/>
			<path style="fill-rule:evenodd;clip-rule:evenodd;" d="M146.381,257.142c-0.707-1.148-2.35-7.307-0.577-7.641
				c1.37,0.171,0.416,3.258,0.952,4.353c0.106,1.088,0.855,2.099,0.93,3.118C147.549,257.559,146.659,257.687,146.381,257.142z"/>
			<path style="fill-rule:evenodd;clip-rule:evenodd;" d="M90.984,274.927c-0.789-1.126,1.582-1.757,1.895-0.71
				C93.12,275.175,91.507,275.548,90.984,274.927z"/>
			<path style="fill-rule:evenodd;clip-rule:evenodd;" d="M95.024,272.582c0-0.396,0.314-0.685,0.694-0.713
				c-0.058,0-0.11,0.013-0.165,0.024c0.88-0.599,1.776,0.743,0.789,1.228C95.827,273.448,95.033,273.287,95.024,272.582z"/>
			<path style="fill-rule:evenodd;clip-rule:evenodd;" d="M99.456,272.143c-0.926-0.175-0.654-1.282,0.004-1.635
				C101.069,269.789,100.787,272.173,99.456,272.143z"/>
			<path style="fill-rule:evenodd;clip-rule:evenodd;" d="M210.78,264.751c-0.681-0.134-1.883-0.124-1.95-1.028
				c0-0.389,0.326-0.714,0.714-0.714c0.478,0.102,0.927,0.308,1.429,0.327C211.893,263.451,211.693,264.884,210.78,264.751z"/>
			<path style="fill-rule:evenodd;clip-rule:evenodd;" d="M215.713,265.056c-1.4,0.169-1.546-1.874-0.1-1.456
				C216.703,263.482,216.841,265.137,215.713,265.056z"/>
			<path style="fill-rule:evenodd;clip-rule:evenodd;" d="M220.82,265.138c-2.637,0.333-2.289-2.466-0.682-1.476
				C221.387,263.457,222.242,264.761,220.82,265.138z"/>
		</g>
	</g>
</g>
</svg>
