<?xml version="1.0" standalone="no"?>
<!DOCTYPE svg PUBLIC "-//W3C//DTD SVG 20010904//EN"
 "http://www.w3.org/TR/2001/REC-SVG-20010904/DTD/svg10.dtd">
<svg version="1.0" xmlns="http://www.w3.org/2000/svg"
 width="234.000000pt" height="259.000000pt" viewBox="0 0 234.000000 259.000000"
 preserveAspectRatio="xMidYMid meet">
<g transform="translate(0.000000,259.000000) scale(0.100000,-0.100000)"
fill="#000000" stroke="none">
<path d="M1645 2290 c-4 -6 -4 -24 0 -40 9 -41 -10 -39 -57 7 -31 30 -38 34
-44 20 -3 -9 -1 -31 5 -48 6 -18 9 -35 6 -37 -3 -3 -22 3 -43 13 -20 11 -40
21 -44 23 -13 6 -9 -67 6 -103 20 -46 56 -68 106 -63 22 2 40 2 40 1 0 -1 -12
-9 -27 -17 -87 -45 -179 -187 -228 -351 -57 -191 -78 -215 -234 -270 -84 -29
-88 -26 -96 68 -8 95 -36 193 -72 255 -42 71 -153 175 -153 142 0 -6 -17 1
-37 14 -21 14 -58 32 -82 41 -46 16 -156 21 -165 7 -3 -5 18 -17 47 -28 l52
-19 -72 -6 c-95 -9 -187 -52 -253 -118 -27 -28 -50 -58 -50 -68 0 -10 -7 -27
-16 -38 -24 -32 -53 -140 -64 -237 -6 -50 -19 -115 -29 -146 -11 -31 -18 -59
-15 -61 8 -8 56 44 75 81 10 20 30 85 45 145 31 127 51 169 107 230 59 64 106
86 202 91 66 3 91 0 140 -19 87 -32 168 -116 228 -238 26 -51 47 -86 47 -76 0
21 -50 122 -88 178 -42 60 -115 125 -170 150 -38 18 -66 22 -142 22 -109 0
-148 -15 -216 -83 -58 -58 -91 -125 -119 -246 -24 -104 -54 -178 -75 -191 -13
-8 -13 -3 0 31 6 14 17 78 25 140 25 190 60 258 160 310 30 16 55 32 55 37 0
9 -78 -29 -103 -51 -9 -8 -20 -13 -22 -10 -10 10 92 88 152 116 51 24 70 27
158 27 89 0 107 -3 162 -29 116 -53 190 -160 234 -336 12 -47 25 -89 29 -94 5
-4 -2 36 -15 91 -15 62 -45 143 -80 217 -31 65 -54 120 -52 123 9 9 77 -86
106 -148 34 -72 51 -146 51 -223 0 -29 6 -61 14 -71 12 -17 18 -18 69 -6 85
19 174 67 206 112 16 21 40 80 55 136 75 269 218 434 354 408 19 -3 45 -17 58
-31 24 -23 24 -25 9 -54 -14 -27 -14 -31 0 -36 8 -3 13 -9 10 -13 -2 -4 5 -35
15 -69 20 -63 18 -84 -8 -114 -20 -24 -45 -23 -68 3 -23 25 -26 127 -5 153 7
8 11 21 8 28 -3 7 -12 -4 -21 -24 -19 -44 -21 -116 -4 -152 10 -24 42 -43 61
-38 11 3 66 -116 83 -180 7 -29 14 -75 14 -103 l0 -50 -34 85 c-18 47 -40 108
-49 135 -9 28 -14 37 -11 20 14 -80 15 -145 3 -181 l-13 -39 -11 60 -11 60 -6
-56 c-3 -30 -14 -73 -24 -95 l-18 -39 -6 67 c-8 79 -20 101 -20 37 0 -24 -9
-63 -20 -86 -21 -48 -29 -55 -23 -20 2 12 -3 51 -12 87 -14 62 -15 63 -12 18
1 -25 -1 -44 -5 -41 -5 2 -8 -8 -8 -24 l-1 -28 -14 25 c-8 14 -20 51 -26 83
l-12 59 -12 -36 c-7 -20 -21 -48 -31 -63 l-19 -28 -6 85 c-3 47 -6 78 -7 70
-3 -20 -58 -87 -83 -101 -19 -10 -20 -9 -6 18 8 15 18 44 22 63 l7 34 -32 -32
c-18 -18 -50 -42 -72 -53 -22 -11 -38 -23 -35 -25 7 -7 67 24 95 49 27 25 28
13 2 -31 -11 -18 -18 -37 -15 -43 9 -13 58 15 89 51 l26 32 0 -73 0 -72 21 19
c12 10 28 35 37 54 l15 35 11 -47 c7 -25 21 -59 32 -75 l19 -28 5 35 c3 22 8
30 13 23 4 -7 5 -29 1 -49 -9 -51 14 -42 44 17 l22 44 -4 -37 c-2 -21 0 -38 4
-38 15 0 42 40 55 82 l14 43 0 -35 1 -35 21 32 c11 18 24 54 27 80 l7 47 18
-60 c11 -32 26 -69 34 -82 10 -17 13 -36 8 -65 -24 -154 -93 -270 -177 -299
-16 -6 -28 -14 -28 -19 0 -5 15 -2 33 7 l32 16 -30 -32 c-48 -51 -145 -125
-209 -159 -33 -17 -66 -37 -75 -44 -12 -10 -13 -9 -6 3 5 8 18 27 29 42 11 15
17 30 15 33 -3 2 -23 -19 -44 -48 -72 -97 -179 -207 -188 -194 -12 16 0 -245
13 -278 11 -30 70 -59 140 -70 78 -12 82 -27 5 -19 -44 4 -80 13 -96 25 -29
21 -39 23 -39 11 0 -4 15 -16 33 -26 31 -18 66 -54 67 -68 0 -4 -34 16 -75 44
l-76 52 -45 -12 c-54 -15 -67 -15 -59 -2 3 6 14 10 24 10 10 0 30 9 45 21 20
16 26 29 26 58 0 32 -5 40 -32 54 l-33 16 33 -6 33 -6 -8 69 c-4 38 -7 83 -7
101 0 18 -3 30 -8 27 -4 -3 -8 1 -8 9 0 8 -6 19 -13 25 -7 6 -19 34 -27 62 -8
28 -18 54 -24 57 -5 4 -7 -1 -3 -10 3 -10 4 -17 0 -17 -19 0 -117 67 -148 101
l-37 41 7 77 c4 42 17 106 30 143 13 38 19 66 15 63 -21 -13 -52 -127 -62
-227 -13 -126 -29 -125 -36 2 -4 81 20 176 60 232 11 16 18 33 16 39 -2 7 -18
-15 -36 -48 -40 -77 -66 -183 -57 -243 6 -46 41 -130 53 -130 4 0 6 21 4 47
l-3 48 19 -30 c24 -39 69 -76 132 -112 28 -15 50 -34 50 -40 0 -7 5 -13 10
-13 6 0 10 -14 10 -32 0 -17 3 -28 7 -25 13 14 33 -48 39 -123 l7 -79 -24 6
c-13 3 -30 10 -36 16 -9 7 -13 5 -13 -7 0 -8 18 -28 40 -42 61 -41 50 -91 -25
-108 -38 -9 -55 -24 -54 -45 0 -9 3 -11 5 -5 2 6 18 9 34 6 16 -2 43 1 59 6
28 10 37 6 106 -39 42 -27 80 -49 85 -49 14 0 12 34 -2 48 -6 6 -10 13 -7 15
9 7 129 -15 124 -23 -3 -5 -2 -11 3 -14 4 -2 9 6 10 19 2 31 -48 71 -103 81
-32 6 -36 9 -20 15 54 21 99 8 258 -69 12 -6 8 33 -5 46 -9 9 -3 12 30 10 23
-1 45 2 49 5 3 4 -16 7 -44 7 -29 0 -69 8 -94 20 -53 24 -84 27 -55 5 11 -8
26 -15 34 -15 17 0 75 -40 68 -47 -2 -2 -39 12 -81 32 -73 35 -80 37 -128 27
-40 -7 -47 -7 -33 2 44 25 67 56 64 84 -2 22 -9 28 -38 33 -30 6 -31 7 -7 8
33 1 34 16 7 96 -23 67 -25 84 -9 68 6 -6 17 -10 23 -7 7 3 18 -27 30 -77 24
-100 53 -160 86 -176 14 -6 59 -19 100 -27 44 -9 80 -23 87 -33 19 -25 25 -10
7 16 -9 13 -22 20 -31 17 -8 -4 -11 -2 -7 5 10 17 -16 29 -62 29 -66 0 -104
11 -119 34 -8 11 -26 63 -40 113 l-27 93 50 72 c27 40 59 92 70 114 12 24 43
58 71 78 27 20 83 72 125 116 115 123 156 228 157 405 0 107 -14 173 -57 257
-29 57 -30 68 -4 68 26 0 53 43 52 81 0 17 -10 48 -21 70 -12 22 -21 44 -21
49 0 6 23 10 50 10 28 0 50 4 50 9 0 11 -43 57 -59 62 -9 3 -8 12 4 36 17 34
9 71 -24 108 -10 11 -22 33 -25 50 l-8 30 -18 -24 -18 -24 -7 41 c-8 50 -30
56 -40 11 l-7 -30 -28 44 c-32 50 -46 62 -55 47z m61 -82 c8 -27 31 -22 42 10
6 16 11 20 11 10 1 -9 6 -29 12 -45 10 -26 12 -27 23 -10 17 22 26 22 26 -2 0
-11 11 -32 25 -47 34 -37 33 -77 -4 -103 -36 -26 -37 -26 -44 -2 -9 37 -49 52
-157 56 -114 5 -146 18 -155 63 -17 77 -19 72 21 52 51 -26 67 -17 59 34 -6
41 -6 41 12 20 20 -23 55 -44 72 -44 6 0 11 17 11 38 l0 37 20 -25 c11 -14 22
-33 26 -42z m165 -225 c44 -26 45 -43 2 -28 -20 7 -45 10 -57 6 -16 -4 -12 -7
19 -11 l40 -6 -35 -6 c-19 -3 -37 -2 -38 3 -2 5 -9 6 -15 2 -15 -8 11 27 32
45 19 15 17 15 52 -5z m-1147 -69 c17 -9 46 -27 63 -41 22 -16 31 -19 27 -8
-4 10 -2 13 7 10 8 -3 27 -31 43 -63 l28 -57 -43 42 c-41 40 -72 56 -211 114
-32 13 -58 27 -58 30 0 10 111 -11 144 -27z m1114 -47 c27 -64 28 -88 2 -118
l-19 -24 11 32 c11 30 3 74 -29 151 -2 6 -1 12 4 12 4 0 18 -24 31 -53z m-370
-1141 c-34 -53 -64 -92 -66 -86 -3 8 -8 7 -18 -1 -11 -9 -14 -8 -14 7 0 14 -3
15 -12 6 -13 -13 -38 1 -38 22 1 20 66 82 101 96 19 8 50 24 69 36 19 12 36
20 38 19 2 -2 -25 -46 -60 -99z m-113 -168 c14 -43 25 -82 25 -85 0 -3 -16 -3
-35 -1 -50 6 -46 -18 6 -32 35 -10 40 -14 37 -37 -2 -14 -12 -31 -23 -37 -64
-34 -67 -37 -54 -52 19 -23 -23 -18 -48 6 -21 19 -23 27 -38 189 l-6 64 42 43
c53 54 60 49 94 -58z m280 -216 c-3 -3 -11 0 -18 7 -9 10 -8 11 6 5 10 -3 15
-9 12 -12z m-288 -58 c-3 -3 -12 -4 -19 -1 -8 3 -5 6 6 6 11 1 17 -2 13 -5z"/>
<path d="M1376 693 c-6 -14 -5 -15 5 -6 7 7 10 15 7 18 -3 3 -9 -2 -12 -12z"/>
<path d="M1443 2253 c0 -10 4 -10 16 -1 9 7 18 13 20 15 2 1 -5 1 -16 0 -11 0
-20 -7 -20 -14z"/>
<path d="M1445 2061 c-3 -5 -1 -12 5 -16 5 -3 10 -3 10 1 0 3 8 0 18 -7 14
-11 13 -10 -2 9 -22 25 -23 25 -31 13z"/>
<path d="M1640 2010 c-6 -11 -8 -20 -5 -20 3 0 -4 -9 -15 -20 -35 -35 -20 -94
30 -123 32 -20 40 -21 40 -7 0 6 -6 10 -13 10 -16 0 -51 37 -60 63 -9 25 2 47
25 47 15 0 18 5 13 21 -5 14 -1 25 12 34 16 13 16 14 1 15 -10 0 -22 -9 -28
-20z"/>
<path d="M1690 2014 c-11 -12 -11 -18 2 -30 12 -13 20 -14 37 -5 26 14 27 27
2 41 -25 13 -26 13 -41 -6z m40 -12 c0 -5 -7 -9 -15 -9 -8 0 -15 4 -15 9 0 4
7 8 15 8 8 0 15 -4 15 -8z"/>
<path d="M1466 2011 c-4 -5 -2 -12 3 -15 5 -4 12 -2 15 3 4 5 2 12 -3 15 -5 4
-12 2 -15 -3z"/>
<path d="M1780 1810 c-6 -11 -8 -20 -6 -20 3 0 10 9 16 20 6 11 8 20 6 20 -3
0 -10 -9 -16 -20z"/>
<path d="M425 1810 c-3 -6 1 -7 9 -4 18 7 21 14 7 14 -6 0 -13 -4 -16 -10z"/>
<path d="M1016 1743 c-6 -14 -5 -15 5 -6 7 7 10 15 7 18 -3 3 -9 -2 -12 -12z"/>
<path d="M508 1706 c-20 -8 -51 -16 -70 -17 -18 -2 -43 -9 -55 -17 -23 -14
-47 -68 -37 -84 3 -5 -4 -32 -16 -60 -25 -58 -30 -156 -11 -225 18 -67 31 -62
32 14 1 37 5 79 9 93 l8 25 1 -24 c1 -13 18 -41 40 -63 l40 -39 -16 -37 c-10
-22 -17 -67 -17 -112 -1 -63 4 -84 27 -132 16 -32 32 -58 37 -58 4 0 5 38 3
84 -5 67 -2 95 13 136 39 109 137 181 252 186 34 1 61 6 60 11 -6 18 -128 4
-175 -21 -109 -55 -167 -152 -167 -279 l-1 -79 -18 39 c-25 54 -19 191 11 250
74 143 217 199 364 143 40 -15 54 -17 60 -7 12 18 10 23 -19 58 -47 56 -86 88
-141 115 -94 47 -223 23 -299 -58 -50 -53 -77 -115 -82 -188 -3 -45 -6 -59
-12 -45 -15 39 -9 139 12 195 12 30 21 69 20 86 -1 38 23 74 39 58 7 -7 5 -16
-10 -29 -11 -10 -20 -22 -20 -28 0 -5 18 7 39 26 57 51 97 69 167 75 55 4 70
1 133 -28 77 -36 149 -103 191 -177 13 -24 27 -43 31 -43 15 0 -44 91 -92 144
-91 100 -235 149 -331 112z m-72 -41 c-11 -8 -22 -12 -25 -9 -6 6 19 24 34 24
6 -1 1 -7 -9 -15z m290 -81 c48 -23 162 -129 151 -140 -3 -3 -19 2 -36 10 -16
9 -40 16 -53 16 -33 0 -236 137 -212 142 37 8 100 -4 150 -28z m-69 -60 c40
-25 73 -46 73 -47 0 -2 -17 -1 -39 1 -57 6 -133 -31 -186 -90 -25 -28 -45 -55
-45 -61 0 -18 -62 46 -76 80 -15 35 -11 53 19 96 17 25 21 26 36 14 27 -23
112 -70 117 -64 3 3 -22 22 -55 42 -34 21 -61 41 -61 45 0 4 10 15 23 23 21
14 24 13 34 -2 11 -18 131 -86 139 -79 2 3 -26 23 -63 45 -37 22 -68 44 -70
50 -2 5 7 14 19 20 18 8 27 6 43 -9 11 -10 52 -39 92 -64z"/>
<path d="M400 1482 c0 -17 33 -48 70 -67 45 -23 48 -12 5 15 -20 13 -45 32
-56 43 -10 12 -19 15 -19 9z"/>
<path d="M440 1391 c0 -6 4 -13 10 -16 6 -3 7 1 4 9 -7 18 -14 21 -14 7z"/>
<path d="M454 1628 l-19 -23 23 19 c21 18 27 26 19 26 -2 0 -12 -10 -23 -22z"/>
<path d="M1906 1583 c-4 -9 -3 -20 1 -24 4 -4 9 3 9 17 2 28 -1 31 -10 7z"/>
<path d="M903 1416 c2 -6 12 -13 23 -14 40 -8 31 -17 -17 -19 -52 -2 -139 -39
-147 -62 -3 -8 13 -3 39 12 48 27 82 36 147 39 l42 1 -21 23 c-22 24 -72 39
-66 20z"/>
<path d="M970 1412 c0 -12 19 -26 26 -19 2 2 -2 10 -11 17 -9 8 -15 8 -15 2z"/>
<path d="M683 1315 c-59 -51 -87 -121 -80 -208 2 -38 10 -74 17 -80 10 -10 10
-5 4 23 -15 59 -8 143 14 187 20 39 74 93 93 93 5 0 9 5 9 10 0 18 -15 11 -57
-25z"/>
<path d="M831 1329 c-35 -14 -81 -49 -81 -61 0 -6 8 -4 18 5 21 19 101 56 122
57 8 0 -1 -10 -20 -21 -19 -12 -45 -31 -58 -42 -21 -20 -22 -20 -16 -3 5 14 4
17 -5 12 -7 -4 -10 -13 -8 -19 2 -7 -11 -39 -29 -72 -18 -33 -37 -85 -43 -116
-16 -77 -6 -229 13 -208 2 2 0 35 -5 72 -5 38 -5 85 0 105 l9 37 1 -44 c1 -52
20 -121 34 -121 5 0 7 7 3 15 -3 9 -2 37 2 63 6 44 7 42 13 -40 6 -84 25 -138
50 -138 6 0 4 7 -4 15 -24 24 -39 110 -34 193 5 85 31 153 77 202 25 27 26 31
11 42 -9 7 -13 8 -9 4 4 -5 -5 -25 -21 -45 -15 -20 -33 -45 -39 -56 -19 -37
-52 -144 -52 -170 0 -14 -4 -25 -9 -25 -4 0 -11 30 -14 68 -4 53 -1 76 14 111
28 65 64 107 114 137 25 14 45 32 45 40 0 16 -42 18 -79 3z"/>
<path d="M1486 1322 c-3 -5 1 -9 9 -9 8 0 12 4 9 9 -3 4 -7 8 -9 8 -2 0 -6 -4
-9 -8z"/>
<path d="M1141 1273 c-82 -100 -143 -194 -167 -255 -14 -38 -28 -68 -30 -68
-6 0 4 42 23 103 8 27 13 51 10 54 -9 9 -47 -127 -46 -166 0 -32 1 -34 12 -16
7 11 41 48 76 83 69 67 71 84 3 26 l-42 -36 11 29 c8 22 59 110 76 133 2 2 8
-2 13 -10 8 -12 10 -10 10 8 0 25 26 68 68 114 14 15 23 30 20 33 -3 4 -20
-11 -37 -32z"/>
<path d="M1560 1270 c-1 -54 -26 -113 -69 -163 -33 -36 -92 -79 -108 -76 -18
3 -36 -1 -30 -8 9 -8 -58 -54 -133 -92 -95 -49 -260 -94 -260 -71 0 5 11 10
24 10 28 0 161 66 212 105 56 43 38 46 -24 5 -75 -51 -175 -100 -201 -100 -12
0 -21 -6 -21 -12 0 -9 -3 -8 -10 2 -5 8 -13 11 -17 6 -12 -11 27 -36 57 -36
45 0 175 37 232 66 29 15 80 44 112 66 33 22 76 48 95 58 95 49 180 198 151
265 -7 15 -9 9 -10 -25z"/>
<path d="M610 1284 c0 -8 5 -12 10 -9 6 3 10 10 10 16 0 5 -4 9 -10 9 -5 0
-10 -7 -10 -16z"/>
<path d="M566 1268 c-23 -35 -39 -125 -32 -177 7 -50 52 -151 67 -151 13 0 11
16 -5 29 -7 6 -21 32 -31 57 -21 57 -17 173 8 223 20 40 16 53 -7 19z"/>
<path d="M1653 1268 c7 -21 -3 -31 -18 -18 -8 7 -12 5 -12 -4 0 -15 22 -15 37
0 6 6 5 15 -1 24 -9 13 -10 13 -6 -2z"/>
<path d="M206 1243 c-6 -14 -5 -15 5 -6 7 7 10 15 7 18 -3 3 -9 -2 -12 -12z"/>
<path d="M692 1222 c-42 -59 -55 -103 -50 -171 4 -53 42 -160 53 -149 3 3 -4
26 -16 52 -38 86 -24 207 31 264 12 12 20 28 17 35 -2 6 -18 -8 -35 -31z"/>
<path d="M1121 1199 c-39 -63 -22 -121 34 -121 13 0 22 -4 20 -9 -9 -13 34
-31 57 -23 13 4 18 2 14 -5 -11 -17 42 -24 77 -10 36 15 107 76 107 92 0 6
-17 -5 -37 -26 -43 -41 -118 -73 -126 -53 -3 7 7 20 22 30 14 10 34 29 45 43
18 25 18 25 -1 15 -11 -6 -26 -18 -33 -27 -19 -23 -65 -45 -92 -45 -21 1 -18
5 21 41 24 21 41 43 37 46 -4 4 -10 3 -14 -2 -18 -25 -53 -47 -82 -51 -59 -10
-77 33 -39 95 11 18 18 36 15 38 -3 3 -14 -10 -25 -28z"/>
<path d="M1155 1149 c-22 -21 -35 -39 -30 -39 16 1 77 58 74 68 -2 6 -22 -7
-44 -29z"/>
<path d="M1446 1137 c3 -10 9 -15 12 -12 3 3 0 11 -7 18 -10 9 -11 8 -5 -6z"/>
<path d="M583 1060 c0 -30 2 -43 4 -27 2 15 2 39 0 55 -2 15 -4 2 -4 -28z"/>
<path d="M1054 982 c-33 -26 -74 -57 -90 -70 l-29 -22 35 16 c61 30 182 126
154 123 -5 0 -36 -22 -70 -47z"/>
<path d="M1805 1011 c-3 -5 -2 -12 3 -15 5 -3 9 1 9 9 0 17 -3 19 -12 6z"/>
<path d="M1345 941 c-3 -5 -2 -12 3 -15 5 -3 9 1 9 9 0 17 -3 19 -12 6z"/>
<path d="M810 912 c0 -18 5 -32 10 -32 6 0 8 11 4 28 -10 39 -14 40 -14 4z"/>
<path d="M1743 925 c0 -8 4 -12 9 -9 5 3 6 10 3 15 -9 13 -12 11 -12 -6z"/>
<path d="M1656 838 c3 -5 10 -6 15 -3 13 9 11 12 -6 12 -8 0 -12 -4 -9 -9z"/>
<path d="M909 773 c-13 -16 -12 -17 4 -4 9 7 17 15 17 17 0 8 -8 3 -21 -13z"/>
<path d="M1182 607 c-9 -11 -10 -17 -2 -22 15 -9 23 -1 18 21 -3 15 -4 16 -16
1z"/>
<path d="M1086 502 c-3 -5 1 -9 9 -9 8 0 12 4 9 9 -3 4 -7 8 -9 8 -2 0 -6 -4
-9 -8z"/>
<path d="M1060 436 c0 -2 8 -10 18 -17 15 -13 16 -12 3 4 -13 16 -21 21 -21
13z"/>
<path d="M1060 406 c0 -2 8 -10 18 -17 15 -13 16 -12 3 4 -13 16 -21 21 -21
13z"/>
<path d="M1049 363 c-13 -16 -12 -17 4 -4 16 13 21 21 13 21 -2 0 -10 -8 -17
-17z"/>
<path d="M1069 353 c-12 -16 -12 -17 2 -6 9 7 20 9 24 5 5 -4 5 -1 1 6 -9 16
-11 15 -27 -5z"/>
<path d="M1088 333 c7 -3 16 -2 19 1 4 3 -2 6 -13 5 -11 0 -14 -3 -6 -6z"/>
<path d="M1223 205 c0 -8 4 -12 9 -9 5 3 6 10 3 15 -9 13 -12 11 -12 -6z"/>
</g>
</svg>
