<?xml version="1.0" standalone="no"?>
<!DOCTYPE svg PUBLIC "-//W3C//DTD SVG 20010904//EN"
 "http://www.w3.org/TR/2001/REC-SVG-20010904/DTD/svg10.dtd">
<svg version="1.0" xmlns="http://www.w3.org/2000/svg"
 width="231.000000pt" height="246.000000pt" viewBox="0 0 231.000000 246.000000"
 preserveAspectRatio="xMidYMid meet">
<g transform="translate(0.000000,246.000000) scale(0.100000,-0.100000)"
fill="#000000" stroke="none">
<path d="M416 2211 c-3 -4 4 -17 17 -27 22 -19 22 -19 4 2 -9 11 -14 24 -10
27 3 4 4 7 0 7 -3 0 -8 -4 -11 -9z"/>
<path d="M446 2212 c-3 -5 1 -9 9 -9 8 0 12 4 9 9 -3 4 -7 8 -9 8 -2 0 -6 -4
-9 -8z"/>
<path d="M1804 2209 c-8 -14 14 -19 25 -6 8 10 7 14 -5 14 -8 0 -17 -4 -20 -8z"/>
<path d="M469 2164 c-18 -20 -62 -56 -95 -80 -79 -57 -141 -124 -166 -181 -30
-68 -23 -164 18 -229 54 -89 188 -156 374 -188 51 -9 69 -16 57 -21 -21 -9
-68 -2 -147 20 -30 8 -73 15 -96 15 -92 0 -244 -68 -244 -110 0 -26 113 -125
183 -160 82 -41 149 -41 234 -1 l62 30 10 -50 c6 -28 11 -78 11 -112 0 -132
19 -197 92 -327 55 -98 71 -146 69 -220 -2 -80 22 -127 69 -137 17 -3 35 -14
41 -24 20 -39 82 -59 180 -59 75 0 98 4 130 22 21 12 41 30 45 40 3 11 15 18
30 18 51 0 94 78 81 146 -8 41 9 89 79 229 68 136 83 194 84 317 0 31 5 79 11
107 l10 49 65 -30 c118 -55 219 -30 352 89 83 73 81 86 -19 137 -99 50 -173
57 -280 27 -82 -23 -124 -26 -134 -11 -4 6 7 10 27 10 48 0 210 45 270 76 82
41 125 80 154 140 23 47 26 63 22 122 -8 106 -45 161 -180 264 -43 32 -88 72
-100 89 -21 29 -47 39 -49 19 -1 -5 -2 -16 -3 -22 -4 -24 23 -78 68 -137 53
-69 66 -98 66 -149 0 -54 -29 -93 -91 -124 -114 -55 -209 -57 -346 -6 -59 21
-65 22 -145 9 -137 -23 -174 -24 -247 -7 -96 22 -141 20 -212 -9 -86 -34 -117
-38 -199 -26 -85 13 -174 53 -196 87 -45 67 -34 127 41 224 51 66 79 129 69
155 -9 22 -16 19 -55 -21z m25 -46 c-9 -18 -36 -59 -60 -91 -51 -68 -69 -121
-60 -170 10 -51 39 -82 110 -117 52 -26 81 -33 158 -38 l93 -7 3 -55 c2 -47
-2 -62 -28 -103 l-30 -48 -52 7 c-70 9 -209 49 -261 76 -101 51 -153 117 -164
206 -12 102 43 194 175 290 37 27 81 64 97 83 24 28 31 31 33 18 2 -10 -4 -33
-14 -51z m1372 -54 c85 -61 137 -122 157 -185 20 -61 21 -94 5 -140 -40 -119
-150 -188 -381 -238 l-88 -19 -29 51 c-23 40 -30 65 -31 107 0 46 -2 51 -11
33 -16 -33 -1 -106 32 -152 17 -22 30 -45 30 -50 0 -5 15 -15 34 -21 29 -9 46
-7 105 11 105 31 204 25 294 -19 46 -23 67 -39 67 -52 0 -22 -99 -109 -164
-144 -71 -38 -159 -36 -243 3 -55 26 -63 28 -67 13 -11 -35 -26 -159 -26 -218
0 -82 -19 -139 -90 -277 -33 -64 -60 -127 -61 -139 0 -14 -9 0 -22 35 -13 32
-25 55 -28 52 -4 -3 4 -31 17 -63 15 -37 24 -77 24 -115 0 -108 -25 -123 -164
-99 -84 14 -105 14 -188 2 -124 -19 -148 -17 -170 10 -27 33 -24 129 6 203 13
31 20 57 16 57 -5 0 -18 -24 -29 -52 -11 -29 -20 -44 -20 -33 0 11 -32 83 -71
160 l-71 140 -9 131 c-5 71 -14 151 -20 176 l-12 46 -64 -29 c-125 -57 -221
-36 -349 74 -74 65 -73 80 11 119 92 43 185 49 291 18 74 -21 80 -22 117 -6
22 9 36 19 33 22 -3 3 8 26 23 51 33 52 47 121 31 151 -9 18 -5 22 48 46 69
31 138 34 243 10 65 -15 77 -15 152 0 111 22 181 20 236 -6 70 -32 190 -36
273 -9 166 56 210 155 122 278 -78 107 -86 122 -92 159 l-6 39 38 -43 c20 -23
66 -63 101 -88z m-627 -1645 c35 -7 48 -14 45 -24 -21 -52 -225 -71 -297 -26
-42 26 -46 39 -14 45 12 3 31 7 42 9 41 9 176 7 224 -4z"/>
<path d="M366 2021 c-4 -5 -2 -12 3 -15 5 -4 12 -2 15 3 4 5 2 12 -3 15 -5 4
-12 2 -15 -3z"/>
<path d="M330 1941 c0 -6 4 -13 10 -16 6 -3 7 1 4 9 -7 18 -14 21 -14 7z"/>
<path d="M654 1568 c-4 -7 -4 -10 1 -6 4 4 15 2 24 -5 14 -11 14 -10 2 6 -16
20 -18 21 -27 5z"/>
<path d="M1946 1918 c3 -5 10 -6 15 -3 13 9 11 12 -6 12 -8 0 -12 -4 -9 -9z"/>
<path d="M1920 1734 c8 -10 15 -20 16 -22 1 -2 4 1 7 5 3 5 -4 15 -16 23 -21
12 -21 12 -7 -6z"/>
<path d="M1846 1652 c-2 -4 -1 -14 4 -22 7 -11 9 -9 7 8 -1 24 -3 26 -11 14z"/>
<path d="M1890 1636 c0 -2 7 -7 16 -10 8 -3 12 -2 9 4 -6 10 -25 14 -25 6z"/>
<path d="M689 1424 c-5 -15 -7 -29 -5 -32 5 -4 10 6 22 46 7 23 -7 12 -17 -14z"/>
<path d="M1530 1439 c0 -8 7 -24 15 -35 11 -14 14 -15 14 -4 0 8 -6 24 -14 34
-11 15 -15 16 -15 5z"/>
<path d="M1809 1436 c-26 -7 -70 -27 -98 -45 -28 -18 -70 -39 -94 -46 -38 -13
-39 -14 -12 -14 17 0 55 13 85 30 99 56 113 62 159 67 30 2 67 -3 104 -15 31
-11 57 -16 57 -12 0 8 -77 34 -125 42 -16 3 -51 -1 -76 -7z"/>
<path d="M273 1424 c-62 -23 -53 -34 10 -13 93 33 141 25 256 -42 39 -23 78
-39 96 -38 28 0 28 1 -11 13 -23 7 -70 31 -104 52 -56 34 -71 39 -134 41 -45
2 -87 -3 -113 -13z"/>
<path d="M580 1396 c7 -7 13 -7 20 0 6 6 3 10 -10 10 -13 0 -16 -4 -10 -10z"/>
<path d="M815 1387 c47 -28 92 -86 108 -138 l16 -54 -3 43 c-3 25 -16 61 -31
83 -24 38 -78 80 -100 78 -5 0 -1 -6 10 -12z"/>
<path d="M1395 1381 c-16 -10 -38 -27 -47 -37 -23 -26 -48 -88 -48 -116 1 -13
9 0 20 32 17 51 54 95 106 127 10 6 15 12 9 12 -5 1 -23 -7 -40 -18z"/>
<path d="M714 1261 c4 -6 16 -11 28 -11 22 0 98 -70 98 -90 0 -20 -62 -3 -83
21 -11 14 -15 29 -11 42 4 13 2 17 -5 13 -18 -11 -13 -50 9 -74 14 -15 33 -22
56 -22 22 0 37 -6 40 -15 4 -8 10 -15 15 -15 10 0 -15 73 -35 101 -20 29 -46
45 -85 54 -23 5 -31 4 -27 -4z"/>
<path d="M1460 1251 c-37 -19 -97 -118 -87 -143 4 -9 8 -6 12 10 6 18 15 22
46 22 26 0 44 7 59 22 22 24 27 63 8 74 -8 5 -9 2 -5 -10 7 -18 -8 -56 -27
-68 -17 -12 -66 -9 -66 3 0 23 77 89 104 89 16 0 25 4 21 10 -9 15 -26 12 -65
-9z"/>
<path d="M1380 1246 c0 -2 7 -7 16 -10 8 -3 12 -2 9 4 -6 10 -25 14 -25 6z"/>
<path d="M1500 1110 c-9 -6 -10 -10 -3 -10 6 0 15 5 18 10 8 12 4 12 -15 0z"/>
<path d="M944 977 c-1 -73 -7 -130 -17 -162 -12 -39 -13 -46 -2 -31 8 10 19
40 24 68 13 56 15 224 4 231 -5 3 -8 -45 -9 -106z"/>
<path d="M1277 1035 c-8 -61 4 -180 23 -230 15 -39 22 -26 9 16 -6 19 -14 88
-18 154 -6 115 -7 118 -14 60z"/>
<path d="M1341 1054 c0 -11 3 -14 6 -6 3 7 2 16 -1 19 -3 4 -6 -2 -5 -13z"/>
<path d="M1222 920 c0 -14 2 -19 5 -12 2 6 2 18 0 25 -3 6 -5 1 -5 -13z"/>
<path d="M1456 923 c-6 -14 -5 -15 5 -6 7 7 10 15 7 18 -3 3 -9 -2 -12 -12z"/>
<path d="M776 837 c3 -10 9 -15 12 -12 3 3 0 11 -7 18 -10 9 -11 8 -5 -6z"/>
<path d="M861 734 c0 -11 3 -14 6 -6 3 7 2 16 -1 19 -3 4 -6 -2 -5 -13z"/>
<path d="M980 730 c-10 -6 35 -10 135 -10 100 0 145 4 135 10 -8 5 -69 10
-135 10 -66 0 -127 -5 -135 -10z"/>
<path d="M935 656 c-3 -9 -7 -22 -9 -29 -7 -22 21 -74 48 -92 60 -40 79 25 21
69 -19 15 -35 33 -35 41 0 20 -19 29 -25 11z m51 -63 c38 -36 43 -53 15 -53
-28 0 -61 47 -60 84 0 17 3 24 6 16 3 -8 21 -29 39 -47z"/>
<path d="M1280 651 c0 -10 -16 -31 -35 -45 -37 -29 -47 -69 -19 -80 49 -19
101 67 78 128 -8 22 -24 20 -24 -3z m3 -74 c-19 -32 -63 -50 -63 -26 0 7 17
29 38 48 42 41 55 29 25 -22z"/>
<path d="M1805 2170 c10 -11 20 -20 23 -20 3 0 -3 9 -13 20 -10 11 -20 20 -23
20 -3 0 3 -9 13 -20z"/>
<path d="M409 2153 c-13 -16 -12 -17 4 -4 9 7 17 15 17 17 0 8 -8 3 -21 -13z"/>
<path d="M343 2113 c4 -3 1 -13 -6 -22 -11 -14 -10 -14 5 -2 16 12 16 31 1 31
-4 0 -3 -3 0 -7z"/>
<path d="M1875 2110 c-4 -6 1 -7 11 -3 13 5 15 3 9 -7 -5 -9 -4 -11 4 -6 6 4
9 12 6 17 -8 12 -22 12 -30 -1z"/>
<path d="M263 2045 c0 -8 4 -12 9 -9 5 3 6 10 3 15 -9 13 -12 11 -12 -6z"/>
<path d="M1955 2050 c-8 -13 9 -20 24 -11 10 6 9 10 -3 14 -8 3 -18 2 -21 -3z"/>
<path d="M1786 1967 c3 -10 9 -15 12 -12 3 3 0 11 -7 18 -10 9 -11 8 -5 -6z"/>
<path d="M166 1933 c-6 -14 -5 -15 5 -6 7 7 10 15 7 18 -3 3 -9 -2 -12 -12z"/>
<path d="M1805 1939 c-4 -6 -5 -12 -2 -15 2 -3 7 2 10 11 7 17 1 20 -8 4z"/>
<path d="M465 1811 c-3 -5 0 -13 6 -17 7 -4 9 -3 5 4 -3 5 0 13 6 15 9 4 10 6
1 6 -6 1 -14 -3 -18 -8z"/>
<path d="M177 1479 c7 -7 15 -10 18 -7 3 3 -2 9 -12 12 -14 6 -15 5 -6 -5z"/>
<path d="M2065 1451 c-3 -5 -2 -12 3 -15 5 -3 9 1 9 9 0 17 -3 19 -12 6z"/>
<path d="M2066 1283 c-6 -14 -5 -15 5 -6 7 7 10 15 7 18 -3 3 -9 -2 -12 -12z"/>
<path d="M726 713 c-6 -14 -5 -15 5 -6 7 7 10 15 7 18 -3 3 -9 -2 -12 -12z"/>
<path d="M816 392 c-3 -5 1 -9 9 -9 8 0 12 4 9 9 -3 4 -7 8 -9 8 -2 0 -6 -4
-9 -8z"/>
<path d="M1405 389 c-3 -4 2 -6 10 -5 21 3 28 13 10 13 -9 0 -18 -4 -20 -8z"/>
</g>
</svg>
