<?xml version="1.0" standalone="no"?>
<!DOCTYPE svg PUBLIC "-//W3C//DTD SVG 20010904//EN"
 "http://www.w3.org/TR/2001/REC-SVG-20010904/DTD/svg10.dtd">
<svg version="1.0" xmlns="http://www.w3.org/2000/svg"
 width="200.000000pt" height="257.000000pt" viewBox="0 0 200.000000 257.000000"
 preserveAspectRatio="xMidYMid meet">
<g transform="translate(0.000000,257.000000) scale(0.100000,-0.100000)"
fill="#000000" stroke="none">
<path d="M1498 2393 c7 -3 16 -2 19 1 4 3 -2 6 -13 5 -11 0 -14 -3 -6 -6z"/>
<path d="M1250 2329 c-30 -11 -67 -23 -81 -26 -39 -7 -191 -164 -191 -196 0
-34 36 -91 78 -123 53 -41 45 -84 -40 -207 -25 -38 -46 -74 -46 -82 0 -17 -59
-91 -156 -198 -85 -92 -156 -194 -237 -342 -78 -140 -110 -239 -109 -340 0
-44 1 -86 3 -94 6 -23 -52 -55 -132 -74 -127 -30 -193 -82 -193 -152 0 -51 67
-115 120 -114 10 1 55 -7 100 -17 72 -16 90 -16 181 -4 55 7 112 10 126 6 34
-8 43 8 17 34 -32 32 -100 57 -212 80 -95 19 -148 40 -148 58 0 5 6 14 13 21
10 11 9 13 -3 9 -8 -3 -16 -14 -18 -26 -5 -31 46 -58 132 -72 84 -13 184 -46
216 -70 22 -17 22 -17 -41 -21 -35 -2 -116 -3 -179 -3 -96 0 -123 4 -164 23
-40 17 -46 18 -35 5 13 -16 12 -16 -18 -1 -38 20 -73 63 -73 89 0 32 28 75 62
96 19 12 69 30 113 42 44 12 95 30 113 41 31 18 33 18 38 1 3 -9 13 -34 24
-55 18 -37 18 -37 -3 -41 -92 -19 -128 -30 -144 -43 -17 -14 -17 -14 2 -8 20
6 104 28 157 39 26 6 27 5 22 -23 -8 -37 2 -42 136 -71 58 -12 126 -28 152
-37 30 -9 67 -12 98 -9 90 10 111 37 69 90 l-21 27 98 -3 98 -3 19 -63 c12
-40 27 -68 41 -77 30 -20 148 -24 169 -6 37 30 17 72 -58 128 -25 17 -26 21
-10 20 15 -2 21 5 23 24 2 20 -5 33 -30 54 -28 23 -35 37 -44 94 -9 58 -8 70
9 104 18 35 20 87 4 127 -3 9 7 25 27 42 l33 28 28 -118 c16 -64 30 -144 33
-177 2 -33 10 -67 17 -75 8 -8 17 -28 21 -45 10 -42 44 -108 63 -122 25 -18
79 -23 137 -11 46 9 54 14 54 33 0 32 -35 72 -75 85 -25 8 -39 22 -54 53 -29
60 -44 221 -38 407 4 136 9 168 36 259 37 124 40 201 10 316 -21 81 -27 244
-13 343 l6 42 17 -32 c21 -44 51 -50 51 -11 0 15 16 53 35 83 50 78 47 97 -31
182 -37 40 -74 76 -83 80 -9 3 -39 16 -68 27 -69 28 -177 28 -253 0z m242 -10
c53 -18 75 -33 136 -95 84 -86 88 -105 41 -180 -18 -27 -31 -62 -31 -77 0 -17
-4 -27 -11 -24 -19 6 -35 77 -36 162 -1 57 -7 93 -21 124 -25 54 -37 50 -14
-5 11 -27 16 -65 15 -124 -2 -87 -17 -221 -20 -165 -1 41 -17 92 -36 122 -25
38 -29 20 -4 -21 23 -40 37 -151 21 -175 -8 -11 -15 -9 -40 9 -17 13 -28 28
-25 36 3 8 1 14 -5 14 -5 0 -12 -8 -15 -19 -6 -25 -89 -73 -111 -65 -9 4 -30
26 -47 51 -37 54 -50 51 -16 -4 38 -59 44 -62 132 -58 112 5 126 8 140 34 10
20 11 15 8 -35 -5 -86 -23 -193 -34 -200 -17 -10 -39 -76 -39 -117 0 -51 13
-40 16 14 1 22 10 52 20 67 10 14 23 44 29 66 l12 39 18 -84 c26 -116 24 -187
-8 -296 -40 -136 -50 -228 -44 -393 10 -242 31 -319 96 -348 53 -24 71 -42 71
-71 -1 -25 -1 -25 -15 6 -8 18 -19 33 -26 33 -7 0 -5 -8 6 -20 9 -10 15 -26
12 -35 -9 -21 -37 -19 -37 3 0 20 -36 59 -46 49 -3 -3 4 -15 15 -26 30 -30 26
-41 -15 -41 -45 0 -89 43 -105 103 -6 23 -16 51 -23 62 -7 11 -16 47 -19 80
-3 34 -20 117 -37 185 l-30 124 24 26 c77 80 171 320 126 320 -5 0 -10 -15
-10 -33 0 -50 -35 -143 -80 -212 -44 -67 -166 -193 -176 -182 -4 4 -3 44 3 89
10 80 39 163 72 202 14 16 14 18 1 15 -8 -3 -31 -36 -50 -74 -32 -64 -35 -78
-38 -175 -3 -75 2 -148 17 -246 29 -187 43 -229 91 -260 49 -33 68 -71 44 -93
-15 -15 -16 -14 -11 6 5 23 -17 63 -34 63 -6 0 -3 -10 5 -22 24 -34 20 -58 -9
-58 -17 0 -25 5 -25 18 0 10 -7 27 -16 38 -15 19 -16 19 -9 -1 13 -37 10 -50
-12 -53 -30 -4 -60 28 -74 80 -6 24 -19 59 -29 78 -10 19 -23 69 -29 110 -17
106 -57 260 -96 365 -27 74 -32 98 -26 135 7 47 4 80 -7 80 -4 0 -8 -32 -10
-71 -2 -58 3 -84 23 -136 23 -56 105 -357 105 -383 0 -6 -12 -10 -27 -10 -25
0 -26 0 -8 20 26 29 3 24 -25 -5 l-23 -25 40 0 c34 0 41 -4 46 -22 2 -13 8
-31 12 -41 7 -16 -2 -17 -101 -16 -60 1 -120 4 -133 8 l-24 6 28 13 c49 22
101 69 140 127 57 81 37 77 -26 -7 -63 -84 -145 -137 -201 -131 -85 10 -86 12
-38 42 63 39 125 104 151 157 27 58 24 159 -7 201 -41 54 -70 68 -142 67 -64
0 -153 -26 -139 -40 4 -4 23 1 43 11 51 24 149 23 183 -3 67 -49 86 -156 44
-237 -27 -50 -91 -112 -165 -159 -32 -20 -58 -39 -58 -42 0 -3 4 -3 9 0 16 11
236 -26 254 -43 29 -25 41 -51 28 -64 -8 -8 -11 -6 -11 8 0 19 -27 55 -42 55
-4 0 1 -9 12 -20 11 -11 20 -29 20 -40 0 -13 -7 -20 -20 -20 -11 0 -20 6 -20
13 0 16 -38 53 -45 45 -3 -3 1 -11 10 -18 17 -14 20 -36 5 -45 -6 -4 -32 0
-58 9 -26 8 -92 24 -147 35 -55 12 -110 23 -123 26 -32 8 -29 47 9 102 23 33
28 48 20 56 -8 8 -11 7 -11 -2 0 -8 -10 -29 -21 -48 -20 -32 -22 -33 -40 -17
-49 44 -71 205 -43 321 35 151 191 419 336 578 40 44 85 95 99 114 l26 33 5
-71 c3 -39 11 -77 18 -85 6 -9 9 -20 5 -25 -3 -7 0 -8 9 -5 19 7 20 9 2 37 -8
12 -17 49 -21 82 -8 75 10 137 59 204 20 27 43 65 51 85 10 24 20 34 30 30 19
-8 44 12 58 46 6 14 11 83 12 155 0 72 4 139 9 150 9 19 8 19 -10 2 -17 -16
-19 -33 -19 -155 0 -116 -3 -142 -18 -165 -20 -31 -37 -27 -37 8 0 15 -13 34
-34 52 -45 37 -73 74 -81 105 -6 23 4 37 77 112 45 47 91 86 101 86 10 0 31 7
47 15 75 39 183 44 272 14z m-8 -458 c16 -17 16 -19 -6 -25 -32 -8 -78 -8 -78
2 0 6 48 39 61 41 3 1 14 -7 23 -18z m-191 -978 c0 -22 -7 -50 -14 -64 -13
-23 -14 -21 -19 36 -5 61 5 94 23 76 5 -5 10 -27 10 -48z m36 -289 c25 -32 27
-47 5 -42 -17 3 -49 68 -34 68 5 0 18 -12 29 -26z"/>
<path d="M1466 2212 c-2 -4 10 -8 29 -8 19 0 31 4 29 8 -3 4 -16 8 -29 8 -13
0 -26 -4 -29 -8z"/>
<path d="M1270 2199 c-11 -8 -7 -9 17 -4 18 4 34 2 38 -4 3 -6 11 -11 17 -11
7 0 6 6 -2 15 -14 17 -48 19 -70 4z"/>
<path d="M1485 2164 c-15 -15 -15 -18 -1 -32 12 -13 20 -13 41 -4 28 13 26 25
-5 42 -14 7 -23 6 -35 -6z m45 -13 c0 -5 -11 -8 -25 -8 -13 0 -22 3 -19 8 3 5
14 9 25 9 10 0 19 -4 19 -9z"/>
<path d="M1265 2148 c-26 -20 -26 -22 -9 -29 10 -4 31 -8 47 -8 20 -1 27 4 27
19 0 33 -34 43 -65 18z m39 -4 c24 -9 19 -21 -6 -18 -31 3 -30 3 -23 14 7 12
8 12 29 4z"/>
<path d="M1360 2031 c0 -6 4 -13 10 -16 6 -3 7 1 4 9 -7 18 -14 21 -14 7z"/>
<path d="M1396 2011 c-14 -15 -15 -24 -7 -40 21 -39 87 -55 110 -27 13 16 11
68 -4 78 -21 15 -82 8 -99 -11z m92 0 c10 -6 10 -10 -3 -21 -20 -17 -19 -31 3
-23 16 6 16 5 0 -13 -14 -14 -23 -16 -44 -8 -40 14 -54 42 -30 60 22 16 54 18
74 5z"/>
<path d="M1417 1984 c-8 -8 1 -24 14 -24 5 0 9 7 9 15 0 15 -12 20 -23 9z"/>
<path d="M1209 1903 c-8 -9 -9 -14 -3 -10 7 4 17 0 23 -7 10 -11 8 -15 -6 -18
-15 -3 -15 -5 4 -10 18 -5 21 -2 17 16 -2 11 -8 22 -14 24 -6 2 -8 8 -4 13 9
15 -3 10 -17 -8z"/>
<path d="M1163 1856 c-2 -19 -1 -19 8 -3 6 9 16 14 22 11 7 -4 8 -3 4 1 -15
17 -33 12 -34 -9z"/>
<path d="M1136 1793 c4 -16 11 -37 17 -48 14 -29 97 -116 97 -103 0 20 80 -64
102 -107 12 -22 23 -34 25 -27 3 7 -4 25 -14 41 -23 36 -143 165 -143 153 0
-4 5 -13 12 -20 6 -6 9 -14 6 -18 -10 -9 -67 75 -80 118 -13 43 -32 53 -22 11z"/>
<path d="M1310 1786 c0 -2 7 -7 16 -10 8 -3 12 -2 9 4 -6 10 -25 14 -25 6z"/>
<path d="M1196 1758 c3 -5 10 -6 15 -3 13 9 11 12 -6 12 -8 0 -12 -4 -9 -9z"/>
<path d="M1250 1741 c0 -6 4 -13 10 -16 6 -3 7 1 4 9 -7 18 -14 21 -14 7z"/>
<path d="M1206 1622 c-3 -5 1 -9 9 -9 8 0 12 4 9 9 -3 4 -7 8 -9 8 -2 0 -6 -4
-9 -8z"/>
<path d="M1286 1551 c-4 -5 -2 -12 3 -15 5 -4 12 -2 15 3 4 5 2 12 -3 15 -5 4
-12 2 -15 -3z"/>
<path d="M785 1369 c-4 -6 -5 -12 -2 -15 2 -3 7 2 10 11 7 17 1 20 -8 4z"/>
<path d="M605 1079 c-4 -6 -5 -12 -2 -15 2 -3 7 2 10 11 7 17 1 20 -8 4z"/>
<path d="M1298 1043 c10 -4 10 -8 0 -21 -12 -14 -11 -14 9 -1 16 9 19 16 10
21 -7 4 -16 7 -22 7 -5 0 -4 -3 3 -6z"/>
<path d="M930 1026 c0 -2 7 -9 15 -16 13 -11 14 -10 9 4 -5 14 -24 23 -24 12z"/>
<path d="M1400 1011 c0 -6 4 -13 10 -16 6 -3 7 1 4 9 -7 18 -14 21 -14 7z"/>
<path d="M807 723 c-8 -17 -1 -37 13 -40 10 -3 11 -2 4 4 -6 4 -10 16 -8 26 2
18 -2 23 -9 10z"/>
<path d="M1035 589 c-3 -4 2 -6 10 -5 21 3 28 13 10 13 -9 0 -18 -4 -20 -8z"/>
<path d="M1049 2313 c-13 -16 -12 -17 4 -4 9 7 17 15 17 17 0 8 -8 3 -21 -13z"/>
<path d="M1090 2326 c0 -2 7 -7 16 -10 8 -3 12 -2 9 4 -6 10 -25 14 -25 6z"/>
<path d="M1664 2319 c-3 -6 -2 -15 3 -20 5 -5 9 -1 9 11 0 23 -2 24 -12 9z"/>
<path d="M1085 2300 c-4 -6 -10 -8 -15 -5 -5 3 -12 0 -16 -6 -4 -7 -3 -9 4 -5
5 3 12 2 14 -4 2 -6 9 -1 16 10 7 11 10 20 8 20 -3 0 -8 -5 -11 -10z"/>
<path d="M1005 2240 c-3 -5 -3 -10 1 -10 4 0 0 -8 -8 -17 -8 -10 -18 -25 -22
-33 -4 -8 3 -2 15 14 13 17 24 36 25 43 3 15 -2 17 -11 3z"/>
<path d="M979 1846 c0 -1 -2 -9 -4 -19 -3 -18 -3 -18 16 -1 10 9 19 18 19 19
0 2 -29 3 -31 1z"/>
<path d="M886 1682 c-3 -5 1 -9 9 -9 8 0 12 4 9 9 -3 4 -7 8 -9 8 -2 0 -6 -4
-9 -8z"/>
<path d="M800 1566 c0 -2 8 -10 18 -17 15 -13 16 -12 3 4 -13 16 -21 21 -21
13z"/>
<path d="M736 1518 c3 -5 10 -6 15 -3 13 9 11 12 -6 12 -8 0 -12 -4 -9 -9z"/>
<path d="M725 1460 c-3 -6 1 -7 9 -4 18 7 21 14 7 14 -6 0 -13 -4 -16 -10z"/>
<path d="M475 521 c-3 -5 -2 -12 3 -15 5 -3 9 1 9 9 0 17 -3 19 -12 6z"/>
<path d="M220 470 c-9 -6 -10 -10 -3 -10 6 0 15 5 18 10 8 12 4 12 -15 0z"/>
<path d="M380 456 c0 -2 7 -7 16 -10 8 -3 12 -2 9 4 -6 10 -25 14 -25 6z"/>
<path d="M170 356 c0 -2 7 -7 16 -10 8 -3 12 -2 9 4 -6 10 -25 14 -25 6z"/>
<path d="M256 348 c3 -5 10 -6 15 -3 13 9 11 12 -6 12 -8 0 -12 -4 -9 -9z"/>
</g>
</svg>
