<?xml version="1.0" standalone="no"?>
<!DOCTYPE svg PUBLIC "-//W3C//DTD SVG 20010904//EN"
 "http://www.w3.org/TR/2001/REC-SVG-20010904/DTD/svg10.dtd">
<svg version="1.0" xmlns="http://www.w3.org/2000/svg"
 width="292.000000pt" height="294.000000pt" viewBox="0 0 292.000000 294.000000"
 preserveAspectRatio="xMidYMid meet">
<g transform="translate(0.000000,294.000000) scale(0.100000,-0.100000)"
fill="#000000" stroke="none">
<path d="M1303 2738 c1 -69 -18 -101 -100 -162 -48 -36 -70 -60 -86 -95 -11
-25 -25 -49 -31 -53 -94 -57 -140 -109 -151 -173 -3 -22 -13 -50 -21 -62 -13
-21 -129 -103 -185 -132 -15 -7 -33 -24 -40 -37 -11 -21 -10 -27 11 -49 13
-14 30 -25 37 -25 8 0 25 -12 38 -27 l25 -28 27 32 c20 23 48 39 93 54 36 11
94 32 128 46 47 18 67 22 75 14 8 -8 5 -17 -11 -34 -18 -18 -24 -19 -31 -8 -7
10 -12 7 -22 -15 -14 -27 -142 -123 -166 -124 -7 0 -15 -11 -19 -24 -11 -45
51 -105 79 -77 6 6 26 11 44 11 37 0 57 26 47 64 -11 46 104 109 218 118 42 4
81 13 103 27 l36 21 10 -28 c22 -55 21 -88 -1 -141 -30 -69 -100 -130 -242
-209 -62 -35 -133 -75 -158 -89 -25 -15 -84 -65 -131 -112 -133 -133 -194
-259 -205 -425 -4 -64 -1 -107 9 -143 8 -29 11 -53 8 -53 -13 0 -59 81 -71
125 -7 25 -22 55 -34 68 -21 23 -21 24 -3 53 23 37 18 101 -12 142 -11 17 -21
38 -21 47 0 25 -19 55 -34 55 -8 0 -24 -16 -35 -36 -20 -34 -21 -38 -5 -55 9
-10 13 -22 10 -27 -3 -5 0 -25 6 -45 15 -47 -3 -89 -44 -108 -60 -27 -91 -96
-59 -128 25 -25 40 -20 66 22 13 21 30 33 48 35 31 4 30 10 32 -139 1 -86 4
-102 33 -161 35 -71 113 -156 178 -194 23 -13 74 -36 115 -49 82 -28 162 -77
180 -112 7 -13 16 -23 21 -23 17 0 7 18 -29 54 -42 42 -94 70 -193 106 -118
42 -210 124 -258 228 -23 49 -27 74 -30 172 -2 63 -8 120 -13 126 -6 7 -25 12
-44 11 -29 -1 -37 -6 -50 -34 -19 -39 -34 -50 -46 -32 -14 21 -1 61 27 87 19
16 37 22 73 22 60 0 83 -22 112 -107 11 -35 34 -76 52 -95 18 -18 50 -64 71
-102 51 -91 163 -208 231 -241 68 -34 184 -54 308 -55 96 0 97 0 97 -25 0 -26
-25 -45 -60 -45 -22 0 -80 -50 -80 -69 0 -19 18 -12 25 9 7 22 53 50 83 50 30
0 55 35 48 65 -4 14 -11 25 -16 25 -5 0 -3 15 5 34 8 18 11 36 8 40 -4 3 1 6
9 6 9 0 29 3 45 6 28 6 31 3 56 -54 33 -73 33 -77 1 -119 -33 -43 -14 -43 23
1 21 25 39 35 71 40 23 3 62 13 85 21 23 8 56 15 73 15 46 0 155 -36 198 -65
40 -27 46 -29 46 -16 0 17 -117 70 -192 87 -50 11 -80 24 -83 34 -8 24 -104
125 -111 117 -4 -3 19 -34 50 -67 31 -34 56 -65 56 -70 0 -9 -75 -36 -132 -46
-32 -5 -39 -3 -43 12 -3 11 -17 41 -30 68 -14 27 -24 50 -22 50 1 1 40 21 87
45 81 41 88 43 143 36 32 -4 79 -18 105 -31 53 -27 66 -25 25 3 -41 29 -89 43
-149 43 l-53 0 50 51 c82 84 111 161 85 222 -20 48 -53 68 -109 66 -52 -2 -45
8 -93 -135 -32 -95 -110 -181 -191 -210 -51 -18 -181 -18 -233 1 -59 21 -133
78 -173 133 -54 75 -69 125 -70 227 0 222 102 383 341 538 24 16 41 31 38 34
-12 12 -146 -86 -226 -167 -62 -62 -92 -101 -110 -142 l-25 -58 -80 -1 -80 -2
75 -11 76 -11 -12 -40 c-20 -66 -17 -203 7 -280 17 -56 30 -77 87 -134 l67
-68 -24 -18 c-13 -10 -49 -26 -80 -35 -31 -10 -47 -19 -36 -19 36 -2 94 19
123 44 l29 24 57 -23 c31 -13 59 -26 63 -30 9 -9 25 -8 20 2 -3 4 29 8 71 8
92 2 136 19 199 77 60 55 88 101 118 194 14 42 31 81 38 85 45 28 127 -22 127
-79 0 -66 -21 -105 -102 -189 -58 -60 -99 -93 -142 -114 -60 -29 -139 -42
-164 -26 -15 9 -16 -6 -1 -21 17 -17 -8 -73 -32 -73 -23 0 -41 41 -37 79 2 21
8 25 27 23 15 -2 21 0 17 7 -13 21 -46 12 -57 -16 -10 -27 -9 -39 6 -76 6 -15
0 -17 -71 -17 -90 0 -185 20 -245 51 -48 24 -165 138 -196 191 l-22 37 27 -1
c37 -1 94 12 114 27 30 20 9 23 -30 4 -20 -11 -55 -19 -78 -19 -38 0 -42 3
-58 38 -35 80 -46 223 -25 324 21 99 106 255 173 317 23 22 31 23 88 18 35 -4
74 -10 88 -13 19 -5 22 -4 14 6 -7 6 -45 15 -85 19 l-74 6 62 47 c61 45 63 46
100 33 57 -19 111 -29 93 -16 -8 6 -39 16 -69 22 l-54 11 49 29 49 28 70 -19
c39 -10 77 -21 86 -25 20 -7 124 68 198 144 60 61 83 107 102 197 12 57 11 63
-13 115 -27 58 -80 116 -134 145 -40 22 -39 36 3 45 17 3 43 16 58 28 15 11
34 21 42 21 8 0 12 3 9 8 -2 4 -38 7 -80 6 -87 -1 -96 10 -41 47 19 13 35 27
35 32 0 12 -10 8 -45 -19 -23 -17 -41 -24 -55 -19 -29 9 -25 31 8 43 15 5 43
24 62 41 48 44 125 64 222 59 130 -8 124 -35 -11 -57 -45 -7 -68 -6 -99 5 -26
8 -50 11 -64 5 -18 -7 -14 -9 26 -13 65 -8 120 -49 178 -134 65 -96 93 -186
92 -294 -1 -76 -6 -97 -42 -184 -70 -167 -178 -292 -327 -379 -157 -91 -245
-182 -280 -288 -33 -97 -2 -221 65 -269 75 -53 177 -24 219 63 22 46 27 92 11
102 -6 4 -10 -7 -10 -25 0 -77 -64 -150 -131 -150 -63 0 -97 24 -126 87 -22
47 -25 65 -21 123 6 84 40 149 115 223 46 45 194 147 214 147 10 0 -19 -122
-31 -134 -6 -6 -10 -17 -10 -25 0 -13 2 -13 14 -1 17 18 46 113 46 150 0 18
10 34 31 49 l30 23 -6 -73 c-3 -41 -11 -79 -17 -86 -5 -7 -8 -17 -6 -24 5 -14
124 187 132 224 4 15 5 27 3 27 -2 0 -23 -39 -47 -87 -46 -89 -58 -91 -46 -8
5 27 18 55 38 76 16 19 52 65 78 102 47 65 49 67 53 40 3 -19 4 -17 2 7 -1 28
36 154 50 169 6 6 -21 -189 -31 -222 -3 -9 -10 -14 -16 -11 -6 4 -8 2 -5 -3 4
-6 0 -33 -8 -59 -18 -58 -17 -54 -6 -54 9 0 37 77 62 170 7 25 15 104 18 175
l6 130 29 -85 c16 -47 29 -109 30 -137 1 -67 17 -63 34 8 14 60 9 195 -9 248
-18 50 -5 47 37 -11 21 -29 39 -55 41 -57 2 -2 6 -2 9 1 9 10 -40 122 -71 161
-16 20 -62 57 -103 84 -66 42 -107 83 -84 83 5 0 46 -11 92 -25 141 -42 164
-31 74 38 -48 37 -135 70 -210 81 -23 3 -4 -6 46 -22 47 -16 96 -34 110 -42
36 -19 91 -62 86 -67 -2 -2 -51 10 -108 27 -86 27 -111 39 -150 75 -49 45 -48
55 6 55 29 0 114 29 122 41 7 12 -49 35 -108 43 -50 7 -165 -9 -185 -26 -7 -6
-13 -7 -13 -3 0 4 8 14 17 21 10 7 15 15 12 18 -7 7 -47 -28 -70 -61 -8 -12
-35 -32 -59 -45 -56 -29 -63 -55 -21 -71 22 -8 29 -16 26 -28 -7 -22 16 -30
55 -19 17 5 38 6 46 3 12 -4 11 -8 -6 -20 -12 -8 -28 -12 -36 -9 -15 6 -53
-28 -54 -47 0 -5 -10 -17 -22 -27 -19 -15 -21 -22 -13 -46 9 -25 15 -29 43
-26 31 3 32 2 20 -17 -14 -23 -28 -28 -28 -10 0 5 -5 7 -10 4 -8 -5 -7 -11 0
-20 18 -21 -57 -55 -120 -55 -58 0 -181 -51 -214 -88 -12 -14 -31 -22 -52 -22
-18 0 -36 -5 -40 -11 -4 -8 0 -9 15 -4 33 10 63 -3 59 -28 -2 -15 -13 -23 -35
-28 -18 -3 -39 -12 -47 -18 -20 -17 -72 45 -55 66 7 7 18 12 26 9 7 -3 13 0
13 7 0 8 16 21 35 30 19 9 51 32 72 50 21 19 52 41 69 50 34 18 47 38 38 62
-9 23 -44 18 -140 -19 -49 -19 -104 -37 -121 -41 -19 -4 -43 -20 -58 -38 l-26
-32 -19 24 c-11 12 -17 28 -13 34 4 6 9 3 13 -8 5 -14 9 -15 14 -6 14 22 -8
33 -37 20 -28 -13 -57 0 -57 26 0 14 33 46 52 49 18 3 104 63 151 106 29 27
41 49 53 95 9 35 27 72 42 89 35 37 118 90 168 107 21 7 43 17 49 21 11 10 31
11 22 1 -4 -3 -2 -12 4 -19 9 -11 16 -8 37 12 32 30 70 50 174 94 79 32 121
69 154 131 26 51 10 42 -33 -19 -42 -58 -48 -63 -190 -127 -45 -21 -92 -48
-104 -61 -12 -13 -26 -24 -30 -24 -17 0 0 28 43 72 73 73 95 170 52 236 -26
39 -41 28 -41 -30z m44 -27 c13 -94 -71 -205 -186 -246 l-42 -14 21 37 c12 21
44 53 72 72 73 50 101 90 106 156 5 63 20 60 29 -5z m519 -613 c23 -22 51 -58
64 -81 l22 -42 -41 45 c-22 25 -51 60 -63 77 -36 51 -39 39 -8 -24 37 -75 50
-144 49 -251 l0 -87 -19 70 c-10 39 -29 104 -43 145 -14 41 -36 110 -49 152
l-25 77 36 -21 c20 -11 54 -39 77 -60z m-416 25 c49 -32 82 -69 106 -115 41
-80 29 -131 -34 -147 -96 -24 -94 -24 -87 0 4 12 8 28 9 37 2 8 14 25 27 36
23 19 59 68 59 80 0 3 -7 3 -15 0 -8 -4 -15 -1 -15 4 0 14 -29 42 -43 42 -6 0
1 -13 16 -28 34 -35 34 -42 -1 -75 l-27 -26 -19 45 c-17 43 -17 46 -1 64 24
26 12 50 -23 50 -36 0 -44 8 -31 31 12 23 47 24 79 2z m120 -267 c0 -19 -44
-99 -74 -135 -66 -79 -72 -82 -143 -63 l-61 17 38 33 c35 29 45 32 106 32 80
0 81 9 1 11 l-56 2 25 36 c20 30 34 39 87 52 75 20 77 20 77 15z m-233 -207
c35 -6 63 -15 63 -19 0 -4 -22 -22 -50 -40 l-49 -32 -78 20 -77 19 59 31 c33
17 62 31 64 32 2 0 33 -5 68 -11z m-803 -396 c5 -11 1 -22 -10 -30 -17 -12
-17 -13 -1 -13 25 0 57 -59 57 -105 -1 -53 -26 -85 -62 -78 -27 5 -27 5 -10
39 8 19 19 34 23 34 4 0 9 10 12 22 7 24 -21 78 -40 78 -19 0 -23 15 -10 44
14 30 32 34 41 9z m-4 -113 c0 -16 -4 -30 -10 -30 -5 0 -10 3 -10 8 0 4 -3 17
-6 30 -5 16 -2 22 10 22 11 0 16 -9 16 -30z"/>
<path d="M1626 2722 c12 -74 -76 -213 -144 -228 -81 -18 -104 -27 -122 -46
-21 -23 -27 -48 -10 -48 6 0 10 6 10 13 0 23 33 45 84 57 61 13 94 31 127 67
49 52 85 150 73 198 -10 39 -25 29 -18 -13z"/>
<path d="M1829 2433 c0 -5 -2 -16 -4 -26 -2 -11 -1 -16 3 -13 8 8 14 46 7 46
-3 0 -5 -3 -6 -7z"/>
<path d="M1605 2420 c-37 -7 -35 -7 23 -9 35 0 62 3 62 9 0 11 -24 11 -85 0z"/>
<path d="M1125 2390 c-3 -6 1 -7 9 -4 18 7 21 14 7 14 -6 0 -13 -4 -16 -10z"/>
<path d="M1214 2369 c-3 -6 -20 -19 -38 -30 -28 -17 -29 -19 -8 -19 22 0 62
32 62 50 0 13 -7 13 -16 -1z"/>
<path d="M1016 2308 c3 -5 10 -6 15 -3 13 9 11 12 -6 12 -8 0 -12 -4 -9 -9z"/>
<path d="M1475 2309 c-4 -6 -5 -12 -2 -15 2 -3 7 2 10 11 7 17 1 20 -8 4z"/>
<path d="M1073 2275 c-13 -9 -20 -23 -18 -35 2 -11 0 -20 -4 -20 -4 0 -20 -11
-35 -25 -35 -32 -64 -47 -76 -40 -6 3 -10 1 -10 -4 0 -23 49 -9 85 23 31 29
43 34 70 29 27 -4 39 0 65 26 18 17 30 34 27 38 -4 3 -7 3 -7 -1 0 -4 -10 0
-22 8 -28 20 -48 20 -75 1z m51 -1 c35 -13 7 -69 -31 -62 -25 5 -29 39 -7 55
21 15 18 15 38 7z"/>
<path d="M1090 2255 c-9 -10 -10 -19 -3 -26 14 -14 45 0 41 19 -4 22 -23 25
-38 7z m21 -18 c-13 -13 -26 -3 -16 12 3 6 11 8 17 5 6 -4 6 -10 -1 -17z"/>
<path d="M992 2248 c-17 -17 -15 -38 4 -38 8 0 12 5 8 11 -3 6 -1 15 6 19 7 4
8 10 3 13 -6 4 -15 1 -21 -5z"/>
<path d="M1606 2247 c3 -10 9 -15 12 -12 3 3 0 11 -7 18 -10 9 -11 8 -5 -6z"/>
<path d="M1201 2156 c-19 -20 -21 -26 -9 -26 19 0 41 25 36 40 -2 6 -14 0 -27
-14z"/>
<path d="M1140 2150 c0 -5 7 -10 15 -10 8 0 15 5 15 10 0 6 -7 10 -15 10 -8 0
-15 -4 -15 -10z"/>
<path d="M1195 2110 c-4 -6 -15 -8 -26 -5 -11 4 -19 2 -19 -4 0 -6 14 -11 30
-11 20 0 30 5 30 15 0 17 -6 19 -15 5z"/>
<path d="M646 2023 c-6 -14 -5 -15 5 -6 7 7 10 15 7 18 -3 3 -9 -2 -12 -12z"/>
<path d="M646 1952 c-3 -4 4 -9 15 -9 23 -2 25 3 4 10 -8 4 -16 3 -19 -1z"/>
<path d="M1610 1950 c0 -5 14 -7 33 -3 45 8 47 13 4 13 -20 0 -37 -4 -37 -10z"/>
<path d="M1096 1838 c3 -5 10 -6 15 -3 13 9 11 12 -6 12 -8 0 -12 -4 -9 -9z"/>
<path d="M1281 1737 c-13 -21 -12 -21 5 -5 10 10 16 20 13 22 -3 3 -11 -5 -18
-17z"/>
<path d="M2190 1716 c0 -2 7 -7 16 -10 8 -3 12 -2 9 4 -6 10 -25 14 -25 6z"/>
<path d="M2160 1683 c-14 -9 -31 -24 -38 -33 -25 -29 -72 -135 -72 -161 0 -15
-9 -56 -20 -92 -28 -90 -105 -173 -171 -183 l-44 -7 36 40 c21 23 40 50 43 61
4 11 22 30 41 41 32 18 75 73 75 95 0 4 -21 -15 -46 -43 -48 -54 -63 -60 -231
-100 -160 -38 -269 -115 -307 -217 -14 -38 -26 -54 -48 -62 -15 -5 -28 -15
-28 -21 0 -14 17 -14 25 -1 21 34 118 -17 137 -71 8 -25 28 -41 28 -24 0 32
-77 115 -106 115 -18 0 -18 0 12 64 31 66 96 129 167 162 51 23 266 79 274 71
2 -2 -21 -30 -52 -60 -30 -31 -55 -58 -55 -60 0 -2 13 -2 30 1 51 7 170 -35
211 -76 57 -58 74 -181 44 -322 -12 -59 -18 -70 -65 -112 -33 -29 -45 -45 -32
-41 36 9 89 69 106 120 10 26 20 86 23 133 4 70 2 96 -15 145 -11 33 -19 61
-17 63 2 2 27 -3 56 -12 29 -8 55 -13 58 -11 8 8 -68 35 -98 35 -18 0 -41 10
-56 25 -26 23 -53 35 -120 50 -27 6 -28 8 -10 15 11 4 31 6 45 4 14 -2 55 -6
91 -8 73 -4 110 -20 154 -65 25 -27 28 -34 17 -51 -10 -17 -10 -20 3 -20 10 0
15 10 15 34 0 41 -35 75 -105 101 -45 18 -54 28 -35 40 6 4 26 37 44 73 19 37
41 76 50 87 15 19 15 18 9 -15 -8 -49 -48 -126 -75 -144 -16 -11 -18 -16 -7
-16 37 0 99 112 99 178 0 64 -23 46 -82 -65 -50 -95 -74 -123 -105 -123 -29 0
-29 7 1 31 29 23 60 85 86 171 10 34 35 105 55 157 42 108 43 130 5 104z m13
-25 c-13 -17 -63 -151 -97 -257 -30 -95 -83 -171 -119 -171 -19 0 -19 2 9 33
56 59 75 95 94 184 23 106 40 150 76 192 24 29 58 46 37 19z"/>
<path d="M1549 1543 c-13 -16 -12 -17 4 -4 9 7 17 15 17 17 0 8 -8 3 -21 -13z"/>
<path d="M1190 1546 c0 -2 7 -7 16 -10 8 -3 12 -2 9 4 -6 10 -25 14 -25 6z"/>
<path d="M2158 1517 c-12 -29 -10 -83 3 -70 6 6 9 28 7 49 -2 29 -5 34 -10 21z"/>
<path d="M1328 1393 c7 -3 16 -2 19 1 4 3 -2 6 -13 5 -11 0 -14 -3 -6 -6z"/>
<path d="M830 1326 c0 -8 105 -56 122 -56 20 0 -4 16 -52 35 -25 9 -51 19 -57
22 -7 3 -13 2 -13 -1z"/>
<path d="M1340 1295 c-7 -8 -10 -15 -6 -15 4 0 -3 -19 -14 -42 -16 -32 -17
-38 -4 -23 16 20 16 20 11 -2 -3 -13 -1 -23 3 -23 5 0 12 17 15 38 3 20 8 47
11 60 5 26 1 28 -16 7z"/>
<path d="M1695 1236 c-44 -23 -102 -56 -129 -74 -28 -18 -55 -32 -61 -32 -7 0
-20 -10 -31 -22 l-19 -22 27 17 c64 40 113 5 106 -78 -4 -62 8 -57 16 6 8 56
33 86 98 120 48 25 74 24 123 -4 111 -63 148 -235 68 -319 -38 -40 -14 -35 31
7 21 19 42 35 47 35 16 0 32 41 20 53 -8 8 -11 7 -11 -4 0 -9 -8 -23 -18 -32
-17 -16 -18 -13 -14 48 5 78 -16 139 -64 186 -18 17 -30 37 -27 42 3 6 2 7 -4
4 -6 -4 -29 1 -51 10 -39 15 -45 15 -87 -1 -25 -10 -61 -33 -81 -51 l-35 -33
-23 23 -23 23 51 30 c28 17 81 45 119 63 37 18 67 37 67 41 0 12 -8 9 -95 -36z"/>
<path d="M1246 1202 c-3 -5 1 -9 9 -9 8 0 12 4 9 9 -3 4 -7 8 -9 8 -2 0 -6 -4
-9 -8z"/>
<path d="M1651 1040 c14 -31 19 -36 19 -24 0 6 -7 19 -16 30 -14 18 -14 18 -3
-6z"/>
<path d="M1867 1037 c-3 -8 1 -14 8 -14 7 0 11 6 8 14 -3 7 -6 13 -8 13 -2 0
-5 -6 -8 -13z"/>
<path d="M2158 1043 c7 -3 16 -2 19 1 4 3 -2 6 -13 5 -11 0 -14 -3 -6 -6z"/>
<path d="M783 1023 c15 -2 39 -2 55 0 15 2 2 4 -28 4 -30 0 -43 -2 -27 -4z"/>
<path d="M496 878 c-20 -94 -26 -135 -26 -177 0 -98 101 -239 205 -287 28 -13
85 -32 127 -43 41 -10 84 -23 94 -29 21 -12 19 -13 -53 -32 -41 -10 -79 -37
-69 -48 3 -3 14 2 23 10 10 9 46 24 81 33 34 10 62 20 62 24 0 14 -68 43 -134
57 -135 28 -233 99 -290 212 -34 66 -34 178 0 285 3 9 1 17 -5 17 -6 0 -13
-10 -15 -22z"/>
<path d="M768 883 c-27 -2 -48 -8 -48 -13 0 -9 87 -2 130 11 24 7 24 7 -5 6
-16 0 -51 -2 -77 -4z"/>
<path d="M2215 862 c-6 -4 -18 -25 -26 -47 -15 -38 -14 -41 1 -41 11 0 15 6
12 18 -2 9 3 31 11 47 9 17 15 31 14 31 -1 0 -7 -4 -12 -8z"/>
<path d="M1006 768 c3 -5 10 -6 15 -3 13 9 11 12 -6 12 -8 0 -12 -4 -9 -9z"/>
<path d="M1139 742 c-63 -70 -72 -82 -62 -82 12 0 97 99 91 105 -3 3 -15 -8
-29 -23z"/>
<path d="M2096 759 c-15 -9 -16 -13 -5 -20 21 -13 26 -11 32 11 6 23 0 24 -27
9z"/>
<path d="M2136 728 c-8 -13 -28 -70 -45 -128 -32 -109 -53 -148 -89 -165 -12
-5 -22 -13 -22 -17 0 -26 65 20 88 61 11 20 30 73 41 118 12 46 27 94 33 108
13 30 33 34 25 5 -3 -11 -1 -23 5 -26 5 -4 8 7 6 27 -4 40 -22 48 -42 17z"/>
<path d="M2027 654 c-21 -40 -156 -152 -222 -184 -27 -13 -44 -25 -38 -27 20
-7 95 37 178 104 79 64 110 103 102 126 -2 7 -11 -2 -20 -19z"/>
<path d="M990 636 c0 -2 7 -7 16 -10 8 -3 12 -2 9 4 -6 10 -25 14 -25 6z"/>
<path d="M726 618 c3 -5 10 -6 15 -3 13 9 11 12 -6 12 -8 0 -12 -4 -9 -9z"/>
<path d="M875 601 c-3 -5 -2 -12 3 -15 5 -3 9 1 9 9 0 17 -3 19 -12 6z"/>
<path d="M1060 566 c7 -7 13 -7 20 0 6 6 3 10 -10 10 -13 0 -16 -4 -10 -10z"/>
<path d="M580 556 c0 -2 8 -10 18 -17 15 -13 16 -12 3 4 -13 16 -21 21 -21 13z"/>
<path d="M1212 505 c-17 -31 -26 -58 -21 -61 6 -3 20 17 31 45 12 28 28 51 35
51 7 0 13 5 13 10 0 28 -32 3 -58 -45z"/>
<path d="M1561 473 c13 -16 25 -30 26 -32 1 -1 6 0 12 4 7 4 0 16 -18 31 -39
32 -50 31 -20 -3z"/>
<path d="M2045 401 c-3 -5 -2 -12 3 -15 5 -3 9 1 9 9 0 17 -3 19 -12 6z"/>
<path d="M1995 389 c-4 -6 -5 -12 -2 -15 2 -3 7 2 10 11 7 17 1 20 -8 4z"/>
<path d="M1416 382 c-3 -4 4 -9 15 -9 23 -2 25 3 4 10 -8 4 -16 3 -19 -1z"/>
<path d="M1205 359 c-4 -6 -5 -12 -2 -15 2 -3 7 2 10 11 7 17 1 20 -8 4z"/>
<path d="M1229 343 c-13 -17 -13 -17 6 -3 11 8 22 16 24 17 2 2 0 3 -6 3 -6 0
-17 -8 -24 -17z"/>
<path d="M1557 328 c-5 -37 -3 -43 12 -33 13 8 15 65 2 65 -5 0 -11 -15 -14
-32z"/>
<path d="M1400 320 c-6 -11 -8 -20 -6 -20 3 0 10 9 16 20 6 11 8 20 6 20 -3 0
-10 -9 -16 -20z"/>
<path d="M977 308 c-7 -25 -3 -33 12 -23 13 8 15 45 2 45 -5 0 -11 -10 -14
-22z"/>
<path d="M1925 310 c27 -12 43 -12 25 0 -8 5 -22 9 -30 9 -10 0 -8 -3 5 -9z"/>
<path d="M720 281 c0 -6 4 -13 10 -16 6 -3 7 1 4 9 -7 18 -14 21 -14 7z"/>
<path d="M820 240 c8 -5 20 -10 25 -10 6 0 3 5 -5 10 -8 5 -19 10 -25 10 -5 0
-3 -5 5 -10z"/>
<path d="M1250 241 c0 -6 4 -13 10 -16 6 -3 7 1 4 9 -7 18 -14 21 -14 7z"/>
</g>
</svg>
