<?xml version="1.0" standalone="no"?>
<!DOCTYPE svg PUBLIC "-//W3C//DTD SVG 20010904//EN"
 "http://www.w3.org/TR/2001/REC-SVG-20010904/DTD/svg10.dtd">
<svg version="1.0" xmlns="http://www.w3.org/2000/svg"
 width="260.000000pt" height="243.000000pt" viewBox="0 0 260.000000 243.000000"
 preserveAspectRatio="xMidYMid meet">
<g transform="translate(0.000000,243.000000) scale(0.100000,-0.100000)"
fill="#000000" stroke="none">
<path d="M765 2341 c-3 -5 -2 -12 3 -15 5 -3 9 1 9 9 0 17 -3 19 -12 6z"/>
<path d="M707 2278 c-29 -23 -47 -84 -47 -163 0 -111 0 -111 -131 -107 -101 4
-109 3 -109 -14 1 -41 81 -104 131 -104 19 0 28 -6 33 -22 11 -43 6 -83 -15
-117 -11 -18 -23 -55 -26 -81 -4 -39 -1 -53 20 -87 15 -23 38 -45 55 -51 25
-9 32 -19 47 -77 15 -52 16 -71 7 -86 -17 -27 4 -34 22 -7 18 26 21 42 5 33
-7 -5 -9 8 -5 41 3 28 2 37 -2 21 -7 -26 -8 -24 -23 28 -13 42 -13 55 -4 55 7
0 23 9 36 20 28 22 14 27 -15 5 -23 -17 -59 -19 -87 -5 -34 19 -21 30 26 23
33 -4 51 -1 71 11 14 10 23 20 20 23 -3 3 -11 1 -18 -5 -25 -20 -98 -18 -98 2
0 17 54 58 64 49 3 -3 6 1 6 10 0 23 -23 21 -45 -3 -23 -26 -29 -25 -49 4 -15
23 -14 28 8 73 31 62 39 118 20 137 -13 13 -10 23 24 78 24 41 49 68 70 78 29
14 47 38 20 27 -50 -20 -48 -21 -48 21 0 72 19 146 45 171 27 28 42 23 26 -7
-12 -22 -13 -142 -2 -182 8 -28 39 -37 70 -20 12 6 21 7 21 2 0 -4 16 -14 35
-21 19 -7 35 -17 35 -22 0 -6 4 -8 9 -4 12 7 30 -25 24 -42 -6 -18 1 -16 47 7
22 11 56 20 77 20 l38 -1 -49 -19 c-48 -19 -96 -55 -96 -73 0 -5 15 4 33 19
45 38 88 54 144 54 l48 0 -47 -45 c-46 -44 -48 -45 -113 -45 -42 0 -64 -4 -60
-10 4 -6 11 -8 16 -4 10 6 36 -49 46 -99 9 -46 74 -152 103 -170 14 -8 49 -17
78 -20 29 -3 62 -13 74 -22 25 -17 93 -20 103 -5 4 6 -8 10 -30 10 -20 0 -49
7 -64 15 -16 8 -50 16 -77 18 -27 3 -57 8 -67 12 -26 11 -85 108 -106 174 -10
31 -22 64 -26 74 -6 13 -4 16 9 11 32 -12 86 7 126 45 50 47 54 81 9 81 -16 0
-49 5 -73 11 -35 9 -50 8 -81 -5 -21 -9 -39 -15 -39 -14 -1 2 -7 11 -14 20
-27 35 41 124 128 169 36 18 62 23 127 23 46 1 83 4 83 7 0 3 -19 16 -42 30
-36 20 -57 24 -123 24 -69 0 -88 -4 -138 -29 -59 -30 -119 -87 -139 -132 -12
-26 -47 -40 -73 -30 -22 8 -22 181 0 190 21 8 7 36 -19 36 -12 0 -30 -6 -39
-12z m498 -50 l40 -12 -75 -6 c-117 -9 -192 -58 -244 -157 l-16 -32 -35 20
c-34 20 -34 22 -20 49 46 88 148 150 249 150 34 0 79 -6 101 -12z m-607 -234
c24 -7 26 -12 13 -33 -8 -12 -12 -12 -25 -2 -9 7 -33 19 -53 27 l-38 13 40 0
c22 1 50 -2 63 -5z m-47 -34 c39 -20 50 -43 26 -53 -27 -10 -68 7 -110 45
l-42 39 43 -6 c24 -3 61 -15 83 -25z m25 -307 c16 -21 18 -53 4 -53 -12 0 -30
33 -30 54 0 21 10 20 26 -1z"/>
<path d="M440 1896 c0 -2 8 -10 18 -17 15 -13 16 -12 3 4 -13 16 -21 21 -21
13z"/>
<path d="M809 1871 c-16 -16 -26 -32 -20 -35 5 -3 11 -1 13 5 3 8 10 8 26 -2
19 -12 24 -11 44 9 23 23 23 23 4 38 -27 19 -32 18 -67 -15z m61 0 c0 -6 -5
-13 -10 -16 -15 -9 -43 3 -35 15 8 13 45 13 45 1z"/>
<path d="M1169 1883 c-13 -16 -12 -17 4 -4 9 7 17 15 17 17 0 8 -8 3 -21 -13z"/>
<path d="M913 1701 c-15 -36 -32 -57 -57 -72 -39 -23 -44 -29 -21 -29 24 0 83
59 95 96 19 56 6 60 -17 5z"/>
<path d="M976 1722 c-3 -5 1 -9 9 -9 8 0 12 4 9 9 -3 4 -7 8 -9 8 -2 0 -6 -4
-9 -8z"/>
<path d="M1585 1600 c-60 -16 -127 -29 -147 -29 -43 -1 -53 -21 -10 -21 15 0
84 14 152 31 209 52 335 31 432 -72 33 -36 53 -69 69 -116 20 -62 21 -73 11
-167 -6 -56 -16 -128 -22 -161 -6 -32 -10 -80 -8 -105 l3 -45 8 50 c4 28 12
79 18 115 6 36 13 86 16 111 l5 46 44 -5 c47 -5 53 1 29 28 -9 10 -20 46 -26
81 -6 35 -19 77 -29 94 -20 32 -73 69 -83 58 -4 -3 -10 3 -14 13 -16 45 -105
98 -187 113 -88 16 -139 12 -261 -19z m541 -192 c8 -15 14 -41 14 -58 0 -17 7
-47 15 -66 14 -34 14 -35 -8 -32 -18 2 -23 12 -30 58 -4 30 -21 84 -38 120
l-30 65 31 -30 c18 -17 38 -42 46 -57z"/>
<path d="M771 1596 c-22 -12 -24 -19 -22 -79 1 -36 -2 -68 -7 -71 -5 -3 -7 5
-5 18 3 13 0 27 -6 30 -7 5 -11 -7 -12 -36 -2 -84 3 -183 10 -188 4 -3 12 -38
18 -78 10 -65 67 -212 78 -200 3 2 -10 38 -27 79 -25 58 -33 94 -38 169 -5 83
-8 92 -18 70 -21 -45 -11 79 11 129 14 31 18 57 14 89 -4 38 -1 48 17 63 25
22 20 23 -13 5z"/>
<path d="M2210 1286 c0 -2 8 -10 18 -17 15 -13 16 -12 3 4 -13 16 -21 21 -21
13z"/>
<path d="M1881 1213 c-1 -29 -10 -76 -21 -105 -19 -51 -19 -52 0 -30 26 31 44
125 32 160 -9 24 -11 21 -11 -25z"/>
<path d="M1370 1008 c0 -44 3 -59 10 -48 13 20 13 97 0 105 -6 4 -10 -17 -10
-57z"/>
<path d="M820 1048 c0 -4 27 -63 59 -132 62 -131 70 -155 72 -221 1 -22 8 -74
16 -115 18 -94 10 -164 -28 -252 -16 -36 -29 -71 -29 -77 0 -14 62 -24 99 -16
35 8 51 30 51 74 0 16 5 33 11 37 8 5 10 37 5 108 -6 89 6 312 20 357 3 11 -3
19 -20 23 -13 3 -45 22 -70 41 -25 19 -46 30 -46 25 0 -5 18 -22 40 -36 46
-31 53 -41 13 -20 -29 15 -69 54 -96 96 -14 20 -17 21 -17 6 0 -10 27 -45 61
-78 46 -45 64 -57 74 -48 7 6 19 8 27 5 16 -6 16 -19 -1 -191 -5 -45 -5 -124
0 -175 7 -75 6 -96 -5 -108 -8 -9 -16 -32 -18 -51 -3 -30 -8 -37 -38 -46 -44
-15 -51 2 -21 45 12 16 17 32 12 35 -4 3 -19 -14 -32 -38 -36 -68 -40 -45 -5
26 28 58 31 71 30 163 -1 182 -18 280 -63 375 -22 47 -47 110 -55 140 -9 34
-15 45 -16 30 l-1 -25 -14 25 c-8 14 -14 22 -15 18z"/>
<path d="M744 1018 c-5 -7 -3 -8 6 -3 10 6 12 4 7 -8 -4 -11 -2 -14 9 -10 11
4 12 9 3 19 -14 17 -16 17 -25 2z"/>
<path d="M1820 988 c-15 -24 -20 -49 -10 -58 3 -3 24 -43 48 -90 23 -47 52
-103 65 -125 33 -60 30 -168 -8 -313 -32 -125 -31 -132 31 -132 45 0 76 29 79
72 1 19 6 42 11 49 5 8 9 57 10 109 0 52 7 127 14 166 7 40 9 86 5 105 -3 19
-10 70 -13 114 -6 68 -8 75 -14 46 -12 -52 -9 -97 8 -141 15 -38 15 -47 0
-120 -11 -48 -16 -114 -15 -171 1 -63 -2 -94 -10 -97 -6 -2 -11 -20 -11 -41 0
-43 -15 -66 -49 -76 -22 -7 -23 -5 -19 24 2 17 1 31 -4 31 -4 0 -8 -9 -8 -19
0 -20 -13 -35 -22 -25 -3 3 -1 21 5 41 11 34 12 35 51 29 29 -4 37 -3 26 4 -8
5 -25 10 -37 10 -27 0 -26 -2 -8 75 8 33 15 96 15 140 0 69 -4 89 -30 140 -16
33 -30 66 -30 73 0 7 -4 10 -10 7 -5 -3 -10 1 -10 10 0 9 -9 30 -21 46 -28 40
-41 89 -28 105 6 8 9 18 7 24 -2 6 -10 0 -18 -12z"/>
<path d="M1030 980 c0 -21 31 -84 50 -102 28 -27 42 -90 46 -208 1 -58 7 -121
13 -140 19 -60 13 -173 -10 -232 -37 -93 -40 -108 -21 -114 9 -3 24 -9 33 -14
18 -9 88 13 101 32 4 7 5 30 2 51 -4 28 -3 37 8 35 9 -2 12 6 10 27 -2 17 -4
92 -5 167 0 116 2 141 17 156 9 11 19 42 21 73 4 51 4 52 -6 19 -6 -19 -17
-51 -24 -70 -28 -74 -40 -195 -26 -277 10 -62 10 -77 0 -84 -8 -4 -12 -23 -11
-47 3 -43 -8 -57 -52 -68 -27 -6 -28 -5 -24 17 3 13 9 32 13 41 4 11 3 18 -3
18 -6 0 -13 -13 -17 -30 -4 -16 -11 -33 -16 -36 -23 -14 -21 10 5 73 35 86 42
168 22 263 -9 41 -16 113 -16 160 -1 87 -33 212 -55 212 -12 -1 -34 37 -35 60
0 18 -20 36 -20 18z"/>
<path d="M1759 944 c-33 -36 -72 -54 -115 -54 -28 0 -35 -3 -30 -15 6 -16 -35
-32 -53 -20 -6 3 -11 2 -11 -4 0 -10 -113 -7 -129 4 -5 3 -11 0 -13 -6 -2 -6
-14 -8 -32 -3 -27 6 -27 8 -22 58 5 41 4 46 -4 27 -19 -43 -27 -96 -19 -116 8
-19 8 -19 14 2 6 18 11 20 32 12 29 -11 83 -12 83 -1 0 4 39 7 88 7 69 0 93
-4 115 -19 81 -55 77 -197 -9 -368 -19 -37 -34 -73 -34 -81 0 -17 54 -37 82
-30 36 9 46 21 53 64 4 21 12 39 20 39 8 0 17 28 24 78 7 42 24 115 38 161 27
92 26 112 -8 191 -32 74 -35 53 -4 -25 l26 -66 -20 -62 c-27 -83 -51 -185 -51
-222 0 -19 -7 -35 -20 -43 -12 -7 -20 -23 -20 -40 0 -38 -11 -51 -50 -58 -36
-8 -35 -10 -13 44 3 6 1 12 -5 12 -5 0 -13 -11 -16 -25 -4 -14 -11 -25 -16
-25 -13 0 -13 6 5 40 17 33 22 35 59 20 36 -13 33 -3 -3 12 l-29 13 29 70 c32
81 44 155 34 216 -5 31 -18 53 -50 83 l-42 42 56 27 c31 14 64 38 74 52 25 36
16 41 -14 9z"/>
<path d="M1305 796 c6 -56 11 -66 19 -38 4 10 0 34 -9 53 l-15 34 5 -49z"/>
<path d="M2012 780 c0 -14 4 -38 8 -55 l8 -30 0 35 c0 19 -3 44 -8 55 -8 18
-9 18 -8 -5z"/>
<path d="M896 755 c-9 -26 -7 -32 5 -12 6 10 9 21 6 23 -2 3 -7 -2 -11 -11z"/>
<path d="M1195 299 c-4 -6 -5 -12 -2 -15 2 -3 7 2 10 11 7 17 1 20 -8 4z"/>
<path d="M886 217 c3 -10 9 -15 12 -12 3 3 0 11 -7 18 -10 9 -11 8 -5 -6z"/>
<path d="M1110 126 c0 -2 7 -7 16 -10 8 -3 12 -2 9 4 -6 10 -25 14 -25 6z"/>
</g>
</svg>
