<?xml version="1.0" standalone="no"?>
<!DOCTYPE svg PUBLIC "-//W3C//DTD SVG 20010904//EN"
 "http://www.w3.org/TR/2001/REC-SVG-20010904/DTD/svg10.dtd">
<svg version="1.0" xmlns="http://www.w3.org/2000/svg"
 width="218.000000pt" height="258.000000pt" viewBox="0 0 218.000000 258.000000"
 preserveAspectRatio="xMidYMid meet">
<g transform="translate(0.000000,258.000000) scale(0.100000,-0.100000)"
fill="#000000" stroke="none">
<path d="M1047 2487 c-3 -8 1 -14 9 -14 16 0 19 13 5 21 -5 3 -11 0 -14 -7z"/>
<path d="M1034 2415 c-20 -30 -43 -93 -44 -117 0 -15 -9 -18 -47 -18 -45 0
-49 2 -75 43 -15 23 -41 58 -57 77 -24 28 -32 32 -40 21 -10 -15 -5 -122 9
-162 7 -25 2 -32 -71 -98 -44 -39 -84 -71 -89 -71 -5 0 -16 -13 -24 -29 -13
-25 -13 -31 0 -50 10 -14 13 -32 9 -51 -6 -29 -134 -226 -200 -308 -37 -46
-43 -76 -21 -105 7 -9 11 -27 9 -40 -3 -13 4 -33 17 -50 18 -22 29 -27 68 -27
36 0 50 -5 60 -20 20 -33 74 -27 106 11 17 20 24 38 21 50 -5 15 6 24 57 50
35 17 74 39 88 49 15 10 53 19 96 23 117 9 183 48 226 132 23 44 29 137 10
170 -8 16 -9 6 -5 -41 13 -146 -77 -243 -227 -244 -57 0 -72 -5 -120 -35 -30
-19 -58 -35 -62 -35 -5 0 -26 -11 -47 -25 -31 -19 -38 -29 -34 -45 7 -27 -32
-70 -63 -70 -19 0 -54 27 -43 33 2 1 13 7 23 13 11 5 27 25 37 43 10 18 27 43
38 55 12 12 21 26 21 31 0 15 -42 -30 -67 -73 -30 -50 -49 -62 -100 -62 -52 0
-83 23 -83 61 0 17 -7 44 -16 60 -17 35 -24 21 96 184 79 106 130 194 130 223
0 30 76 111 143 154 29 17 64 42 80 55 15 12 54 27 87 34 42 8 60 16 60 27 0
30 41 151 59 173 l18 23 22 -67 c16 -48 22 -85 19 -127 -2 -37 1 -59 7 -56 21
7 112 -49 165 -103 42 -43 71 -88 117 -181 70 -141 105 -266 122 -427 18 -169
71 -273 167 -325 64 -34 204 -89 204 -78 0 4 -28 18 -62 30 -217 78 -265 142
-298 393 -10 78 -21 151 -25 162 -11 35 91 -83 120 -138 15 -29 37 -62 48 -74
11 -13 17 -23 13 -23 -16 0 -77 55 -112 101 -39 51 -61 61 -26 12 11 -15 23
-43 27 -62 18 -85 79 -181 114 -181 9 0 1 9 -16 20 -18 11 -33 24 -33 30 0 5
16 -2 37 -15 20 -14 39 -22 42 -19 3 4 1 9 -6 11 -54 19 -108 84 -128 153 -7
23 -4 22 31 -12 35 -33 94 -66 94 -52 0 3 -11 20 -24 37 -13 18 -36 56 -52 85
-15 29 -52 77 -81 106 -42 42 -83 112 -83 142 0 5 132 -89 182 -129 21 -17 41
-28 44 -25 3 3 -31 32 -75 64 -44 32 -79 60 -77 61 2 2 15 -1 30 -7 15 -5 37
-9 49 -9 17 1 15 3 -8 9 l-30 8 32 1 c17 0 34 4 36 9 2 4 -44 52 -104 107 -59
55 -107 101 -105 102 1 2 17 -2 36 -7 32 -9 87 -3 75 8 -3 3 -27 6 -53 7 -66
1 -148 45 -218 116 -56 57 -57 58 -26 49 18 -5 85 -43 149 -85 63 -42 117 -74
120 -71 3 2 -44 37 -103 76 -60 39 -109 72 -111 73 -1 1 15 1 35 -1 22 -2 45
3 57 12 19 14 18 15 -30 36 -44 19 -139 47 -216 64 -22 5 -28 14 -39 63 -17
80 -40 133 -56 133 -7 0 -21 -11 -30 -25z m-193 -76 c22 -33 39 -61 37 -63
-20 -12 -81 -36 -84 -33 -3 2 -7 41 -11 87 -7 97 -3 98 58 9z m137 -86 c-2
-11 -21 -21 -55 -30 -62 -16 -186 -95 -260 -167 -42 -39 -54 -46 -58 -34 -11
27 13 57 50 64 19 3 38 10 41 15 3 5 -3 6 -13 3 -10 -3 11 22 47 56 86 82 135
107 213 109 31 1 38 -2 35 -16z m383 -83 l44 -20 -95 4 c-108 4 -191 34 -183
66 4 15 12 14 97 -6 51 -13 112 -32 137 -44z m67 -194 c10 4 13 3 6 -3 -7 -5
26 -43 95 -108 l107 -100 -30 -7 c-64 -14 -139 17 -156 65 l-10 29 28 -17 c15
-10 36 -25 47 -35 11 -10 30 -23 42 -29 45 -23 33 -9 -33 38 -38 27 -77 57
-88 67 -17 18 -86 131 -86 141 0 3 14 -7 30 -21 18 -15 38 -23 48 -20z"/>
<path d="M720 2425 c0 -2 6 -8 13 -14 10 -8 14 -7 14 2 0 8 -6 14 -14 14 -7 0
-13 -1 -13 -2z"/>
<path d="M1040 2297 c0 -30 -3 -62 -6 -71 -4 -11 -1 -16 10 -16 13 0 15 10 10
68 -8 84 -14 93 -14 19z"/>
<path d="M723 2235 c0 -8 4 -12 9 -9 5 3 6 10 3 15 -9 13 -12 11 -12 -6z"/>
<path d="M860 2165 c0 -7 -8 -19 -17 -24 -15 -9 -15 -10 -2 -11 8 0 20 5 27
12 15 15 16 38 2 38 -5 0 -10 -7 -10 -15z"/>
<path d="M1450 2085 c13 -14 26 -25 28 -25 3 0 -5 11 -18 25 -13 14 -26 25
-28 25 -3 0 5 -11 18 -25z"/>
<path d="M1483 2082 c9 -10 14 -23 10 -27 -5 -5 0 -3 10 4 18 14 24 26 7 16
-5 -3 -10 -2 -10 3 0 6 -8 13 -17 16 -16 6 -16 6 0 -12z"/>
<path d="M566 1992 c-3 -5 1 -9 9 -9 8 0 12 4 9 9 -3 4 -7 8 -9 8 -2 0 -6 -4
-9 -8z"/>
<path d="M787 1962 c-31 -34 -16 -62 32 -62 24 0 65 45 58 64 -9 23 -70 21
-90 -2z m70 -8 c5 -14 -23 -44 -40 -44 -7 0 -19 4 -27 10 -12 7 -11 12 5 30
19 22 56 24 62 4z"/>
<path d="M817 1943 c-12 -12 -7 -22 8 -17 8 4 15 10 15 15 0 11 -14 12 -23 2z"/>
<path d="M900 1970 c0 -5 7 -10 15 -10 8 0 15 5 15 10 0 6 -7 10 -15 10 -8 0
-15 -4 -15 -10z"/>
<path d="M682 1921 c2 -5 -5 -16 -15 -23 -18 -13 -17 -14 2 -14 11 0 18 2 16
5 -3 2 0 10 6 17 7 8 7 14 -1 19 -6 4 -9 2 -8 -4z"/>
<path d="M722 1900 c-32 -30 -27 -38 6 -9 15 13 29 25 31 27 2 1 0 2 -5 2 -6
0 -20 -9 -32 -20z"/>
<path d="M630 1881 c0 -6 4 -13 10 -16 6 -3 7 1 4 9 -7 18 -14 21 -14 7z"/>
<path d="M611 1834 c0 -11 3 -14 6 -6 3 7 2 16 -1 19 -3 4 -6 -2 -5 -13z"/>
<path d="M1366 1823 c-6 -14 -5 -15 5 -6 7 7 10 15 7 18 -3 3 -9 -2 -12 -12z"/>
<path d="M1643 1825 c0 -8 4 -12 9 -9 5 3 6 10 3 15 -9 13 -12 11 -12 -6z"/>
<path d="M406 1772 c-3 -5 1 -9 9 -9 8 0 12 4 9 9 -3 4 -7 8 -9 8 -2 0 -6 -4
-9 -8z"/>
<path d="M443 1773 c4 -3 -3 -18 -15 -32 l-23 -26 27 24 c24 21 29 41 11 41
-4 0 -3 -3 0 -7z"/>
<path d="M529 1746 c0 -1 -2 -9 -4 -19 -3 -15 -1 -16 13 -5 14 11 15 10 9 -5
-4 -10 -3 -16 2 -12 14 8 9 42 -6 42 -7 0 -13 -1 -14 -1z"/>
<path d="M1185 1595 c0 -96 3 -141 10 -134 13 13 13 255 0 268 -7 7 -10 -40
-10 -134z"/>
<path d="M365 1689 c-4 -6 -14 -8 -22 -5 -8 3 -11 2 -8 -3 8 -14 42 -9 42 6 0
16 -4 16 -12 2z"/>
<path d="M985 1660 c-3 -6 1 -7 9 -4 18 7 21 14 7 14 -6 0 -13 -4 -16 -10z"/>
<path d="M350 1640 c-6 -11 -8 -20 -6 -20 3 0 10 9 16 20 6 11 8 20 6 20 -3 0
-10 -9 -16 -20z"/>
<path d="M1261 1634 c0 -11 3 -14 6 -6 3 7 2 16 -1 19 -3 4 -6 -2 -5 -13z"/>
<path d="M634 1607 c-4 -6 -4 -9 1 -5 4 4 14 3 22 -4 7 -6 15 -9 18 -7 2 3 -4
10 -15 17 -15 9 -21 9 -26 -1z"/>
<path d="M473 1603 c-17 -6 -16 -38 1 -52 10 -9 16 -8 26 4 7 8 9 15 5 15 -4
0 -2 6 4 14 9 11 8 15 -5 20 -8 3 -16 6 -17 5 -1 0 -8 -3 -14 -6z m21 -29 c4
-10 1 -14 -6 -12 -15 5 -23 28 -10 28 5 0 13 -7 16 -16z"/>
<path d="M569 1593 c-12 -16 -12 -17 2 -6 9 7 20 9 24 5 5 -4 5 -1 1 6 -9 16
-11 15 -27 -5z"/>
<path d="M950 1560 c0 -16 -19 -94 -41 -172 -36 -126 -41 -155 -41 -244 0 -98
15 -184 31 -184 4 0 2 24 -6 53 -24 88 -12 230 30 373 43 143 54 204 38 204
-6 0 -11 -13 -11 -30z"/>
<path d="M536 1552 c-3 -5 1 -9 9 -9 8 0 12 4 9 9 -3 4 -7 8 -9 8 -2 0 -6 -4
-9 -8z"/>
<path d="M444 1498 c-4 -7 -4 -10 1 -6 4 4 15 2 24 -5 14 -11 14 -10 2 6 -16
20 -18 21 -27 5z"/>
<path d="M720 1496 c0 -3 9 -10 20 -16 11 -6 20 -8 20 -6 0 3 -9 10 -20 16
-11 6 -20 8 -20 6z"/>
<path d="M1723 1445 c0 -8 4 -12 9 -9 5 3 6 10 3 15 -9 13 -12 11 -12 -6z"/>
<path d="M1367 1407 c-5 -26 -22 -73 -38 -104 -24 -46 -26 -53 -10 -39 27 25
63 122 59 160 -3 27 -4 24 -11 -17z"/>
<path d="M400 1406 c0 -3 9 -10 19 -15 14 -8 22 -7 32 7 11 14 11 15 -1 5 -9
-8 -19 -9 -32 -2 -10 5 -18 7 -18 5z"/>
<path d="M1177 1383 c-16 -27 -107 -256 -117 -292 -16 -62 -5 -62 15 1 10 29
33 91 52 138 43 105 63 160 58 160 -2 0 -6 -3 -8 -7z"/>
<path d="M1051 1274 c0 -11 3 -14 6 -6 3 7 2 16 -1 19 -3 4 -6 -2 -5 -13z"/>
<path d="M831 1091 c-12 -17 -32 -52 -44 -78 -31 -69 -29 -208 6 -315 l25 -77
-42 -28 c-22 -15 -99 -57 -171 -94 -91 -45 -131 -71 -133 -85 -4 -18 -3 -18
10 -2 7 10 58 39 113 66 110 54 229 127 288 178 21 17 83 51 137 73 107 45
170 52 208 25 13 -9 26 -14 29 -11 11 11 -64 40 -102 39 -54 0 -227 -73 -282
-118 -24 -20 -46 -35 -47 -33 -14 15 -46 186 -46 243 0 87 11 128 50 190 34
54 35 75 1 27z"/>
<path d="M1385 1095 c-27 -13 -85 -37 -127 -55 -129 -53 -210 -141 -223 -242
-5 -39 -3 -37 18 24 40 115 96 165 251 223 84 32 136 57 136 67 0 4 -1 8 -2 7
-2 0 -25 -11 -53 -24z"/>
<path d="M1673 975 c1 -66 -2 -130 -6 -142 -5 -13 -4 -23 1 -23 20 0 31 220
12 265 -4 12 -7 -29 -7 -100z"/>
<path d="M1745 1080 c-3 -6 1 -7 9 -4 18 7 21 14 7 14 -6 0 -13 -4 -16 -10z"/>
<path d="M1169 923 c-12 -16 -12 -17 2 -6 9 7 20 9 24 5 5 -4 5 -1 1 6 -9 16
-11 15 -27 -5z"/>
<path d="M916 859 c8 -33 19 -69 25 -80 5 -11 7 -24 4 -29 -3 -5 1 -7 9 -4 13
5 14 10 2 32 -8 15 -19 53 -26 85 -7 31 -17 57 -21 57 -4 0 -1 -27 7 -61z"/>
<path d="M654 730 c-53 -50 -141 -120 -195 -156 -55 -36 -107 -77 -116 -91
-32 -49 -29 -140 8 -258 18 -58 36 -105 41 -105 11 0 11 -1 -23 91 -36 99 -43
221 -15 264 9 14 65 57 124 97 93 62 301 247 279 248 -4 0 -51 -41 -103 -90z"/>
<path d="M1512 681 c-9 -50 -24 -92 -47 -130 -31 -51 -63 -160 -36 -121 6 8
11 24 11 35 0 12 16 45 35 75 35 57 59 139 53 187 -2 18 -8 1 -16 -46z"/>
<path d="M837 723 c3 -7 6 -13 8 -13 2 0 5 6 8 13 3 8 -1 14 -8 14 -7 0 -11
-6 -8 -14z"/>
<path d="M1571 653 c-11 -22 -27 -45 -35 -52 -9 -8 -16 -18 -16 -24 0 -5 9 -2
21 9 24 21 63 93 55 101 -2 3 -14 -13 -25 -34z"/>
<path d="M606 618 c3 -5 10 -6 15 -3 13 9 11 12 -6 12 -8 0 -12 -4 -9 -9z"/>
<path d="M733 605 c0 -8 4 -12 9 -9 5 3 6 10 3 15 -9 13 -12 11 -12 -6z"/>
<path d="M596 588 c3 -5 10 -6 15 -3 13 9 11 12 -6 12 -8 0 -12 -4 -9 -9z"/>
<path d="M1000 566 c7 -7 13 -7 20 0 6 6 3 10 -10 10 -13 0 -16 -4 -10 -10z"/>
<path d="M776 538 c3 -5 10 -6 15 -3 13 9 11 12 -6 12 -8 0 -12 -4 -9 -9z"/>
<path d="M454 516 c1 -8 5 -18 8 -22 4 -3 5 1 4 10 -1 8 -5 18 -8 22 -4 3 -5
-1 -4 -10z"/>
<path d="M1008 517 c17 -21 159 -79 180 -75 9 2 -8 12 -38 22 -30 10 -77 29
-104 43 -33 17 -46 20 -38 10z"/>
<path d="M923 497 c-67 -72 -114 -202 -96 -259 10 -31 11 -30 12 27 1 67 37
155 86 213 31 37 30 54 -2 19z"/>
<path d="M424 501 c4 -5 1 -12 -4 -14 -6 -3 -5 -4 2 -3 15 3 23 26 8 26 -6 0
-9 -4 -6 -9z"/>
<path d="M825 489 c-4 -6 -5 -12 -2 -15 2 -3 7 2 10 11 7 17 1 20 -8 4z"/>
<path d="M439 463 c-13 -16 -12 -17 4 -4 9 7 17 15 17 17 0 8 -8 3 -21 -13z"/>
<path d="M925 441 c-3 -5 -2 -12 3 -15 5 -3 9 1 9 9 0 17 -3 19 -12 6z"/>
<path d="M426 393 c-6 -14 -5 -15 5 -6 7 7 10 15 7 18 -3 3 -9 -2 -12 -12z"/>
<path d="M464 343 c10 -42 66 -187 77 -197 12 -13 -3 35 -35 113 -14 36 -26
75 -26 88 0 13 -5 23 -11 23 -7 0 -9 -10 -5 -27z"/>
<path d="M406 337 c3 -10 9 -15 12 -12 3 3 0 11 -7 18 -10 9 -11 8 -5 -6z"/>
</g>
</svg>
