<?xml version="1.0" standalone="no"?>
<!DOCTYPE svg PUBLIC "-//W3C//DTD SVG 20010904//EN"
 "http://www.w3.org/TR/2001/REC-SVG-20010904/DTD/svg10.dtd">
<svg version="1.0" xmlns="http://www.w3.org/2000/svg"
 width="236.000000pt" height="246.000000pt" viewBox="0 0 236.000000 246.000000"
 preserveAspectRatio="xMidYMid meet">
<g transform="translate(0.000000,246.000000) scale(0.100000,-0.100000)"
fill="#000000" stroke="none">
<path d="M1023 2365 c0 -8 4 -12 9 -9 5 3 6 10 3 15 -9 13 -12 11 -12 -6z"/>
<path d="M987 2310 c-10 -10 -27 -16 -37 -13 -19 5 -102 -38 -130 -66 -25 -26
-71 -111 -66 -120 3 -5 -13 -8 -35 -7 -54 1 -79 -28 -79 -93 0 -70 66 -170
113 -171 9 0 17 -5 17 -11 0 -5 4 -8 9 -5 12 8 21 59 11 71 -11 14 -22 101
-22 168 0 93 58 171 155 212 25 10 37 12 37 4 0 -8 5 -7 16 1 8 8 29 14 47 15
43 2 87 15 87 26 0 13 -14 11 -36 -6 -10 -8 -23 -14 -29 -15 -5 0 -3 4 5 10 8
5 11 12 7 16 -4 4 -16 -1 -27 -11 -18 -17 -20 -17 -14 -2 8 22 -6 21 -29 -3z
m-233 -236 c3 -9 6 -23 6 -32 0 -13 -4 -11 -16 6 -24 35 -75 23 -74 -17 1 -14
3 -13 14 2 18 23 43 22 56 -3 9 -17 7 -24 -12 -39 -20 -16 -21 -22 -10 -45 6
-14 16 -26 22 -26 7 0 7 7 0 21 -12 21 -7 49 8 49 5 0 9 -6 9 -12 1 -7 2 -24
4 -38 1 -14 -1 -35 -5 -47 -5 -14 -3 -23 3 -23 6 0 11 5 11 10 0 6 4 10 10 10
15 0 0 -28 -18 -35 -39 -15 -123 132 -105 183 17 48 83 73 97 36z"/>
<path d="M1095 2289 c-5 -7 5 -8 32 -3 51 9 54 14 10 14 -20 0 -39 -5 -42 -11z"/>
<path d="M1169 2268 c69 -19 144 -106 145 -165 0 -29 2 -31 16 -18 21 19 51
19 76 1 30 -22 25 -114 -9 -165 -34 -51 -61 -60 -93 -30 -19 18 -24 19 -24 6
0 -9 5 -19 10 -22 6 -4 8 -11 4 -16 -3 -5 -1 -15 4 -22 5 -7 12 -21 15 -32 4
-16 5 -15 6 6 0 14 -5 31 -11 38 -11 10 -8 11 13 6 19 -5 34 0 58 21 44 37 63
79 65 141 1 62 -23 94 -73 97 -26 1 -36 9 -57 46 -46 80 -99 121 -156 119 -17
-1 -14 -3 11 -11z"/>
<path d="M1074 2259 c-3 -6 -2 -15 3 -20 5 -5 9 -1 9 11 0 23 -2 24 -12 9z"/>
<path d="M1036 2228 c3 -5 10 -6 15 -3 13 9 11 12 -6 12 -8 0 -12 -4 -9 -9z"/>
<path d="M890 2119 c-38 -16 -59 -39 -70 -79 -13 -48 2 -94 46 -140 31 -32 34
-41 34 -95 0 -78 25 -119 86 -147 109 -48 215 34 200 156 -5 47 -4 53 28 86
67 69 68 151 5 205 -36 30 -91 33 -144 8 -33 -16 -38 -16 -83 0 -53 19 -66 20
-102 6z m317 -20 c55 -46 53 -132 -5 -189 -35 -34 -36 -38 -37 -108 0 -72 -1
-74 -37 -108 -30 -27 -46 -34 -78 -34 -87 0 -130 49 -130 148 0 53 -3 61 -35
92 -38 37 -59 94 -49 135 16 63 97 92 166 59 31 -14 36 -14 78 6 47 22 99 21
127 -1z"/>
<path d="M908 2063 c-34 -9 -18 -18 32 -18 53 0 65 9 28 19 -25 6 -34 6 -60
-1z"/>
<path d="M1090 2055 c-15 -18 -9 -19 25 -3 19 8 31 8 50 0 14 -6 25 -8 25 -3
0 24 -81 29 -100 6z"/>
<path d="M1100 2022 c-19 -16 -21 -22 -11 -40 13 -24 41 -28 72 -12 23 13 24
33 3 54 -20 21 -37 20 -64 -2z m63 -15 c6 -17 -27 -39 -48 -31 -16 6 -20 26
-8 37 11 12 51 7 56 -6z"/>
<path d="M1125 2000 c-3 -5 1 -10 9 -10 9 0 16 5 16 10 0 6 -4 10 -9 10 -6 0
-13 -4 -16 -10z"/>
<path d="M901 2011 c-14 -26 17 -54 56 -49 31 3 42 30 23 53 -18 22 -67 19
-79 -4z m69 -6 c14 -17 5 -35 -19 -35 -23 0 -41 19 -34 36 7 18 37 18 53 -1z"/>
<path d="M945 1990 c3 -5 8 -10 11 -10 2 0 4 5 4 10 0 6 -5 10 -11 10 -5 0 -7
-4 -4 -10z"/>
<path d="M1036 2018 c3 -5 10 -6 15 -3 13 9 11 12 -6 12 -8 0 -12 -4 -9 -9z"/>
<path d="M1046 1983 c-6 -14 -5 -15 5 -6 7 7 10 15 7 18 -3 3 -9 -2 -12 -12z"/>
<path d="M966 1931 c-11 -12 -16 -24 -12 -28 9 -9 39 22 34 37 -2 7 -10 4 -22
-9z"/>
<path d="M1033 1935 c0 -8 4 -12 8 -9 4 2 10 -2 12 -8 4 -8 6 -9 6 -2 1 6 -5
17 -12 23 -10 8 -14 7 -14 -4z"/>
<path d="M1105 1930 c-4 -6 -4 -10 -1 -10 2 0 11 -3 20 -6 9 -3 16 -2 16 4 0
14 -28 23 -35 12z"/>
<path d="M1120 1880 c-9 -6 -10 -10 -3 -10 6 0 15 5 18 10 8 12 4 12 -15 0z"/>
<path d="M1002 1850 c7 -11 19 -20 25 -20 11 0 11 4 1 20 -7 11 -19 20 -25 20
-11 0 -11 -4 -1 -20z"/>
<path d="M1060 1855 c-7 -9 -10 -18 -7 -22 8 -7 37 15 37 28 0 14 -16 11 -30
-6z"/>
<path d="M1132 1768 c-14 -14 -122 -17 -164 -5 -17 4 -28 3 -28 -2 0 -15 63
-24 135 -19 67 4 80 9 73 28 -2 7 -7 7 -16 -2z"/>
<path d="M1256 2088 c3 -5 10 -6 15 -3 13 9 11 12 -6 12 -8 0 -12 -4 -9 -9z"/>
<path d="M1333 2065 c-16 -11 -20 -23 -18 -55 2 -22 -1 -40 -6 -40 -5 0 -9
-13 -9 -30 0 -21 5 -30 16 -30 8 0 13 4 9 9 -9 16 7 92 19 88 12 -4 13 -42 1
-72 -7 -18 -6 -18 8 -5 29 29 30 57 3 81 -13 12 -22 27 -20 34 8 20 42 25 55
9 7 -8 14 -12 17 -9 8 8 -20 35 -37 35 -9 0 -26 -7 -38 -15z"/>
<path d="M1800 1868 c-52 -15 -92 -49 -125 -109 -25 -47 -29 -65 -29 -134 0
-96 12 -130 116 -335 41 -80 79 -169 86 -198 27 -119 9 -257 -43 -332 -33 -47
-45 -50 -45 -12 0 15 -14 72 -30 127 -47 156 -70 247 -65 255 6 9 -37 96 -64
130 -11 14 -23 21 -27 17 -4 -4 5 -21 21 -37 16 -16 26 -33 22 -36 -4 -4 -2
-13 4 -20 11 -14 27 -67 35 -119 2 -16 11 -48 19 -70 8 -22 25 -78 39 -125 13
-47 27 -94 31 -105 7 -16 6 -18 -6 -8 -23 22 -33 14 -12 -9 34 -39 68 -238 43
-253 -7 -4 -9 2 -4 19 4 16 2 26 -5 26 -6 0 -11 -16 -11 -35 0 -44 -23 -90
-51 -106 -20 -10 -20 -10 1 19 23 32 40 122 23 122 -6 0 -13 -23 -15 -50 -5
-48 -36 -100 -60 -100 -14 0 -9 19 12 40 16 16 20 33 20 81 0 72 -14 106 -36
88 -8 -6 -14 -24 -14 -40 0 -27 -19 -52 -21 -27 -7 88 52 257 76 218 3 -5 11
-10 17 -10 7 0 7 4 -1 13 -6 8 -8 16 -5 19 2 3 -7 5 -20 5 -14 0 -24 -2 -22
-6 2 -3 -2 -15 -10 -26 -13 -18 -14 -18 -14 6 0 57 -71 219 -115 262 -8 8 -24
50 -35 93 -32 123 -141 324 -175 324 -9 0 -6 -9 10 -26 14 -15 36 -46 50 -70
25 -42 26 -49 23 -176 -2 -73 -7 -140 -11 -148 -5 -10 11 -45 48 -102 30 -48
55 -91 55 -95 0 -5 11 -35 25 -68 39 -94 35 -149 -18 -238 -107 -177 -111
-186 -92 -207 9 -10 37 -23 62 -29 63 -16 135 -55 151 -81 22 -36 5 -34 -28 3
-29 33 -90 66 -90 48 0 -5 11 -12 24 -15 13 -3 39 -23 57 -43 27 -32 30 -39
15 -41 -9 -2 -26 8 -37 22 -18 23 -86 66 -104 66 -15 0 -2 -19 18 -24 30 -8
84 -52 74 -62 -4 -4 -25 3 -47 15 -40 22 -179 65 -187 58 -2 -2 8 -12 22 -21
25 -16 35 -46 15 -46 -5 0 -32 16 -60 36 -58 42 -64 67 -22 101 15 12 22 22
16 23 -7 0 -26 -13 -42 -29 -22 -20 -29 -34 -25 -49 7 -26 126 -104 147 -96
19 7 21 25 4 43 -20 21 48 4 107 -26 58 -30 109 -35 148 -16 36 18 34 35 -6
76 -32 32 -130 77 -167 77 -10 0 -23 6 -29 14 -9 11 -2 32 35 98 26 45 52 93
58 104 13 28 80 32 96 6 9 -15 12 -15 30 7 11 13 20 33 21 45 1 11 5 3 11 -19
12 -51 3 -94 -22 -112 -28 -20 -26 -51 5 -59 33 -8 89 27 122 78 22 32 27 52
27 104 1 52 4 65 18 70 27 8 85 84 115 150 22 49 27 77 31 165 6 150 -21 241
-134 449 -70 127 -88 199 -72 276 13 60 56 104 101 104 38 0 56 -16 72 -63 5
-17 18 -35 28 -41 15 -9 22 -7 38 13 37 45 16 129 -44 167 -40 26 -101 35
-147 22z m114 -22 c44 -18 76 -61 76 -102 0 -72 -28 -86 -52 -25 -42 106 -159
85 -198 -35 -7 -22 -10 -65 -8 -105 5 -61 12 -81 76 -196 143 -259 172 -444
97 -610 -22 -48 -98 -143 -115 -143 -4 0 -10 17 -13 37 -5 29 -2 39 13 50 51
36 90 145 90 253 0 100 -22 170 -110 345 -44 88 -87 187 -96 219 -55 197 84
377 240 312z m-449 -754 c10 -42 25 -82 36 -93 40 -40 100 -167 113 -239 2
-14 6 -29 7 -35 2 -5 -2 -29 -10 -52 -11 -34 -19 -43 -36 -43 -19 0 -24 7 -29
44 -4 24 -16 61 -26 82 -11 21 -20 44 -20 52 0 8 -25 52 -56 99 -51 80 -54 88
-44 114 8 18 11 67 8 135 l-4 107 23 -48 c12 -27 29 -82 38 -123z m127 -512
c-4 -36 -7 -40 -33 -40 -27 0 -28 1 -17 33 21 60 55 65 50 7z"/>
<path d="M650 1841 c0 -6 4 -13 10 -16 6 -3 7 1 4 9 -7 18 -14 21 -14 7z"/>
<path d="M789 1818 c-15 -11 -15 -14 1 -44 l18 -32 -44 -31 c-25 -19 -47 -43
-50 -58 -4 -15 -21 -49 -37 -76 -22 -34 -27 -51 -19 -56 9 -5 9 -16 1 -42 -18
-62 -49 -221 -49 -253 0 -22 -18 -62 -51 -117 -72 -118 -153 -282 -177 -359
-33 -107 -47 -222 -32 -276 16 -57 57 -98 111 -112 48 -12 65 -8 72 18 5 21
-8 36 -38 41 -25 5 -40 56 -30 106 l8 38 7 -33 c9 -41 24 -57 44 -49 14 5 15
18 10 79 -4 40 -14 87 -23 103 -9 17 -19 39 -22 50 -6 17 -7 15 -8 -8 -1 -15
6 -38 14 -51 19 -29 33 -172 16 -162 -6 4 -11 13 -11 21 0 19 -21 65 -30 65
-4 0 -13 -20 -20 -45 -18 -66 -1 -123 41 -132 16 -3 29 -9 29 -14 0 -14 -19
-20 -46 -13 -28 7 -63 69 -64 112 0 13 -4 20 -10 17 -12 -7 -2 -63 16 -92 21
-33 0 -28 -22 5 -10 15 -17 42 -16 62 2 27 0 32 -9 20 -8 -11 -9 -1 -5 40 9
100 18 150 27 150 5 0 9 -4 9 -10 0 -5 5 -10 10 -10 6 0 10 7 10 15 0 9 6 15
13 14 27 -3 35 2 39 26 7 33 -10 32 -18 -1 -5 -19 -9 -22 -15 -12 -6 10 -11 9
-23 -7 -9 -12 -15 -15 -16 -7 0 7 -4 10 -10 7 -28 -17 87 230 176 381 48 81
56 103 69 185 13 88 44 219 61 264 7 18 6 18 -9 6 -29 -23 -19 2 23 57 22 29
38 57 36 61 -3 5 12 25 34 45 34 31 39 41 33 64 -4 15 -6 35 -5 45 0 9 0 17
-1 16 -1 0 -9 -5 -18 -11z m-49 -162 c0 -3 -4 -8 -10 -11 -5 -3 -10 -1 -10 4
0 6 5 11 10 11 6 0 10 -2 10 -4z"/>
<path d="M1283 1808 c3 -18 0 -25 -9 -21 -8 3 -14 -6 -16 -24 -2 -18 -8 -27
-18 -26 -16 1 -76 -64 -67 -74 3 -3 20 9 37 26 18 17 36 28 41 25 6 -3 15 8
22 25 6 17 15 30 19 29 4 -2 32 -21 61 -42 49 -35 76 -68 131 -159 28 -46 30
-24 3 30 -35 68 -88 125 -141 154 -25 13 -46 31 -46 39 0 8 -5 22 -11 30 -8
12 -10 9 -6 -12z"/>
<path d="M824 1767 c3 -10 6 -25 6 -32 0 -16 88 -91 96 -82 7 7 -38 53 -48 50
-5 -2 -8 4 -8 13 0 8 -4 12 -10 9 -5 -3 -10 0 -10 7 0 8 -7 23 -16 34 -14 17
-15 17 -10 1z"/>
<path d="M1355 1691 c-3 -5 -2 -12 3 -15 5 -3 9 1 9 9 0 17 -3 19 -12 6z"/>
<path d="M930 1622 c0 -12 34 -42 48 -42 6 0 25 -14 42 -31 17 -17 33 -29 36
-26 3 3 -16 27 -42 54 -27 26 -45 42 -40 36 4 -8 2 -13 -4 -13 -6 0 -13 7 -16
15 -6 16 -24 21 -24 7z"/>
<path d="M1123 1616 c-13 -6 -25 -17 -28 -25 -10 -26 5 -25 32 2 30 30 29 38
-4 23z"/>
<path d="M1488 1508 c20 -37 54 -124 72 -180 6 -21 16 -38 22 -38 6 0 7 8 3
18 -4 9 -14 40 -22 67 -19 64 -70 165 -83 165 -5 0 -2 -15 8 -32z"/>
<path d="M1820 1461 c0 -6 4 -13 10 -16 6 -3 7 1 4 9 -7 18 -14 21 -14 7z"/>
<path d="M789 1425 c-3 -2 -2 -39 2 -82 5 -54 3 -86 -6 -103 -7 -14 -20 -59
-29 -100 -19 -82 -56 -144 -156 -260 -31 -36 -63 -76 -72 -90 -21 -34 -33 -90
-19 -90 6 0 11 7 11 15 0 29 31 76 130 199 96 119 100 125 124 217 l24 94 1
-57 c1 -31 5 -59 10 -62 14 -9 35 -135 24 -149 -6 -6 -31 -38 -57 -71 -49 -61
-82 -124 -111 -214 -15 -45 -16 -59 -5 -97 7 -25 23 -56 36 -70 43 -46 145
-196 139 -205 -3 -5 -37 -16 -76 -25 -81 -18 -112 -32 -151 -69 -30 -27 -37
-66 -13 -66 9 0 18 -6 21 -14 7 -19 88 -11 122 12 33 22 114 54 121 47 2 -3 0
-10 -6 -16 -6 -6 -9 -18 -6 -25 7 -19 47 -18 63 1 7 8 30 25 50 36 46 26 63
59 50 94 -5 14 -7 25 -5 25 3 0 -3 17 -14 37 -10 21 -26 61 -34 88 -9 28 -25
68 -36 90 -27 51 -27 59 9 95 17 17 30 36 30 42 0 6 3 8 6 5 4 -4 28 11 54 33
50 42 70 49 70 26 0 -29 82 -106 148 -138 37 -17 68 -33 70 -33 1 -1 -6 -19
-17 -41 -23 -48 -71 -197 -65 -203 8 -8 15 7 56 120 55 152 57 171 23 214 -14
20 -30 33 -34 30 -10 -5 -81 72 -81 88 0 8 -3 8 -10 1 -6 -6 -33 -9 -60 -6
-46 4 -52 2 -98 -37 -27 -22 -51 -38 -54 -35 -9 8 -77 -74 -84 -100 -4 -17 1
-37 17 -63 13 -21 23 -39 22 -40 -3 -3 -2 -6 27 -85 12 -32 26 -60 31 -63 16
-11 10 -25 -8 -18 -14 4 -12 0 5 -16 35 -35 25 -60 -45 -108 -67 -48 -89 -43
-46 8 24 28 25 32 8 25 -11 -4 -42 -15 -70 -23 -27 -8 -69 -26 -93 -40 -24
-14 -46 -23 -48 -20 -12 11 12 37 57 61 54 30 64 41 22 25 -43 -16 -87 -46
-101 -68 -14 -24 -32 -28 -32 -8 0 16 45 59 78 77 13 6 21 14 19 17 -9 8 -71
-29 -101 -61 -21 -23 -27 -26 -25 -12 7 35 71 75 154 96 104 27 133 31 140 19
8 -13 28 -12 23 2 -2 6 -7 10 -12 9 -5 -1 -12 4 -17 11 -6 10 -11 10 -23 0
-14 -11 -16 -11 -16 3 0 9 -29 60 -65 112 -36 52 -68 106 -71 120 -4 15 -12
23 -19 20 -9 -3 -16 8 -20 33 -7 42 22 140 51 172 11 12 13 19 5 19 -12 0 8
32 88 134 l44 57 -18 77 c-21 93 -33 183 -36 292 -3 74 -8 97 -20 85z m391
-702 c0 -13 81 -85 88 -78 8 8 42 -43 42 -64 0 -19 -3 -19 -27 -9 -74 32 -183
127 -183 159 0 5 18 8 40 6 22 -1 40 -7 40 -14z"/>
<path d="M880 1351 c0 -11 69 -36 77 -28 3 3 -12 13 -32 21 -44 19 -45 19 -45
7z"/>
<path d="M1181 1349 c-13 -5 -22 -12 -19 -15 8 -8 58 7 58 17 0 11 -8 11 -39
-2z"/>
<path d="M860 1213 c0 -107 15 -177 54 -257 28 -57 95 -136 116 -136 7 0 -5
17 -26 38 -82 79 -125 202 -127 358 -1 52 -5 94 -9 94 -5 0 -8 -44 -8 -97z"/>
<path d="M920 1300 c8 -5 20 -10 25 -10 6 0 3 5 -5 10 -8 5 -19 10 -25 10 -5
0 -3 -5 5 -10z"/>
<path d="M1294 1285 c16 -80 17 -163 2 -233 -19 -89 -61 -176 -93 -193 -14 -7
-29 -22 -35 -32 -8 -16 -7 -17 9 -9 63 35 124 142 143 254 13 71 0 213 -20
232 -10 8 -11 4 -6 -19z"/>
<path d="M540 981 c0 -6 4 -13 10 -16 6 -3 7 1 4 9 -7 18 -14 21 -14 7z"/>
<path d="M694 902 c4 -3 14 -7 22 -8 9 -1 13 0 10 4 -4 3 -14 7 -22 8 -9 1
-13 0 -10 -4z"/>
<path d="M906 873 c-6 -14 -5 -15 5 -6 7 7 10 15 7 18 -3 3 -9 -2 -12 -12z"/>
<path d="M965 829 c-4 -6 -5 -12 -2 -15 2 -3 7 2 10 11 7 17 1 20 -8 4z"/>
<path d="M770 746 c0 -2 8 -10 18 -17 15 -13 16 -12 3 4 -13 16 -21 21 -21 13z"/>
<path d="M1310 686 c7 -7 13 -7 20 0 6 6 3 10 -10 10 -13 0 -16 -4 -10 -10z"/>
<path d="M891 664 c0 -11 3 -14 6 -6 3 7 2 16 -1 19 -3 4 -6 -2 -5 -13z"/>
<path d="M1826 587 c3 -10 9 -15 12 -12 3 3 0 11 -7 18 -10 9 -11 8 -5 -6z"/>
<path d="M1330 311 c0 -5 -13 -12 -30 -16 -16 -4 -30 -11 -30 -17 0 -6 7 -7
18 -3 9 4 27 10 40 12 21 5 32 33 12 33 -5 0 -10 -4 -10 -9z"/>
<path d="M924 294 c3 -9 6 -17 6 -20 0 -2 7 -1 15 2 12 5 13 10 4 20 -16 19
-33 18 -25 -2z"/>
<path d="M1360 290 c0 -5 7 -10 16 -10 8 0 12 5 9 10 -3 6 -10 10 -16 10 -5 0
-9 -4 -9 -10z"/>
<path d="M827 239 c7 -7 15 -10 18 -7 3 3 -2 9 -12 12 -14 6 -15 5 -6 -5z"/>
<path d="M1023 195 c0 -8 4 -12 9 -9 5 3 6 10 3 15 -9 13 -12 11 -12 -6z"/>
<path d="M993 155 c0 -8 4 -12 9 -9 5 3 6 10 3 15 -9 13 -12 11 -12 -6z"/>
<path d="M1595 80 c-3 -6 1 -7 9 -4 18 7 21 14 7 14 -6 0 -13 -4 -16 -10z"/>
</g>
</svg>
