<?xml version="1.0" standalone="no"?>
<!DOCTYPE svg PUBLIC "-//W3C//DTD SVG 20010904//EN"
 "http://www.w3.org/TR/2001/REC-SVG-20010904/DTD/svg10.dtd">
<svg version="1.0" xmlns="http://www.w3.org/2000/svg"
 width="260.000000pt" height="223.000000pt" viewBox="0 0 260.000000 223.000000"
 preserveAspectRatio="xMidYMid meet">
<g transform="translate(0.000000,223.000000) scale(0.100000,-0.100000)"
fill="#000000" stroke="none">
<path d="M1047 1818 c-59 -35 -76 -41 -117 -39 -54 2 -149 -20 -223 -51 l-47
-21 -24 26 c-13 14 -36 32 -52 40 -46 24 -184 68 -194 62 -5 -3 -3 -20 5 -39
8 -18 17 -64 21 -102 8 -85 36 -150 75 -170 24 -12 29 -21 29 -50 0 -49 -37
-114 -65 -114 -35 0 -73 -46 -81 -98 -8 -56 9 -92 51 -107 17 -5 40 -22 52
-36 22 -26 171 -109 196 -109 8 0 22 -10 33 -21 10 -12 41 -37 69 -55 46 -32
51 -40 86 -133 60 -166 59 -275 -7 -387 -13 -22 -21 -44 -17 -48 4 -3 24 28
45 70 35 71 38 84 38 161 0 66 -6 100 -29 167 -16 46 -35 94 -41 106 -7 12 -8
20 -3 18 120 -59 183 -88 191 -88 20 0 20 -17 1 -130 -11 -63 -18 -131 -15
-151 3 -19 1 -50 -4 -69 -5 -19 -7 -36 -5 -39 13 -12 20 18 26 102 3 51 12
133 19 184 l13 91 36 -5 c20 -3 41 -10 46 -15 6 -5 11 -53 12 -107 1 -54 7
-110 12 -124 12 -31 1 -105 -28 -183 -22 -56 -15 -80 18 -69 12 4 21 2 21 -4
0 -6 12 -11 26 -11 30 0 84 49 84 77 0 15 2 15 10 3 19 -31 25 5 20 136 -2 58
4 88 32 170 l33 99 115 6 c63 4 133 12 155 18 56 15 58 15 79 -20 17 -28 17
-37 6 -91 -7 -33 -30 -93 -51 -133 l-38 -74 31 -16 c45 -22 102 -5 120 35 7
17 18 28 25 26 18 -7 24 8 34 85 5 39 18 91 30 117 17 38 19 58 14 108 -5 46
-3 63 8 72 12 10 20 0 49 -61 20 -40 41 -90 48 -112 17 -50 8 -151 -20 -237
-25 -74 -22 -103 10 -93 11 4 20 2 20 -4 0 -19 44 -12 72 12 19 16 28 35 33
70 4 30 3 47 -4 47 -6 0 -11 -18 -11 -40 0 -43 -29 -80 -63 -80 -15 0 -18 5
-13 25 8 30 -10 34 -19 5 -3 -11 -12 -20 -20 -20 -10 0 -7 19 12 77 18 54 26
102 27 158 1 79 0 81 -66 217 l-66 137 34 68 c20 38 37 89 40 113 l4 45 -18
-55 c-37 -109 -79 -171 -154 -226 -27 -20 -47 -38 -44 -41 7 -7 45 16 86 53
l39 35 16 -31 c9 -17 13 -36 9 -42 -11 -17 -164 -85 -233 -103 -80 -20 -281
-35 -281 -20 0 5 11 34 25 63 14 30 29 80 34 112 11 65 -1 176 -19 194 -9 8
-10 2 -4 -24 5 -19 9 -73 8 -120 0 -71 -5 -93 -26 -135 -14 -27 -47 -111 -73
-185 -47 -134 -47 -135 -40 -229 4 -65 3 -91 -4 -86 -6 3 -11 13 -11 21 0 8
-5 12 -10 9 -6 -4 -8 -11 -4 -16 13 -21 -8 -70 -36 -84 -42 -21 -53 -19 -48
10 6 31 1 31 -22 2 -24 -29 -33 -19 -19 22 9 26 16 32 33 28 74 -17 91 -19 80
-7 -6 6 -30 14 -53 17 -38 5 -40 7 -33 32 4 14 6 51 5 81 -5 168 -12 259 -22
295 -11 44 -54 109 -64 98 -4 -3 5 -19 18 -35 14 -16 25 -36 25 -43 0 -20
-101 6 -205 54 -78 36 -218 121 -229 139 -2 4 13 6 35 4 45 -5 89 4 89 17 0 5
-26 7 -59 4 -70 -7 -183 16 -141 28 l25 7 -25 1 c-30 1 -140 52 -157 73 -11
13 -4 14 61 10 64 -4 81 -1 123 19 26 13 55 22 62 20 12 -2 13 0 2 12 -11 14
-18 13 -59 -9 -55 -27 -132 -43 -132 -25 0 6 4 11 10 11 5 0 12 15 15 34 8 40
-14 90 -53 123 l-26 22 37 53 c30 44 34 55 23 63 -12 9 -11 19 5 64 10 29 24
60 31 70 33 44 77 85 109 101 47 24 183 60 228 60 l34 0 -20 -22 c-30 -33 -53
-108 -34 -108 5 0 12 15 15 34 4 19 15 45 26 59 18 22 166 117 183 117 4 0 7
-24 7 -54 0 -29 5 -78 10 -107 22 -114 -17 -199 -91 -199 -21 0 -39 -4 -39
-10 0 -15 73 -12 96 5 48 33 69 147 44 234 l-9 33 37 -7 c58 -11 139 -41 172
-65 17 -12 34 -19 38 -15 7 7 -2 13 -70 52 l-39 21 108 25 c170 40 254 50 366
44 124 -6 207 -34 300 -100 79 -57 112 -94 148 -171 42 -88 52 -154 46 -286
-4 -96 -11 -134 -42 -230 -32 -98 -36 -123 -31 -173 4 -42 0 -77 -14 -128 -15
-54 -18 -91 -15 -162 3 -51 5 -94 5 -97 0 -3 5 2 11 10 6 9 7 47 4 96 -5 67
-3 96 15 157 17 64 19 82 10 119 -10 39 -8 53 19 132 75 217 80 431 12 564
l-20 40 25 6 c14 4 34 4 45 1 23 -7 79 24 79 43 0 10 -4 12 -12 4 -7 -5 -26
-10 -41 -10 -22 0 -27 4 -21 17 18 42 15 68 -11 100 -34 39 -69 39 -98 -1 -20
-27 -20 -29 -4 -63 11 -24 21 -33 32 -29 18 7 18 9 4 36 -7 12 -7 24 -2 29 14
14 43 0 43 -21 0 -18 -44 -60 -62 -60 -6 0 -37 25 -71 55 -174 157 -391 183
-758 90 -87 -22 -104 -23 -154 -13 l-56 11 3 36 c2 36 -7 61 -20 61 -4 -1 -38
-19 -75 -42z m-557 -28 c71 -22 110 -43 135 -72 l20 -23 -32 -33 c-30 -31 -33
-32 -33 -12 0 11 -7 34 -15 51 -17 32 -89 89 -113 89 -9 0 5 -13 29 -29 44
-27 89 -84 89 -111 0 -10 -3 -10 -15 0 -9 7 -18 10 -22 7 -3 -4 4 -15 17 -25
l22 -18 -24 -48 -24 -48 -36 34 c-39 36 -58 88 -58 156 0 23 -7 59 -15 78 -14
34 -14 36 3 29 9 -4 42 -15 72 -25z m1762 -67 c29 -26 24 -79 -11 -114 -33
-33 -43 -35 -61 -14 -10 12 -9 15 7 15 31 0 65 43 61 76 -3 25 -7 29 -33 29
-27 0 -30 -3 -29 -32 1 -18 -2 -30 -7 -27 -13 8 -11 58 3 72 17 17 48 15 70
-5z m51 -130 c-7 -2 -21 -2 -30 0 -10 3 -4 5 12 5 17 0 24 -2 18 -5z m-1789
-293 c41 -46 48 -96 18 -123 -15 -13 -28 -15 -71 -8 -59 9 -69 16 -72 51 -4
46 1 67 22 94 29 37 60 33 103 -14z m1381 -440 c-3 -5 -1 -27 5 -48 9 -34 7
-47 -14 -93 -13 -30 -27 -84 -31 -121 -4 -38 -11 -68 -16 -68 -5 0 -9 6 -9 13
0 6 -9 -7 -19 -29 -21 -46 -24 -48 -64 -58 -28 -7 -29 -6 -22 24 8 37 -2 39
-16 3 -6 -16 -13 -23 -16 -17 -2 7 10 38 26 70 17 33 37 87 45 121 13 58 13
65 -5 100 -11 21 -16 39 -12 41 5 1 37 17 73 36 72 36 84 41 75 26z"/>
<path d="M404 1265 c-4 -8 -3 -23 0 -32 6 -15 8 -15 22 -2 8 9 12 23 8 32 -8
21 -23 22 -30 2z"/>
<path d="M486 1265 c-7 -21 3 -45 20 -45 18 0 18 34 0 49 -10 9 -15 8 -20 -4z"/>
<path d="M1734 531 c3 -5 19 -14 36 -19 37 -14 41 4 4 18 -32 12 -47 13 -40 1z"/>
<path d="M1043 1780 c-88 -67 -108 -117 -78 -195 18 -49 35 -59 35 -21 0 13
10 35 21 50 12 15 19 29 16 32 -9 9 -47 -39 -47 -60 0 -17 -2 -18 -10 -6 -16
25 -11 93 10 128 11 17 23 32 27 32 5 1 28 19 52 40 56 51 41 51 -26 0z"/>
<path d="M777 1503 c-14 -14 -6 -19 22 -15 17 2 40 -3 55 -13 32 -21 34 -13 4
15 -21 19 -68 27 -81 13z"/>
<path d="M795 1452 c-6 -4 -22 -23 -35 -42 l-24 -35 25 22 c18 17 28 20 36 12
14 -14 53 -2 53 16 0 8 -9 19 -19 25 -23 12 -23 12 -36 2z m35 -22 c0 -5 -4
-10 -9 -10 -6 0 -13 5 -16 10 -3 6 1 10 9 10 9 0 16 -4 16 -10z"/>
<path d="M540 1370 c0 -5 6 -10 13 -10 8 0 22 -9 32 -20 10 -11 21 -18 23 -15
3 3 -5 16 -18 30 -24 25 -50 33 -50 15z"/>
<path d="M514 1347 c11 -7 30 -23 43 -36 18 -19 23 -21 23 -7 0 16 -55 56 -75
55 -5 0 -1 -6 9 -12z"/>
<path d="M1040 1257 c0 -51 -46 -131 -85 -149 -14 -6 -25 -15 -25 -20 0 -31
73 30 101 84 24 47 37 128 20 128 -6 0 -11 -18 -11 -43z"/>
<path d="M1127 1123 c-10 -51 -65 -114 -118 -136 -49 -21 -69 -45 -26 -31 45
14 76 34 110 74 32 38 65 120 47 120 -4 0 -10 -12 -13 -27z"/>
<path d="M370 1126 c0 -2 7 -7 16 -10 8 -3 12 -2 9 4 -6 10 -25 14 -25 6z"/>
<path d="M1045 1069 c-4 -6 -5 -12 -2 -15 2 -3 7 2 10 11 7 17 1 20 -8 4z"/>
<path d="M517 1049 c7 -7 15 -10 18 -7 3 3 -2 9 -12 12 -14 6 -15 5 -6 -5z"/>
<path d="M618 973 c7 -3 16 -2 19 1 4 3 -2 6 -13 5 -11 0 -14 -3 -6 -6z"/>
<path d="M1181 894 c0 -11 3 -14 6 -6 3 7 2 16 -1 19 -3 4 -6 -2 -5 -13z"/>
<path d="M981 614 c0 -11 3 -14 6 -6 3 7 2 16 -1 19 -3 4 -6 -2 -5 -13z"/>
<path d="M2030 480 c0 -5 6 -10 13 -10 6 0 23 -3 37 -6 24 -5 24 -5 6 10 -22
18 -56 21 -56 6z"/>
<path d="M990 442 c0 -40 -25 -70 -66 -78 -40 -7 -52 -1 -34 20 6 9 10 21 8
28 -3 7 -12 -1 -22 -20 -27 -51 -9 -62 66 -42 41 12 53 27 63 83 5 25 4 37 -4
37 -6 0 -11 -12 -11 -28z"/>
<path d="M904 441 c8 -12 66 -32 66 -22 0 8 -44 31 -61 31 -6 0 -8 -4 -5 -9z"/>
<path d="M1015 359 c-4 -6 -5 -12 -2 -15 2 -3 7 2 10 11 7 17 1 20 -8 4z"/>
<path d="M1016 322 c-3 -5 1 -9 9 -9 8 0 12 4 9 9 -3 4 -7 8 -9 8 -2 0 -6 -4
-9 -8z"/>
</g>
</svg>
