<?xml version="1.0" standalone="no"?>
<!DOCTYPE svg PUBLIC "-//W3C//DTD SVG 20010904//EN"
 "http://www.w3.org/TR/2001/REC-SVG-20010904/DTD/svg10.dtd">
<svg version="1.0" xmlns="http://www.w3.org/2000/svg"
 width="239.000000pt" height="302.000000pt" viewBox="0 0 239.000000 302.000000"
 preserveAspectRatio="xMidYMid meet">
<g transform="translate(0.000000,302.000000) scale(0.100000,-0.100000)"
fill="#000000" stroke="none">
<path d="M1180 2641 c0 -6 4 -12 8 -15 5 -3 9 1 9 9 0 8 -4 15 -9 15 -4 0 -8
-4 -8 -9z"/>
<path d="M1037 2531 c-144 -151 -208 -284 -223 -471 l-7 -80 -32 0 c-51 0
-157 -37 -206 -71 -63 -45 -86 -74 -130 -168 -22 -46 -53 -99 -69 -118 -41
-46 -46 -76 -24 -126 11 -23 18 -45 17 -49 -2 -5 1 -8 6 -8 5 0 25 -16 45 -36
35 -35 39 -36 89 -31 55 5 92 -6 102 -30 3 -9 0 -44 -6 -79 -26 -150 5 -274
89 -364 41 -43 42 -44 48 -137 l7 -93 -38 0 c-47 0 -99 -24 -113 -53 -18 -36
-24 -67 -14 -67 5 0 13 16 16 35 9 44 38 64 106 72 l52 6 -4 94 c-2 51 -1 92
2 90 3 -2 36 -18 74 -36 l68 -34 -6 -63 c-9 -85 -12 -91 -53 -97 -39 -7 -83
-42 -83 -66 1 -12 3 -11 12 4 17 31 39 45 74 45 42 0 50 12 62 90 10 61 8 71
-26 179 -20 63 -37 110 -39 104 -2 -6 8 -45 21 -89 14 -43 24 -80 22 -82 -8
-8 -129 61 -166 94 -46 42 -96 136 -106 201 -4 25 -1 91 6 147 l13 101 66 -3
c36 -2 76 0 88 5 15 5 -5 8 -60 9 -92 0 -163 23 -154 49 4 8 2 17 -3 20 -6 4
-10 -1 -10 -9 0 -19 -30 -36 -64 -36 -23 0 -86 43 -86 59 0 4 14 5 31 3 18 -3
29 -1 26 4 -3 6 -20 11 -39 12 -30 2 -58 23 -58 44 0 4 11 10 25 14 17 4 25
13 25 27 0 21 -1 20 -25 -6 -14 -15 -28 -27 -30 -27 -3 0 -5 15 -5 34 0 23 9
45 27 67 15 18 50 78 78 133 41 83 59 107 99 137 69 52 146 79 244 86 45 3 82
10 82 14 0 5 -14 6 -31 2 l-32 -6 7 64 c13 112 36 202 70 274 38 81 135 205
206 265 l49 41 7 -47 c4 -26 4 -78 1 -116 -6 -68 -7 -70 -70 -138 -67 -73
-128 -177 -173 -297 -14 -37 -30 -74 -36 -81 -6 -7 -8 -15 -5 -18 7 -7 36 49
75 149 42 104 91 178 170 260 101 103 258 217 301 217 17 0 7 -71 -26 -200
-50 -196 -131 -311 -294 -421 -97 -65 -106 -74 -83 -83 8 -3 26 -31 40 -61 20
-43 25 -68 22 -110 -2 -42 0 -55 11 -55 8 0 44 -16 79 -36 l66 -36 56 16 c74
21 220 21 291 0 88 -26 169 -72 231 -131 117 -112 169 -232 171 -397 1 -56 -1
-114 -6 -131 -5 -23 -3 -20 12 11 25 54 64 84 109 84 26 0 33 3 25 11 -16 16
-67 2 -96 -25 l-24 -23 -6 96 c-14 260 -189 467 -445 527 -79 19 -204 14 -270
-10 l-42 -15 -74 40 c-64 34 -73 42 -69 63 7 35 -23 130 -52 165 l-26 30 91
62 c171 116 246 228 301 445 34 134 37 182 12 191 -22 8 -101 -34 -188 -100
l-70 -54 3 90 c4 101 -2 137 -22 137 -7 0 -56 -45 -109 -99z"/>
<path d="M1243 2515 c0 -8 4 -12 9 -9 5 3 6 10 3 15 -9 13 -12 11 -12 -6z"/>
<path d="M910 2445 c-7 -8 -17 -12 -23 -8 -6 4 -7 1 -3 -6 6 -9 13 -8 27 5 10
9 19 19 19 21 0 7 -8 2 -20 -12z"/>
<path d="M1191 2348 c-93 -91 -131 -160 -175 -318 -13 -47 -27 -94 -32 -104
-5 -13 -4 -17 4 -12 6 4 21 39 32 79 55 192 104 284 194 363 28 24 46 44 41
44 -6 0 -34 -24 -64 -52z"/>
<path d="M920 2327 c0 -2 6 -10 14 -16 11 -9 16 -9 22 1 4 7 4 10 -1 6 -4 -4
-14 -3 -22 3 -7 6 -13 9 -13 6z"/>
<path d="M966 2292 c-2 -4 -1 -14 4 -22 7 -11 9 -9 7 8 -1 24 -3 26 -11 14z"/>
<path d="M1006 2291 c-4 -5 -2 -12 3 -15 5 -4 12 -2 15 3 4 5 2 12 -3 15 -5 4
-12 2 -15 -3z"/>
<path d="M1151 2256 c-9 -11 -9 -16 1 -22 7 -4 10 -4 6 1 -4 4 -3 14 3 22 6 7
9 13 6 13 -2 0 -10 -6 -16 -14z"/>
<path d="M1283 2215 c0 -6 6 -12 12 -12 6 0 12 6 12 12 0 6 -6 12 -12 12 -6 0
-12 -6 -12 -12z"/>
<path d="M1257 2129 c7 -7 15 -10 18 -7 3 3 -2 9 -12 12 -14 6 -15 5 -6 -5z"/>
<path d="M1230 2111 c0 -5 5 -13 10 -16 6 -3 10 -2 10 4 0 5 -4 13 -10 16 -5
3 -10 2 -10 -4z"/>
<path d="M1145 2050 c-4 -6 -12 -7 -18 -3 -7 4 -6 -1 2 -10 15 -19 24 -16 27
8 3 17 -2 19 -11 5z"/>
<path d="M1159 2013 c-13 -16 -12 -17 4 -4 9 7 17 15 17 17 0 8 -8 3 -21 -13z"/>
<path d="M937 1917 c-3 -8 1 -14 8 -14 7 0 11 6 8 14 -3 7 -6 13 -8 13 -2 0
-5 -6 -8 -13z"/>
<path d="M633 1738 c-11 -13 -30 -39 -42 -58 l-23 -35 24 25 c22 24 24 24 41
8 22 -23 39 -23 68 1 23 19 24 19 5 40 -11 12 -26 21 -35 20 -11 0 -9 -4 7
-11 12 -6 22 -17 22 -24 0 -7 -10 -19 -22 -25 -22 -12 -22 -11 -5 8 16 19 14
33 -5 33 -5 0 -6 -4 -3 -10 3 -5 -1 -10 -10 -10 -9 0 -13 -4 -10 -10 3 -5 1
-10 -4 -10 -16 0 -13 16 4 30 12 10 13 15 3 21 -26 16 39 20 77 5 20 -9 42
-13 48 -9 11 7 -65 33 -99 33 -11 0 -30 -10 -41 -22z m0 -23 c-3 -9 -8 -14
-10 -11 -3 3 -2 9 2 15 9 16 15 13 8 -4z"/>
<path d="M1183 1635 c0 -8 4 -12 9 -9 5 3 6 10 3 15 -9 13 -12 11 -12 -6z"/>
<path d="M445 1571 c-3 -5 -2 -12 3 -15 5 -3 9 1 9 9 0 17 -3 19 -12 6z"/>
<path d="M1720 1566 c0 -3 9 -10 20 -16 11 -6 20 -8 20 -6 0 3 -9 10 -20 16
-11 6 -20 8 -20 6z"/>
<path d="M1686 1492 c-3 -5 1 -9 9 -9 8 0 12 4 9 9 -3 4 -7 8 -9 8 -2 0 -6 -4
-9 -8z"/>
<path d="M525 1440 c-3 -5 -1 -10 4 -10 6 0 11 5 11 10 0 6 -2 10 -4 10 -3 0
-8 -4 -11 -10z"/>
<path d="M889 1417 c-19 -17 -44 -37 -55 -44 -10 -6 -14 -12 -8 -12 17 -1 75
41 92 67 19 30 14 28 -29 -11z"/>
<path d="M1905 1409 c-4 -6 -5 -12 -2 -15 2 -3 7 2 10 11 7 17 1 20 -8 4z"/>
<path d="M780 1390 c-9 -6 -10 -10 -3 -10 6 0 15 5 18 10 8 12 4 12 -15 0z"/>
<path d="M919 1383 c-13 -16 -12 -17 4 -4 9 7 17 15 17 17 0 8 -8 3 -21 -13z"/>
<path d="M936 1348 c3 -5 10 -6 15 -3 13 9 11 12 -6 12 -8 0 -12 -4 -9 -9z"/>
<path d="M1860 1293 c0 -6 8 -17 18 -24 16 -13 16 -13 2 6 -8 11 -16 22 -17
24 -2 2 -3 0 -3 -6z"/>
<path d="M1466 1148 c-60 -16 -140 -100 -160 -167 -9 -30 -16 -69 -16 -86 0
-78 56 -186 117 -227 l28 -18 -35 6 c-19 3 -60 12 -90 19 -30 7 -73 16 -95 19
-99 16 -96 15 -81 44 19 38 28 82 17 82 -5 0 -12 -15 -15 -34 -4 -19 -28 -67
-54 -108 -72 -110 -97 -155 -79 -138 9 9 39 51 66 93 27 43 52 74 55 69 3 -5
43 -15 88 -22 99 -15 140 -28 92 -29 -53 -1 -143 -79 -132 -112 3 -8 12 2 23
24 31 66 75 80 240 80 115 -1 129 1 78 7 -84 12 -117 31 -161 97 -34 51 -37
63 -40 137 -3 73 -1 86 25 135 35 67 94 111 157 118 25 3 43 9 40 14 -6 11
-17 10 -68 -3z"/>
<path d="M1185 1034 c10 -90 15 -94 15 -11 0 37 -5 69 -11 73 -8 4 -9 -14 -4
-62z"/>
<path d="M1421 1046 c-8 -10 -9 -16 -1 -21 5 -3 10 -5 11 -3 4 18 7 38 4 38
-1 0 -8 -6 -14 -14z"/>
<path d="M663 1005 c0 -7 6 -11 14 -8 7 3 13 6 13 8 0 2 -6 5 -13 8 -8 3 -14
-1 -14 -8z"/>
<path d="M759 913 c-13 -17 -13 -17 6 -3 11 8 22 16 24 17 2 2 0 3 -6 3 -6 0
-17 -8 -24 -17z"/>
<path d="M650 886 c0 -2 8 -10 18 -17 15 -13 16 -12 3 4 -13 16 -21 21 -21 13z"/>
<path d="M1370 771 c0 -6 4 -13 10 -16 6 -3 7 1 4 9 -7 18 -14 21 -14 7z"/>
<path d="M1940 759 c-23 -42 -83 -99 -104 -99 -19 0 -21 -4 -17 -57 3 -51 5
-54 12 -28 5 16 6 38 3 50 -8 33 40 46 86 23 19 -10 48 -18 65 -17 l30 1 -35
9 c-19 6 -47 15 -62 20 l-26 11 34 45 c31 41 41 63 29 63 -2 0 -9 -9 -15 -21z"/>
<path d="M1052 740 c0 -16 3 -30 8 -30 5 0 6 7 3 17 -5 12 -3 14 8 8 12 -7 12
-6 -1 11 -8 10 -15 20 -16 22 0 1 -1 -11 -2 -28z"/>
<path d="M1416 752 c-3 -5 1 -9 9 -9 8 0 12 4 9 9 -3 4 -7 8 -9 8 -2 0 -6 -4
-9 -8z"/>
<path d="M781 704 c0 -11 3 -14 6 -6 3 7 2 16 -1 19 -3 4 -6 -2 -5 -13z"/>
<path d="M565 651 c-3 -5 -2 -12 3 -15 5 -3 9 1 9 9 0 17 -3 19 -12 6z"/>
<path d="M736 631 c-3 -5 2 -15 12 -22 15 -12 16 -12 5 2 -7 9 -10 19 -6 22 3
4 4 7 0 7 -3 0 -8 -4 -11 -9z"/>
<path d="M1126 583 c-6 -14 -5 -15 5 -6 7 7 10 15 7 18 -3 3 -9 -2 -12 -12z"/>
<path d="M637 583 c-4 -3 -7 -11 -7 -17 0 -6 5 -5 12 2 6 6 9 14 7 17 -3 3 -9
2 -12 -2z"/>
<path d="M1058 563 c6 -2 9 -10 6 -15 -4 -7 -2 -8 5 -4 13 9 5 26 -12 25 -9 0
-8 -2 1 -6z"/>
<path d="M1267 553 c-4 -3 -7 -11 -7 -17 0 -6 5 -5 12 2 6 6 9 14 7 17 -3 3
-9 2 -12 -2z"/>
<path d="M820 540 c0 -5 5 -10 10 -10 6 0 10 5 10 10 0 6 -4 10 -10 10 -5 0
-10 -4 -10 -10z"/>
<path d="M1206 533 c-6 -14 -5 -15 5 -6 7 7 10 15 7 18 -3 3 -9 -2 -12 -12z"/>
<path d="M1124 529 c-3 -6 -2 -15 3 -20 5 -5 9 -1 9 11 0 23 -2 24 -12 9z"/>
<path d="M804 479 c0 -13 3 -15 13 -7 7 6 13 12 13 13 0 2 -6 5 -13 8 -7 3
-13 -3 -13 -14z"/>
</g>
</svg>
