<?xml version="1.0" standalone="no"?>
<!DOCTYPE svg PUBLIC "-//W3C//DTD SVG 20010904//EN"
 "http://www.w3.org/TR/2001/REC-SVG-20010904/DTD/svg10.dtd">
<svg version="1.0" xmlns="http://www.w3.org/2000/svg"
 width="240.000000pt" height="252.000000pt" viewBox="0 0 240.000000 252.000000"
 preserveAspectRatio="xMidYMid meet">
<g transform="translate(0.000000,252.000000) scale(0.100000,-0.100000)"
fill="#000000" stroke="none">
<path d="M1530 2202 c-8 -2 -21 -11 -27 -20 -15 -19 -17 -101 -3 -122 7 -11
10 3 9 46 -2 73 3 84 40 84 43 0 79 -34 96 -92 8 -29 15 -54 15 -58 0 -3 -42
-4 -92 -2 l-93 5 -34 40 c-55 63 -122 83 -181 52 -73 -38 -80 -160 -13 -236
12 -15 11 -19 -13 -38 -41 -32 -119 -51 -210 -51 -266 0 -462 -114 -577 -337
-77 -149 -98 -280 -73 -467 18 -137 17 -141 -69 -226 -125 -123 -125 -268 -1
-362 80 -59 138 -73 306 -72 142 0 150 2 365 56 121 31 256 62 300 68 145 22
315 -7 444 -76 36 -18 67 -31 70 -28 9 9 -69 73 -122 101 -91 46 -190 66 -332
66 -133 0 -172 -5 -444 -62 -183 -39 -269 -46 -350 -31 -206 38 -253 172 -97
277 l48 33 30 -21 c41 -30 111 -49 176 -49 41 0 58 -5 68 -18 11 -15 29 -17
161 -14 118 2 164 -1 226 -16 56 -14 80 -16 85 -8 4 6 21 11 37 11 43 0 46 34
5 69 -30 25 -37 26 -146 26 -74 0 -113 4 -109 10 8 12 234 13 330 0 38 -5 74
-6 80 -2 5 4 23 7 40 7 46 0 44 29 -4 60 -39 26 -42 27 -153 20 l-113 -7 34
33 c40 40 81 122 81 163 0 17 13 45 32 69 18 22 26 38 18 35 -8 -2 -48 -53
-87 -114 -81 -121 -159 -201 -233 -239 -69 -35 -78 -31 -35 16 58 65 80 121
79 209 0 61 -5 86 -28 132 -62 130 -199 188 -308 132 -15 -8 -28 -19 -28 -24
0 -5 15 -1 33 10 39 24 113 26 165 4 86 -35 142 -126 150 -240 4 -71 -8 -132
-31 -157 -7 -6 -25 -31 -41 -55 -16 -24 -46 -52 -65 -63 -27 -15 -30 -19 -11
-14 14 3 88 6 164 5 139 -1 196 -13 196 -41 0 -7 -8 -6 -22 3 -34 21 -58 29
-58 18 0 -6 6 -10 14 -10 19 0 76 -49 58 -50 -7 0 -29 7 -50 16 -64 27 -82 34
-82 29 0 -3 19 -14 43 -26 52 -27 33 -36 -30 -15 -35 12 -87 16 -207 16 -97 0
-167 5 -176 11 -11 8 -12 12 -2 16 6 2 12 9 12 14 0 6 -9 5 -22 -2 -31 -17
-143 -3 -205 26 -34 15 -62 38 -82 66 -17 23 -31 35 -31 27 0 -9 8 -26 19 -39
18 -23 18 -23 -18 -42 -82 -43 -131 -120 -116 -180 9 -35 62 -82 120 -108 37
-17 76 -23 150 -27 90 -4 122 0 325 43 272 57 432 68 571 41 88 -18 187 -59
229 -95 23 -19 21 -19 -20 3 -25 13 -79 35 -120 48 -65 20 -95 23 -220 22
-142 0 -149 -2 -365 -57 -121 -31 -249 -61 -285 -66 -241 -39 -452 40 -491
183 -20 72 11 149 92 233 83 87 83 87 69 220 -29 264 27 460 175 616 114 122
234 170 449 182 128 7 217 32 238 65 11 17 13 17 42 -1 45 -26 113 -40 113
-23 0 7 -4 11 -8 8 -20 -12 -96 20 -130 55 -75 74 -73 187 3 224 68 33 120 7
189 -95 23 -33 43 -57 46 -55 2 3 -3 17 -12 31 l-17 26 49 0 c145 0 265 -50
408 -172 84 -71 100 -89 100 -114 0 -36 -33 -48 -42 -15 -6 25 -26 28 -21 4 2
-10 13 -22 25 -29 l23 -11 -29 -27 c-22 -21 -42 -29 -80 -33 l-51 -5 22 35
c13 19 27 32 32 29 5 -3 6 0 2 6 -15 25 -106 -21 -165 -82 -47 -48 -33 -46 21
3 45 42 118 88 118 74 -1 -20 -50 -63 -67 -58 -10 3 -4 -1 12 -9 17 -8 44 -12
60 -10 29 4 29 4 -5 -10 -42 -17 -63 -20 -55 -6 3 6 2 10 -3 10 -6 0 -12 -7
-16 -15 -3 -8 -16 -15 -29 -15 -13 0 -46 -7 -74 -15 -64 -19 -99 -58 -157
-174 -57 -113 -91 -154 -120 -145 -40 12 -78 56 -73 87 2 15 0 30 -5 33 -8 5
-12 -25 -8 -56 4 -30 53 -68 123 -96 40 -16 76 -27 80 -26 5 1 6 -2 3 -7 -4
-5 -1 -13 5 -17 6 -3 17 -20 25 -38 7 -18 13 -24 14 -14 0 26 -32 88 -46 88
-6 0 -28 7 -48 15 l-37 16 24 29 c14 16 27 34 29 41 2 6 29 -15 61 -46 53 -54
57 -60 57 -105 0 -29 -6 -52 -15 -60 -12 -10 -13 -7 -5 22 12 40 12 48 3 48
-5 0 -9 -13 -10 -29 -1 -16 -9 -44 -17 -62 -9 -19 -13 -25 -11 -13 3 12 1 32
-5 45 -10 23 -10 22 -6 -6 3 -17 1 -37 -5 -45 -6 -11 -9 -6 -9 17 0 17 -4 34
-9 38 -11 6 -3 -65 9 -78 3 -4 14 -5 23 -1 20 7 77 91 77 113 0 45 -23 87 -71
130 l-51 46 39 85 c45 98 80 132 155 155 69 20 70 20 48 -18 -18 -31 -56 -126
-46 -116 3 3 22 39 43 80 32 61 43 75 65 77 26 3 27 1 23 -35 l-5 -38 11 40
c8 33 17 43 51 59 78 36 148 116 133 154 -8 22 13 32 74 32 30 0 51 3 48 6
-10 10 -108 5 -122 -6 -9 -7 -16 -6 -24 4 -14 17 -4 26 69 60 30 14 47 26 37
26 -21 0 -89 -33 -109 -54 -12 -12 -28 -3 -119 70 -73 58 -124 91 -169 107
-63 24 -65 26 -72 65 -15 89 -79 152 -138 134z m-235 -1228 c-16 -52 -57 -116
-94 -146 l-26 -20 127 4 c110 4 132 2 157 -13 16 -9 32 -23 36 -30 5 -8 4 -10
-3 -5 -7 4 -12 2 -12 -4 0 -6 -17 -2 -40 10 -21 11 -50 20 -62 19 -17 -1 -14
-3 12 -11 58 -16 62 -31 6 -24 -27 3 -110 6 -185 7 -131 0 -135 1 -111 17 57
38 129 115 164 177 21 36 40 65 42 65 2 0 -3 -21 -11 -46z"/>
<path d="M1407 800 c18 -4 40 -13 48 -20 9 -7 18 -10 21 -7 9 9 -52 37 -78 36
-17 -1 -15 -3 9 -9z"/>
<path d="M1640 2196 c0 -3 9 -10 20 -16 11 -6 20 -8 20 -6 0 3 -9 10 -20 16
-11 6 -20 8 -20 6z"/>
<path d="M1272 2104 c-12 -8 -22 -20 -22 -25 0 -6 12 -1 26 10 32 25 46 26 84
6 32 -17 54 -51 65 -105 l7 -35 -21 19 c-11 11 -21 14 -21 8 0 -6 5 -14 11
-17 5 -4 15 -19 22 -33 11 -26 11 -26 15 17 9 118 -89 209 -166 155z"/>
<path d="M1661 1983 c-1 -17 16 -25 25 -12 4 7 3 9 -4 5 -5 -3 -13 0 -15 6 -4
9 -6 10 -6 1z"/>
<path d="M1400 1919 c0 -17 26 -57 33 -49 2 3 -4 19 -14 35 -11 17 -19 23 -19
14z"/>
<path d="M1756 1911 c-3 -5 2 -15 12 -22 15 -12 16 -12 5 2 -7 9 -10 19 -6 22
3 4 4 7 0 7 -3 0 -8 -4 -11 -9z"/>
<path d="M1663 1871 c-10 -10 -25 -21 -33 -24 -10 -4 -7 -6 8 -6 12 -1 22 -5
22 -11 0 -20 38 -30 67 -18 26 11 35 14 48 17 3 0 -8 15 -25 31 -35 34 -62 38
-87 11z m75 -29 c-2 -11 -13 -17 -33 -17 -23 0 -31 5 -33 22 -2 14 3 23 15 25
26 6 55 -11 51 -30z"/>
<path d="M1603 1825 c0 -8 4 -12 9 -9 5 3 6 10 3 15 -9 13 -12 11 -12 -6z"/>
<path d="M918 1743 c7 -3 16 -2 19 1 4 3 -2 6 -13 5 -11 0 -14 -3 -6 -6z"/>
<path d="M1371 1725 c-1 -11 6 -30 14 -41 8 -12 12 -24 9 -27 -3 -3 4 -10 15
-17 26 -13 27 -7 4 20 -10 11 -23 35 -30 53 -8 23 -12 26 -12 12z"/>
<path d="M1810 1721 c-62 -20 -104 -41 -140 -71 -15 -12 2 -7 40 14 36 19 85
40 110 47 25 7 49 16 55 21 14 12 -2 9 -65 -11z"/>
<path d="M1420 1721 c0 -6 4 -13 10 -16 6 -3 7 1 4 9 -7 18 -14 21 -14 7z"/>
<path d="M567 1709 c7 -7 15 -10 18 -7 3 3 -2 9 -12 12 -14 6 -15 5 -6 -5z"/>
<path d="M690 1680 c-9 -6 -10 -10 -3 -10 6 0 15 5 18 10 8 12 4 12 -15 0z"/>
<path d="M1895 1650 c-3 -6 1 -7 9 -4 18 7 21 14 7 14 -6 0 -13 -4 -16 -10z"/>
<path d="M1706 1628 c3 -5 10 -6 15 -3 13 9 11 12 -6 12 -8 0 -12 -4 -9 -9z"/>
<path d="M595 1600 c-10 -11 -14 -20 -9 -20 5 0 15 9 22 20 7 11 11 20 9 20
-2 0 -12 -9 -22 -20z"/>
<path d="M1420 1613 c0 -11 100 -53 124 -53 26 0 15 10 -18 16 -14 2 -41 13
-59 24 -34 21 -47 25 -47 13z"/>
<path d="M446 1548 c3 -5 10 -6 15 -3 13 9 11 12 -6 12 -8 0 -12 -4 -9 -9z"/>
<path d="M400 1501 c0 -6 4 -13 10 -16 6 -3 7 1 4 9 -7 18 -14 21 -14 7z"/>
<path d="M1545 1469 c-4 -6 -5 -12 -2 -15 2 -3 7 2 10 11 7 17 1 20 -8 4z"/>
<path d="M1050 1406 c-10 -32 -7 -112 5 -124 3 -3 5 21 3 53 -1 33 4 70 10 83
7 12 8 22 3 22 -5 0 -15 -15 -21 -34z"/>
<path d="M1077 1314 c-24 -39 64 -154 133 -174 19 -5 84 -10 143 -10 107 0
109 -1 138 -29 16 -16 29 -39 29 -50 0 -12 5 -21 11 -21 13 0 2 37 -22 71 -29
41 -69 53 -155 46 -110 -10 -163 5 -213 58 -25 27 -44 59 -49 82 -4 21 -11 33
-15 27z"/>
<path d="M1444 1312 c-9 -5 -8 -11 2 -20 9 -8 14 -9 14 -2 0 6 6 8 13 4 8 -5
8 -2 -2 9 -7 9 -14 17 -15 17 0 0 -6 -4 -12 -8z"/>
<path d="M1416 1287 c3 -10 9 -15 12 -12 3 3 0 11 -7 18 -10 9 -11 8 -5 -6z"/>
<path d="M1154 1228 c-4 -7 -4 -10 1 -6 4 4 15 2 24 -5 14 -11 14 -10 2 6 -16
20 -18 21 -27 5z"/>
<path d="M1126 1137 c3 -10 9 -15 12 -12 3 3 0 11 -7 18 -10 9 -11 8 -5 -6z"/>
<path d="M1180 1110 c-9 -6 -10 -10 -3 -10 6 0 15 5 18 10 8 12 4 12 -15 0z"/>
<path d="M1645 1050 c-3 -5 -1 -10 4 -10 6 0 11 5 11 10 0 6 -2 10 -4 10 -3 0
-8 -4 -11 -10z"/>
<path d="M1630 1026 c0 -2 8 -10 18 -17 15 -13 16 -12 3 4 -13 16 -21 21 -21
13z"/>
<path d="M330 885 c-9 -11 -10 -19 -3 -26 8 -8 13 -7 18 2 5 8 4 10 -3 5 -16
-9 -15 7 0 22 7 7 9 12 6 12 -3 0 -11 -7 -18 -15z"/>
<path d="M260 836 c0 -2 8 -10 18 -17 15 -13 16 -12 3 4 -13 16 -21 21 -21 13z"/>
<path d="M415 809 c-4 -6 -5 -12 -2 -15 2 -3 7 2 10 11 7 17 1 20 -8 4z"/>
<path d="M345 711 c-3 -6 -10 -9 -15 -6 -5 3 -11 1 -15 -5 -4 -6 -11 -7 -17
-4 -7 4 -8 2 -4 -5 4 -6 13 -8 19 -4 7 4 18 8 25 9 18 3 27 12 20 20 -3 3 -9
0 -13 -5z"/>
<path d="M456 701 c-4 -5 -2 -12 3 -15 5 -4 12 -2 15 3 4 5 2 12 -3 15 -5 4
-12 2 -15 -3z"/>
<path d="M1503 695 c0 -8 4 -12 9 -9 5 3 6 10 3 15 -9 13 -12 11 -12 -6z"/>
<path d="M1466 688 c3 -5 10 -6 15 -3 13 9 11 12 -6 12 -8 0 -12 -4 -9 -9z"/>
<path d="M751 617 c-8 -10 -7 -14 4 -14 8 0 11 5 8 10 -4 6 1 8 11 4 10 -4 15
-3 11 3 -8 14 -20 12 -34 -3z"/>
<path d="M437 509 c13 -12 31 -15 30 -4 -1 5 -10 10 -20 10 -10 1 -14 -2 -10
-6z"/>
<path d="M305 489 c-4 -6 -5 -12 -2 -15 2 -3 7 2 10 11 7 17 1 20 -8 4z"/>
<path d="M788 483 c7 -3 16 -2 19 1 4 3 -2 6 -13 5 -11 0 -14 -3 -6 -6z"/>
<path d="M338 459 c9 -10 17 -19 17 -19 0 0 1 8 1 18 0 10 -8 19 -17 19 -16 2
-17 0 -1 -18z"/>
<path d="M1800 420 c6 -11 13 -20 16 -20 2 0 0 9 -6 20 -6 11 -13 20 -16 20
-2 0 0 -9 6 -20z"/>
<path d="M1685 381 c-3 -5 -2 -12 3 -15 5 -3 9 1 9 9 0 17 -3 19 -12 6z"/>
</g>
</svg>
