<?xml version="1.0" standalone="no"?>
<!DOCTYPE svg PUBLIC "-//W3C//DTD SVG 20010904//EN"
 "http://www.w3.org/TR/2001/REC-SVG-20010904/DTD/svg10.dtd">
<svg version="1.0" xmlns="http://www.w3.org/2000/svg"
 width="232.000000pt" height="271.000000pt" viewBox="0 0 232.000000 271.000000"
 preserveAspectRatio="xMidYMid meet">
<g transform="translate(0.000000,271.000000) scale(0.100000,-0.100000)"
fill="#000000" stroke="none">
<path d="M1209 2402 c-24 -16 -57 -43 -71 -61 -23 -27 -31 -30 -47 -21 -32 16
-214 13 -261 -6 l-40 -16 -57 51 c-88 78 -139 85 -169 23 -20 -42 -15 -141 9
-188 15 -29 15 -32 -14 -75 -67 -98 -72 -116 -75 -242 l-4 -118 -45 -70 c-45
-70 -53 -99 -36 -141 6 -13 12 -40 16 -60 6 -41 55 -98 84 -98 14 0 18 -9 19
-47 3 -74 58 -129 108 -108 15 7 12 9 -19 15 -52 10 -66 27 -74 89 -7 62 5 76
46 55 14 -8 56 -14 94 -14 66 0 80 -5 136 -46 2 -2 -7 -19 -19 -39 -23 -38
-73 -70 -91 -59 -6 4 -15 1 -19 -6 -5 -8 -10 -3 -14 14 -3 14 -11 26 -16 26
-13 0 -13 -6 6 -42 12 -22 19 -27 27 -19 6 6 22 11 36 11 26 0 101 70 101 95
0 10 10 15 30 15 36 0 49 -25 57 -111 4 -43 0 -70 -18 -120 -21 -56 -24 -82
-24 -199 0 -163 22 -244 96 -354 47 -69 199 -230 199 -210 0 5 -32 41 -71 79
-82 82 -153 183 -179 258 -46 129 -50 289 -12 410 l18 57 13 -65 c13 -64 61
-155 82 -155 6 0 0 13 -14 30 -33 38 -54 104 -67 210 -6 47 -13 96 -15 110 -3
14 20 -23 51 -83 32 -59 59 -105 61 -103 8 8 -107 225 -124 235 -15 9 -13 10
14 11 26 0 42 -10 84 -53 56 -57 52 -35 -5 25 -34 37 -34 38 -13 43 12 3 41
-1 63 -9 48 -17 102 -14 136 7 12 8 38 18 56 22 41 8 61 43 44 77 -10 22 -11
21 -11 -10 -1 -26 -7 -35 -28 -43 -16 -6 -45 -19 -65 -30 -45 -23 -83 -24
-133 -3 -34 14 -41 14 -77 -1 -40 -16 -108 -14 -188 5 -3 0 10 7 29 16 33 14
60 40 61 58 0 6 -12 -2 -27 -16 -33 -31 -69 -43 -86 -30 -7 5 -50 12 -95 14
-74 3 -86 6 -103 27 -29 35 -24 73 15 112 39 40 110 149 102 157 -7 7 -5 10
-50 -65 -37 -62 -51 -70 -83 -50 -7 5 -13 6 -13 3 0 -3 -16 2 -35 10 -19 7
-46 14 -60 14 -14 0 -25 3 -25 7 0 12 64 108 97 145 64 73 86 175 43 198 -15
8 -24 6 -40 -10 -49 -49 -9 58 58 158 61 89 174 168 247 172 20 1 20 2 1 9
-18 7 -16 9 14 19 18 7 51 12 73 12 l40 0 -23 -25 c-16 -17 -34 -25 -56 -25
-18 0 -36 -5 -39 -10 -4 -7 8 -10 36 -8 39 2 45 -1 87 -47 34 -39 41 -43 29
-20 -8 17 -27 41 -41 54 l-26 25 27 28 c23 24 34 28 82 28 76 0 89 -10 57 -41
-26 -25 -33 -39 -17 -39 4 0 30 28 56 61 63 80 124 119 185 119 38 0 51 -5 73
-28 37 -38 54 -121 38 -179 -12 -46 -55 -103 -76 -103 -7 0 -15 -7 -19 -15 -5
-14 -2 -13 24 0 l30 16 0 -30 c0 -16 -4 -33 -10 -36 -5 -3 -10 -14 -10 -23 1
-15 2 -15 15 2 8 11 15 39 15 62 0 24 4 45 8 48 5 3 29 -15 55 -40 91 -90 156
-327 130 -471 -12 -64 -9 -80 7 -39 29 76 1 296 -51 397 l-22 43 64 -54 c90
-75 96 -84 120 -162 42 -142 35 -323 -17 -437 -31 -68 -24 -79 9 -14 53 104
64 303 24 441 l-24 81 43 -31 c53 -38 80 -98 96 -210 15 -119 6 -251 -25 -327
-61 -151 -148 -252 -298 -349 -88 -57 -179 -146 -164 -161 3 -2 13 6 22 20 28
41 68 74 172 143 55 36 118 87 141 113 58 66 127 185 150 262 36 116 21 377
-26 448 -22 35 -6 28 83 -36 45 -33 79 -53 76 -46 -6 18 -47 49 -168 125 -115
73 -205 146 -290 234 -33 35 -68 67 -78 72 -17 10 -17 12 -1 49 11 27 15 59
12 101 -9 137 -110 195 -219 126z m-556 -13 c12 -7 48 -33 79 -59 l57 -47 -39
-13 c-21 -7 -65 -34 -98 -61 l-59 -48 -14 42 c-21 63 -18 150 5 176 22 24 38
26 69 10z m-109 -455 c10 -4 16 -18 16 -38 0 -45 -9 -50 -36 -19 -17 20 -20
31 -13 45 11 20 11 20 33 12z m-4 -113 c-5 -9 -18 -27 -29 -41 l-21 -25 0 25
c0 14 3 42 6 63 l7 38 23 -22 c17 -16 21 -26 14 -38z m-97 -250 c4 -16 -19
-48 -29 -39 -2 3 -7 18 -10 36 -6 27 -4 30 14 25 11 -2 22 -12 25 -22z m68 -8
c54 -19 54 -20 34 -47 -14 -18 -15 -18 -47 9 -34 28 -54 55 -42 55 3 0 28 -8
55 -17z m17 -108 c11 -33 10 -41 -2 -53 -13 -13 -19 -12 -47 4 -43 26 -70 101
-42 121 24 18 74 -22 91 -72z"/>
<path d="M630 2333 c0 -14 70 -76 78 -69 3 3 3 7 1 9 -2 1 -21 18 -42 36 -20
19 -37 30 -37 24z"/>
<path d="M520 1895 c7 -8 17 -15 22 -15 6 0 5 7 -2 15 -7 8 -17 15 -22 15 -6
0 -5 -7 2 -15z"/>
<path d="M779 2363 c-13 -16 -12 -17 4 -4 9 7 17 15 17 17 0 8 -8 3 -21 -13z"/>
<path d="M1257 2346 c-25 -14 -49 -21 -53 -18 -4 4 -4 2 -1 -4 3 -6 -3 -29
-15 -52 -13 -27 -18 -51 -14 -67 8 -32 35 -44 50 -22 11 14 13 14 23 -1 10
-14 12 -14 12 -2 0 8 -3 21 -8 29 -7 10 -12 8 -24 -9 -36 -52 -52 28 -17 85
18 29 54 53 100 67 9 3 10 7 3 11 -6 4 -31 -4 -56 -17z"/>
<path d="M1345 2309 c4 -20 1 -55 -5 -79 -13 -48 -72 -115 -93 -107 -8 3 -14
-1 -14 -9 0 -17 2 -17 35 0 57 30 92 92 92 165 0 20 -5 43 -11 51 -7 11 -8 5
-4 -21z"/>
<path d="M1027 2253 c-4 -3 -7 -11 -7 -17 0 -6 5 -5 12 2 6 6 9 14 7 17 -3 3
-9 2 -12 -2z"/>
<path d="M1118 2240 c-18 -21 -13 -26 11 -11 7 5 12 14 10 20 -3 7 -11 3 -21
-9z"/>
<path d="M756 2209 c-76 -41 -186 -175 -173 -212 2 -7 13 9 25 35 26 60 103
137 165 166 26 12 47 24 47 27 0 10 -26 3 -64 -16z"/>
<path d="M827 2180 c-32 -25 -70 -95 -87 -160 -6 -25 -13 -53 -16 -62 -3 -10
-1 -18 5 -18 6 0 11 9 11 20 0 41 44 151 75 187 28 33 34 36 49 24 9 -7 20
-28 25 -45 9 -31 9 -31 10 -4 1 15 -9 39 -22 53 l-22 27 -28 -22z"/>
<path d="M1022 2170 c0 -14 2 -19 5 -12 2 6 2 18 0 25 -3 6 -5 1 -5 -13z"/>
<path d="M1150 2171 c0 -6 4 -13 10 -16 6 -3 7 1 4 9 -7 18 -14 21 -14 7z"/>
<path d="M1462 2141 c-11 -7 -11 -9 0 -14 9 -3 15 1 15 9 0 8 -1 14 -1 14 -1
0 -7 -4 -14 -9z"/>
<path d="M707 2095 c-32 -40 -62 -105 -48 -105 5 0 12 11 15 25 4 14 22 43 41
64 19 21 35 41 35 45 0 15 -17 3 -43 -29z"/>
<path d="M486 2097 c3 -10 9 -15 12 -12 3 3 0 11 -7 18 -10 9 -11 8 -5 -6z"/>
<path d="M865 2070 c-3 -6 1 -7 9 -4 18 7 21 14 7 14 -6 0 -13 -4 -16 -10z"/>
<path d="M1130 2056 c0 -4 14 -25 30 -46 49 -62 69 -120 76 -217 12 -167 -29
-248 -153 -304 -35 -16 -63 -33 -63 -38 0 -19 120 42 159 82 59 58 75 114 69
246 -4 87 -9 116 -30 161 -24 52 -87 135 -88 116z"/>
<path d="M790 2026 c0 -2 7 -7 16 -10 8 -3 12 -2 9 4 -6 10 -25 14 -25 6z"/>
<path d="M855 2020 c-4 -7 -1 -16 6 -21 17 -10 26 8 11 23 -6 6 -12 6 -17 -2z"/>
<path d="M1114 1998 c14 -53 19 -277 7 -307 -17 -39 -60 -55 -113 -40 -22 6
-43 8 -46 4 -13 -12 25 -25 76 -25 96 0 117 47 101 232 -4 57 -8 115 -9 131 0
15 -5 27 -11 27 -7 0 -9 -9 -5 -22z"/>
<path d="M1419 1983 c-13 -16 -12 -17 4 -4 9 7 17 15 17 17 0 8 -8 3 -21 -13z"/>
<path d="M625 1979 c-4 -6 -5 -12 -2 -15 2 -3 7 2 10 11 7 17 1 20 -8 4z"/>
<path d="M1296 1965 c-9 -26 -7 -32 5 -12 6 10 9 21 6 23 -2 3 -7 -2 -11 -11z"/>
<path d="M1659 1953 c-13 -16 -12 -17 4 -4 9 7 17 15 17 17 0 8 -8 3 -21 -13z"/>
<path d="M1340 1953 c0 -4 13 -27 29 -50 21 -31 33 -69 46 -140 10 -54 20 -93
22 -86 9 26 -28 187 -52 229 -25 42 -45 64 -45 47z"/>
<path d="M1061 1895 c-4 -99 -18 -126 -84 -161 -57 -30 -89 -54 -71 -54 5 0
36 15 69 33 78 42 97 78 92 174 l-3 68 -3 -60z"/>
<path d="M771 1917 c-13 -21 -12 -21 5 -5 10 10 16 20 13 22 -3 3 -11 -5 -18
-17z"/>
<path d="M880 1932 c-28 -8 -81 -67 -103 -112 -11 -25 -23 -48 -25 -52 -2 -5
1 -8 6 -8 5 0 17 19 27 43 29 67 34 70 57 42 19 -25 68 -35 68 -15 0 6 -11 10
-23 10 -13 0 -32 8 -41 19 -16 18 -16 20 10 40 30 23 108 29 120 9 4 -6 -5
-21 -21 -35 -15 -13 -25 -27 -21 -30 10 -10 56 38 56 58 0 10 -6 21 -12 26
-15 9 -76 12 -98 5z"/>
<path d="M1436 1927 c3 -10 9 -15 12 -12 3 3 0 11 -7 18 -10 9 -11 8 -5 -6z"/>
<path d="M916 1895 c8 -20 -22 -31 -41 -15 -9 7 -19 10 -22 6 -11 -11 19 -26
47 -24 17 2 26 10 28 26 2 12 -1 22 -7 22 -6 0 -8 -7 -5 -15z"/>
<path d="M885 1890 c3 -5 8 -10 11 -10 2 0 4 5 4 10 0 6 -5 10 -11 10 -5 0 -7
-4 -4 -10z"/>
<path d="M1625 1851 c-3 -5 -2 -12 3 -15 5 -3 9 1 9 9 0 17 -3 19 -12 6z"/>
<path d="M959 1823 c-13 -16 -12 -17 4 -4 9 7 17 15 17 17 0 8 -8 3 -21 -13z"/>
<path d="M1005 1830 c-3 -5 -1 -10 4 -10 6 0 11 5 11 10 0 6 -2 10 -4 10 -3 0
-8 -4 -11 -10z"/>
<path d="M963 1794 c-13 -14 -18 -24 -11 -22 10 4 45 48 37 48 -2 0 -14 -12
-26 -26z"/>
<path d="M860 1776 c0 -2 7 -7 16 -10 8 -3 12 -2 9 4 -6 10 -25 14 -25 6z"/>
<path d="M1340 1776 c0 -5 12 -34 27 -64 20 -42 28 -74 31 -137 4 -77 3 -83
-22 -111 l-27 -29 4 58 c3 41 1 55 -7 47 -6 -6 -10 -41 -9 -83 4 -111 -16
-165 -90 -245 -75 -80 -107 -121 -107 -136 0 -6 13 5 28 24 15 19 55 65 88
102 63 68 94 132 94 191 0 19 8 36 24 48 51 40 57 142 15 254 -19 50 -48 99
-49 81z"/>
<path d="M406 1742 c-3 -5 1 -9 9 -9 8 0 12 4 9 9 -3 4 -7 8 -9 8 -2 0 -6 -4
-9 -8z"/>
<path d="M910 1740 c-9 -6 -10 -10 -3 -10 6 0 15 5 18 10 8 12 4 12 -15 0z"/>
<path d="M1840 1716 c0 -2 7 -7 16 -10 8 -3 12 -2 9 4 -6 10 -25 14 -25 6z"/>
<path d="M1071 1573 c18 -21 35 -40 37 -42 1 -2 5 -2 8 1 7 8 -55 78 -69 78
-6 0 5 -17 24 -37z"/>
<path d="M780 1573 c-46 -22 -52 -27 -35 -34 30 -11 35 -10 29 5 -6 16 43 36
87 36 16 0 29 5 29 10 0 18 -54 10 -110 -17z"/>
<path d="M815 1530 c-3 -5 -18 -10 -33 -10 -19 0 -23 -3 -15 -11 8 -8 17 -8
33 1 12 7 37 9 54 6 29 -5 30 -5 12 9 -23 17 -42 19 -51 5z"/>
<path d="M970 1507 c0 -2 6 -10 14 -16 11 -9 16 -9 22 1 4 7 4 10 -1 6 -4 -4
-14 -3 -22 3 -7 6 -13 9 -13 6z"/>
<path d="M878 1485 c-3 -3 -16 -8 -28 -10 -13 -3 -27 -9 -30 -15 -4 -6 -18 -8
-31 -5 -18 4 -31 0 -49 -19 -13 -15 -19 -26 -13 -26 6 0 16 7 24 16 8 10 22
14 40 10 17 -3 32 0 39 9 6 7 25 17 41 20 16 4 29 11 29 16 0 10 -13 12 -22 4z"/>
<path d="M950 1479 c-13 -9 -13 -10 0 -6 8 2 24 -3 35 -12 20 -16 20 -16 1 7
-11 12 -20 22 -20 22 -1 0 -8 -5 -16 -11z"/>
<path d="M1158 1463 c6 -2 18 -2 25 0 6 3 1 5 -13 5 -14 0 -19 -2 -12 -5z"/>
<path d="M1170 1446 c0 -2 7 -7 16 -10 8 -3 12 -2 9 4 -6 10 -25 14 -25 6z"/>
<path d="M1505 1391 c-3 -21 -20 -67 -36 -101 -16 -35 -23 -57 -15 -51 26 22
86 191 67 191 -5 0 -12 -18 -16 -39z"/>
<path d="M421 1383 c7 -12 15 -20 18 -17 3 2 -3 12 -13 22 -17 16 -18 16 -5
-5z"/>
<path d="M1646 1373 c-6 -14 -5 -15 5 -6 7 7 10 15 7 18 -3 3 -9 -2 -12 -12z"/>
<path d="M1726 1374 c-5 -14 -4 -15 9 -4 17 14 19 20 6 20 -5 0 -12 -7 -15
-16z"/>
<path d="M1527 1328 c-26 -83 -65 -135 -180 -241 -116 -107 -157 -163 -181
-246 -24 -81 -18 -96 7 -21 33 96 70 152 144 217 85 74 152 145 180 191 27 43
56 127 51 143 -2 6 -11 -13 -21 -43z"/>
<path d="M733 1325 c0 -8 4 -12 9 -9 5 3 6 10 3 15 -9 13 -12 11 -12 -6z"/>
<path d="M749 1303 c-13 -16 -12 -17 4 -4 9 7 17 15 17 17 0 8 -8 3 -21 -13z"/>
<path d="M1215 1249 c-4 -6 -5 -12 -2 -15 2 -3 7 2 10 11 7 17 1 20 -8 4z"/>
<path d="M510 1236 c0 -2 8 -10 18 -17 15 -13 16 -12 3 4 -13 16 -21 21 -21
13z"/>
<path d="M1009 1197 c6 -8 7 -18 3 -22 -4 -5 -1 -5 6 -1 10 6 10 11 1 22 -6 8
-14 14 -16 14 -3 0 0 -6 6 -13z"/>
<path d="M1373 1175 c0 -8 4 -12 9 -9 5 3 6 10 3 15 -9 13 -12 11 -12 -6z"/>
<path d="M1256 1161 c-11 -12 -14 -21 -7 -26 6 -3 12 -4 12 -1 1 3 2 9 3 14 1
4 5 13 9 20 12 18 2 15 -17 -7z"/>
<path d="M1881 1167 c0 -10 -15 -55 -33 -100 -26 -68 -42 -93 -94 -144 -34
-35 -57 -63 -51 -63 6 0 36 26 68 58 44 46 63 76 88 141 18 46 30 93 28 105
-3 16 -5 16 -6 3z"/>
<path d="M1494 1138 l-19 -23 23 19 c21 18 27 26 19 26 -2 0 -12 -10 -23 -22z"/>
<path d="M1425 1070 c-3 -5 -3 -10 2 -10 4 0 2 -4 -5 -9 -11 -7 -11 -9 0 -14
10 -3 14 3 14 19 0 26 -2 29 -11 14z"/>
<path d="M1160 1048 c0 -4 4 -8 9 -8 6 0 12 4 15 8 3 5 -1 9 -9 9 -8 0 -15 -4
-15 -9z"/>
<path d="M1917 1040 c-2 -8 -10 -35 -17 -59 -6 -23 -14 -50 -17 -60 -4 -11 -3
-13 4 -6 15 14 46 113 40 128 -3 8 -6 8 -10 -3z"/>
<path d="M1190 1037 c0 -2 6 -10 14 -16 11 -9 16 -9 22 1 4 7 4 10 -1 6 -4 -4
-14 -3 -22 3 -7 6 -13 9 -13 6z"/>
<path d="M1332 1008 c-7 -7 -12 -17 -12 -22 0 -6 5 -3 11 7 6 9 15 14 21 11 7
-4 8 -2 4 4 -9 15 -9 15 -24 0z"/>
<path d="M1286 972 c-2 -4 4 -8 14 -8 10 0 16 4 14 8 -3 4 -9 8 -14 8 -5 0
-11 -4 -14 -8z"/>
<path d="M1846 963 c-6 -14 -5 -15 5 -6 7 7 10 15 7 18 -3 3 -9 -2 -12 -12z"/>
<path d="M880 958 c-1 -38 99 -186 142 -209 13 -7 1 12 -29 45 -28 32 -65 83
-82 114 -17 32 -31 54 -31 50z"/>
<path d="M1015 950 c-3 -5 -1 -10 4 -10 6 0 11 5 11 10 0 6 -2 10 -4 10 -3 0
-8 -4 -11 -10z"/>
<path d="M1816 921 c-4 -5 -2 -12 3 -15 5 -4 12 -2 15 3 4 5 2 12 -3 15 -5 4
-12 2 -15 -3z"/>
<path d="M996 851 c-3 -4 4 -17 17 -27 l22 -19 -19 23 c-20 23 -10 31 14 10
12 -11 12 -10 1 5 -15 19 -27 22 -35 8z"/>
<path d="M1573 833 c-40 -15 -70 -30 -67 -34 5 -8 141 37 159 53 16 15 -18 8
-92 -19z"/>
<path d="M1351 743 c-36 -43 -71 -129 -71 -173 0 -16 5 -52 11 -79 l11 -51
-50 -48 c-48 -47 -93 -117 -92 -144 1 -7 12 8 25 33 34 65 145 166 224 202 55
26 79 31 141 32 52 0 85 -5 109 -17 45 -23 62 -22 33 2 -12 10 -47 24 -78 31
-77 17 -186 -6 -254 -55 l-48 -34 -6 36 c-18 110 4 204 61 264 15 15 24 30 21
33 -3 4 -20 -11 -37 -32z"/>
<path d="M784 697 c-50 -50 -94 -83 -146 -110 -71 -36 -143 -88 -217 -159 -45
-44 -107 -178 -82 -178 6 0 11 8 11 18 0 34 51 120 96 162 49 45 53 46 137 6
26 -13 47 -20 47 -16 0 13 -28 31 -75 49 -43 16 -45 18 -28 33 10 9 56 37 101
62 l84 46 19 -23 c10 -12 18 -25 19 -29 0 -11 122 -109 128 -103 3 3 -12 20
-34 37 -54 44 -114 109 -114 123 0 7 15 24 34 38 l34 26 6 -31 c6 -31 82 -115
94 -104 3 3 -11 21 -31 38 -20 18 -44 50 -52 70 -15 37 -14 38 16 73 56 63 26
45 -47 -28z"/>
<path d="M1721 754 c0 -11 3 -14 6 -6 3 7 2 16 -1 19 -3 4 -6 -2 -5 -13z"/>
<path d="M981 737 c2 -1 13 -9 24 -17 19 -14 19 -14 6 3 -7 9 -18 17 -24 17
-6 0 -8 -1 -6 -3z"/>
<path d="M1726 712 c-13 -41 -78 -79 -148 -86 -35 -4 -81 -15 -103 -25 -39
-17 -95 -72 -95 -93 0 -5 12 5 26 22 37 43 86 65 172 78 52 7 83 18 107 37 38
28 59 59 52 78 -2 7 -7 2 -11 -11z"/>
<path d="M1380 620 c-9 -6 -10 -10 -3 -10 6 0 15 5 18 10 8 12 4 12 -15 0z"/>
<path d="M1395 600 c-3 -6 1 -7 9 -4 18 7 21 14 7 14 -6 0 -13 -4 -16 -10z"/>
<path d="M726 523 c-6 -14 -5 -15 5 -6 7 7 10 15 7 18 -3 3 -9 -2 -12 -12z"/>
<path d="M1877 513 c-4 -3 -7 -17 -7 -29 0 -14 -13 -33 -32 -48 -23 -18 -28
-26 -16 -26 23 0 68 57 68 86 0 25 -2 28 -13 17z"/>
<path d="M765 501 c-3 -5 -2 -12 3 -15 5 -3 9 1 9 9 0 17 -3 19 -12 6z"/>
<path d="M946 482 c-2 -4 4 -8 14 -8 10 0 16 4 14 8 -3 4 -9 8 -14 8 -5 0 -11
-4 -14 -8z"/>
<path d="M616 467 c3 -10 9 -15 12 -12 3 3 0 11 -7 18 -10 9 -11 8 -5 -6z"/>
<path d="M1215 460 c-3 -6 1 -7 9 -4 18 7 21 14 7 14 -6 0 -13 -4 -16 -10z"/>
<path d="M1225 439 c-11 -16 -1 -19 13 -3 7 8 8 14 3 14 -5 0 -13 -5 -16 -11z"/>
<path d="M1004 405 c0 -13 3 -22 7 -19 8 4 6 30 -2 38 -3 3 -5 -5 -5 -19z"/>
<path d="M1762 370 c-23 -17 -42 -35 -42 -41 0 -6 13 0 29 13 15 12 37 28 47
34 11 7 16 14 13 18 -3 3 -25 -7 -47 -24z"/>
<path d="M325 379 c-4 -6 -5 -12 -2 -15 2 -3 7 2 10 11 7 17 1 20 -8 4z"/>
<path d="M968 343 c-21 -8 -38 -19 -38 -24 0 -12 1 -12 43 6 20 8 59 15 87 15
27 0 50 5 50 10 0 15 -101 11 -142 -7z"/>
<path d="M1256 318 c3 -5 10 -6 15 -3 13 9 11 12 -6 12 -8 0 -12 -4 -9 -9z"/>
<path d="M671 284 c-17 -14 -31 -30 -31 -36 0 -5 14 2 31 16 17 14 40 26 52
26 18 0 19 2 7 10 -21 14 -25 13 -59 -16z"/>
</g>
</svg>
